<?xml version="1.0" encoding="UTF-8" standalone="no"?>
<!DOCTYPE svg PUBLIC "-//W3C//DTD SVG 1.1//EN"
 "http://www.w3.org/Graphics/SVG/1.1/DTD/svg11.dtd">
<!-- Generated by graphviz version 9.0.0 (20230911.1827)
 -->
<!-- Pages: 1 -->
<svg width="435pt" height="385pt"
 viewBox="0.00 0.00 434.72 384.95" xmlns="http://www.w3.org/2000/svg" xmlns:xlink="http://www.w3.org/1999/xlink">
<g id="graph0" class="graph" transform="scale(1 1) rotate(0) translate(4 380.95)">
<polygon fill="white" stroke="none" points="-4,4 -4,-380.95 430.72,-380.95 430.72,4 -4,4"/>
<g id="clust1" class="cluster">
<title>cluster200</title>
<path fill="none" stroke="black" d="M20,-247.13C20,-247.13 209,-247.13 209,-247.13 215,-247.13 221,-253.13 221,-259.13 221,-259.13 221,-356.95 221,-356.95 221,-362.95 215,-368.95 209,-368.95 209,-368.95 20,-368.95 20,-368.95 14,-368.95 8,-362.95 8,-356.95 8,-356.95 8,-259.13 8,-259.13 8,-253.13 14,-247.13 20,-247.13"/>
<text text-anchor="middle" x="202.88" y="-254.33" font-family="Times,serif" font-size="14.00">200</text>
</g>
<g id="clust2" class="cluster">
<title>cluster200 x 44</title>
<path fill="none" stroke="black" d="M158,-8C158,-8 284,-8 284,-8 290,-8 296,-14 296,-20 296,-20 296,-223.23 296,-223.23 296,-229.23 290,-235.23 284,-235.23 284,-235.23 158,-235.23 158,-235.23 152,-235.23 146,-229.23 146,-223.23 146,-223.23 146,-20 146,-20 146,-14 152,-8 158,-8"/>
<text text-anchor="middle" x="264" y="-15.2" font-family="Times,serif" font-size="14.00">200 x 44</text>
</g>
<!-- sy -->
<g id="node1" class="node">
<title>sy</title>
<ellipse fill="none" stroke="black" cx="168" cy="-320.29" rx="44.72" ry="40.66"/>
<text text-anchor="middle" x="168" y="-331.74" font-family="Times,serif" font-size="14.00">sy</text>
<text text-anchor="middle" x="168" y="-315.24" font-family="Times,serif" font-size="14.00">~</text>
<text text-anchor="middle" x="168" y="-298.74" font-family="Times,serif" font-size="14.00">Uniform</text>
</g>
<!-- p -->
<g id="node6" class="node">
<title>p</title>
<polygon fill="none" stroke="black" points="266.12,-227.23 175.88,-227.23 175.88,-169.73 266.12,-169.73 266.12,-227.23"/>
<text text-anchor="middle" x="221" y="-209.93" font-family="Times,serif" font-size="14.00">p</text>
<text text-anchor="middle" x="221" y="-193.43" font-family="Times,serif" font-size="14.00">~</text>
<text text-anchor="middle" x="221" y="-176.93" font-family="Times,serif" font-size="14.00">Deterministic</text>
</g>
<!-- sy&#45;&gt;p -->
<g id="edge3" class="edge">
<title>sy&#45;&gt;p</title>
<path fill="none" stroke="black" d="M184.48,-282.04C190.68,-268.02 197.73,-252.07 203.98,-237.95"/>
<polygon fill="black" stroke="black" points="207.12,-239.51 207.96,-228.95 200.72,-236.68 207.12,-239.51"/>
</g>
<!-- sx -->
<g id="node2" class="node">
<title>sx</title>
<ellipse fill="none" stroke="black" cx="61" cy="-320.29" rx="44.72" ry="40.66"/>
<text text-anchor="middle" x="61" y="-331.74" font-family="Times,serif" font-size="14.00">sx</text>
<text text-anchor="middle" x="61" y="-315.24" font-family="Times,serif" font-size="14.00">~</text>
<text text-anchor="middle" x="61" y="-298.74" font-family="Times,serif" font-size="14.00">Uniform</text>
</g>
<!-- sx&#45;&gt;p -->
<g id="edge2" class="edge">
<title>sx&#45;&gt;p</title>
<path fill="none" stroke="black" d="M81.55,-283.91C90.3,-271.09 101.41,-257.28 114,-247.13 128.95,-235.09 147.43,-225.45 164.79,-218.07"/>
<polygon fill="black" stroke="black" points="166.06,-221.34 174.02,-214.34 163.44,-214.85 166.06,-221.34"/>
</g>
<!-- sigma -->
<g id="node3" class="node">
<title>sigma</title>
<ellipse fill="none" stroke="black" cx="275" cy="-320.29" rx="44.72" ry="40.66"/>
<text text-anchor="middle" x="275" y="-331.74" font-family="Times,serif" font-size="14.00">sigma</text>
<text text-anchor="middle" x="275" y="-315.24" font-family="Times,serif" font-size="14.00">~</text>
<text text-anchor="middle" x="275" y="-298.74" font-family="Times,serif" font-size="14.00">Uniform</text>
</g>
<!-- sigma&#45;&gt;p -->
<g id="edge1" class="edge">
<title>sigma&#45;&gt;p</title>
<path fill="none" stroke="black" d="M258.36,-282.37C252.04,-268.34 244.82,-252.33 238.43,-238.15"/>
<polygon fill="black" stroke="black" points="241.65,-236.78 234.35,-229.1 235.27,-239.65 241.65,-236.78"/>
</g>
<!-- psi -->
<g id="node4" class="node">
<title>psi</title>
<ellipse fill="none" stroke="black" cx="349" cy="-198.48" rx="44.72" ry="40.66"/>
<text text-anchor="middle" x="349" y="-209.93" font-family="Times,serif" font-size="14.00">psi</text>
<text text-anchor="middle" x="349" y="-193.43" font-family="Times,serif" font-size="14.00">~</text>
<text text-anchor="middle" x="349" y="-176.93" font-family="Times,serif" font-size="14.00">Uniform</text>
</g>
<!-- y -->
<g id="node7" class="node">
<title>y</title>
<ellipse fill="lightgrey" stroke="black" cx="221" cy="-81.16" rx="67" ry="40.66"/>
<text text-anchor="middle" x="221" y="-92.61" font-family="Times,serif" font-size="14.00">y</text>
<text text-anchor="middle" x="221" y="-76.11" font-family="Times,serif" font-size="14.00">~</text>
<text text-anchor="middle" x="221" y="-59.61" font-family="Times,serif" font-size="14.00">CustomDist_y</text>
</g>
<!-- psi&#45;&gt;y -->
<g id="edge5" class="edge">
<title>psi&#45;&gt;y</title>
<path fill="none" stroke="black" d="M317.69,-169.27C302.17,-155.28 283.14,-138.14 266.09,-122.78"/>
<polygon fill="black" stroke="black" points="268.79,-120.51 259.02,-116.41 264.11,-125.71 268.79,-120.51"/>
</g>
<!-- g0 -->
<g id="node5" class="node">
<title>g0</title>
<ellipse fill="none" stroke="black" cx="382" cy="-320.29" rx="44.72" ry="40.66"/>
<text text-anchor="middle" x="382" y="-331.74" font-family="Times,serif" font-size="14.00">g0</text>
<text text-anchor="middle" x="382" y="-315.24" font-family="Times,serif" font-size="14.00">~</text>
<text text-anchor="middle" x="382" y="-298.74" font-family="Times,serif" font-size="14.00">Uniform</text>
</g>
<!-- g0&#45;&gt;p -->
<g id="edge4" class="edge">
<title>g0&#45;&gt;p</title>
<path fill="none" stroke="black" d="M362.89,-283.36C354.19,-270.15 342.74,-256.22 329,-247.13 316.05,-238.57 309.52,-244.63 295,-239.13 288.89,-236.82 282.64,-234.1 276.5,-231.19"/>
<polygon fill="black" stroke="black" points="278.18,-228.12 267.67,-226.82 275.08,-234.39 278.18,-228.12"/>
</g>
<!-- p&#45;&gt;y -->
<g id="edge6" class="edge">
<title>p&#45;&gt;y</title>
<path fill="none" stroke="black" d="M221,-169.27C221,-158.44 221,-145.73 221,-133.41"/>
<polygon fill="black" stroke="black" points="224.5,-133.78 221,-123.78 217.5,-133.78 224.5,-133.78"/>
</g>
</g>
</svg>
