<?xml version="1.0" encoding="UTF-8" standalone="no"?>
<!DOCTYPE svg PUBLIC "-//W3C//DTD SVG 1.1//EN"
 "http://www.w3.org/Graphics/SVG/1.1/DTD/svg11.dtd">
<!-- Generated by graphviz version 12.0.0 (0)
 -->
<!-- Pages: 1 -->
<svg width="435pt" height="369pt"
 viewBox="0.00 0.00 434.72 369.13" xmlns="http://www.w3.org/2000/svg" xmlns:xlink="http://www.w3.org/1999/xlink">
<g id="graph0" class="graph" transform="scale(1 1) rotate(0) translate(4 365.13)">
<polygon fill="white" stroke="none" points="-4,4 -4,-365.13 430.72,-365.13 430.72,4 -4,4"/>
<g id="clust1" class="cluster">
<title>cluster111</title>
<path fill="none" stroke="black" d="M20,-231.32C20,-231.32 209,-231.32 209,-231.32 215,-231.32 221,-237.32 221,-243.32 221,-243.32 221,-341.13 221,-341.13 221,-347.13 215,-353.13 209,-353.13 209,-353.13 20,-353.13 20,-353.13 14,-353.13 8,-347.13 8,-341.13 8,-341.13 8,-243.32 8,-243.32 8,-237.32 14,-231.32 20,-231.32"/>
<text text-anchor="middle" x="202.88" y="-238.52" font-family="Times,serif" font-size="14.00">111</text>
</g>
<g id="clust2" class="cluster">
<title>cluster111 x 44</title>
<path fill="none" stroke="black" d="M178,-8C178,-8 264,-8 264,-8 270,-8 276,-14 276,-20 276,-20 276,-211.32 276,-211.32 276,-217.32 270,-223.32 264,-223.32 264,-223.32 178,-223.32 178,-223.32 172,-223.32 166,-217.32 166,-211.32 166,-211.32 166,-20 166,-20 166,-14 172,-8 178,-8"/>
<text text-anchor="middle" x="244" y="-15.2" font-family="Times,serif" font-size="14.00">111 x 44</text>
</g>
<!-- sx -->
<g id="node1" class="node">
<title>sx</title>
<ellipse fill="none" stroke="black" cx="61" cy="-304.48" rx="44.72" ry="40.66"/>
<text text-anchor="middle" x="61" y="-315.93" font-family="Times,serif" font-size="14.00">sx</text>
<text text-anchor="middle" x="61" y="-299.43" font-family="Times,serif" font-size="14.00">~</text>
<text text-anchor="middle" x="61" y="-282.93" font-family="Times,serif" font-size="14.00">Uniform</text>
</g>
<!-- p -->
<g id="node5" class="node">
<title>p</title>
<polygon fill="none" stroke="black" points="266.12,-215.32 175.88,-215.32 175.88,-157.82 266.12,-157.82 266.12,-215.32"/>
<text text-anchor="middle" x="221" y="-198.02" font-family="Times,serif" font-size="14.00">p</text>
<text text-anchor="middle" x="221" y="-181.52" font-family="Times,serif" font-size="14.00">~</text>
<text text-anchor="middle" x="221" y="-165.02" font-family="Times,serif" font-size="14.00">Deterministic</text>
</g>
<!-- sx&#45;&gt;p -->
<g id="edge2" class="edge">
<title>sx&#45;&gt;p</title>
<path fill="none" stroke="black" d="M81.39,-267.89C90.12,-255.04 101.26,-241.26 114,-231.32 128.94,-219.66 147.41,-210.65 164.78,-203.92"/>
<polygon fill="black" stroke="black" points="165.8,-207.27 173.98,-200.54 163.39,-200.7 165.8,-207.27"/>
</g>
<!-- sy -->
<g id="node2" class="node">
<title>sy</title>
<ellipse fill="none" stroke="black" cx="168" cy="-304.48" rx="44.72" ry="40.66"/>
<text text-anchor="middle" x="168" y="-315.93" font-family="Times,serif" font-size="14.00">sy</text>
<text text-anchor="middle" x="168" y="-299.43" font-family="Times,serif" font-size="14.00">~</text>
<text text-anchor="middle" x="168" y="-282.93" font-family="Times,serif" font-size="14.00">Uniform</text>
</g>
<!-- sy&#45;&gt;p -->
<g id="edge3" class="edge">
<title>sy&#45;&gt;p</title>
<path fill="none" stroke="black" d="M184.92,-266.48C190.84,-253.52 197.51,-238.94 203.49,-225.87"/>
<polygon fill="black" stroke="black" points="206.5,-227.7 207.48,-217.15 200.13,-224.78 206.5,-227.7"/>
</g>
<!-- g0 -->
<g id="node3" class="node">
<title>g0</title>
<ellipse fill="none" stroke="black" cx="275" cy="-304.48" rx="44.72" ry="40.66"/>
<text text-anchor="middle" x="275" y="-315.93" font-family="Times,serif" font-size="14.00">g0</text>
<text text-anchor="middle" x="275" y="-299.43" font-family="Times,serif" font-size="14.00">~</text>
<text text-anchor="middle" x="275" y="-282.93" font-family="Times,serif" font-size="14.00">Uniform</text>
</g>
<!-- g0&#45;&gt;p -->
<g id="edge1" class="edge">
<title>g0&#45;&gt;p</title>
<path fill="none" stroke="black" d="M257.77,-266.48C251.73,-253.52 244.93,-238.94 238.84,-225.87"/>
<polygon fill="black" stroke="black" points="242.17,-224.73 234.78,-217.14 235.83,-227.68 242.17,-224.73"/>
</g>
<!-- sigma -->
<g id="node4" class="node">
<title>sigma</title>
<ellipse fill="none" stroke="black" cx="382" cy="-304.48" rx="44.72" ry="40.66"/>
<text text-anchor="middle" x="382" y="-315.93" font-family="Times,serif" font-size="14.00">sigma</text>
<text text-anchor="middle" x="382" y="-299.43" font-family="Times,serif" font-size="14.00">~</text>
<text text-anchor="middle" x="382" y="-282.93" font-family="Times,serif" font-size="14.00">Uniform</text>
</g>
<!-- sigma&#45;&gt;p -->
<g id="edge4" class="edge">
<title>sigma&#45;&gt;p</title>
<path fill="none" stroke="black" d="M361.63,-267.87C352.9,-255.01 341.76,-241.24 329,-231.32 313.79,-219.49 294.95,-210.41 277.29,-203.66"/>
<polygon fill="black" stroke="black" points="278.5,-200.38 267.91,-200.28 276.13,-206.96 278.5,-200.38"/>
</g>
<!-- y -->
<g id="node6" class="node">
<title>y</title>
<ellipse fill="lightgrey" stroke="black" cx="221" cy="-81.16" rx="47.38" ry="40.66"/>
<text text-anchor="middle" x="221" y="-92.61" font-family="Times,serif" font-size="14.00">y</text>
<text text-anchor="middle" x="221" y="-76.11" font-family="Times,serif" font-size="14.00">~</text>
<text text-anchor="middle" x="221" y="-59.61" font-family="Times,serif" font-size="14.00">Binomial</text>
</g>
<!-- p&#45;&gt;y -->
<g id="edge5" class="edge">
<title>p&#45;&gt;y</title>
<path fill="none" stroke="black" d="M221,-157.58C221,-150.1 221,-141.77 221,-133.45"/>
<polygon fill="black" stroke="black" points="224.5,-133.71 221,-123.71 217.5,-133.71 224.5,-133.71"/>
</g>
</g>
</svg>
