<?xml version="1.0" encoding="UTF-8" standalone="no"?>
<!DOCTYPE svg PUBLIC "-//W3C//DTD SVG 1.1//EN"
 "http://www.w3.org/Graphics/SVG/1.1/DTD/svg11.dtd">
<!-- Generated by graphviz version 13.0.1 (20250615.1724)
 -->
<!-- Pages: 1 -->
<svg width="248pt" height="377pt"
 viewBox="0.00 0.00 248.00 377.00" xmlns="http://www.w3.org/2000/svg" xmlns:xlink="http://www.w3.org/1999/xlink">
<g id="graph0" class="graph" transform="scale(1 1) rotate(0) translate(4 372.95)">
<polygon fill="white" stroke="none" points="-4,4 -4,-372.95 244,-372.95 244,4 -4,4"/>
<g id="clust1" class="cluster">
<title>clusteroccasion (5)</title>
<path fill="none" stroke="black" d="M138,-137.82C138,-137.82 220,-137.82 220,-137.82 226,-137.82 232,-143.82 232,-149.82 232,-149.82 232,-247.63 232,-247.63 232,-253.63 226,-259.63 220,-259.63 220,-259.63 138,-259.63 138,-259.63 132,-259.63 126,-253.63 126,-247.63 126,-247.63 126,-149.82 126,-149.82 126,-143.82 132,-137.82 138,-137.82"/>
<text xml:space="preserve" text-anchor="middle" x="190.62" y="-145.02" font-family="Times,serif" font-size="14.00">occasion (5)</text>
</g>
<g id="clust2" class="cluster">
<title>cluster100</title>
<path fill="none" stroke="black" d="M20,-137.82C20,-137.82 106,-137.82 106,-137.82 112,-137.82 118,-143.82 118,-149.82 118,-149.82 118,-247.63 118,-247.63 118,-253.63 112,-259.63 106,-259.63 106,-259.63 20,-259.63 20,-259.63 14,-259.63 8,-253.63 8,-247.63 8,-247.63 8,-149.82 8,-149.82 8,-143.82 14,-137.82 20,-137.82"/>
<text xml:space="preserve" text-anchor="middle" x="99.88" y="-145.02" font-family="Times,serif" font-size="14.00">100</text>
</g>
<g id="clust3" class="cluster">
<title>cluster100 x 5</title>
<path fill="none" stroke="black" d="M77,-8C77,-8 163,-8 163,-8 169,-8 175,-14 175,-20 175,-20 175,-117.82 175,-117.82 175,-123.82 169,-129.82 163,-129.82 163,-129.82 77,-129.82 77,-129.82 71,-129.82 65,-123.82 65,-117.82 65,-117.82 65,-20 65,-20 65,-14 71,-8 77,-8"/>
<text xml:space="preserve" text-anchor="middle" x="146.38" y="-15.2" font-family="Times,serif" font-size="14.00">100 x 5</text>
</g>
<!-- psi -->
<g id="node1" class="node">
<title>psi</title>
<ellipse fill="none" stroke="black" cx="63" cy="-328.29" rx="28.81" ry="40.66"/>
<text xml:space="preserve" text-anchor="middle" x="63" y="-339.74" font-family="Times,serif" font-size="14.00">psi</text>
<text xml:space="preserve" text-anchor="middle" x="63" y="-323.24" font-family="Times,serif" font-size="14.00">~</text>
<text xml:space="preserve" text-anchor="middle" x="63" y="-306.74" font-family="Times,serif" font-size="14.00">Beta</text>
</g>
<!-- z -->
<g id="node3" class="node">
<title>z</title>
<ellipse fill="none" stroke="black" cx="63" cy="-210.98" rx="47.38" ry="40.66"/>
<text xml:space="preserve" text-anchor="middle" x="63" y="-222.43" font-family="Times,serif" font-size="14.00">z</text>
<text xml:space="preserve" text-anchor="middle" x="63" y="-205.93" font-family="Times,serif" font-size="14.00">~</text>
<text xml:space="preserve" text-anchor="middle" x="63" y="-189.43" font-family="Times,serif" font-size="14.00">Bernoulli</text>
</g>
<!-- psi&#45;&gt;z -->
<g id="edge1" class="edge">
<title>psi&#45;&gt;z</title>
<path fill="none" stroke="black" d="M63,-287.28C63,-279.5 63,-271.25 63,-263.16"/>
<polygon fill="black" stroke="black" points="66.5,-263.43 63,-253.43 59.5,-263.43 66.5,-263.43"/>
</g>
<!-- p -->
<g id="node2" class="node">
<title>p</title>
<ellipse fill="none" stroke="black" cx="179" cy="-210.98" rx="44.72" ry="40.66"/>
<text xml:space="preserve" text-anchor="middle" x="179" y="-222.43" font-family="Times,serif" font-size="14.00">p</text>
<text xml:space="preserve" text-anchor="middle" x="179" y="-205.93" font-family="Times,serif" font-size="14.00">~</text>
<text xml:space="preserve" text-anchor="middle" x="179" y="-189.43" font-family="Times,serif" font-size="14.00">Uniform</text>
</g>
<!-- y -->
<g id="node4" class="node">
<title>y</title>
<ellipse fill="lightgrey" stroke="black" cx="120" cy="-81.16" rx="47.38" ry="40.66"/>
<text xml:space="preserve" text-anchor="middle" x="120" y="-92.61" font-family="Times,serif" font-size="14.00">y</text>
<text xml:space="preserve" text-anchor="middle" x="120" y="-76.11" font-family="Times,serif" font-size="14.00">~</text>
<text xml:space="preserve" text-anchor="middle" x="120" y="-59.61" font-family="Times,serif" font-size="14.00">Bernoulli</text>
</g>
<!-- p&#45;&gt;y -->
<g id="edge2" class="edge">
<title>p&#45;&gt;y</title>
<path fill="none" stroke="black" d="M161.93,-173.01C155.69,-159.48 148.54,-143.98 141.93,-129.66"/>
<polygon fill="black" stroke="black" points="145.23,-128.48 137.87,-120.86 138.88,-131.41 145.23,-128.48"/>
</g>
<!-- z&#45;&gt;y -->
<g id="edge3" class="edge">
<title>z&#45;&gt;y</title>
<path fill="none" stroke="black" d="M79.64,-172.66C85.67,-159.14 92.56,-143.69 98.92,-129.43"/>
<polygon fill="black" stroke="black" points="101.95,-131.24 102.82,-120.68 95.55,-128.39 101.95,-131.24"/>
</g>
</g>
</svg>
