<?xml version="1.0" encoding="UTF-8" standalone="no"?>
<!DOCTYPE svg PUBLIC "-//W3C//DTD SVG 1.1//EN"
 "http://www.w3.org/Graphics/SVG/1.1/DTD/svg11.dtd">
<!-- Generated by graphviz version 13.0.1 (20250615.1724)
 -->
<!-- Pages: 1 -->
<svg width="225pt" height="494pt"
 viewBox="0.00 0.00 225.00 494.00" xmlns="http://www.w3.org/2000/svg" xmlns:xlink="http://www.w3.org/1999/xlink">
<g id="graph0" class="graph" transform="scale(1 1) rotate(0) translate(4 490.27)">
<polygon fill="white" stroke="none" points="-4,4 -4,-490.27 221.27,-490.27 221.27,4 -4,4"/>
<g id="clust1" class="cluster">
<title>clusterindividual (100)</title>
<path fill="none" stroke="black" d="M78.81,-137.82C78.81,-137.82 157.81,-137.82 157.81,-137.82 163.81,-137.82 169.81,-143.82 169.81,-149.82 169.81,-149.82 169.81,-247.63 169.81,-247.63 169.81,-253.63 163.81,-259.63 157.81,-259.63 157.81,-259.63 78.81,-259.63 78.81,-259.63 72.81,-259.63 66.81,-253.63 66.81,-247.63 66.81,-247.63 66.81,-149.82 66.81,-149.82 66.81,-143.82 72.81,-137.82 78.81,-137.82"/>
<text xml:space="preserve" text-anchor="middle" x="117.94" y="-145.02" font-family="Times,serif" font-size="14.00">individual (100)</text>
</g>
<g id="clust2" class="cluster">
<title>cluster100</title>
<path fill="none" stroke="black" d="M28.81,-8C28.81,-8 106.81,-8 106.81,-8 112.81,-8 118.81,-14 118.81,-20 118.81,-20 118.81,-117.82 118.81,-117.82 118.81,-123.82 112.81,-129.82 106.81,-129.82 106.81,-129.82 28.81,-129.82 28.81,-129.82 22.81,-129.82 16.81,-123.82 16.81,-117.82 16.81,-117.82 16.81,-20 16.81,-20 16.81,-14 22.81,-8 28.81,-8"/>
<text xml:space="preserve" text-anchor="middle" x="100.69" y="-15.2" font-family="Times,serif" font-size="14.00">100</text>
</g>
<!-- kappa -->
<g id="node1" class="node">
<title>kappa</title>
<polygon fill="none" stroke="black" points="204.94,-357.04 114.69,-357.04 114.69,-299.54 204.94,-299.54 204.94,-357.04"/>
<text xml:space="preserve" text-anchor="middle" x="159.81" y="-339.74" font-family="Times,serif" font-size="14.00">kappa</text>
<text xml:space="preserve" text-anchor="middle" x="159.81" y="-323.24" font-family="Times,serif" font-size="14.00">~</text>
<text xml:space="preserve" text-anchor="middle" x="159.81" y="-306.74" font-family="Times,serif" font-size="14.00">Deterministic</text>
</g>
<!-- theta -->
<g id="node5" class="node">
<title>theta</title>
<ellipse fill="none" stroke="black" cx="105.81" cy="-210.98" rx="29.88" ry="40.66"/>
<text xml:space="preserve" text-anchor="middle" x="105.81" y="-222.43" font-family="Times,serif" font-size="14.00">theta</text>
<text xml:space="preserve" text-anchor="middle" x="105.81" y="-205.93" font-family="Times,serif" font-size="14.00">~</text>
<text xml:space="preserve" text-anchor="middle" x="105.81" y="-189.43" font-family="Times,serif" font-size="14.00">Beta</text>
</g>
<!-- kappa&#45;&gt;theta -->
<g id="edge2" class="edge">
<title>kappa&#45;&gt;theta</title>
<path fill="none" stroke="black" d="M146.6,-299.08C140.52,-286.1 133.17,-270.39 126.39,-255.91"/>
<polygon fill="black" stroke="black" points="129.63,-254.58 122.22,-247.01 123.29,-257.55 129.63,-254.58"/>
</g>
<!-- psi -->
<g id="node2" class="node">
<title>psi</title>
<ellipse fill="none" stroke="black" cx="28.81" cy="-210.98" rx="28.81" ry="40.66"/>
<text xml:space="preserve" text-anchor="middle" x="28.81" y="-222.43" font-family="Times,serif" font-size="14.00">psi</text>
<text xml:space="preserve" text-anchor="middle" x="28.81" y="-205.93" font-family="Times,serif" font-size="14.00">~</text>
<text xml:space="preserve" text-anchor="middle" x="28.81" y="-189.43" font-family="Times,serif" font-size="14.00">Beta</text>
</g>
<!-- y -->
<g id="node6" class="node">
<title>y</title>
<ellipse fill="lightgrey" stroke="black" cx="67.81" cy="-81.16" rx="42.6" ry="40.66"/>
<text xml:space="preserve" text-anchor="middle" x="67.81" y="-92.61" font-family="Times,serif" font-size="14.00">y</text>
<text xml:space="preserve" text-anchor="middle" x="67.81" y="-76.11" font-family="Times,serif" font-size="14.00">~</text>
<text xml:space="preserve" text-anchor="middle" x="67.81" y="-59.61" font-family="Times,serif" font-size="14.00">Mixture</text>
</g>
<!-- psi&#45;&gt;y -->
<g id="edge4" class="edge">
<title>psi&#45;&gt;y</title>
<path fill="none" stroke="black" d="M40.1,-173.01C44.07,-159.97 48.61,-145.11 52.84,-131.24"/>
<polygon fill="black" stroke="black" points="56.14,-132.41 55.71,-121.83 49.45,-130.37 56.14,-132.41"/>
</g>
<!-- phi -->
<g id="node3" class="node">
<title>phi</title>
<ellipse fill="none" stroke="black" cx="51.81" cy="-328.29" rx="44.72" ry="40.66"/>
<text xml:space="preserve" text-anchor="middle" x="51.81" y="-339.74" font-family="Times,serif" font-size="14.00">phi</text>
<text xml:space="preserve" text-anchor="middle" x="51.81" y="-323.24" font-family="Times,serif" font-size="14.00">~</text>
<text xml:space="preserve" text-anchor="middle" x="51.81" y="-306.74" font-family="Times,serif" font-size="14.00">Uniform</text>
</g>
<!-- phi&#45;&gt;theta -->
<g id="edge3" class="edge">
<title>phi&#45;&gt;theta</title>
<path fill="none" stroke="black" d="M69.05,-290.49C74.2,-279.49 79.9,-267.32 85.24,-255.9"/>
<polygon fill="black" stroke="black" points="88.31,-257.61 89.38,-247.07 81.97,-254.64 88.31,-257.61"/>
</g>
<!-- kappa_log -->
<g id="node4" class="node">
<title>kappa_log</title>
<ellipse fill="none" stroke="black" cx="159.81" cy="-445.61" rx="57.45" ry="40.66"/>
<text xml:space="preserve" text-anchor="middle" x="159.81" y="-457.06" font-family="Times,serif" font-size="14.00">kappa_log</text>
<text xml:space="preserve" text-anchor="middle" x="159.81" y="-440.56" font-family="Times,serif" font-size="14.00">~</text>
<text xml:space="preserve" text-anchor="middle" x="159.81" y="-424.06" font-family="Times,serif" font-size="14.00">Exponential</text>
</g>
<!-- kappa_log&#45;&gt;kappa -->
<g id="edge1" class="edge">
<title>kappa_log&#45;&gt;kappa</title>
<path fill="none" stroke="black" d="M159.81,-404.6C159.81,-392.89 159.81,-380.11 159.81,-368.45"/>
<polygon fill="black" stroke="black" points="163.31,-368.77 159.81,-358.77 156.31,-368.77 163.31,-368.77"/>
</g>
<!-- theta&#45;&gt;y -->
<g id="edge5" class="edge">
<title>theta&#45;&gt;y</title>
<path fill="none" stroke="black" d="M94.72,-172.66C90.88,-159.75 86.52,-145.09 82.45,-131.37"/>
<polygon fill="black" stroke="black" points="85.89,-130.67 79.68,-122.08 79.18,-132.66 85.89,-130.67"/>
</g>
</g>
</svg>
