<?xml version="1.0" encoding="UTF-8" standalone="no"?>
<!DOCTYPE svg PUBLIC "-//W3C//DTD SVG 1.1//EN"
 "http://www.w3.org/Graphics/SVG/1.1/DTD/svg11.dtd">
<!-- Generated by graphviz version 13.0.1 (20250615.1724)
 -->
<!-- Pages: 1 -->
<svg width="206pt" height="276pt"
 viewBox="0.00 0.00 206.00 276.00" xmlns="http://www.w3.org/2000/svg" xmlns:xlink="http://www.w3.org/1999/xlink">
<g id="graph0" class="graph" transform="scale(1 1) rotate(0) translate(4 271.63)">
<polygon fill="white" stroke="none" points="-4,4 -4,-271.63 202,-271.63 202,4 -4,4"/>
<g id="clust1" class="cluster">
<title>clusterspecies (2)</title>
<path fill="none" stroke="black" d="M20,-137.82C20,-137.82 178,-137.82 178,-137.82 184,-137.82 190,-143.82 190,-149.82 190,-149.82 190,-247.63 190,-247.63 190,-253.63 184,-259.63 178,-259.63 178,-259.63 20,-259.63 20,-259.63 14,-259.63 8,-253.63 8,-247.63 8,-247.63 8,-149.82 8,-149.82 8,-143.82 14,-137.82 20,-137.82"/>
<text xml:space="preserve" text-anchor="middle" x="152.75" y="-145.02" font-family="Times,serif" font-size="14.00">species (2)</text>
</g>
<g id="clust2" class="cluster">
<title>cluster3000</title>
<path fill="none" stroke="black" d="M61,-8C61,-8 139,-8 139,-8 145,-8 151,-14 151,-20 151,-20 151,-117.82 151,-117.82 151,-123.82 145,-129.82 139,-129.82 139,-129.82 61,-129.82 61,-129.82 55,-129.82 49,-123.82 49,-117.82 49,-117.82 49,-20 49,-20 49,-14 55,-8 61,-8"/>
<text xml:space="preserve" text-anchor="middle" x="129.5" y="-15.2" font-family="Times,serif" font-size="14.00">3000</text>
</g>
<!-- p -->
<g id="node1" class="node">
<title>p</title>
<ellipse fill="none" stroke="black" cx="61" cy="-210.98" rx="44.72" ry="40.66"/>
<text xml:space="preserve" text-anchor="middle" x="61" y="-222.43" font-family="Times,serif" font-size="14.00">p</text>
<text xml:space="preserve" text-anchor="middle" x="61" y="-205.93" font-family="Times,serif" font-size="14.00">~</text>
<text xml:space="preserve" text-anchor="middle" x="61" y="-189.43" font-family="Times,serif" font-size="14.00">Uniform</text>
</g>
<!-- history -->
<g id="node3" class="node">
<title>history</title>
<ellipse fill="lightgrey" stroke="black" cx="100" cy="-81.16" rx="42.6" ry="40.66"/>
<text xml:space="preserve" text-anchor="middle" x="100" y="-92.61" font-family="Times,serif" font-size="14.00">history</text>
<text xml:space="preserve" text-anchor="middle" x="100" y="-76.11" font-family="Times,serif" font-size="14.00">~</text>
<text xml:space="preserve" text-anchor="middle" x="100" y="-59.61" font-family="Times,serif" font-size="14.00">Mixture</text>
</g>
<!-- p&#45;&gt;history -->
<g id="edge1" class="edge">
<title>p&#45;&gt;history</title>
<path fill="none" stroke="black" d="M72.81,-171.28C76.63,-158.77 80.91,-144.72 84.93,-131.54"/>
<polygon fill="black" stroke="black" points="88.22,-132.76 87.79,-122.17 81.53,-130.71 88.22,-132.76"/>
</g>
<!-- psi -->
<g id="node2" class="node">
<title>psi</title>
<ellipse fill="none" stroke="black" cx="153" cy="-210.98" rx="28.81" ry="40.66"/>
<text xml:space="preserve" text-anchor="middle" x="153" y="-222.43" font-family="Times,serif" font-size="14.00">psi</text>
<text xml:space="preserve" text-anchor="middle" x="153" y="-205.93" font-family="Times,serif" font-size="14.00">~</text>
<text xml:space="preserve" text-anchor="middle" x="153" y="-189.43" font-family="Times,serif" font-size="14.00">Beta</text>
</g>
<!-- psi&#45;&gt;history -->
<g id="edge2" class="edge">
<title>psi&#45;&gt;history</title>
<path fill="none" stroke="black" d="M138.66,-175.39C132.83,-161.33 126,-144.86 119.71,-129.7"/>
<polygon fill="black" stroke="black" points="123.11,-128.76 116.05,-120.86 116.65,-131.44 123.11,-128.76"/>
</g>
</g>
</svg>
