<?xml version="1.0" encoding="UTF-8" standalone="no"?>
<!DOCTYPE svg PUBLIC "-//W3C//DTD SVG 1.1//EN"
 "http://www.w3.org/Graphics/SVG/1.1/DTD/svg11.dtd">
<!-- Generated by graphviz version 13.1.2 (0)
 -->
<!-- Pages: 1 -->
<svg width="252pt" height="364pt"
 viewBox="0.00 0.00 252.00 364.00" xmlns="http://www.w3.org/2000/svg" xmlns:xlink="http://www.w3.org/1999/xlink">
<g id="graph0" class="graph" transform="scale(1 1) rotate(0) translate(4 360.45)">
<polygon fill="white" stroke="none" points="-4,4 -4,-360.45 247.74,-360.45 247.74,4 -4,4"/>
<g id="clust1" class="cluster">
<title>cluster200</title>
<path fill="none" stroke="black" d="M50.01,-8C50.01,-8 132.01,-8 132.01,-8 138.01,-8 144.01,-14 144.01,-20 144.01,-20 144.01,-223.23 144.01,-223.23 144.01,-229.23 138.01,-235.23 132.01,-235.23 132.01,-235.23 50.01,-235.23 50.01,-235.23 44.01,-235.23 38.01,-229.23 38.01,-223.23 38.01,-223.23 38.01,-20 38.01,-20 38.01,-14 44.01,-8 50.01,-8"/>
<text xml:space="preserve" text-anchor="middle" x="125.89" y="-15.2" font-family="Times,serif" font-size="14.00">200</text>
</g>
<!-- beta1 -->
<g id="node1" class="node">
<title>beta1</title>
<ellipse fill="none" stroke="black" cx="41.01" cy="-315.79" rx="41.01" ry="40.66"/>
<text xml:space="preserve" text-anchor="middle" x="41.01" y="-327.24" font-family="Times,serif" font-size="14.00">beta1</text>
<text xml:space="preserve" text-anchor="middle" x="41.01" y="-310.74" font-family="Times,serif" font-size="14.00">~</text>
<text xml:space="preserve" text-anchor="middle" x="41.01" y="-294.24" font-family="Times,serif" font-size="14.00">Normal</text>
</g>
<!-- psi -->
<g id="node5" class="node">
<title>psi</title>
<polygon fill="none" stroke="black" points="136.14,-227.23 45.89,-227.23 45.89,-169.73 136.14,-169.73 136.14,-227.23"/>
<text xml:space="preserve" text-anchor="middle" x="91.01" y="-209.93" font-family="Times,serif" font-size="14.00">psi</text>
<text xml:space="preserve" text-anchor="middle" x="91.01" y="-193.43" font-family="Times,serif" font-size="14.00">~</text>
<text xml:space="preserve" text-anchor="middle" x="91.01" y="-176.93" font-family="Times,serif" font-size="14.00">Deterministic</text>
</g>
<!-- beta1&#45;&gt;psi -->
<g id="edge1" class="edge">
<title>beta1&#45;&gt;psi</title>
<path fill="none" stroke="black" d="M56.97,-277.99C62.51,-265.22 68.73,-250.87 74.32,-237.97"/>
<polygon fill="black" stroke="black" points="77.48,-239.49 78.24,-228.92 71.06,-236.7 77.48,-239.49"/>
</g>
<!-- beta0 -->
<g id="node2" class="node">
<title>beta0</title>
<ellipse fill="none" stroke="black" cx="141.01" cy="-315.79" rx="41.01" ry="40.66"/>
<text xml:space="preserve" text-anchor="middle" x="141.01" y="-327.24" font-family="Times,serif" font-size="14.00">beta0</text>
<text xml:space="preserve" text-anchor="middle" x="141.01" y="-310.74" font-family="Times,serif" font-size="14.00">~</text>
<text xml:space="preserve" text-anchor="middle" x="141.01" y="-294.24" font-family="Times,serif" font-size="14.00">Normal</text>
</g>
<!-- beta0&#45;&gt;psi -->
<g id="edge2" class="edge">
<title>beta0&#45;&gt;psi</title>
<path fill="none" stroke="black" d="M125.05,-277.99C119.52,-265.22 113.3,-250.87 107.7,-237.97"/>
<polygon fill="black" stroke="black" points="110.97,-236.7 103.78,-228.92 104.55,-239.49 110.97,-236.7"/>
</g>
<!-- p -->
<g id="node3" class="node">
<title>p</title>
<ellipse fill="none" stroke="black" cx="199.01" cy="-198.48" rx="44.72" ry="40.66"/>
<text xml:space="preserve" text-anchor="middle" x="199.01" y="-209.93" font-family="Times,serif" font-size="14.00">p</text>
<text xml:space="preserve" text-anchor="middle" x="199.01" y="-193.43" font-family="Times,serif" font-size="14.00">~</text>
<text xml:space="preserve" text-anchor="middle" x="199.01" y="-176.93" font-family="Times,serif" font-size="14.00">Uniform</text>
</g>
<!-- y -->
<g id="node4" class="node">
<title>y</title>
<ellipse fill="lightgrey" stroke="black" cx="92.01" cy="-81.16" rx="42.6" ry="40.66"/>
<text xml:space="preserve" text-anchor="middle" x="92.01" y="-92.61" font-family="Times,serif" font-size="14.00">y</text>
<text xml:space="preserve" text-anchor="middle" x="92.01" y="-76.11" font-family="Times,serif" font-size="14.00">~</text>
<text xml:space="preserve" text-anchor="middle" x="92.01" y="-59.61" font-family="Times,serif" font-size="14.00">Mixture</text>
</g>
<!-- p&#45;&gt;y -->
<g id="edge3" class="edge">
<title>p&#45;&gt;y</title>
<path fill="none" stroke="black" d="M170.62,-166.88C157.35,-152.58 141.42,-135.4 127.37,-120.27"/>
<polygon fill="black" stroke="black" points="130.19,-118.16 120.83,-113.21 125.06,-122.92 130.19,-118.16"/>
</g>
<!-- psi&#45;&gt;y -->
<g id="edge4" class="edge">
<title>psi&#45;&gt;y</title>
<path fill="none" stroke="black" d="M91.26,-169.27C91.35,-158.44 91.46,-145.73 91.57,-133.41"/>
<polygon fill="black" stroke="black" points="95.06,-133.81 91.65,-123.78 88.06,-133.75 95.06,-133.81"/>
</g>
</g>
</svg>
