<?xml version="1.0" encoding="UTF-8" standalone="no"?>
<!DOCTYPE svg PUBLIC "-//W3C//DTD SVG 1.1//EN"
 "http://www.w3.org/Graphics/SVG/1.1/DTD/svg11.dtd">
<!-- Generated by graphviz version 12.0.0 (0)
 -->
<!-- Pages: 1 -->
<svg width="408pt" height="345pt"
 viewBox="0.00 0.00 408.02 345.13" xmlns="http://www.w3.org/2000/svg" xmlns:xlink="http://www.w3.org/1999/xlink">
<g id="graph0" class="graph" transform="scale(1 1) rotate(0) translate(4 341.13)">
<polygon fill="white" stroke="none" points="-4,4 -4,-341.13 404.02,-341.13 404.02,4 -4,4"/>
<g id="clust1" class="cluster">
<title>cluster200</title>
<path fill="none" stroke="black" d="M91.01,-129.82C91.01,-129.82 173.01,-129.82 173.01,-129.82 179.01,-129.82 185.01,-135.82 185.01,-141.82 185.01,-141.82 185.01,-215.82 185.01,-215.82 185.01,-221.82 179.01,-227.82 173.01,-227.82 173.01,-227.82 91.01,-227.82 91.01,-227.82 85.01,-227.82 79.01,-221.82 79.01,-215.82 79.01,-215.82 79.01,-141.82 79.01,-141.82 79.01,-135.82 85.01,-129.82 91.01,-129.82"/>
<text text-anchor="middle" x="166.89" y="-137.02" font-family="Times,serif" font-size="14.00">200</text>
</g>
<g id="clust2" class="cluster">
<title>cluster200 x 3</title>
<path fill="none" stroke="black" d="M205.01,-8C205.01,-8 331.01,-8 331.01,-8 337.01,-8 343.01,-14 343.01,-20 343.01,-20 343.01,-215.82 343.01,-215.82 343.01,-221.82 337.01,-227.82 331.01,-227.82 331.01,-227.82 205.01,-227.82 205.01,-227.82 199.01,-227.82 193.01,-221.82 193.01,-215.82 193.01,-215.82 193.01,-20 193.01,-20 193.01,-14 199.01,-8 205.01,-8"/>
<text text-anchor="middle" x="314.39" y="-15.2" font-family="Times,serif" font-size="14.00">200 x 3</text>
</g>
<!-- beta1 -->
<g id="node1" class="node">
<title>beta1</title>
<ellipse fill="none" stroke="black" cx="41.01" cy="-296.48" rx="41.01" ry="40.66"/>
<text text-anchor="middle" x="41.01" y="-307.93" font-family="Times,serif" font-size="14.00">beta1</text>
<text text-anchor="middle" x="41.01" y="-291.43" font-family="Times,serif" font-size="14.00">~</text>
<text text-anchor="middle" x="41.01" y="-274.93" font-family="Times,serif" font-size="14.00">Normal</text>
</g>
<!-- psi -->
<g id="node5" class="node">
<title>psi</title>
<polygon fill="none" stroke="black" points="177.14,-219.82 86.89,-219.82 86.89,-162.32 177.14,-162.32 177.14,-219.82"/>
<text text-anchor="middle" x="132.01" y="-202.52" font-family="Times,serif" font-size="14.00">psi</text>
<text text-anchor="middle" x="132.01" y="-186.02" font-family="Times,serif" font-size="14.00">~</text>
<text text-anchor="middle" x="132.01" y="-169.52" font-family="Times,serif" font-size="14.00">Deterministic</text>
</g>
<!-- beta1&#45;&gt;psi -->
<g id="edge1" class="edge">
<title>beta1&#45;&gt;psi</title>
<path fill="none" stroke="black" d="M67.58,-265.29C77.71,-253.77 89.37,-240.53 99.95,-228.5"/>
<polygon fill="black" stroke="black" points="102.46,-230.95 106.44,-221.13 97.21,-226.32 102.46,-230.95"/>
</g>
<!-- beta0 -->
<g id="node2" class="node">
<title>beta0</title>
<ellipse fill="none" stroke="black" cx="141.01" cy="-296.48" rx="41.01" ry="40.66"/>
<text text-anchor="middle" x="141.01" y="-307.93" font-family="Times,serif" font-size="14.00">beta0</text>
<text text-anchor="middle" x="141.01" y="-291.43" font-family="Times,serif" font-size="14.00">~</text>
<text text-anchor="middle" x="141.01" y="-274.93" font-family="Times,serif" font-size="14.00">Normal</text>
</g>
<!-- beta0&#45;&gt;psi -->
<g id="edge2" class="edge">
<title>beta0&#45;&gt;psi</title>
<path fill="none" stroke="black" d="M137.53,-255.5C136.84,-247.55 136.12,-239.22 135.43,-231.3"/>
<polygon fill="black" stroke="black" points="138.94,-231.26 134.58,-221.6 131.96,-231.87 138.94,-231.26"/>
</g>
<!-- alpha1 -->
<g id="node3" class="node">
<title>alpha1</title>
<ellipse fill="none" stroke="black" cx="259.01" cy="-296.48" rx="41.01" ry="40.66"/>
<text text-anchor="middle" x="259.01" y="-307.93" font-family="Times,serif" font-size="14.00">alpha1</text>
<text text-anchor="middle" x="259.01" y="-291.43" font-family="Times,serif" font-size="14.00">~</text>
<text text-anchor="middle" x="259.01" y="-274.93" font-family="Times,serif" font-size="14.00">Normal</text>
</g>
<!-- p -->
<g id="node7" class="node">
<title>p</title>
<polygon fill="none" stroke="black" points="313.14,-219.82 222.89,-219.82 222.89,-162.32 313.14,-162.32 313.14,-219.82"/>
<text text-anchor="middle" x="268.01" y="-202.52" font-family="Times,serif" font-size="14.00">p</text>
<text text-anchor="middle" x="268.01" y="-186.02" font-family="Times,serif" font-size="14.00">~</text>
<text text-anchor="middle" x="268.01" y="-169.52" font-family="Times,serif" font-size="14.00">Deterministic</text>
</g>
<!-- alpha1&#45;&gt;p -->
<g id="edge3" class="edge">
<title>alpha1&#45;&gt;p</title>
<path fill="none" stroke="black" d="M262.49,-255.5C263.18,-247.55 263.91,-239.22 264.6,-231.3"/>
<polygon fill="black" stroke="black" points="268.06,-231.87 265.44,-221.6 261.09,-231.26 268.06,-231.87"/>
</g>
<!-- alpha0 -->
<g id="node4" class="node">
<title>alpha0</title>
<ellipse fill="none" stroke="black" cx="359.01" cy="-296.48" rx="41.01" ry="40.66"/>
<text text-anchor="middle" x="359.01" y="-307.93" font-family="Times,serif" font-size="14.00">alpha0</text>
<text text-anchor="middle" x="359.01" y="-291.43" font-family="Times,serif" font-size="14.00">~</text>
<text text-anchor="middle" x="359.01" y="-274.93" font-family="Times,serif" font-size="14.00">Normal</text>
</g>
<!-- alpha0&#45;&gt;p -->
<g id="edge4" class="edge">
<title>alpha0&#45;&gt;p</title>
<path fill="none" stroke="black" d="M332.45,-265.29C322.32,-253.77 310.66,-240.53 300.07,-228.5"/>
<polygon fill="black" stroke="black" points="302.82,-226.32 293.59,-221.13 297.56,-230.95 302.82,-226.32"/>
</g>
<!-- y -->
<g id="node6" class="node">
<title>y</title>
<ellipse fill="lightgrey" stroke="black" cx="268.01" cy="-81.16" rx="67" ry="40.66"/>
<text text-anchor="middle" x="268.01" y="-92.61" font-family="Times,serif" font-size="14.00">y</text>
<text text-anchor="middle" x="268.01" y="-76.11" font-family="Times,serif" font-size="14.00">~</text>
<text text-anchor="middle" x="268.01" y="-59.61" font-family="Times,serif" font-size="14.00">CustomDist_y</text>
</g>
<!-- psi&#45;&gt;y -->
<g id="edge5" class="edge">
<title>psi&#45;&gt;y</title>
<path fill="none" stroke="black" d="M155.54,-162.11C165.31,-151.37 177.12,-139.39 189.01,-129.82 195.27,-124.78 202.12,-119.88 209.07,-115.26"/>
<polygon fill="black" stroke="black" points="210.78,-118.32 217.31,-109.98 207,-112.43 210.78,-118.32"/>
</g>
<!-- p&#45;&gt;y -->
<g id="edge6" class="edge">
<title>p&#45;&gt;y</title>
<path fill="none" stroke="black" d="M268.01,-162C268.01,-153.29 268.01,-143.4 268.01,-133.63"/>
<polygon fill="black" stroke="black" points="271.51,-133.79 268.01,-123.79 264.51,-133.79 271.51,-133.79"/>
</g>
</g>
</svg>
