<?xml version="1.0" encoding="UTF-8" standalone="no"?>
<!DOCTYPE svg PUBLIC "-//W3C//DTD SVG 1.1//EN"
 "http://www.w3.org/Graphics/SVG/1.1/DTD/svg11.dtd">
<!-- Generated by graphviz version 12.2.1 (20241206.2353)
 -->
<!-- Pages: 1 -->
<svg width="204pt" height="247pt"
 viewBox="0.00 0.00 204.45 247.13" xmlns="http://www.w3.org/2000/svg" xmlns:xlink="http://www.w3.org/1999/xlink">
<g id="graph0" class="graph" transform="scale(1 1) rotate(0) translate(4 243.13)">
<polygon fill="white" stroke="none" points="-4,4 -4,-243.13 200.45,-243.13 200.45,4 -4,4"/>
<g id="clust1" class="cluster">
<title>cluster200</title>
<path fill="none" stroke="black" d="M24.72,-8C24.72,-8 172.72,-8 172.72,-8 178.72,-8 184.72,-14 184.72,-20 184.72,-20 184.72,-117.82 184.72,-117.82 184.72,-123.82 178.72,-129.82 172.72,-129.82 172.72,-129.82 24.72,-129.82 24.72,-129.82 18.72,-129.82 12.72,-123.82 12.72,-117.82 12.72,-117.82 12.72,-20 12.72,-20 12.72,-14 18.72,-8 24.72,-8"/>
<text text-anchor="middle" x="166.6" y="-15.2" font-family="Times,serif" font-size="14.00">200</text>
</g>
<!-- psi -->
<g id="node1" class="node">
<title>psi</title>
<ellipse fill="none" stroke="black" cx="44.72" cy="-198.48" rx="44.72" ry="40.66"/>
<text text-anchor="middle" x="44.72" y="-209.93" font-family="Times,serif" font-size="14.00">psi</text>
<text text-anchor="middle" x="44.72" y="-193.43" font-family="Times,serif" font-size="14.00">~</text>
<text text-anchor="middle" x="44.72" y="-176.93" font-family="Times,serif" font-size="14.00">Uniform</text>
</g>
<!-- y -->
<g id="node3" class="node">
<title>y</title>
<ellipse fill="lightgrey" stroke="black" cx="98.72" cy="-81.16" rx="78.14" ry="40.66"/>
<text text-anchor="middle" x="98.72" y="-92.61" font-family="Times,serif" font-size="14.00">y</text>
<text text-anchor="middle" x="98.72" y="-76.11" font-family="Times,serif" font-size="14.00">~</text>
<text text-anchor="middle" x="98.72" y="-59.61" font-family="Times,serif" font-size="14.00">MarginalMixture</text>
</g>
<!-- psi&#45;&gt;y -->
<g id="edge1" class="edge">
<title>psi&#45;&gt;y</title>
<path fill="none" stroke="black" d="M61.96,-160.67C66.36,-151.28 71.16,-141.03 75.79,-131.14"/>
<polygon fill="black" stroke="black" points="78.82,-132.91 79.89,-122.37 72.48,-129.94 78.82,-132.91"/>
</g>
<!-- p -->
<g id="node2" class="node">
<title>p</title>
<ellipse fill="none" stroke="black" cx="151.72" cy="-198.48" rx="44.72" ry="40.66"/>
<text text-anchor="middle" x="151.72" y="-209.93" font-family="Times,serif" font-size="14.00">p</text>
<text text-anchor="middle" x="151.72" y="-193.43" font-family="Times,serif" font-size="14.00">~</text>
<text text-anchor="middle" x="151.72" y="-176.93" font-family="Times,serif" font-size="14.00">Uniform</text>
</g>
<!-- p&#45;&gt;y -->
<g id="edge2" class="edge">
<title>p&#45;&gt;y</title>
<path fill="none" stroke="black" d="M134.81,-160.67C130.54,-151.38 125.88,-141.25 121.38,-131.45"/>
<polygon fill="black" stroke="black" points="124.56,-130 117.21,-122.37 118.2,-132.92 124.56,-130"/>
</g>
</g>
</svg>
