<?xml version="1.0" encoding="UTF-8" standalone="no"?>
<!DOCTYPE svg PUBLIC "-//W3C//DTD SVG 1.1//EN"
 "http://www.w3.org/Graphics/SVG/1.1/DTD/svg11.dtd">
<!-- Generated by graphviz version 12.0.0 (0)
 -->
<!-- Pages: 1 -->
<svg width="288pt" height="374pt"
 viewBox="0.00 0.00 288.00 373.63" xmlns="http://www.w3.org/2000/svg" xmlns:xlink="http://www.w3.org/1999/xlink">
<g id="graph0" class="graph" transform="scale(1 1) rotate(0) translate(4 369.63)">
<polygon fill="white" stroke="none" points="-4,4 -4,-369.63 284,-369.63 284,4 -4,4"/>
<g id="clust1" class="cluster">
<title>clusterbeta_coefs (3)</title>
<path fill="none" stroke="black" d="M24,-235.82C24,-235.82 98,-235.82 98,-235.82 104,-235.82 110,-241.82 110,-247.82 110,-247.82 110,-345.63 110,-345.63 110,-351.63 104,-357.63 98,-357.63 98,-357.63 24,-357.63 24,-357.63 18,-357.63 12,-351.63 12,-345.63 12,-345.63 12,-247.82 12,-247.82 12,-241.82 18,-235.82 24,-235.82"/>
<text text-anchor="middle" x="63.38" y="-243.02" font-family="Times,serif" font-size="14.00">beta_coefs (3)</text>
</g>
<g id="clust2" class="cluster">
<title>cluster37</title>
<path fill="none" stroke="black" d="M20,-129.82C20,-129.82 102,-129.82 102,-129.82 108,-129.82 114,-135.82 114,-141.82 114,-141.82 114,-215.82 114,-215.82 114,-221.82 108,-227.82 102,-227.82 102,-227.82 20,-227.82 20,-227.82 14,-227.82 8,-221.82 8,-215.82 8,-215.82 8,-141.82 8,-141.82 8,-135.82 14,-129.82 20,-129.82"/>
<text text-anchor="middle" x="99.25" y="-137.02" font-family="Times,serif" font-size="14.00">37</text>
</g>
<g id="clust3" class="cluster">
<title>clusteralpha_coefs (3)</title>
<path fill="none" stroke="black" d="M159,-235.82C159,-235.82 235,-235.82 235,-235.82 241,-235.82 247,-241.82 247,-247.82 247,-247.82 247,-345.63 247,-345.63 247,-351.63 241,-357.63 235,-357.63 235,-357.63 159,-357.63 159,-357.63 153,-357.63 147,-351.63 147,-345.63 147,-345.63 147,-247.82 147,-247.82 147,-241.82 153,-235.82 159,-235.82"/>
<text text-anchor="middle" x="197" y="-243.02" font-family="Times,serif" font-size="14.00">alpha_coefs (3)</text>
</g>
<g id="clust4" class="cluster">
<title>cluster37 x 3</title>
<path fill="none" stroke="black" d="M134,-8C134,-8 260,-8 260,-8 266,-8 272,-14 272,-20 272,-20 272,-215.82 272,-215.82 272,-221.82 266,-227.82 260,-227.82 260,-227.82 134,-227.82 134,-227.82 128,-227.82 122,-221.82 122,-215.82 122,-215.82 122,-20 122,-20 122,-14 128,-8 134,-8"/>
<text text-anchor="middle" x="246.75" y="-15.2" font-family="Times,serif" font-size="14.00">37 x 3</text>
</g>
<!-- Beta -->
<g id="node1" class="node">
<title>Beta</title>
<ellipse fill="none" stroke="black" cx="61" cy="-308.98" rx="41.01" ry="40.66"/>
<text text-anchor="middle" x="61" y="-320.43" font-family="Times,serif" font-size="14.00">Beta</text>
<text text-anchor="middle" x="61" y="-303.93" font-family="Times,serif" font-size="14.00">~</text>
<text text-anchor="middle" x="61" y="-287.43" font-family="Times,serif" font-size="14.00">Normal</text>
</g>
<!-- psi -->
<g id="node2" class="node">
<title>psi</title>
<polygon fill="none" stroke="black" points="106.12,-219.82 15.88,-219.82 15.88,-162.32 106.12,-162.32 106.12,-219.82"/>
<text text-anchor="middle" x="61" y="-202.52" font-family="Times,serif" font-size="14.00">psi</text>
<text text-anchor="middle" x="61" y="-186.02" font-family="Times,serif" font-size="14.00">~</text>
<text text-anchor="middle" x="61" y="-169.52" font-family="Times,serif" font-size="14.00">Deterministic</text>
</g>
<!-- Beta&#45;&gt;psi -->
<g id="edge1" class="edge">
<title>Beta&#45;&gt;psi</title>
<path fill="none" stroke="black" d="M61,-268.09C61,-256.2 61,-243.19 61,-231.34"/>
<polygon fill="black" stroke="black" points="64.5,-231.48 61,-221.48 57.5,-231.48 64.5,-231.48"/>
</g>
<!-- y -->
<g id="node4" class="node">
<title>y</title>
<ellipse fill="lightgrey" stroke="black" cx="197" cy="-81.16" rx="67" ry="40.66"/>
<text text-anchor="middle" x="197" y="-92.61" font-family="Times,serif" font-size="14.00">y</text>
<text text-anchor="middle" x="197" y="-76.11" font-family="Times,serif" font-size="14.00">~</text>
<text text-anchor="middle" x="197" y="-59.61" font-family="Times,serif" font-size="14.00">CustomDist_y</text>
</g>
<!-- psi&#45;&gt;y -->
<g id="edge3" class="edge">
<title>psi&#45;&gt;y</title>
<path fill="none" stroke="black" d="M84.53,-162.11C94.3,-151.37 106.11,-139.39 118,-129.82 124.26,-124.78 131.1,-119.88 138.06,-115.26"/>
<polygon fill="black" stroke="black" points="139.77,-118.32 146.3,-109.98 135.99,-112.43 139.77,-118.32"/>
</g>
<!-- Alpha -->
<g id="node3" class="node">
<title>Alpha</title>
<ellipse fill="none" stroke="black" cx="197" cy="-308.98" rx="41.01" ry="40.66"/>
<text text-anchor="middle" x="197" y="-320.43" font-family="Times,serif" font-size="14.00">Alpha</text>
<text text-anchor="middle" x="197" y="-303.93" font-family="Times,serif" font-size="14.00">~</text>
<text text-anchor="middle" x="197" y="-287.43" font-family="Times,serif" font-size="14.00">Normal</text>
</g>
<!-- p -->
<g id="node5" class="node">
<title>p</title>
<polygon fill="none" stroke="black" points="242.12,-219.82 151.88,-219.82 151.88,-162.32 242.12,-162.32 242.12,-219.82"/>
<text text-anchor="middle" x="197" y="-202.52" font-family="Times,serif" font-size="14.00">p</text>
<text text-anchor="middle" x="197" y="-186.02" font-family="Times,serif" font-size="14.00">~</text>
<text text-anchor="middle" x="197" y="-169.52" font-family="Times,serif" font-size="14.00">Deterministic</text>
</g>
<!-- Alpha&#45;&gt;p -->
<g id="edge2" class="edge">
<title>Alpha&#45;&gt;p</title>
<path fill="none" stroke="black" d="M197,-268.09C197,-256.2 197,-243.19 197,-231.34"/>
<polygon fill="black" stroke="black" points="200.5,-231.48 197,-221.48 193.5,-231.48 200.5,-231.48"/>
</g>
<!-- p&#45;&gt;y -->
<g id="edge4" class="edge">
<title>p&#45;&gt;y</title>
<path fill="none" stroke="black" d="M197,-162C197,-153.29 197,-143.4 197,-133.63"/>
<polygon fill="black" stroke="black" points="200.5,-133.79 197,-123.79 193.5,-133.79 200.5,-133.79"/>
</g>
</g>
</svg>
