<?xml version="1.0" encoding="UTF-8" standalone="no"?>
<!DOCTYPE svg PUBLIC "-//W3C//DTD SVG 1.1//EN"
 "http://www.w3.org/Graphics/SVG/1.1/DTD/svg11.dtd">
<!-- Generated by graphviz version 12.0.0 (0)
 -->
<!-- Pages: 1 -->
<svg width="286pt" height="385pt"
 viewBox="0.00 0.00 285.72 384.95" xmlns="http://www.w3.org/2000/svg" xmlns:xlink="http://www.w3.org/1999/xlink">
<g id="graph0" class="graph" transform="scale(1 1) rotate(0) translate(4 380.95)">
<polygon fill="white" stroke="none" points="-4,4 -4,-380.95 281.72,-380.95 281.72,4 -4,4"/>
<g id="clust1" class="cluster">
<title>clusterbeta_coefs (3)</title>
<path fill="none" stroke="black" d="M57,-247.13C57,-247.13 131,-247.13 131,-247.13 137,-247.13 143,-253.13 143,-259.13 143,-259.13 143,-356.95 143,-356.95 143,-362.95 137,-368.95 131,-368.95 131,-368.95 57,-368.95 57,-368.95 51,-368.95 45,-362.95 45,-356.95 45,-356.95 45,-259.13 45,-259.13 45,-253.13 51,-247.13 57,-247.13"/>
<text text-anchor="middle" x="96.38" y="-254.33" font-family="Times,serif" font-size="14.00">beta_coefs (3)</text>
</g>
<g id="clust2" class="cluster">
<title>cluster37</title>
<path fill="none" stroke="black" d="M20,-8C20,-8 168,-8 168,-8 174,-8 180,-14 180,-20 180,-20 180,-223.23 180,-223.23 180,-229.23 174,-235.23 168,-235.23 168,-235.23 20,-235.23 20,-235.23 14,-235.23 8,-229.23 8,-223.23 8,-223.23 8,-20 8,-20 8,-14 14,-8 20,-8"/>
<text text-anchor="middle" x="165.25" y="-15.2" font-family="Times,serif" font-size="14.00">37</text>
</g>
<!-- Beta -->
<g id="node1" class="node">
<title>Beta</title>
<ellipse fill="none" stroke="black" cx="94" cy="-320.29" rx="41.01" ry="40.66"/>
<text text-anchor="middle" x="94" y="-331.74" font-family="Times,serif" font-size="14.00">Beta</text>
<text text-anchor="middle" x="94" y="-315.24" font-family="Times,serif" font-size="14.00">~</text>
<text text-anchor="middle" x="94" y="-298.74" font-family="Times,serif" font-size="14.00">Normal</text>
</g>
<!-- psi -->
<g id="node3" class="node">
<title>psi</title>
<polygon fill="none" stroke="black" points="139.12,-227.23 48.88,-227.23 48.88,-169.73 139.12,-169.73 139.12,-227.23"/>
<text text-anchor="middle" x="94" y="-209.93" font-family="Times,serif" font-size="14.00">psi</text>
<text text-anchor="middle" x="94" y="-193.43" font-family="Times,serif" font-size="14.00">~</text>
<text text-anchor="middle" x="94" y="-176.93" font-family="Times,serif" font-size="14.00">Deterministic</text>
</g>
<!-- Beta&#45;&gt;psi -->
<g id="edge1" class="edge">
<title>Beta&#45;&gt;psi</title>
<path fill="none" stroke="black" d="M94,-279.4C94,-266.37 94,-251.91 94,-238.91"/>
<polygon fill="black" stroke="black" points="97.5,-238.98 94,-228.98 90.5,-238.98 97.5,-238.98"/>
</g>
<!-- y -->
<g id="node2" class="node">
<title>y</title>
<ellipse fill="lightgrey" stroke="black" cx="94" cy="-81.16" rx="78.14" ry="40.66"/>
<text text-anchor="middle" x="94" y="-92.61" font-family="Times,serif" font-size="14.00">y</text>
<text text-anchor="middle" x="94" y="-76.11" font-family="Times,serif" font-size="14.00">~</text>
<text text-anchor="middle" x="94" y="-59.61" font-family="Times,serif" font-size="14.00">MarginalMixture</text>
</g>
<!-- psi&#45;&gt;y -->
<g id="edge2" class="edge">
<title>psi&#45;&gt;y</title>
<path fill="none" stroke="black" d="M94,-169.27C94,-158.44 94,-145.73 94,-133.41"/>
<polygon fill="black" stroke="black" points="97.5,-133.78 94,-123.78 90.5,-133.78 97.5,-133.78"/>
</g>
<!-- p -->
<g id="node4" class="node">
<title>p</title>
<ellipse fill="none" stroke="black" cx="233" cy="-198.48" rx="44.72" ry="40.66"/>
<text text-anchor="middle" x="233" y="-209.93" font-family="Times,serif" font-size="14.00">p</text>
<text text-anchor="middle" x="233" y="-193.43" font-family="Times,serif" font-size="14.00">~</text>
<text text-anchor="middle" x="233" y="-176.93" font-family="Times,serif" font-size="14.00">Uniform</text>
</g>
<!-- p&#45;&gt;y -->
<g id="edge3" class="edge">
<title>p&#45;&gt;y</title>
<path fill="none" stroke="black" d="M200.41,-170.44C183.51,-156.42 162.5,-138.99 143.63,-123.33"/>
<polygon fill="black" stroke="black" points="145.95,-120.71 136.02,-117.02 141.48,-126.09 145.95,-120.71"/>
</g>
</g>
</svg>
