<?xml version="1.0" encoding="UTF-8" standalone="no"?>
<!DOCTYPE svg PUBLIC "-//W3C//DTD SVG 1.1//EN"
 "http://www.w3.org/Graphics/SVG/1.1/DTD/svg11.dtd">
<!-- Generated by graphviz version 13.1.2 (0)
 -->
<!-- Pages: 1 -->
<svg width="351pt" height="486pt"
 viewBox="0.00 0.00 351.00 486.00" xmlns="http://www.w3.org/2000/svg" xmlns:xlink="http://www.w3.org/1999/xlink">
<g id="graph0" class="graph" transform="scale(1 1) rotate(0) translate(4 482.27)">
<polygon fill="white" stroke="none" points="-4,4 -4,-482.27 347.02,-482.27 347.02,4 -4,4"/>
<g id="clust1" class="cluster">
<title>cluster200</title>
<path fill="none" stroke="black" d="M209.01,-129.82C209.01,-129.82 295.01,-129.82 295.01,-129.82 301.01,-129.82 307.01,-135.82 307.01,-141.82 307.01,-141.82 307.01,-345.04 307.01,-345.04 307.01,-351.04 301.01,-357.04 295.01,-357.04 295.01,-357.04 209.01,-357.04 209.01,-357.04 203.01,-357.04 197.01,-351.04 197.01,-345.04 197.01,-345.04 197.01,-141.82 197.01,-141.82 197.01,-135.82 203.01,-129.82 209.01,-129.82"/>
<text xml:space="preserve" text-anchor="middle" x="288.89" y="-137.02" font-family="Times,serif" font-size="14.00">200</text>
</g>
<g id="clust2" class="cluster">
<title>cluster200 x 3</title>
<path fill="none" stroke="black" d="M91.01,-8C91.01,-8 177.01,-8 177.01,-8 183.01,-8 189.01,-14 189.01,-20 189.01,-20 189.01,-227.73 189.01,-227.73 189.01,-233.73 183.01,-239.73 177.01,-239.73 177.01,-239.73 91.01,-239.73 91.01,-239.73 85.01,-239.73 79.01,-233.73 79.01,-227.73 79.01,-227.73 79.01,-20 79.01,-20 79.01,-14 85.01,-8 91.01,-8"/>
<text xml:space="preserve" text-anchor="middle" x="160.39" y="-15.2" font-family="Times,serif" font-size="14.00">200 x 3</text>
</g>
<!-- alpha0 -->
<g id="node1" class="node">
<title>alpha0</title>
<ellipse fill="none" stroke="black" cx="41.01" cy="-320.29" rx="41.01" ry="40.66"/>
<text xml:space="preserve" text-anchor="middle" x="41.01" y="-331.74" font-family="Times,serif" font-size="14.00">alpha0</text>
<text xml:space="preserve" text-anchor="middle" x="41.01" y="-315.24" font-family="Times,serif" font-size="14.00">~</text>
<text xml:space="preserve" text-anchor="middle" x="41.01" y="-298.74" font-family="Times,serif" font-size="14.00">Normal</text>
</g>
<!-- p -->
<g id="node8" class="node">
<title>p</title>
<polygon fill="none" stroke="black" points="179.14,-231.73 88.89,-231.73 88.89,-174.23 179.14,-174.23 179.14,-231.73"/>
<text xml:space="preserve" text-anchor="middle" x="134.01" y="-214.43" font-family="Times,serif" font-size="14.00">p</text>
<text xml:space="preserve" text-anchor="middle" x="134.01" y="-197.93" font-family="Times,serif" font-size="14.00">~</text>
<text xml:space="preserve" text-anchor="middle" x="134.01" y="-181.43" font-family="Times,serif" font-size="14.00">Deterministic</text>
</g>
<!-- alpha0&#45;&gt;p -->
<g id="edge3" class="edge">
<title>alpha0&#45;&gt;p</title>
<path fill="none" stroke="black" d="M66.42,-287.78C78.2,-273.18 92.27,-255.73 104.52,-240.55"/>
<polygon fill="black" stroke="black" points="106.98,-243.07 110.53,-233.09 101.53,-238.67 106.98,-243.07"/>
</g>
<!-- beta1 -->
<g id="node2" class="node">
<title>beta1</title>
<ellipse fill="none" stroke="black" cx="202.01" cy="-437.61" rx="41.01" ry="40.66"/>
<text xml:space="preserve" text-anchor="middle" x="202.01" y="-449.06" font-family="Times,serif" font-size="14.00">beta1</text>
<text xml:space="preserve" text-anchor="middle" x="202.01" y="-432.56" font-family="Times,serif" font-size="14.00">~</text>
<text xml:space="preserve" text-anchor="middle" x="202.01" y="-416.06" font-family="Times,serif" font-size="14.00">Normal</text>
</g>
<!-- psi -->
<g id="node6" class="node">
<title>psi</title>
<polygon fill="none" stroke="black" points="297.14,-349.04 206.89,-349.04 206.89,-291.54 297.14,-291.54 297.14,-349.04"/>
<text xml:space="preserve" text-anchor="middle" x="252.01" y="-331.74" font-family="Times,serif" font-size="14.00">psi</text>
<text xml:space="preserve" text-anchor="middle" x="252.01" y="-315.24" font-family="Times,serif" font-size="14.00">~</text>
<text xml:space="preserve" text-anchor="middle" x="252.01" y="-298.74" font-family="Times,serif" font-size="14.00">Deterministic</text>
</g>
<!-- beta1&#45;&gt;psi -->
<g id="edge1" class="edge">
<title>beta1&#45;&gt;psi</title>
<path fill="none" stroke="black" d="M217.97,-399.81C223.51,-387.04 229.73,-372.69 235.32,-359.78"/>
<polygon fill="black" stroke="black" points="238.48,-361.31 239.24,-350.74 232.06,-358.52 238.48,-361.31"/>
</g>
<!-- beta0 -->
<g id="node3" class="node">
<title>beta0</title>
<ellipse fill="none" stroke="black" cx="302.01" cy="-437.61" rx="41.01" ry="40.66"/>
<text xml:space="preserve" text-anchor="middle" x="302.01" y="-449.06" font-family="Times,serif" font-size="14.00">beta0</text>
<text xml:space="preserve" text-anchor="middle" x="302.01" y="-432.56" font-family="Times,serif" font-size="14.00">~</text>
<text xml:space="preserve" text-anchor="middle" x="302.01" y="-416.06" font-family="Times,serif" font-size="14.00">Normal</text>
</g>
<!-- beta0&#45;&gt;psi -->
<g id="edge2" class="edge">
<title>beta0&#45;&gt;psi</title>
<path fill="none" stroke="black" d="M286.05,-399.81C280.52,-387.04 274.3,-372.69 268.7,-359.78"/>
<polygon fill="black" stroke="black" points="271.97,-358.52 264.78,-350.74 265.55,-361.31 271.97,-358.52"/>
</g>
<!-- alpha1 -->
<g id="node4" class="node">
<title>alpha1</title>
<ellipse fill="none" stroke="black" cx="141.01" cy="-320.29" rx="41.01" ry="40.66"/>
<text xml:space="preserve" text-anchor="middle" x="141.01" y="-331.74" font-family="Times,serif" font-size="14.00">alpha1</text>
<text xml:space="preserve" text-anchor="middle" x="141.01" y="-315.24" font-family="Times,serif" font-size="14.00">~</text>
<text xml:space="preserve" text-anchor="middle" x="141.01" y="-298.74" font-family="Times,serif" font-size="14.00">Normal</text>
</g>
<!-- alpha1&#45;&gt;p -->
<g id="edge4" class="edge">
<title>alpha1&#45;&gt;p</title>
<path fill="none" stroke="black" d="M138.58,-279.28C137.87,-267.58 137.1,-254.79 136.39,-243.14"/>
<polygon fill="black" stroke="black" points="139.9,-243.22 135.8,-233.45 132.91,-243.64 139.9,-243.22"/>
</g>
<!-- z -->
<g id="node5" class="node">
<title>z</title>
<ellipse fill="none" stroke="black" cx="252.01" cy="-202.98" rx="47.38" ry="40.66"/>
<text xml:space="preserve" text-anchor="middle" x="252.01" y="-214.43" font-family="Times,serif" font-size="14.00">z</text>
<text xml:space="preserve" text-anchor="middle" x="252.01" y="-197.93" font-family="Times,serif" font-size="14.00">~</text>
<text xml:space="preserve" text-anchor="middle" x="252.01" y="-181.43" font-family="Times,serif" font-size="14.00">Bernoulli</text>
</g>
<!-- y -->
<g id="node7" class="node">
<title>y</title>
<ellipse fill="lightgrey" stroke="black" cx="134.01" cy="-81.16" rx="47.38" ry="40.66"/>
<text xml:space="preserve" text-anchor="middle" x="134.01" y="-92.61" font-family="Times,serif" font-size="14.00">y</text>
<text xml:space="preserve" text-anchor="middle" x="134.01" y="-76.11" font-family="Times,serif" font-size="14.00">~</text>
<text xml:space="preserve" text-anchor="middle" x="134.01" y="-59.61" font-family="Times,serif" font-size="14.00">Bernoulli</text>
</g>
<!-- z&#45;&gt;y -->
<g id="edge6" class="edge">
<title>z&#45;&gt;y</title>
<path fill="none" stroke="black" d="M226.94,-168.42C216.92,-155.82 204.95,-141.68 193.01,-129.82 188.35,-125.18 183.25,-120.54 178.08,-116.07"/>
<polygon fill="black" stroke="black" points="180.42,-113.46 170.51,-109.71 175.92,-118.82 180.42,-113.46"/>
</g>
<!-- psi&#45;&gt;z -->
<g id="edge5" class="edge">
<title>psi&#45;&gt;z</title>
<path fill="none" stroke="black" d="M252.01,-291.08C252.01,-280.26 252.01,-267.55 252.01,-255.23"/>
<polygon fill="black" stroke="black" points="255.51,-255.6 252.01,-245.6 248.51,-255.6 255.51,-255.6"/>
</g>
<!-- p&#45;&gt;y -->
<g id="edge7" class="edge">
<title>p&#45;&gt;y</title>
<path fill="none" stroke="black" d="M134.01,-173.88C134.01,-161.78 134.01,-147.23 134.01,-133.33"/>
<polygon fill="black" stroke="black" points="137.51,-133.38 134.01,-123.38 130.51,-133.38 137.51,-133.38"/>
</g>
</g>
</svg>
