<?xml version="1.0" encoding="UTF-8" standalone="no"?>
<!DOCTYPE svg PUBLIC "-//W3C//DTD SVG 1.1//EN"
 "http://www.w3.org/Graphics/SVG/1.1/DTD/svg11.dtd">
<!-- Generated by graphviz version 9.0.0 (0)
 -->
<!-- Pages: 1 -->
<svg width="470pt" height="499pt"
 viewBox="0.00 0.00 470.01 498.95" xmlns="http://www.w3.org/2000/svg" xmlns:xlink="http://www.w3.org/1999/xlink">
<g id="graph0" class="graph" transform="scale(1 1) rotate(0) translate(4 494.95)">
<polygon fill="white" stroke="none" points="-4,4 -4,-494.95 466.01,-494.95 466.01,4 -4,4"/>
<g id="clust1" class="cluster">
<title>clusterspecies (50)</title>
<path fill="none" stroke="black" d="M120.01,-231.32C120.01,-231.32 194.01,-231.32 194.01,-231.32 200.01,-231.32 206.01,-237.32 206.01,-243.32 206.01,-243.32 206.01,-341.13 206.01,-341.13 206.01,-347.13 200.01,-353.13 194.01,-353.13 194.01,-353.13 120.01,-353.13 120.01,-353.13 114.01,-353.13 108.01,-347.13 108.01,-341.13 108.01,-341.13 108.01,-243.32 108.01,-243.32 108.01,-237.32 114.01,-231.32 120.01,-231.32"/>
<text text-anchor="middle" x="165.39" y="-238.52" font-family="Times,serif" font-size="14.00">species (50)</text>
</g>
<g id="clust2" class="cluster">
<title>cluster6400</title>
<path fill="none" stroke="black" d="M122.01,-8C122.01,-8 312.01,-8 312.01,-8 318.01,-8 324.01,-14 324.01,-20 324.01,-20 324.01,-211.32 324.01,-211.32 324.01,-217.32 318.01,-223.32 312.01,-223.32 312.01,-223.32 122.01,-223.32 122.01,-223.32 116.01,-223.32 110.01,-217.32 110.01,-211.32 110.01,-211.32 110.01,-20 110.01,-20 110.01,-14 116.01,-8 122.01,-8"/>
<text text-anchor="middle" x="302.51" y="-15.2" font-family="Times,serif" font-size="14.00">6400</text>
</g>
<g id="clust3" class="cluster">
<title>clusterlanduse (4)</title>
<path fill="none" stroke="black" d="M236.01,-361.13C236.01,-361.13 442.01,-361.13 442.01,-361.13 448.01,-361.13 454.01,-367.13 454.01,-373.13 454.01,-373.13 454.01,-470.95 454.01,-470.95 454.01,-476.95 448.01,-482.95 442.01,-482.95 442.01,-482.95 236.01,-482.95 236.01,-482.95 230.01,-482.95 224.01,-476.95 224.01,-470.95 224.01,-470.95 224.01,-373.13 224.01,-373.13 224.01,-367.13 230.01,-361.13 236.01,-361.13"/>
<text text-anchor="middle" x="415.64" y="-368.33" font-family="Times,serif" font-size="14.00">landuse (4)</text>
</g>
<g id="clust4" class="cluster">
<title>clusterspecies (50) x landuse (4)</title>
<path fill="none" stroke="black" d="M231.01,-231.32C231.01,-231.32 363.01,-231.32 363.01,-231.32 369.01,-231.32 375.01,-237.32 375.01,-243.32 375.01,-243.32 375.01,-341.13 375.01,-341.13 375.01,-347.13 369.01,-353.13 363.01,-353.13 363.01,-353.13 231.01,-353.13 231.01,-353.13 225.01,-353.13 219.01,-347.13 219.01,-341.13 219.01,-341.13 219.01,-243.32 219.01,-243.32 219.01,-237.32 225.01,-231.32 231.01,-231.32"/>
<text text-anchor="middle" x="296.89" y="-238.52" font-family="Times,serif" font-size="14.00">species (50) x landuse (4)</text>
</g>
<!-- mu_a -->
<g id="node1" class="node">
<title>mu_a</title>
<ellipse fill="none" stroke="black" cx="41.01" cy="-434.29" rx="41.01" ry="40.66"/>
<text text-anchor="middle" x="41.01" y="-445.74" font-family="Times,serif" font-size="14.00">mu_a</text>
<text text-anchor="middle" x="41.01" y="-429.24" font-family="Times,serif" font-size="14.00">~</text>
<text text-anchor="middle" x="41.01" y="-412.74" font-family="Times,serif" font-size="14.00">Normal</text>
</g>
<!-- alpha -->
<g id="node3" class="node">
<title>alpha</title>
<ellipse fill="none" stroke="black" cx="157.01" cy="-304.48" rx="41.01" ry="40.66"/>
<text text-anchor="middle" x="157.01" y="-315.93" font-family="Times,serif" font-size="14.00">alpha</text>
<text text-anchor="middle" x="157.01" y="-299.43" font-family="Times,serif" font-size="14.00">~</text>
<text text-anchor="middle" x="157.01" y="-282.93" font-family="Times,serif" font-size="14.00">Normal</text>
</g>
<!-- mu_a&#45;&gt;alpha -->
<g id="edge1" class="edge">
<title>mu_a&#45;&gt;alpha</title>
<path fill="none" stroke="black" d="M61.92,-399.22C70.29,-386.7 80.45,-372.75 91.01,-361.13 98.58,-352.82 107.37,-344.6 116.03,-337.13"/>
<polygon fill="black" stroke="black" points="118.03,-340.02 123.43,-330.91 113.53,-334.66 118.03,-340.02"/>
</g>
<!-- sigma_a -->
<g id="node2" class="node">
<title>sigma_a</title>
<ellipse fill="none" stroke="black" cx="157.01" cy="-434.29" rx="57.45" ry="40.66"/>
<text text-anchor="middle" x="157.01" y="-445.74" font-family="Times,serif" font-size="14.00">sigma_a</text>
<text text-anchor="middle" x="157.01" y="-429.24" font-family="Times,serif" font-size="14.00">~</text>
<text text-anchor="middle" x="157.01" y="-412.74" font-family="Times,serif" font-size="14.00">Exponential</text>
</g>
<!-- sigma_a&#45;&gt;alpha -->
<g id="edge2" class="edge">
<title>sigma_a&#45;&gt;alpha</title>
<path fill="none" stroke="black" d="M157.01,-393.2C157.01,-381.66 157.01,-368.91 157.01,-356.79"/>
<polygon fill="black" stroke="black" points="160.51,-356.94 157.01,-346.94 153.51,-356.94 160.51,-356.94"/>
</g>
<!-- p -->
<g id="node6" class="node">
<title>p</title>
<polygon fill="none" stroke="black" points="208.14,-215.32 117.89,-215.32 117.89,-157.82 208.14,-157.82 208.14,-215.32"/>
<text text-anchor="middle" x="163.01" y="-198.02" font-family="Times,serif" font-size="14.00">p</text>
<text text-anchor="middle" x="163.01" y="-181.52" font-family="Times,serif" font-size="14.00">~</text>
<text text-anchor="middle" x="163.01" y="-165.02" font-family="Times,serif" font-size="14.00">Deterministic</text>
</g>
<!-- alpha&#45;&gt;p -->
<g id="edge3" class="edge">
<title>alpha&#45;&gt;p</title>
<path fill="none" stroke="black" d="M159.08,-263.59C159.69,-251.7 160.37,-238.69 160.98,-226.84"/>
<polygon fill="black" stroke="black" points="164.47,-227.15 161.49,-216.98 157.48,-226.79 164.47,-227.15"/>
</g>
<!-- psi -->
<g id="node4" class="node">
<title>psi</title>
<polygon fill="none" stroke="black" points="316.14,-215.32 225.89,-215.32 225.89,-157.82 316.14,-157.82 316.14,-215.32"/>
<text text-anchor="middle" x="271.01" y="-198.02" font-family="Times,serif" font-size="14.00">psi</text>
<text text-anchor="middle" x="271.01" y="-181.52" font-family="Times,serif" font-size="14.00">~</text>
<text text-anchor="middle" x="271.01" y="-165.02" font-family="Times,serif" font-size="14.00">Deterministic</text>
</g>
<!-- y -->
<g id="node5" class="node">
<title>y</title>
<ellipse fill="lightgrey" stroke="black" cx="217.01" cy="-81.16" rx="78.14" ry="40.66"/>
<text text-anchor="middle" x="217.01" y="-92.61" font-family="Times,serif" font-size="14.00">y</text>
<text text-anchor="middle" x="217.01" y="-76.11" font-family="Times,serif" font-size="14.00">~</text>
<text text-anchor="middle" x="217.01" y="-59.61" font-family="Times,serif" font-size="14.00">MarginalMixture</text>
</g>
<!-- psi&#45;&gt;y -->
<g id="edge7" class="edge">
<title>psi&#45;&gt;y</title>
<path fill="none" stroke="black" d="M256.4,-157.58C252.04,-149.24 247.13,-139.84 242.3,-130.58"/>
<polygon fill="black" stroke="black" points="245.54,-129.23 237.81,-121.99 239.34,-132.47 245.54,-129.23"/>
</g>
<!-- p&#45;&gt;y -->
<g id="edge8" class="edge">
<title>p&#45;&gt;y</title>
<path fill="none" stroke="black" d="M177.63,-157.58C181.98,-149.24 186.89,-139.84 191.73,-130.58"/>
<polygon fill="black" stroke="black" points="194.69,-132.47 196.21,-121.99 188.48,-129.23 194.69,-132.47"/>
</g>
<!-- sigma_b -->
<g id="node7" class="node">
<title>sigma_b</title>
<ellipse fill="none" stroke="black" cx="389.01" cy="-434.29" rx="57.45" ry="40.66"/>
<text text-anchor="middle" x="389.01" y="-445.74" font-family="Times,serif" font-size="14.00">sigma_b</text>
<text text-anchor="middle" x="389.01" y="-429.24" font-family="Times,serif" font-size="14.00">~</text>
<text text-anchor="middle" x="389.01" y="-412.74" font-family="Times,serif" font-size="14.00">Exponential</text>
</g>
<!-- beta -->
<g id="node9" class="node">
<title>beta</title>
<ellipse fill="none" stroke="black" cx="273.01" cy="-304.48" rx="41.01" ry="40.66"/>
<text text-anchor="middle" x="273.01" y="-315.93" font-family="Times,serif" font-size="14.00">beta</text>
<text text-anchor="middle" x="273.01" y="-299.43" font-family="Times,serif" font-size="14.00">~</text>
<text text-anchor="middle" x="273.01" y="-282.93" font-family="Times,serif" font-size="14.00">Normal</text>
</g>
<!-- sigma_b&#45;&gt;beta -->
<g id="edge4" class="edge">
<title>sigma_b&#45;&gt;beta</title>
<path fill="none" stroke="black" d="M358.53,-399.71C342.96,-382.55 323.94,-361.59 307.79,-343.8"/>
<polygon fill="black" stroke="black" points="310.45,-341.52 301.14,-336.47 305.27,-346.23 310.45,-341.52"/>
</g>
<!-- mu_b -->
<g id="node8" class="node">
<title>mu_b</title>
<ellipse fill="none" stroke="black" cx="273.01" cy="-434.29" rx="41.01" ry="40.66"/>
<text text-anchor="middle" x="273.01" y="-445.74" font-family="Times,serif" font-size="14.00">mu_b</text>
<text text-anchor="middle" x="273.01" y="-429.24" font-family="Times,serif" font-size="14.00">~</text>
<text text-anchor="middle" x="273.01" y="-412.74" font-family="Times,serif" font-size="14.00">Normal</text>
</g>
<!-- mu_b&#45;&gt;beta -->
<g id="edge5" class="edge">
<title>mu_b&#45;&gt;beta</title>
<path fill="none" stroke="black" d="M273.01,-393.2C273.01,-381.66 273.01,-368.91 273.01,-356.79"/>
<polygon fill="black" stroke="black" points="276.51,-356.94 273.01,-346.94 269.51,-356.94 276.51,-356.94"/>
</g>
<!-- beta&#45;&gt;psi -->
<g id="edge6" class="edge">
<title>beta&#45;&gt;psi</title>
<path fill="none" stroke="black" d="M272.32,-263.59C272.12,-251.7 271.89,-238.69 271.69,-226.84"/>
<polygon fill="black" stroke="black" points="275.19,-226.92 271.52,-216.98 268.19,-227.04 275.19,-226.92"/>
</g>
</g>
</svg>
