<?xml version="1.0" encoding="UTF-8" standalone="no"?>
<!DOCTYPE svg PUBLIC "-//W3C//DTD SVG 1.1//EN"
 "http://www.w3.org/Graphics/SVG/1.1/DTD/svg11.dtd">
<!-- Generated by graphviz version 9.0.0 (0)
 -->
<!-- Pages: 1 -->
<svg width="664pt" height="515pt"
 viewBox="0.00 0.00 663.72 515.36" xmlns="http://www.w3.org/2000/svg" xmlns:xlink="http://www.w3.org/1999/xlink">
<g id="graph0" class="graph" transform="scale(1 1) rotate(0) translate(4 511.36)">
<polygon fill="white" stroke="none" points="-4,4 -4,-511.36 659.72,-511.36 659.72,4 -4,4"/>
<g id="clust5" class="cluster">
<title>clusterprocess (2) x process_bis (2)</title>
<path fill="none" stroke="black" d="M487.72,-259.63C487.72,-259.63 635.72,-259.63 635.72,-259.63 641.72,-259.63 647.72,-265.63 647.72,-271.63 647.72,-271.63 647.72,-345.63 647.72,-345.63 647.72,-351.63 641.72,-357.63 635.72,-357.63 635.72,-357.63 487.72,-357.63 487.72,-357.63 481.72,-357.63 475.72,-351.63 475.72,-345.63 475.72,-345.63 475.72,-271.63 475.72,-271.63 475.72,-265.63 481.72,-259.63 487.72,-259.63"/>
<text text-anchor="middle" x="561.35" y="-266.83" font-family="Times,serif" font-size="14.00">process (2) x process_bis (2)</text>
</g>
<g id="clust6" class="cluster">
<title>clusterspecies_aug (250) x process (2)</title>
<path fill="none" stroke="black" d="M63.72,-247.73C63.72,-247.73 227.72,-247.73 227.72,-247.73 233.72,-247.73 239.72,-253.73 239.72,-259.73 239.72,-259.73 239.72,-357.54 239.72,-357.54 239.72,-363.54 233.72,-369.54 227.72,-369.54 227.72,-369.54 63.72,-369.54 63.72,-369.54 57.72,-369.54 51.72,-363.54 51.72,-357.54 51.72,-357.54 51.72,-259.73 51.72,-259.73 51.72,-253.73 57.72,-247.73 63.72,-247.73"/>
<text text-anchor="middle" x="145.47" y="-254.93" font-family="Times,serif" font-size="14.00">species_aug (250) x process (2)</text>
</g>
<g id="clust2" class="cluster">
<title>cluster3</title>
<path fill="none" stroke="black" d="M289.72,-377.54C289.72,-377.54 449.72,-377.54 449.72,-377.54 455.72,-377.54 461.72,-383.54 461.72,-389.54 461.72,-389.54 461.72,-487.36 461.72,-487.36 461.72,-493.36 455.72,-499.36 449.72,-499.36 449.72,-499.36 289.72,-499.36 289.72,-499.36 283.72,-499.36 277.72,-493.36 277.72,-487.36 277.72,-487.36 277.72,-389.54 277.72,-389.54 277.72,-383.54 283.72,-377.54 289.72,-377.54"/>
<text text-anchor="middle" x="450.35" y="-384.74" font-family="Times,serif" font-size="14.00">3</text>
</g>
<g id="clust4" class="cluster">
<title>cluster2</title>
<path fill="none" stroke="black" d="M373.72,-259.63C373.72,-259.63 455.72,-259.63 455.72,-259.63 461.72,-259.63 467.72,-265.63 467.72,-271.63 467.72,-271.63 467.72,-345.63 467.72,-345.63 467.72,-351.63 461.72,-357.63 455.72,-357.63 455.72,-357.63 373.72,-357.63 373.72,-357.63 367.72,-357.63 361.72,-351.63 361.72,-345.63 361.72,-345.63 361.72,-271.63 361.72,-271.63 361.72,-265.63 367.72,-259.63 373.72,-259.63"/>
<text text-anchor="middle" x="456.35" y="-266.83" font-family="Times,serif" font-size="14.00">2</text>
</g>
<g id="clust1" class="cluster">
<title>clusterprocess (2)</title>
<path fill="none" stroke="black" d="M139.72,-377.54C139.72,-377.54 213.72,-377.54 213.72,-377.54 219.72,-377.54 225.72,-383.54 225.72,-389.54 225.72,-389.54 225.72,-487.36 225.72,-487.36 225.72,-493.36 219.72,-499.36 213.72,-499.36 213.72,-499.36 139.72,-499.36 139.72,-499.36 133.72,-499.36 127.72,-493.36 127.72,-487.36 127.72,-487.36 127.72,-389.54 127.72,-389.54 127.72,-383.54 133.72,-377.54 139.72,-377.54"/>
<text text-anchor="middle" x="187.72" y="-384.74" font-family="Times,serif" font-size="14.00">process (2)</text>
</g>
<g id="clust3" class="cluster">
<title>cluster2 x 2</title>
<path fill="none" stroke="black" d="M259.72,-259.63C259.72,-259.63 341.72,-259.63 341.72,-259.63 347.72,-259.63 353.72,-265.63 353.72,-271.63 353.72,-271.63 353.72,-345.63 353.72,-345.63 353.72,-351.63 347.72,-357.63 341.72,-357.63 341.72,-357.63 259.72,-357.63 259.72,-357.63 253.72,-357.63 247.72,-351.63 247.72,-345.63 247.72,-345.63 247.72,-271.63 247.72,-271.63 247.72,-265.63 253.72,-259.63 259.72,-259.63"/>
<text text-anchor="middle" x="331.85" y="-266.83" font-family="Times,serif" font-size="14.00">2 x 2</text>
</g>
<g id="clust7" class="cluster">
<title>cluster250 x 1</title>
<path fill="none" stroke="black" d="M111.72,-137.82C111.72,-137.82 301.72,-137.82 301.72,-137.82 307.72,-137.82 313.72,-143.82 313.72,-149.82 313.72,-149.82 313.72,-223.82 313.72,-223.82 313.72,-229.82 307.72,-235.82 301.72,-235.82 301.72,-235.82 111.72,-235.82 111.72,-235.82 105.72,-235.82 99.72,-229.82 99.72,-223.82 99.72,-223.82 99.72,-149.82 99.72,-149.82 99.72,-143.82 105.72,-137.82 111.72,-137.82"/>
<text text-anchor="middle" x="285.1" y="-145.02" font-family="Times,serif" font-size="14.00">250 x 1</text>
</g>
<g id="clust8" class="cluster">
<title>cluster250 x 50</title>
<path fill="none" stroke="black" d="M87.72,-8C87.72,-8 217.72,-8 217.72,-8 223.72,-8 229.72,-14 229.72,-20 229.72,-20 229.72,-117.82 229.72,-117.82 229.72,-123.82 223.72,-129.82 217.72,-129.82 217.72,-129.82 87.72,-129.82 87.72,-129.82 81.72,-129.82 75.72,-123.82 75.72,-117.82 75.72,-117.82 75.72,-20 75.72,-20 75.72,-14 81.72,-8 87.72,-8"/>
<text text-anchor="middle" x="197.72" y="-15.2" font-family="Times,serif" font-size="14.00">250 x 50</text>
</g>
<!-- omega -->
<g id="node1" class="node">
<title>omega</title>
<ellipse fill="none" stroke="black" cx="44.72" cy="-199.07" rx="44.72" ry="40.66"/>
<text text-anchor="middle" x="44.72" y="-210.52" font-family="Times,serif" font-size="14.00">omega</text>
<text text-anchor="middle" x="44.72" y="-194.02" font-family="Times,serif" font-size="14.00">~</text>
<text text-anchor="middle" x="44.72" y="-177.52" font-family="Times,serif" font-size="14.00">Uniform</text>
</g>
<!-- Y -->
<g id="node10" class="node">
<title>Y</title>
<ellipse fill="lightgrey" stroke="black" cx="152.72" cy="-81.16" rx="69.12" ry="40.66"/>
<text text-anchor="middle" x="152.72" y="-92.61" font-family="Times,serif" font-size="14.00">Y</text>
<text text-anchor="middle" x="152.72" y="-76.11" font-family="Times,serif" font-size="14.00">~</text>
<text text-anchor="middle" x="152.72" y="-59.61" font-family="Times,serif" font-size="14.00">CustomDist_Y</text>
</g>
<!-- omega&#45;&gt;Y -->
<g id="edge10" class="edge">
<title>omega&#45;&gt;Y</title>
<path fill="none" stroke="black" d="M71.17,-165.68C78.91,-156.52 87.51,-146.64 95.72,-137.82 99.91,-133.33 104.35,-128.72 108.84,-124.17"/>
<polygon fill="black" stroke="black" points="111.26,-126.7 115.86,-117.16 106.31,-121.75 111.26,-126.7"/>
</g>
<!-- mu -->
<g id="node2" class="node">
<title>mu</title>
<ellipse fill="none" stroke="black" cx="176.72" cy="-450.7" rx="41.01" ry="40.66"/>
<text text-anchor="middle" x="176.72" y="-462.15" font-family="Times,serif" font-size="14.00">mu</text>
<text text-anchor="middle" x="176.72" y="-445.65" font-family="Times,serif" font-size="14.00">~</text>
<text text-anchor="middle" x="176.72" y="-429.15" font-family="Times,serif" font-size="14.00">Normal</text>
</g>
<!-- ab -->
<g id="node7" class="node">
<title>ab</title>
<ellipse fill="none" stroke="black" cx="176.72" cy="-320.88" rx="54.8" ry="40.66"/>
<text text-anchor="middle" x="176.72" y="-332.33" font-family="Times,serif" font-size="14.00">ab</text>
<text text-anchor="middle" x="176.72" y="-315.83" font-family="Times,serif" font-size="14.00">~</text>
<text text-anchor="middle" x="176.72" y="-299.33" font-family="Times,serif" font-size="14.00">MvNormal</text>
</g>
<!-- mu&#45;&gt;ab -->
<g id="edge4" class="edge">
<title>mu&#45;&gt;ab</title>
<path fill="none" stroke="black" d="M176.72,-409.61C176.72,-398.07 176.72,-385.32 176.72,-373.2"/>
<polygon fill="black" stroke="black" points="180.22,-373.35 176.72,-363.35 173.22,-373.35 180.22,-373.35"/>
</g>
<!-- chol -->
<g id="node3" class="node">
<title>chol</title>
<ellipse fill="none" stroke="black" cx="369.72" cy="-450.7" rx="84.5" ry="40.66"/>
<text text-anchor="middle" x="369.72" y="-462.15" font-family="Times,serif" font-size="14.00">chol</text>
<text text-anchor="middle" x="369.72" y="-445.65" font-family="Times,serif" font-size="14.00">~</text>
<text text-anchor="middle" x="369.72" y="-429.15" font-family="Times,serif" font-size="14.00">_LKJCholeskyCov</text>
</g>
<!-- chol_corr -->
<g id="node4" class="node">
<title>chol_corr</title>
<polygon fill="none" stroke="black" points="345.85,-349.63 255.6,-349.63 255.6,-292.13 345.85,-292.13 345.85,-349.63"/>
<text text-anchor="middle" x="300.72" y="-332.33" font-family="Times,serif" font-size="14.00">chol_corr</text>
<text text-anchor="middle" x="300.72" y="-315.83" font-family="Times,serif" font-size="14.00">~</text>
<text text-anchor="middle" x="300.72" y="-299.33" font-family="Times,serif" font-size="14.00">Deterministic</text>
</g>
<!-- chol&#45;&gt;chol_corr -->
<g id="edge1" class="edge">
<title>chol&#45;&gt;chol_corr</title>
<path fill="none" stroke="black" d="M348.83,-411.01C340.03,-394.7 329.82,-375.78 321.08,-359.58"/>
<polygon fill="black" stroke="black" points="324.4,-358.37 316.57,-351.23 318.24,-361.69 324.4,-358.37"/>
</g>
<!-- chol_stds -->
<g id="node5" class="node">
<title>chol_stds</title>
<polygon fill="none" stroke="black" points="459.85,-349.63 369.6,-349.63 369.6,-292.13 459.85,-292.13 459.85,-349.63"/>
<text text-anchor="middle" x="414.72" y="-332.33" font-family="Times,serif" font-size="14.00">chol_stds</text>
<text text-anchor="middle" x="414.72" y="-315.83" font-family="Times,serif" font-size="14.00">~</text>
<text text-anchor="middle" x="414.72" y="-299.33" font-family="Times,serif" font-size="14.00">Deterministic</text>
</g>
<!-- chol&#45;&gt;chol_stds -->
<g id="edge2" class="edge">
<title>chol&#45;&gt;chol_stds</title>
<path fill="none" stroke="black" d="M383.59,-410.31C389.17,-394.46 395.59,-376.23 401.14,-360.46"/>
<polygon fill="black" stroke="black" points="404.31,-362.02 404.33,-351.42 397.7,-359.69 404.31,-362.02"/>
</g>
<!-- cov -->
<g id="node6" class="node">
<title>cov</title>
<polygon fill="none" stroke="black" points="573.85,-349.63 483.6,-349.63 483.6,-292.13 573.85,-292.13 573.85,-349.63"/>
<text text-anchor="middle" x="528.72" y="-332.33" font-family="Times,serif" font-size="14.00">cov</text>
<text text-anchor="middle" x="528.72" y="-315.83" font-family="Times,serif" font-size="14.00">~</text>
<text text-anchor="middle" x="528.72" y="-299.33" font-family="Times,serif" font-size="14.00">Deterministic</text>
</g>
<!-- chol&#45;&gt;cov -->
<g id="edge3" class="edge">
<title>chol&#45;&gt;cov</title>
<path fill="none" stroke="black" d="M413.63,-415.66C431.72,-401.52 452.83,-384.86 471.72,-369.54 476.67,-365.54 481.82,-361.3 486.92,-357.08"/>
<polygon fill="black" stroke="black" points="488.79,-360.08 494.25,-351 484.32,-354.7 488.79,-360.08"/>
</g>
<!-- chol&#45;&gt;ab -->
<g id="edge5" class="edge">
<title>chol&#45;&gt;ab</title>
<path fill="none" stroke="black" d="M318.45,-417.92C295.43,-403.44 268.03,-385.9 243.72,-369.54 237.52,-365.37 231.05,-360.9 224.68,-356.44"/>
<polygon fill="black" stroke="black" points="226.89,-353.72 216.7,-350.82 222.85,-359.44 226.89,-353.72"/>
</g>
<!-- p -->
<g id="node8" class="node">
<title>p</title>
<polygon fill="none" stroke="black" points="305.85,-227.82 215.6,-227.82 215.6,-170.32 305.85,-170.32 305.85,-227.82"/>
<text text-anchor="middle" x="260.72" y="-210.52" font-family="Times,serif" font-size="14.00">p</text>
<text text-anchor="middle" x="260.72" y="-194.02" font-family="Times,serif" font-size="14.00">~</text>
<text text-anchor="middle" x="260.72" y="-177.52" font-family="Times,serif" font-size="14.00">Deterministic</text>
</g>
<!-- ab&#45;&gt;p -->
<g id="edge6" class="edge">
<title>ab&#45;&gt;p</title>
<path fill="none" stroke="black" d="M201.7,-284.26C212.11,-269.41 224.21,-252.16 234.72,-237.15"/>
<polygon fill="black" stroke="black" points="237.3,-239.58 240.17,-229.38 231.57,-235.56 237.3,-239.58"/>
</g>
<!-- psi -->
<g id="node9" class="node">
<title>psi</title>
<polygon fill="none" stroke="black" points="197.85,-227.82 107.6,-227.82 107.6,-170.32 197.85,-170.32 197.85,-227.82"/>
<text text-anchor="middle" x="152.72" y="-210.52" font-family="Times,serif" font-size="14.00">psi</text>
<text text-anchor="middle" x="152.72" y="-194.02" font-family="Times,serif" font-size="14.00">~</text>
<text text-anchor="middle" x="152.72" y="-177.52" font-family="Times,serif" font-size="14.00">Deterministic</text>
</g>
<!-- ab&#45;&gt;psi -->
<g id="edge7" class="edge">
<title>ab&#45;&gt;psi</title>
<path fill="none" stroke="black" d="M168.8,-280.32C166.16,-267.14 163.22,-252.47 160.59,-239.31"/>
<polygon fill="black" stroke="black" points="164.06,-238.82 158.66,-229.7 157.19,-240.19 164.06,-238.82"/>
</g>
<!-- p&#45;&gt;Y -->
<g id="edge9" class="edge">
<title>p&#45;&gt;Y</title>
<path fill="none" stroke="black" d="M235.95,-169.96C226.85,-159.76 216.4,-148.19 206.72,-137.82 202.86,-133.68 198.81,-129.4 194.74,-125.13"/>
<polygon fill="black" stroke="black" points="197.43,-122.87 187.98,-118.08 192.38,-127.72 197.43,-122.87"/>
</g>
<!-- psi&#45;&gt;Y -->
<g id="edge8" class="edge">
<title>psi&#45;&gt;Y</title>
<path fill="none" stroke="black" d="M152.72,-170.01C152.72,-159.03 152.72,-146.08 152.72,-133.55"/>
<polygon fill="black" stroke="black" points="156.22,-133.74 152.72,-123.74 149.22,-133.74 156.22,-133.74"/>
</g>
</g>
</svg>
