<?xml version="1.0" encoding="UTF-8" standalone="no"?>
<!DOCTYPE svg PUBLIC "-//W3C//DTD SVG 1.1//EN"
 "http://www.w3.org/Graphics/SVG/1.1/DTD/svg11.dtd">
<!-- Generated by graphviz version 11.0.0 (20240428.1522)
 -->
<!-- Pages: 1 -->
<svg width="276pt" height="385pt"
 viewBox="0.00 0.00 275.81 384.95" xmlns="http://www.w3.org/2000/svg" xmlns:xlink="http://www.w3.org/1999/xlink">
<g id="graph0" class="graph" transform="scale(1 1) rotate(0) translate(4 380.95)">
<polygon fill="white" stroke="none" points="-4,4 -4,-380.95 271.81,-380.95 271.81,4 -4,4"/>
<g id="clust1" class="cluster">
<title>cluster427</title>
<path fill="none" stroke="black" d="M125.81,-247.13C125.81,-247.13 247.81,-247.13 247.81,-247.13 253.81,-247.13 259.81,-253.13 259.81,-259.13 259.81,-259.13 259.81,-356.95 259.81,-356.95 259.81,-362.95 253.81,-368.95 247.81,-368.95 247.81,-368.95 125.81,-368.95 125.81,-368.95 119.81,-368.95 113.81,-362.95 113.81,-356.95 113.81,-356.95 113.81,-259.13 113.81,-259.13 113.81,-253.13 119.81,-247.13 125.81,-247.13"/>
<text text-anchor="middle" x="241.69" y="-254.33" font-family="Times,serif" font-size="14.00">427</text>
</g>
<g id="clust2" class="cluster">
<title>cluster500</title>
<path fill="none" stroke="black" d="M77.81,-8C77.81,-8 225.81,-8 225.81,-8 231.81,-8 237.81,-14 237.81,-20 237.81,-20 237.81,-223.23 237.81,-223.23 237.81,-229.23 231.81,-235.23 225.81,-235.23 225.81,-235.23 77.81,-235.23 77.81,-235.23 71.81,-235.23 65.81,-229.23 65.81,-223.23 65.81,-223.23 65.81,-20 65.81,-20 65.81,-14 71.81,-8 77.81,-8"/>
<text text-anchor="middle" x="219.69" y="-15.2" font-family="Times,serif" font-size="14.00">500</text>
</g>
<!-- psi -->
<g id="node1" class="node">
<title>psi</title>
<ellipse fill="none" stroke="black" cx="28.81" cy="-198.48" rx="28.81" ry="40.66"/>
<text text-anchor="middle" x="28.81" y="-209.93" font-family="Times,serif" font-size="14.00">psi</text>
<text text-anchor="middle" x="28.81" y="-193.43" font-family="Times,serif" font-size="14.00">~</text>
<text text-anchor="middle" x="28.81" y="-176.93" font-family="Times,serif" font-size="14.00">Beta</text>
</g>
<!-- y -->
<g id="node5" class="node">
<title>y</title>
<ellipse fill="lightgrey" stroke="black" cx="151.81" cy="-81.16" rx="78.14" ry="40.66"/>
<text text-anchor="middle" x="151.81" y="-92.61" font-family="Times,serif" font-size="14.00">y</text>
<text text-anchor="middle" x="151.81" y="-76.11" font-family="Times,serif" font-size="14.00">~</text>
<text text-anchor="middle" x="151.81" y="-59.61" font-family="Times,serif" font-size="14.00">MarginalMixture</text>
</g>
<!-- psi&#45;&gt;y -->
<g id="edge4" class="edge">
<title>psi&#45;&gt;y</title>
<path fill="none" stroke="black" d="M50.2,-170.45C53.94,-166.11 57.9,-161.75 61.81,-157.82 73.86,-145.71 87.65,-133.43 100.75,-122.39"/>
<polygon fill="black" stroke="black" points="102.62,-125.39 108.07,-116.3 98.15,-120.01 102.62,-125.39"/>
</g>
<!-- sigma -->
<g id="node2" class="node">
<title>sigma</title>
<ellipse fill="none" stroke="black" cx="58.81" cy="-320.29" rx="44.72" ry="40.66"/>
<text text-anchor="middle" x="58.81" y="-331.74" font-family="Times,serif" font-size="14.00">sigma</text>
<text text-anchor="middle" x="58.81" y="-315.24" font-family="Times,serif" font-size="14.00">~</text>
<text text-anchor="middle" x="58.81" y="-298.74" font-family="Times,serif" font-size="14.00">Uniform</text>
</g>
<!-- p -->
<g id="node4" class="node">
<title>p</title>
<polygon fill="none" stroke="black" points="196.94,-227.23 106.69,-227.23 106.69,-169.73 196.94,-169.73 196.94,-227.23"/>
<text text-anchor="middle" x="151.81" y="-209.93" font-family="Times,serif" font-size="14.00">p</text>
<text text-anchor="middle" x="151.81" y="-193.43" font-family="Times,serif" font-size="14.00">~</text>
<text text-anchor="middle" x="151.81" y="-176.93" font-family="Times,serif" font-size="14.00">Deterministic</text>
</g>
<!-- sigma&#45;&gt;p -->
<g id="edge2" class="edge">
<title>sigma&#45;&gt;p</title>
<path fill="none" stroke="black" d="M81.95,-284.97C90.44,-272.81 100.3,-259.17 109.81,-247.13 112.7,-243.48 115.77,-239.74 118.9,-236.04"/>
<polygon fill="black" stroke="black" points="121.36,-238.54 125.22,-228.68 116.05,-233.98 121.36,-238.54"/>
</g>
<!-- x_unobserved -->
<g id="node3" class="node">
<title>x_unobserved</title>
<ellipse fill="none" stroke="black" cx="186.81" cy="-320.29" rx="64.88" ry="40.66"/>
<text text-anchor="middle" x="186.81" y="-331.74" font-family="Times,serif" font-size="14.00">x_unobserved</text>
<text text-anchor="middle" x="186.81" y="-315.24" font-family="Times,serif" font-size="14.00">~</text>
<text text-anchor="middle" x="186.81" y="-298.74" font-family="Times,serif" font-size="14.00">Uniform</text>
</g>
<!-- x_unobserved&#45;&gt;p -->
<g id="edge1" class="edge">
<title>x_unobserved&#45;&gt;p</title>
<path fill="none" stroke="black" d="M175.35,-280.06C171.43,-266.62 167.04,-251.61 163.13,-238.21"/>
<polygon fill="black" stroke="black" points="166.56,-237.48 160.4,-228.86 159.84,-239.44 166.56,-237.48"/>
</g>
<!-- p&#45;&gt;y -->
<g id="edge3" class="edge">
<title>p&#45;&gt;y</title>
<path fill="none" stroke="black" d="M151.81,-169.27C151.81,-158.44 151.81,-145.73 151.81,-133.41"/>
<polygon fill="black" stroke="black" points="155.31,-133.78 151.81,-123.78 148.31,-133.78 155.31,-133.78"/>
</g>
</g>
</svg>
