<?xml version="1.0" encoding="UTF-8" standalone="no"?>
<!DOCTYPE svg PUBLIC "-//W3C//DTD SVG 1.1//EN"
 "http://www.w3.org/Graphics/SVG/1.1/DTD/svg11.dtd">
<!-- Generated by graphviz version 12.0.0 (0)
 -->
<!-- Pages: 1 -->
<svg width="266pt" height="385pt"
 viewBox="0.00 0.00 265.54 384.95" xmlns="http://www.w3.org/2000/svg" xmlns:xlink="http://www.w3.org/1999/xlink">
<g id="graph0" class="graph" transform="scale(1 1) rotate(0) translate(4 380.95)">
<polygon fill="white" stroke="none" points="-4,4 -4,-380.95 261.54,-380.95 261.54,4 -4,4"/>
<g id="clust1" class="cluster">
<title>cluster427</title>
<path fill="none" stroke="black" d="M111.72,-247.13C111.72,-247.13 233.72,-247.13 233.72,-247.13 239.72,-247.13 245.72,-253.13 245.72,-259.13 245.72,-259.13 245.72,-356.95 245.72,-356.95 245.72,-362.95 239.72,-368.95 233.72,-368.95 233.72,-368.95 111.72,-368.95 111.72,-368.95 105.72,-368.95 99.72,-362.95 99.72,-356.95 99.72,-356.95 99.72,-259.13 99.72,-259.13 99.72,-253.13 105.72,-247.13 111.72,-247.13"/>
<text text-anchor="middle" x="227.6" y="-254.33" font-family="Times,serif" font-size="14.00">427</text>
</g>
<g id="clust2" class="cluster">
<title>cluster500</title>
<path fill="none" stroke="black" d="M31.72,-8C31.72,-8 179.72,-8 179.72,-8 185.72,-8 191.72,-14 191.72,-20 191.72,-20 191.72,-223.23 191.72,-223.23 191.72,-229.23 185.72,-235.23 179.72,-235.23 179.72,-235.23 31.72,-235.23 31.72,-235.23 25.72,-235.23 19.72,-229.23 19.72,-223.23 19.72,-223.23 19.72,-20 19.72,-20 19.72,-14 25.72,-8 31.72,-8"/>
<text text-anchor="middle" x="173.6" y="-15.2" font-family="Times,serif" font-size="14.00">500</text>
</g>
<!-- sigma -->
<g id="node1" class="node">
<title>sigma</title>
<ellipse fill="none" stroke="black" cx="44.72" cy="-320.29" rx="44.72" ry="40.66"/>
<text text-anchor="middle" x="44.72" y="-331.74" font-family="Times,serif" font-size="14.00">sigma</text>
<text text-anchor="middle" x="44.72" y="-315.24" font-family="Times,serif" font-size="14.00">~</text>
<text text-anchor="middle" x="44.72" y="-298.74" font-family="Times,serif" font-size="14.00">Uniform</text>
</g>
<!-- p -->
<g id="node5" class="node">
<title>p</title>
<polygon fill="none" stroke="black" points="150.85,-227.23 60.6,-227.23 60.6,-169.73 150.85,-169.73 150.85,-227.23"/>
<text text-anchor="middle" x="105.72" y="-209.93" font-family="Times,serif" font-size="14.00">p</text>
<text text-anchor="middle" x="105.72" y="-193.43" font-family="Times,serif" font-size="14.00">~</text>
<text text-anchor="middle" x="105.72" y="-176.93" font-family="Times,serif" font-size="14.00">Deterministic</text>
</g>
<!-- sigma&#45;&gt;p -->
<g id="edge1" class="edge">
<title>sigma&#45;&gt;p</title>
<path fill="none" stroke="black" d="M63.19,-283.02C70.47,-268.72 78.84,-252.28 86.22,-237.79"/>
<polygon fill="black" stroke="black" points="89.28,-239.49 90.7,-228.99 83.04,-236.31 89.28,-239.49"/>
</g>
<!-- psi -->
<g id="node2" class="node">
<title>psi</title>
<ellipse fill="none" stroke="black" cx="228.72" cy="-198.48" rx="28.81" ry="40.66"/>
<text text-anchor="middle" x="228.72" y="-209.93" font-family="Times,serif" font-size="14.00">psi</text>
<text text-anchor="middle" x="228.72" y="-193.43" font-family="Times,serif" font-size="14.00">~</text>
<text text-anchor="middle" x="228.72" y="-176.93" font-family="Times,serif" font-size="14.00">Beta</text>
</g>
<!-- y -->
<g id="node4" class="node">
<title>y</title>
<ellipse fill="lightgrey" stroke="black" cx="105.72" cy="-81.16" rx="78.14" ry="40.66"/>
<text text-anchor="middle" x="105.72" y="-92.61" font-family="Times,serif" font-size="14.00">y</text>
<text text-anchor="middle" x="105.72" y="-76.11" font-family="Times,serif" font-size="14.00">~</text>
<text text-anchor="middle" x="105.72" y="-59.61" font-family="Times,serif" font-size="14.00">MarginalMixture</text>
</g>
<!-- psi&#45;&gt;y -->
<g id="edge4" class="edge">
<title>psi&#45;&gt;y</title>
<path fill="none" stroke="black" d="M207.34,-170.45C203.6,-166.11 199.64,-161.75 195.72,-157.82 183.68,-145.71 169.89,-133.43 156.79,-122.39"/>
<polygon fill="black" stroke="black" points="159.39,-120.01 149.47,-116.3 154.91,-125.39 159.39,-120.01"/>
</g>
<!-- x_unobserved -->
<g id="node3" class="node">
<title>x_unobserved</title>
<ellipse fill="none" stroke="black" cx="172.72" cy="-320.29" rx="64.88" ry="40.66"/>
<text text-anchor="middle" x="172.72" y="-331.74" font-family="Times,serif" font-size="14.00">x_unobserved</text>
<text text-anchor="middle" x="172.72" y="-315.24" font-family="Times,serif" font-size="14.00">~</text>
<text text-anchor="middle" x="172.72" y="-298.74" font-family="Times,serif" font-size="14.00">Uniform</text>
</g>
<!-- x_unobserved&#45;&gt;p -->
<g id="edge2" class="edge">
<title>x_unobserved&#45;&gt;p</title>
<path fill="none" stroke="black" d="M151.53,-281.38C143.69,-267.37 134.81,-251.49 126.97,-237.47"/>
<polygon fill="black" stroke="black" points="130.15,-235.98 122.21,-228.96 124.04,-239.4 130.15,-235.98"/>
</g>
<!-- p&#45;&gt;y -->
<g id="edge3" class="edge">
<title>p&#45;&gt;y</title>
<path fill="none" stroke="black" d="M105.72,-169.27C105.72,-158.44 105.72,-145.73 105.72,-133.41"/>
<polygon fill="black" stroke="black" points="109.22,-133.78 105.72,-123.78 102.22,-133.78 109.22,-133.78"/>
</g>
</g>
</svg>
