<?xml version="1.0" encoding="UTF-8" standalone="no"?>
<!DOCTYPE svg PUBLIC "-//W3C//DTD SVG 1.1//EN"
 "http://www.w3.org/Graphics/SVG/1.1/DTD/svg11.dtd">
<!-- Generated by graphviz version 11.0.0 (20240428.1522)
 -->
<!-- Pages: 1 -->
<svg width="209pt" height="276pt"
 viewBox="0.00 0.00 209.00 275.63" xmlns="http://www.w3.org/2000/svg" xmlns:xlink="http://www.w3.org/1999/xlink">
<g id="graph0" class="graph" transform="scale(1 1) rotate(0) translate(4 271.63)">
<polygon fill="white" stroke="none" points="-4,4 -4,-271.63 205,-271.63 205,4 -4,4"/>
<g id="clust1" class="cluster">
<title>clusterspecies (2)</title>
<path fill="none" stroke="black" d="M23,-137.82C23,-137.82 181,-137.82 181,-137.82 187,-137.82 193,-143.82 193,-149.82 193,-149.82 193,-247.63 193,-247.63 193,-253.63 187,-259.63 181,-259.63 181,-259.63 23,-259.63 23,-259.63 17,-259.63 11,-253.63 11,-247.63 11,-247.63 11,-149.82 11,-149.82 11,-143.82 17,-137.82 23,-137.82"/>
<text text-anchor="middle" x="155.75" y="-145.02" font-family="Times,serif" font-size="14.00">species (2)</text>
</g>
<g id="clust2" class="cluster">
<title>cluster3000</title>
<path fill="none" stroke="black" d="M20,-8C20,-8 168,-8 168,-8 174,-8 180,-14 180,-20 180,-20 180,-117.82 180,-117.82 180,-123.82 174,-129.82 168,-129.82 168,-129.82 20,-129.82 20,-129.82 14,-129.82 8,-123.82 8,-117.82 8,-117.82 8,-20 8,-20 8,-14 14,-8 20,-8"/>
<text text-anchor="middle" x="158.5" y="-15.2" font-family="Times,serif" font-size="14.00">3000</text>
</g>
<!-- p -->
<g id="node1" class="node">
<title>p</title>
<ellipse fill="none" stroke="black" cx="64" cy="-210.98" rx="44.72" ry="40.66"/>
<text text-anchor="middle" x="64" y="-222.43" font-family="Times,serif" font-size="14.00">p</text>
<text text-anchor="middle" x="64" y="-205.93" font-family="Times,serif" font-size="14.00">~</text>
<text text-anchor="middle" x="64" y="-189.43" font-family="Times,serif" font-size="14.00">Uniform</text>
</g>
<!-- history -->
<g id="node3" class="node">
<title>history</title>
<ellipse fill="lightgrey" stroke="black" cx="94" cy="-81.16" rx="78.14" ry="40.66"/>
<text text-anchor="middle" x="94" y="-92.61" font-family="Times,serif" font-size="14.00">history</text>
<text text-anchor="middle" x="94" y="-76.11" font-family="Times,serif" font-size="14.00">~</text>
<text text-anchor="middle" x="94" y="-59.61" font-family="Times,serif" font-size="14.00">MarginalMixture</text>
</g>
<!-- p&#45;&gt;history -->
<g id="edge1" class="edge">
<title>p&#45;&gt;history</title>
<path fill="none" stroke="black" d="M73.16,-170.93C75.99,-158.89 79.14,-145.46 82.12,-132.76"/>
<polygon fill="black" stroke="black" points="85.46,-133.85 84.34,-123.32 78.65,-132.25 85.46,-133.85"/>
</g>
<!-- psi -->
<g id="node2" class="node">
<title>psi</title>
<ellipse fill="none" stroke="black" cx="156" cy="-210.98" rx="28.81" ry="40.66"/>
<text text-anchor="middle" x="156" y="-222.43" font-family="Times,serif" font-size="14.00">psi</text>
<text text-anchor="middle" x="156" y="-205.93" font-family="Times,serif" font-size="14.00">~</text>
<text text-anchor="middle" x="156" y="-189.43" font-family="Times,serif" font-size="14.00">Beta</text>
</g>
<!-- psi&#45;&gt;history -->
<g id="edge2" class="edge">
<title>psi&#45;&gt;history</title>
<path fill="none" stroke="black" d="M139.87,-176.73C133.11,-162.78 125.11,-146.29 117.7,-131.01"/>
<polygon fill="black" stroke="black" points="120.86,-129.51 113.34,-122.04 114.56,-132.56 120.86,-129.51"/>
</g>
</g>
</svg>
