<?xml version="1.0" encoding="UTF-8" standalone="no"?>
<!DOCTYPE svg PUBLIC "-//W3C//DTD SVG 1.1//EN"
 "http://www.w3.org/Graphics/SVG/1.1/DTD/svg11.dtd">
<!-- Generated by graphviz version 9.0.0 (0)
 -->
<!-- Pages: 1 -->
<svg width="246pt" height="377pt"
 viewBox="0.00 0.00 246.00 376.95" xmlns="http://www.w3.org/2000/svg" xmlns:xlink="http://www.w3.org/1999/xlink">
<g id="graph0" class="graph" transform="scale(1 1) rotate(0) translate(4 372.95)">
<polygon fill="white" stroke="none" points="-4,4 -4,-372.95 242,-372.95 242,4 -4,4"/>
<g id="clust1" class="cluster">
<title>clusteralpha_coeffs (2)</title>
<path fill="none" stroke="black" d="M138,-137.82C138,-137.82 218,-137.82 218,-137.82 224,-137.82 230,-143.82 230,-149.82 230,-149.82 230,-247.63 230,-247.63 230,-253.63 224,-259.63 218,-259.63 218,-259.63 138,-259.63 138,-259.63 132,-259.63 126,-253.63 126,-247.63 126,-247.63 126,-149.82 126,-149.82 126,-143.82 132,-137.82 138,-137.82"/>
<text text-anchor="middle" x="177.75" y="-145.02" font-family="Times,serif" font-size="14.00">alpha_coeffs (2)</text>
</g>
<g id="clust2" class="cluster">
<title>cluster100</title>
<path fill="none" stroke="black" d="M20,-137.82C20,-137.82 106,-137.82 106,-137.82 112,-137.82 118,-143.82 118,-149.82 118,-149.82 118,-247.63 118,-247.63 118,-253.63 112,-259.63 106,-259.63 106,-259.63 20,-259.63 20,-259.63 14,-259.63 8,-253.63 8,-247.63 8,-247.63 8,-149.82 8,-149.82 8,-143.82 14,-137.82 20,-137.82"/>
<text text-anchor="middle" x="99.88" y="-145.02" font-family="Times,serif" font-size="14.00">100</text>
</g>
<g id="clust3" class="cluster">
<title>cluster500</title>
<path fill="none" stroke="black" d="M76,-8C76,-8 162,-8 162,-8 168,-8 174,-14 174,-20 174,-20 174,-117.82 174,-117.82 174,-123.82 168,-129.82 162,-129.82 162,-129.82 76,-129.82 76,-129.82 70,-129.82 64,-123.82 64,-117.82 64,-117.82 64,-20 64,-20 64,-14 70,-8 76,-8"/>
<text text-anchor="middle" x="155.88" y="-15.2" font-family="Times,serif" font-size="14.00">500</text>
</g>
<!-- psi -->
<g id="node1" class="node">
<title>psi</title>
<ellipse fill="none" stroke="black" cx="63" cy="-328.29" rx="44.72" ry="40.66"/>
<text text-anchor="middle" x="63" y="-339.74" font-family="Times,serif" font-size="14.00">psi</text>
<text text-anchor="middle" x="63" y="-323.24" font-family="Times,serif" font-size="14.00">~</text>
<text text-anchor="middle" x="63" y="-306.74" font-family="Times,serif" font-size="14.00">Uniform</text>
</g>
<!-- z -->
<g id="node3" class="node">
<title>z</title>
<ellipse fill="none" stroke="black" cx="63" cy="-210.98" rx="47.38" ry="40.66"/>
<text text-anchor="middle" x="63" y="-222.43" font-family="Times,serif" font-size="14.00">z</text>
<text text-anchor="middle" x="63" y="-205.93" font-family="Times,serif" font-size="14.00">~</text>
<text text-anchor="middle" x="63" y="-189.43" font-family="Times,serif" font-size="14.00">Bernoulli</text>
</g>
<!-- psi&#45;&gt;z -->
<g id="edge1" class="edge">
<title>psi&#45;&gt;z</title>
<path fill="none" stroke="black" d="M63,-287.28C63,-279.5 63,-271.25 63,-263.16"/>
<polygon fill="black" stroke="black" points="66.5,-263.43 63,-253.43 59.5,-263.43 66.5,-263.43"/>
</g>
<!-- Alpha -->
<g id="node2" class="node">
<title>Alpha</title>
<ellipse fill="none" stroke="black" cx="175" cy="-210.98" rx="41.01" ry="40.66"/>
<text text-anchor="middle" x="175" y="-222.43" font-family="Times,serif" font-size="14.00">Alpha</text>
<text text-anchor="middle" x="175" y="-205.93" font-family="Times,serif" font-size="14.00">~</text>
<text text-anchor="middle" x="175" y="-189.43" font-family="Times,serif" font-size="14.00">Normal</text>
</g>
<!-- y -->
<g id="node4" class="node">
<title>y</title>
<ellipse fill="lightgrey" stroke="black" cx="119" cy="-81.16" rx="47.38" ry="40.66"/>
<text text-anchor="middle" x="119" y="-92.61" font-family="Times,serif" font-size="14.00">y</text>
<text text-anchor="middle" x="119" y="-76.11" font-family="Times,serif" font-size="14.00">~</text>
<text text-anchor="middle" x="119" y="-59.61" font-family="Times,serif" font-size="14.00">Bernoulli</text>
</g>
<!-- Alpha&#45;&gt;y -->
<g id="edge3" class="edge">
<title>Alpha&#45;&gt;y</title>
<path fill="none" stroke="black" d="M158.95,-173.35C153.02,-159.81 146.21,-144.27 139.91,-129.89"/>
<polygon fill="black" stroke="black" points="143.27,-128.82 136.05,-121.07 136.85,-131.63 143.27,-128.82"/>
</g>
<!-- z&#45;&gt;y -->
<g id="edge2" class="edge">
<title>z&#45;&gt;y</title>
<path fill="none" stroke="black" d="M79.35,-172.66C85.16,-159.39 91.79,-144.26 97.94,-130.22"/>
<polygon fill="black" stroke="black" points="101.12,-131.69 101.93,-121.13 94.71,-128.88 101.12,-131.69"/>
</g>
</g>
</svg>
