<?xml version="1.0" encoding="UTF-8" standalone="no"?>
<!DOCTYPE svg PUBLIC "-//W3C//DTD SVG 1.1//EN"
 "http://www.w3.org/Graphics/SVG/1.1/DTD/svg11.dtd">
<!-- Generated by graphviz version 9.0.0 (20230911.1827)
 -->
<!-- Pages: 1 -->
<svg width="219pt" height="276pt"
 viewBox="0.00 0.00 218.72 275.63" xmlns="http://www.w3.org/2000/svg" xmlns:xlink="http://www.w3.org/1999/xlink">
<g id="graph0" class="graph" transform="scale(1 1) rotate(0) translate(4 271.63)">
<polygon fill="white" stroke="none" points="-4,4 -4,-271.63 214.72,-271.63 214.72,4 -4,4"/>
<g id="clust1" class="cluster">
<title>clusteralpha_coeffs (2)</title>
<path fill="none" stroke="black" d="M110.72,-137.82C110.72,-137.82 190.72,-137.82 190.72,-137.82 196.72,-137.82 202.72,-143.82 202.72,-149.82 202.72,-149.82 202.72,-247.63 202.72,-247.63 202.72,-253.63 196.72,-259.63 190.72,-259.63 190.72,-259.63 110.72,-259.63 110.72,-259.63 104.72,-259.63 98.72,-253.63 98.72,-247.63 98.72,-247.63 98.72,-149.82 98.72,-149.82 98.72,-143.82 104.72,-137.82 110.72,-137.82"/>
<text text-anchor="middle" x="150.47" y="-145.02" font-family="Times,serif" font-size="14.00">alpha_coeffs (2)</text>
</g>
<g id="clust2" class="cluster">
<title>cluster100 x 5</title>
<path fill="none" stroke="black" d="M28.72,-8C28.72,-8 154.72,-8 154.72,-8 160.72,-8 166.72,-14 166.72,-20 166.72,-20 166.72,-117.82 166.72,-117.82 166.72,-123.82 160.72,-129.82 154.72,-129.82 154.72,-129.82 28.72,-129.82 28.72,-129.82 22.72,-129.82 16.72,-123.82 16.72,-117.82 16.72,-117.82 16.72,-20 16.72,-20 16.72,-14 22.72,-8 28.72,-8"/>
<text text-anchor="middle" x="138.1" y="-15.2" font-family="Times,serif" font-size="14.00">100 x 5</text>
</g>
<!-- psi -->
<g id="node1" class="node">
<title>psi</title>
<ellipse fill="none" stroke="black" cx="44.72" cy="-210.98" rx="44.72" ry="40.66"/>
<text text-anchor="middle" x="44.72" y="-222.43" font-family="Times,serif" font-size="14.00">psi</text>
<text text-anchor="middle" x="44.72" y="-205.93" font-family="Times,serif" font-size="14.00">~</text>
<text text-anchor="middle" x="44.72" y="-189.43" font-family="Times,serif" font-size="14.00">Uniform</text>
</g>
<!-- y -->
<g id="node3" class="node">
<title>y</title>
<ellipse fill="lightgrey" stroke="black" cx="91.72" cy="-81.16" rx="67" ry="40.66"/>
<text text-anchor="middle" x="91.72" y="-92.61" font-family="Times,serif" font-size="14.00">y</text>
<text text-anchor="middle" x="91.72" y="-76.11" font-family="Times,serif" font-size="14.00">~</text>
<text text-anchor="middle" x="91.72" y="-59.61" font-family="Times,serif" font-size="14.00">CustomDist_y</text>
</g>
<!-- psi&#45;&gt;y -->
<g id="edge1" class="edge">
<title>psi&#45;&gt;y</title>
<path fill="none" stroke="black" d="M58.7,-171.97C63.35,-159.31 68.61,-145.02 73.53,-131.63"/>
<polygon fill="black" stroke="black" points="76.71,-133.14 76.87,-122.54 70.14,-130.72 76.71,-133.14"/>
</g>
<!-- Alpha -->
<g id="node2" class="node">
<title>Alpha</title>
<ellipse fill="none" stroke="black" cx="148.72" cy="-210.98" rx="41.01" ry="40.66"/>
<text text-anchor="middle" x="148.72" y="-222.43" font-family="Times,serif" font-size="14.00">Alpha</text>
<text text-anchor="middle" x="148.72" y="-205.93" font-family="Times,serif" font-size="14.00">~</text>
<text text-anchor="middle" x="148.72" y="-189.43" font-family="Times,serif" font-size="14.00">Normal</text>
</g>
<!-- Alpha&#45;&gt;y -->
<g id="edge2" class="edge">
<title>Alpha&#45;&gt;y</title>
<path fill="none" stroke="black" d="M132.39,-173.35C126.52,-160.18 119.8,-145.11 113.53,-131.07"/>
<polygon fill="black" stroke="black" points="116.74,-129.66 109.47,-121.96 110.35,-132.51 116.74,-129.66"/>
</g>
</g>
</svg>
