<?xml version="1.0" encoding="UTF-8" standalone="no"?>
<!DOCTYPE svg PUBLIC "-//W3C//DTD SVG 1.1//EN"
 "http://www.w3.org/Graphics/SVG/1.1/DTD/svg11.dtd">
<!-- Generated by graphviz version 12.0.0 (0)
 -->
<!-- Pages: 1 -->
<svg width="232pt" height="385pt"
 viewBox="0.00 0.00 231.81 384.95" xmlns="http://www.w3.org/2000/svg" xmlns:xlink="http://www.w3.org/1999/xlink">
<g id="graph0" class="graph" transform="scale(1 1) rotate(0) translate(4 380.95)">
<polygon fill="white" stroke="none" points="-4,4 -4,-380.95 227.81,-380.95 227.81,4 -4,4"/>
<g id="clust1" class="cluster">
<title>clusteralpha_coeffs (2)</title>
<path fill="none" stroke="black" d="M100.81,-247.13C100.81,-247.13 180.81,-247.13 180.81,-247.13 186.81,-247.13 192.81,-253.13 192.81,-259.13 192.81,-259.13 192.81,-356.95 192.81,-356.95 192.81,-362.95 186.81,-368.95 180.81,-368.95 180.81,-368.95 100.81,-368.95 100.81,-368.95 94.81,-368.95 88.81,-362.95 88.81,-356.95 88.81,-356.95 88.81,-259.13 88.81,-259.13 88.81,-253.13 94.81,-247.13 100.81,-247.13"/>
<text text-anchor="middle" x="140.56" y="-254.33" font-family="Times,serif" font-size="14.00">alpha_coeffs (2)</text>
</g>
<g id="clust2" class="cluster">
<title>cluster100 x 5</title>
<path fill="none" stroke="black" d="M77.81,-8C77.81,-8 203.81,-8 203.81,-8 209.81,-8 215.81,-14 215.81,-20 215.81,-20 215.81,-223.23 215.81,-223.23 215.81,-229.23 209.81,-235.23 203.81,-235.23 203.81,-235.23 77.81,-235.23 77.81,-235.23 71.81,-235.23 65.81,-229.23 65.81,-223.23 65.81,-223.23 65.81,-20 65.81,-20 65.81,-14 71.81,-8 77.81,-8"/>
<text text-anchor="middle" x="187.19" y="-15.2" font-family="Times,serif" font-size="14.00">100 x 5</text>
</g>
<!-- psi -->
<g id="node1" class="node">
<title>psi</title>
<ellipse fill="none" stroke="black" cx="28.81" cy="-198.48" rx="28.81" ry="40.66"/>
<text text-anchor="middle" x="28.81" y="-209.93" font-family="Times,serif" font-size="14.00">psi</text>
<text text-anchor="middle" x="28.81" y="-193.43" font-family="Times,serif" font-size="14.00">~</text>
<text text-anchor="middle" x="28.81" y="-176.93" font-family="Times,serif" font-size="14.00">Beta</text>
</g>
<!-- y -->
<g id="node3" class="node">
<title>y</title>
<ellipse fill="lightgrey" stroke="black" cx="140.81" cy="-81.16" rx="67" ry="40.66"/>
<text text-anchor="middle" x="140.81" y="-92.61" font-family="Times,serif" font-size="14.00">y</text>
<text text-anchor="middle" x="140.81" y="-76.11" font-family="Times,serif" font-size="14.00">~</text>
<text text-anchor="middle" x="140.81" y="-59.61" font-family="Times,serif" font-size="14.00">CustomDist_y</text>
</g>
<!-- psi&#45;&gt;y -->
<g id="edge3" class="edge">
<title>psi&#45;&gt;y</title>
<path fill="none" stroke="black" d="M50.42,-170.67C54.14,-166.3 58.03,-161.88 61.81,-157.82 72.55,-146.31 84.61,-134.32 96.02,-123.37"/>
<polygon fill="black" stroke="black" points="98.26,-126.07 103.09,-116.64 93.43,-121 98.26,-126.07"/>
</g>
<!-- Alpha -->
<g id="node2" class="node">
<title>Alpha</title>
<ellipse fill="none" stroke="black" cx="140.81" cy="-320.29" rx="41.01" ry="40.66"/>
<text text-anchor="middle" x="140.81" y="-331.74" font-family="Times,serif" font-size="14.00">Alpha</text>
<text text-anchor="middle" x="140.81" y="-315.24" font-family="Times,serif" font-size="14.00">~</text>
<text text-anchor="middle" x="140.81" y="-298.74" font-family="Times,serif" font-size="14.00">Normal</text>
</g>
<!-- p -->
<g id="node4" class="node">
<title>p</title>
<polygon fill="none" stroke="black" points="185.94,-227.23 95.69,-227.23 95.69,-169.73 185.94,-169.73 185.94,-227.23"/>
<text text-anchor="middle" x="140.81" y="-209.93" font-family="Times,serif" font-size="14.00">p</text>
<text text-anchor="middle" x="140.81" y="-193.43" font-family="Times,serif" font-size="14.00">~</text>
<text text-anchor="middle" x="140.81" y="-176.93" font-family="Times,serif" font-size="14.00">Deterministic</text>
</g>
<!-- Alpha&#45;&gt;p -->
<g id="edge1" class="edge">
<title>Alpha&#45;&gt;p</title>
<path fill="none" stroke="black" d="M140.81,-279.4C140.81,-266.37 140.81,-251.91 140.81,-238.91"/>
<polygon fill="black" stroke="black" points="144.31,-238.98 140.81,-228.98 137.31,-238.98 144.31,-238.98"/>
</g>
<!-- p&#45;&gt;y -->
<g id="edge2" class="edge">
<title>p&#45;&gt;y</title>
<path fill="none" stroke="black" d="M140.81,-169.27C140.81,-158.44 140.81,-145.73 140.81,-133.41"/>
<polygon fill="black" stroke="black" points="144.31,-133.78 140.81,-123.78 137.31,-133.78 144.31,-133.78"/>
</g>
</g>
</svg>
