<?xml version="1.0" encoding="UTF-8" standalone="no"?>
<!DOCTYPE svg PUBLIC "-//W3C//DTD SVG 1.1//EN"
 "http://www.w3.org/Graphics/SVG/1.1/DTD/svg11.dtd">
<!-- Generated by graphviz version 9.0.0 (0)
 -->
<!-- Pages: 1 -->
<svg width="237pt" height="276pt"
 viewBox="0.00 0.00 237.00 275.63" xmlns="http://www.w3.org/2000/svg" xmlns:xlink="http://www.w3.org/1999/xlink">
<g id="graph0" class="graph" transform="scale(1 1) rotate(0) translate(4 271.63)">
<polygon fill="white" stroke="none" points="-4,4 -4,-271.63 233,-271.63 233,4 -4,4"/>
<g id="clust1" class="cluster">
<title>clusterspecies (2)</title>
<path fill="none" stroke="black" d="M20,-137.82C20,-137.82 209,-137.82 209,-137.82 215,-137.82 221,-143.82 221,-149.82 221,-149.82 221,-247.63 221,-247.63 221,-253.63 215,-259.63 209,-259.63 209,-259.63 20,-259.63 20,-259.63 14,-259.63 8,-253.63 8,-247.63 8,-247.63 8,-149.82 8,-149.82 8,-143.82 14,-137.82 20,-137.82"/>
<text text-anchor="middle" x="183.75" y="-145.02" font-family="Times,serif" font-size="14.00">species (2)</text>
</g>
<g id="clust2" class="cluster">
<title>cluster3000</title>
<path fill="none" stroke="black" d="M32,-8C32,-8 180,-8 180,-8 186,-8 192,-14 192,-20 192,-20 192,-117.82 192,-117.82 192,-123.82 186,-129.82 180,-129.82 180,-129.82 32,-129.82 32,-129.82 26,-129.82 20,-123.82 20,-117.82 20,-117.82 20,-20 20,-20 20,-14 26,-8 32,-8"/>
<text text-anchor="middle" x="170.5" y="-15.2" font-family="Times,serif" font-size="14.00">3000</text>
</g>
<!-- psi -->
<g id="node1" class="node">
<title>psi</title>
<ellipse fill="none" stroke="black" cx="168" cy="-210.98" rx="44.72" ry="40.66"/>
<text text-anchor="middle" x="168" y="-222.43" font-family="Times,serif" font-size="14.00">psi</text>
<text text-anchor="middle" x="168" y="-205.93" font-family="Times,serif" font-size="14.00">~</text>
<text text-anchor="middle" x="168" y="-189.43" font-family="Times,serif" font-size="14.00">Uniform</text>
</g>
<!-- history -->
<g id="node3" class="node">
<title>history</title>
<ellipse fill="lightgrey" stroke="black" cx="106" cy="-81.16" rx="78.14" ry="40.66"/>
<text text-anchor="middle" x="106" y="-92.61" font-family="Times,serif" font-size="14.00">history</text>
<text text-anchor="middle" x="106" y="-76.11" font-family="Times,serif" font-size="14.00">~</text>
<text text-anchor="middle" x="106" y="-59.61" font-family="Times,serif" font-size="14.00">MarginalMixture</text>
</g>
<!-- psi&#45;&gt;history -->
<g id="edge1" class="edge">
<title>psi&#45;&gt;history</title>
<path fill="none" stroke="black" d="M150.23,-173.35C143.84,-160.17 136.52,-145.09 129.71,-131.03"/>
<polygon fill="black" stroke="black" points="133.03,-129.85 125.51,-122.38 126.73,-132.91 133.03,-129.85"/>
</g>
<!-- p -->
<g id="node2" class="node">
<title>p</title>
<ellipse fill="none" stroke="black" cx="61" cy="-210.98" rx="44.72" ry="40.66"/>
<text text-anchor="middle" x="61" y="-222.43" font-family="Times,serif" font-size="14.00">p</text>
<text text-anchor="middle" x="61" y="-205.93" font-family="Times,serif" font-size="14.00">~</text>
<text text-anchor="middle" x="61" y="-189.43" font-family="Times,serif" font-size="14.00">Uniform</text>
</g>
<!-- p&#45;&gt;history -->
<g id="edge2" class="edge">
<title>p&#45;&gt;history</title>
<path fill="none" stroke="black" d="M74.38,-171.97C78.75,-159.55 83.68,-145.57 88.32,-132.39"/>
<polygon fill="black" stroke="black" points="91.6,-133.59 91.62,-122.99 85,-131.27 91.6,-133.59"/>
</g>
</g>
</svg>
