<?xml version="1.0" encoding="UTF-8" standalone="no"?>
<!DOCTYPE svg PUBLIC "-//W3C//DTD SVG 1.1//EN"
 "http://www.w3.org/Graphics/SVG/1.1/DTD/svg11.dtd">
<!-- Generated by graphviz version 9.0.0 (20230911.1827)
 -->
<!-- Pages: 1 -->
<svg width="264pt" height="385pt"
 viewBox="0.00 0.00 263.72 384.95" xmlns="http://www.w3.org/2000/svg" xmlns:xlink="http://www.w3.org/1999/xlink">
<g id="graph0" class="graph" transform="scale(1 1) rotate(0) translate(4 380.95)">
<polygon fill="white" stroke="none" points="-4,4 -4,-380.95 259.72,-380.95 259.72,4 -4,4"/>
<g id="clust1" class="cluster">
<title>clusteralpha_coeffs (2)</title>
<path fill="none" stroke="black" d="M132.72,-247.13C132.72,-247.13 212.72,-247.13 212.72,-247.13 218.72,-247.13 224.72,-253.13 224.72,-259.13 224.72,-259.13 224.72,-356.95 224.72,-356.95 224.72,-362.95 218.72,-368.95 212.72,-368.95 212.72,-368.95 132.72,-368.95 132.72,-368.95 126.72,-368.95 120.72,-362.95 120.72,-356.95 120.72,-356.95 120.72,-259.13 120.72,-259.13 120.72,-253.13 126.72,-247.13 132.72,-247.13"/>
<text text-anchor="middle" x="172.47" y="-254.33" font-family="Times,serif" font-size="14.00">alpha_coeffs (2)</text>
</g>
<g id="clust2" class="cluster">
<title>cluster100 x 5</title>
<path fill="none" stroke="black" d="M109.72,-8C109.72,-8 235.72,-8 235.72,-8 241.72,-8 247.72,-14 247.72,-20 247.72,-20 247.72,-223.23 247.72,-223.23 247.72,-229.23 241.72,-235.23 235.72,-235.23 235.72,-235.23 109.72,-235.23 109.72,-235.23 103.72,-235.23 97.72,-229.23 97.72,-223.23 97.72,-223.23 97.72,-20 97.72,-20 97.72,-14 103.72,-8 109.72,-8"/>
<text text-anchor="middle" x="219.1" y="-15.2" font-family="Times,serif" font-size="14.00">100 x 5</text>
</g>
<!-- psi -->
<g id="node1" class="node">
<title>psi</title>
<ellipse fill="none" stroke="black" cx="44.72" cy="-198.48" rx="44.72" ry="40.66"/>
<text text-anchor="middle" x="44.72" y="-209.93" font-family="Times,serif" font-size="14.00">psi</text>
<text text-anchor="middle" x="44.72" y="-193.43" font-family="Times,serif" font-size="14.00">~</text>
<text text-anchor="middle" x="44.72" y="-176.93" font-family="Times,serif" font-size="14.00">Uniform</text>
</g>
<!-- y -->
<g id="node4" class="node">
<title>y</title>
<ellipse fill="lightgrey" stroke="black" cx="172.72" cy="-81.16" rx="67" ry="40.66"/>
<text text-anchor="middle" x="172.72" y="-92.61" font-family="Times,serif" font-size="14.00">y</text>
<text text-anchor="middle" x="172.72" y="-76.11" font-family="Times,serif" font-size="14.00">~</text>
<text text-anchor="middle" x="172.72" y="-59.61" font-family="Times,serif" font-size="14.00">CustomDist_y</text>
</g>
<!-- psi&#45;&gt;y -->
<g id="edge2" class="edge">
<title>psi&#45;&gt;y</title>
<path fill="none" stroke="black" d="M76.04,-169.27C91.56,-155.28 110.58,-138.14 127.64,-122.78"/>
<polygon fill="black" stroke="black" points="129.62,-125.71 134.7,-116.41 124.93,-120.51 129.62,-125.71"/>
</g>
<!-- Alpha -->
<g id="node2" class="node">
<title>Alpha</title>
<ellipse fill="none" stroke="black" cx="172.72" cy="-320.29" rx="41.01" ry="40.66"/>
<text text-anchor="middle" x="172.72" y="-331.74" font-family="Times,serif" font-size="14.00">Alpha</text>
<text text-anchor="middle" x="172.72" y="-315.24" font-family="Times,serif" font-size="14.00">~</text>
<text text-anchor="middle" x="172.72" y="-298.74" font-family="Times,serif" font-size="14.00">Normal</text>
</g>
<!-- p -->
<g id="node3" class="node">
<title>p</title>
<polygon fill="none" stroke="black" points="217.85,-227.23 127.6,-227.23 127.6,-169.73 217.85,-169.73 217.85,-227.23"/>
<text text-anchor="middle" x="172.72" y="-209.93" font-family="Times,serif" font-size="14.00">p</text>
<text text-anchor="middle" x="172.72" y="-193.43" font-family="Times,serif" font-size="14.00">~</text>
<text text-anchor="middle" x="172.72" y="-176.93" font-family="Times,serif" font-size="14.00">Deterministic</text>
</g>
<!-- Alpha&#45;&gt;p -->
<g id="edge1" class="edge">
<title>Alpha&#45;&gt;p</title>
<path fill="none" stroke="black" d="M172.72,-279.4C172.72,-266.37 172.72,-251.91 172.72,-238.91"/>
<polygon fill="black" stroke="black" points="176.22,-238.98 172.72,-228.98 169.22,-238.98 176.22,-238.98"/>
</g>
<!-- p&#45;&gt;y -->
<g id="edge3" class="edge">
<title>p&#45;&gt;y</title>
<path fill="none" stroke="black" d="M172.72,-169.27C172.72,-158.44 172.72,-145.73 172.72,-133.41"/>
<polygon fill="black" stroke="black" points="176.22,-133.78 172.72,-123.78 169.22,-133.78 176.22,-133.78"/>
</g>
</g>
</svg>
