<?xml version="1.0" encoding="UTF-8" standalone="no"?>
<!DOCTYPE svg PUBLIC "-//W3C//DTD SVG 1.1//EN"
 "http://www.w3.org/Graphics/SVG/1.1/DTD/svg11.dtd">
<!-- Generated by graphviz version 12.2.1 (0)
 -->
<!-- Pages: 1 -->
<svg width="225pt" height="494pt"
 viewBox="0.00 0.00 225.27 494.27" xmlns="http://www.w3.org/2000/svg" xmlns:xlink="http://www.w3.org/1999/xlink">
<g id="graph0" class="graph" transform="scale(1 1) rotate(0) translate(4 490.27)">
<polygon fill="white" stroke="none" points="-4,4 -4,-490.27 221.27,-490.27 221.27,4 -4,4"/>
<g id="clust1" class="cluster">
<title>clusterindividual (100)</title>
<path fill="none" stroke="black" d="M59.45,-137.82C59.45,-137.82 138.45,-137.82 138.45,-137.82 144.45,-137.82 150.45,-143.82 150.45,-149.82 150.45,-149.82 150.45,-247.63 150.45,-247.63 150.45,-253.63 144.45,-259.63 138.45,-259.63 138.45,-259.63 59.45,-259.63 59.45,-259.63 53.45,-259.63 47.45,-253.63 47.45,-247.63 47.45,-247.63 47.45,-149.82 47.45,-149.82 47.45,-143.82 53.45,-137.82 59.45,-137.82"/>
<text text-anchor="middle" x="98.58" y="-145.02" font-family="Times,serif" font-size="14.00">individual (100)</text>
</g>
<g id="clust2" class="cluster">
<title>cluster100</title>
<path fill="none" stroke="black" d="M110.45,-8C110.45,-8 188.45,-8 188.45,-8 194.45,-8 200.45,-14 200.45,-20 200.45,-20 200.45,-117.82 200.45,-117.82 200.45,-123.82 194.45,-129.82 188.45,-129.82 188.45,-129.82 110.45,-129.82 110.45,-129.82 104.45,-129.82 98.45,-123.82 98.45,-117.82 98.45,-117.82 98.45,-20 98.45,-20 98.45,-14 104.45,-8 110.45,-8"/>
<text text-anchor="middle" x="182.33" y="-15.2" font-family="Times,serif" font-size="14.00">100</text>
</g>
<!-- kappa_log -->
<g id="node1" class="node">
<title>kappa_log</title>
<ellipse fill="none" stroke="black" cx="57.45" cy="-445.61" rx="57.45" ry="40.66"/>
<text text-anchor="middle" x="57.45" y="-457.06" font-family="Times,serif" font-size="14.00">kappa_log</text>
<text text-anchor="middle" x="57.45" y="-440.56" font-family="Times,serif" font-size="14.00">~</text>
<text text-anchor="middle" x="57.45" y="-424.06" font-family="Times,serif" font-size="14.00">Exponential</text>
</g>
<!-- kappa -->
<g id="node2" class="node">
<title>kappa</title>
<polygon fill="none" stroke="black" points="102.58,-357.04 12.33,-357.04 12.33,-299.54 102.58,-299.54 102.58,-357.04"/>
<text text-anchor="middle" x="57.45" y="-339.74" font-family="Times,serif" font-size="14.00">kappa</text>
<text text-anchor="middle" x="57.45" y="-323.24" font-family="Times,serif" font-size="14.00">~</text>
<text text-anchor="middle" x="57.45" y="-306.74" font-family="Times,serif" font-size="14.00">Deterministic</text>
</g>
<!-- kappa_log&#45;&gt;kappa -->
<g id="edge1" class="edge">
<title>kappa_log&#45;&gt;kappa</title>
<path fill="none" stroke="black" d="M57.45,-404.6C57.45,-392.89 57.45,-380.11 57.45,-368.45"/>
<polygon fill="black" stroke="black" points="60.95,-368.77 57.45,-358.77 53.95,-368.77 60.95,-368.77"/>
</g>
<!-- theta -->
<g id="node5" class="node">
<title>theta</title>
<ellipse fill="none" stroke="black" cx="111.45" cy="-210.98" rx="29.88" ry="40.66"/>
<text text-anchor="middle" x="111.45" y="-222.43" font-family="Times,serif" font-size="14.00">theta</text>
<text text-anchor="middle" x="111.45" y="-205.93" font-family="Times,serif" font-size="14.00">~</text>
<text text-anchor="middle" x="111.45" y="-189.43" font-family="Times,serif" font-size="14.00">Beta</text>
</g>
<!-- kappa&#45;&gt;theta -->
<g id="edge2" class="edge">
<title>kappa&#45;&gt;theta</title>
<path fill="none" stroke="black" d="M70.66,-299.08C76.74,-286.1 84.1,-270.39 90.88,-255.91"/>
<polygon fill="black" stroke="black" points="93.98,-257.55 95.05,-247.01 87.64,-254.58 93.98,-257.55"/>
</g>
<!-- phi -->
<g id="node3" class="node">
<title>phi</title>
<ellipse fill="none" stroke="black" cx="165.45" cy="-328.29" rx="44.72" ry="40.66"/>
<text text-anchor="middle" x="165.45" y="-339.74" font-family="Times,serif" font-size="14.00">phi</text>
<text text-anchor="middle" x="165.45" y="-323.24" font-family="Times,serif" font-size="14.00">~</text>
<text text-anchor="middle" x="165.45" y="-306.74" font-family="Times,serif" font-size="14.00">Uniform</text>
</g>
<!-- phi&#45;&gt;theta -->
<g id="edge3" class="edge">
<title>phi&#45;&gt;theta</title>
<path fill="none" stroke="black" d="M148.22,-290.49C143.07,-279.49 137.37,-267.32 132.02,-255.9"/>
<polygon fill="black" stroke="black" points="135.29,-254.64 127.88,-247.07 128.96,-257.61 135.29,-254.64"/>
</g>
<!-- psi -->
<g id="node4" class="node">
<title>psi</title>
<ellipse fill="none" stroke="black" cx="188.45" cy="-210.98" rx="28.81" ry="40.66"/>
<text text-anchor="middle" x="188.45" y="-222.43" font-family="Times,serif" font-size="14.00">psi</text>
<text text-anchor="middle" x="188.45" y="-205.93" font-family="Times,serif" font-size="14.00">~</text>
<text text-anchor="middle" x="188.45" y="-189.43" font-family="Times,serif" font-size="14.00">Beta</text>
</g>
<!-- y -->
<g id="node6" class="node">
<title>y</title>
<ellipse fill="lightgrey" stroke="black" cx="149.45" cy="-81.16" rx="42.6" ry="40.66"/>
<text text-anchor="middle" x="149.45" y="-92.61" font-family="Times,serif" font-size="14.00">y</text>
<text text-anchor="middle" x="149.45" y="-76.11" font-family="Times,serif" font-size="14.00">~</text>
<text text-anchor="middle" x="149.45" y="-59.61" font-family="Times,serif" font-size="14.00">Mixture</text>
</g>
<!-- psi&#45;&gt;y -->
<g id="edge5" class="edge">
<title>psi&#45;&gt;y</title>
<path fill="none" stroke="black" d="M177.17,-173.01C173.2,-159.97 168.66,-145.11 164.43,-131.24"/>
<polygon fill="black" stroke="black" points="167.82,-130.37 161.56,-121.83 161.13,-132.41 167.82,-130.37"/>
</g>
<!-- theta&#45;&gt;y -->
<g id="edge4" class="edge">
<title>theta&#45;&gt;y</title>
<path fill="none" stroke="black" d="M122.55,-172.66C126.38,-159.75 130.74,-145.09 134.82,-131.37"/>
<polygon fill="black" stroke="black" points="138.09,-132.66 137.58,-122.08 131.38,-130.67 138.09,-132.66"/>
</g>
</g>
</svg>
