<?xml version="1.0" encoding="UTF-8" standalone="no"?>
<!DOCTYPE svg PUBLIC "-//W3C//DTD SVG 1.1//EN"
 "http://www.w3.org/Graphics/SVG/1.1/DTD/svg11.dtd">
<!-- Generated by graphviz version 12.2.1 (0)
 -->
<!-- Pages: 1 -->
<svg width="218pt" height="494pt"
 viewBox="0.00 0.00 218.18 494.27" xmlns="http://www.w3.org/2000/svg" xmlns:xlink="http://www.w3.org/1999/xlink">
<g id="graph0" class="graph" transform="scale(1 1) rotate(0) translate(4 490.27)">
<polygon fill="white" stroke="none" points="-4,4 -4,-490.27 214.18,-490.27 214.18,4 -4,4"/>
<g id="clust1" class="cluster">
<title>clusterindividual (100)</title>
<path fill="none" stroke="black" d="M46.72,-137.82C46.72,-137.82 125.72,-137.82 125.72,-137.82 131.72,-137.82 137.72,-143.82 137.72,-149.82 137.72,-149.82 137.72,-247.63 137.72,-247.63 137.72,-253.63 131.72,-259.63 125.72,-259.63 125.72,-259.63 46.72,-259.63 46.72,-259.63 40.72,-259.63 34.72,-253.63 34.72,-247.63 34.72,-247.63 34.72,-149.82 34.72,-149.82 34.72,-143.82 40.72,-137.82 46.72,-137.82"/>
<text text-anchor="middle" x="85.85" y="-145.02" font-family="Times,serif" font-size="14.00">individual (100)</text>
</g>
<g id="clust2" class="cluster">
<title>cluster100</title>
<path fill="none" stroke="black" d="M97.72,-8C97.72,-8 175.72,-8 175.72,-8 181.72,-8 187.72,-14 187.72,-20 187.72,-20 187.72,-117.82 187.72,-117.82 187.72,-123.82 181.72,-129.82 175.72,-129.82 175.72,-129.82 97.72,-129.82 97.72,-129.82 91.72,-129.82 85.72,-123.82 85.72,-117.82 85.72,-117.82 85.72,-20 85.72,-20 85.72,-14 91.72,-8 97.72,-8"/>
<text text-anchor="middle" x="169.6" y="-15.2" font-family="Times,serif" font-size="14.00">100</text>
</g>
<!-- phi -->
<g id="node1" class="node">
<title>phi</title>
<ellipse fill="none" stroke="black" cx="44.72" cy="-328.29" rx="44.72" ry="40.66"/>
<text text-anchor="middle" x="44.72" y="-339.74" font-family="Times,serif" font-size="14.00">phi</text>
<text text-anchor="middle" x="44.72" y="-323.24" font-family="Times,serif" font-size="14.00">~</text>
<text text-anchor="middle" x="44.72" y="-306.74" font-family="Times,serif" font-size="14.00">Uniform</text>
</g>
<!-- theta -->
<g id="node5" class="node">
<title>theta</title>
<ellipse fill="none" stroke="black" cx="98.72" cy="-210.98" rx="29.88" ry="40.66"/>
<text text-anchor="middle" x="98.72" y="-222.43" font-family="Times,serif" font-size="14.00">theta</text>
<text text-anchor="middle" x="98.72" y="-205.93" font-family="Times,serif" font-size="14.00">~</text>
<text text-anchor="middle" x="98.72" y="-189.43" font-family="Times,serif" font-size="14.00">Beta</text>
</g>
<!-- phi&#45;&gt;theta -->
<g id="edge2" class="edge">
<title>phi&#45;&gt;theta</title>
<path fill="none" stroke="black" d="M61.96,-290.49C67.11,-279.49 72.81,-267.32 78.15,-255.9"/>
<polygon fill="black" stroke="black" points="81.22,-257.61 82.29,-247.07 74.88,-254.64 81.22,-257.61"/>
</g>
<!-- kappa -->
<g id="node2" class="node">
<title>kappa</title>
<polygon fill="none" stroke="black" points="197.85,-357.04 107.6,-357.04 107.6,-299.54 197.85,-299.54 197.85,-357.04"/>
<text text-anchor="middle" x="152.72" y="-339.74" font-family="Times,serif" font-size="14.00">kappa</text>
<text text-anchor="middle" x="152.72" y="-323.24" font-family="Times,serif" font-size="14.00">~</text>
<text text-anchor="middle" x="152.72" y="-306.74" font-family="Times,serif" font-size="14.00">Deterministic</text>
</g>
<!-- kappa&#45;&gt;theta -->
<g id="edge3" class="edge">
<title>kappa&#45;&gt;theta</title>
<path fill="none" stroke="black" d="M139.51,-299.08C133.43,-286.1 126.08,-270.39 119.3,-255.91"/>
<polygon fill="black" stroke="black" points="122.54,-254.58 115.13,-247.01 116.2,-257.55 122.54,-254.58"/>
</g>
<!-- psi -->
<g id="node3" class="node">
<title>psi</title>
<ellipse fill="none" stroke="black" cx="175.72" cy="-210.98" rx="28.81" ry="40.66"/>
<text text-anchor="middle" x="175.72" y="-222.43" font-family="Times,serif" font-size="14.00">psi</text>
<text text-anchor="middle" x="175.72" y="-205.93" font-family="Times,serif" font-size="14.00">~</text>
<text text-anchor="middle" x="175.72" y="-189.43" font-family="Times,serif" font-size="14.00">Beta</text>
</g>
<!-- y -->
<g id="node6" class="node">
<title>y</title>
<ellipse fill="lightgrey" stroke="black" cx="136.72" cy="-81.16" rx="42.6" ry="40.66"/>
<text text-anchor="middle" x="136.72" y="-92.61" font-family="Times,serif" font-size="14.00">y</text>
<text text-anchor="middle" x="136.72" y="-76.11" font-family="Times,serif" font-size="14.00">~</text>
<text text-anchor="middle" x="136.72" y="-59.61" font-family="Times,serif" font-size="14.00">Mixture</text>
</g>
<!-- psi&#45;&gt;y -->
<g id="edge5" class="edge">
<title>psi&#45;&gt;y</title>
<path fill="none" stroke="black" d="M164.44,-173.01C160.47,-159.97 155.93,-145.11 151.7,-131.24"/>
<polygon fill="black" stroke="black" points="155.09,-130.37 148.83,-121.83 148.4,-132.41 155.09,-130.37"/>
</g>
<!-- kappa_log -->
<g id="node4" class="node">
<title>kappa_log</title>
<ellipse fill="none" stroke="black" cx="152.72" cy="-445.61" rx="57.45" ry="40.66"/>
<text text-anchor="middle" x="152.72" y="-457.06" font-family="Times,serif" font-size="14.00">kappa_log</text>
<text text-anchor="middle" x="152.72" y="-440.56" font-family="Times,serif" font-size="14.00">~</text>
<text text-anchor="middle" x="152.72" y="-424.06" font-family="Times,serif" font-size="14.00">Exponential</text>
</g>
<!-- kappa_log&#45;&gt;kappa -->
<g id="edge1" class="edge">
<title>kappa_log&#45;&gt;kappa</title>
<path fill="none" stroke="black" d="M152.72,-404.6C152.72,-392.89 152.72,-380.11 152.72,-368.45"/>
<polygon fill="black" stroke="black" points="156.22,-368.77 152.72,-358.77 149.22,-368.77 156.22,-368.77"/>
</g>
<!-- theta&#45;&gt;y -->
<g id="edge4" class="edge">
<title>theta&#45;&gt;y</title>
<path fill="none" stroke="black" d="M109.82,-172.66C113.66,-159.75 118.02,-145.09 122.09,-131.37"/>
<polygon fill="black" stroke="black" points="125.36,-132.66 124.86,-122.08 118.65,-130.67 125.36,-132.66"/>
</g>
</g>
</svg>
