<?xml version="1.0" encoding="UTF-8" standalone="no"?>
<!DOCTYPE svg PUBLIC "-//W3C//DTD SVG 1.1//EN"
 "http://www.w3.org/Graphics/SVG/1.1/DTD/svg11.dtd">
<!-- Generated by graphviz version 12.2.1 (0)
 -->
<!-- Pages: 1 -->
<svg width="252pt" height="397pt"
 viewBox="0.00 0.00 252.00 397.45" xmlns="http://www.w3.org/2000/svg" xmlns:xlink="http://www.w3.org/1999/xlink">
<g id="graph0" class="graph" transform="scale(1 1) rotate(0) translate(4 393.45)">
<polygon fill="white" stroke="none" points="-4,4 -4,-393.45 248,-393.45 248,4 -4,4"/>
<g id="clust1" class="cluster">
<title>clusteralpha_coeffs (2)</title>
<path fill="none" stroke="black" d="M141,-259.63C141,-259.63 221,-259.63 221,-259.63 227,-259.63 233,-265.63 233,-271.63 233,-271.63 233,-369.45 233,-369.45 233,-375.45 227,-381.45 221,-381.45 221,-381.45 141,-381.45 141,-381.45 135,-381.45 129,-375.45 129,-369.45 129,-369.45 129,-271.63 129,-271.63 129,-265.63 135,-259.63 141,-259.63"/>
<text text-anchor="middle" x="180.75" y="-266.83" font-family="Times,serif" font-size="14.00">alpha_coeffs (2)</text>
</g>
<g id="clust2" class="cluster">
<title>cluster100 x 5</title>
<path fill="none" stroke="black" d="M138,-8C138,-8 224,-8 224,-8 230,-8 236,-14 236,-20 236,-20 236,-227.73 236,-227.73 236,-233.73 230,-239.73 224,-239.73 224,-239.73 138,-239.73 138,-239.73 132,-239.73 126,-233.73 126,-227.73 126,-227.73 126,-20 126,-20 126,-14 132,-8 138,-8"/>
<text text-anchor="middle" x="207.38" y="-15.2" font-family="Times,serif" font-size="14.00">100 x 5</text>
</g>
<g id="clust3" class="cluster">
<title>cluster100</title>
<path fill="none" stroke="black" d="M20,-129.82C20,-129.82 106,-129.82 106,-129.82 112,-129.82 118,-135.82 118,-141.82 118,-141.82 118,-239.63 118,-239.63 118,-245.63 112,-251.63 106,-251.63 106,-251.63 20,-251.63 20,-251.63 14,-251.63 8,-245.63 8,-239.63 8,-239.63 8,-141.82 8,-141.82 8,-135.82 14,-129.82 20,-129.82"/>
<text text-anchor="middle" x="99.88" y="-137.02" font-family="Times,serif" font-size="14.00">100</text>
</g>
<!-- psi -->
<g id="node1" class="node">
<title>psi</title>
<ellipse fill="none" stroke="black" cx="63" cy="-332.79" rx="28.81" ry="40.66"/>
<text text-anchor="middle" x="63" y="-344.24" font-family="Times,serif" font-size="14.00">psi</text>
<text text-anchor="middle" x="63" y="-327.74" font-family="Times,serif" font-size="14.00">~</text>
<text text-anchor="middle" x="63" y="-311.24" font-family="Times,serif" font-size="14.00">Beta</text>
</g>
<!-- z -->
<g id="node5" class="node">
<title>z</title>
<ellipse fill="none" stroke="black" cx="63" cy="-202.98" rx="47.38" ry="40.66"/>
<text text-anchor="middle" x="63" y="-214.43" font-family="Times,serif" font-size="14.00">z</text>
<text text-anchor="middle" x="63" y="-197.93" font-family="Times,serif" font-size="14.00">~</text>
<text text-anchor="middle" x="63" y="-181.43" font-family="Times,serif" font-size="14.00">Bernoulli</text>
</g>
<!-- psi&#45;&gt;z -->
<g id="edge2" class="edge">
<title>psi&#45;&gt;z</title>
<path fill="none" stroke="black" d="M63,-291.7C63,-280.16 63,-267.41 63,-255.29"/>
<polygon fill="black" stroke="black" points="66.5,-255.44 63,-245.44 59.5,-255.44 66.5,-255.44"/>
</g>
<!-- Alpha -->
<g id="node2" class="node">
<title>Alpha</title>
<ellipse fill="none" stroke="black" cx="181" cy="-332.79" rx="41.01" ry="40.66"/>
<text text-anchor="middle" x="181" y="-344.24" font-family="Times,serif" font-size="14.00">Alpha</text>
<text text-anchor="middle" x="181" y="-327.74" font-family="Times,serif" font-size="14.00">~</text>
<text text-anchor="middle" x="181" y="-311.24" font-family="Times,serif" font-size="14.00">Normal</text>
</g>
<!-- p -->
<g id="node3" class="node">
<title>p</title>
<polygon fill="none" stroke="black" points="226.12,-231.73 135.88,-231.73 135.88,-174.23 226.12,-174.23 226.12,-231.73"/>
<text text-anchor="middle" x="181" y="-214.43" font-family="Times,serif" font-size="14.00">p</text>
<text text-anchor="middle" x="181" y="-197.93" font-family="Times,serif" font-size="14.00">~</text>
<text text-anchor="middle" x="181" y="-181.43" font-family="Times,serif" font-size="14.00">Deterministic</text>
</g>
<!-- Alpha&#45;&gt;p -->
<g id="edge1" class="edge">
<title>Alpha&#45;&gt;p</title>
<path fill="none" stroke="black" d="M181,-291.7C181,-276.3 181,-258.74 181,-243.4"/>
<polygon fill="black" stroke="black" points="184.5,-243.69 181,-233.69 177.5,-243.69 184.5,-243.69"/>
</g>
<!-- y -->
<g id="node4" class="node">
<title>y</title>
<ellipse fill="lightgrey" stroke="black" cx="181" cy="-81.16" rx="47.38" ry="40.66"/>
<text text-anchor="middle" x="181" y="-92.61" font-family="Times,serif" font-size="14.00">y</text>
<text text-anchor="middle" x="181" y="-76.11" font-family="Times,serif" font-size="14.00">~</text>
<text text-anchor="middle" x="181" y="-59.61" font-family="Times,serif" font-size="14.00">Bernoulli</text>
</g>
<!-- p&#45;&gt;y -->
<g id="edge3" class="edge">
<title>p&#45;&gt;y</title>
<path fill="none" stroke="black" d="M181,-173.88C181,-161.78 181,-147.23 181,-133.33"/>
<polygon fill="black" stroke="black" points="184.5,-133.38 181,-123.38 177.5,-133.38 184.5,-133.38"/>
</g>
<!-- z&#45;&gt;y -->
<g id="edge4" class="edge">
<title>z&#45;&gt;y</title>
<path fill="none" stroke="black" d="M88.08,-168.42C98.09,-155.82 110.06,-141.68 122,-129.82 126.67,-125.18 131.76,-120.54 136.93,-116.07"/>
<polygon fill="black" stroke="black" points="139.09,-118.82 144.5,-109.71 134.59,-113.46 139.09,-118.82"/>
</g>
</g>
</svg>
