<?xml version="1.0" encoding="UTF-8" standalone="no"?>
<!DOCTYPE svg PUBLIC "-//W3C//DTD SVG 1.1//EN"
 "http://www.w3.org/Graphics/SVG/1.1/DTD/svg11.dtd">
<!-- Generated by graphviz version 13.0.1 (20250615.1724)
 -->
<!-- Pages: 1 -->
<svg width="213pt" height="276pt"
 viewBox="0.00 0.00 213.00 276.00" xmlns="http://www.w3.org/2000/svg" xmlns:xlink="http://www.w3.org/1999/xlink">
<g id="graph0" class="graph" transform="scale(1 1) rotate(0) translate(4 271.63)">
<polygon fill="white" stroke="none" points="-4,4 -4,-271.63 209,-271.63 209,4 -4,4"/>
<g id="clust1" class="cluster">
<title>clusterspecies (2)</title>
<path fill="none" stroke="black" d="M27,-137.82C27,-137.82 185,-137.82 185,-137.82 191,-137.82 197,-143.82 197,-149.82 197,-149.82 197,-247.63 197,-247.63 197,-253.63 191,-259.63 185,-259.63 185,-259.63 27,-259.63 27,-259.63 21,-259.63 15,-253.63 15,-247.63 15,-247.63 15,-149.82 15,-149.82 15,-143.82 21,-137.82 27,-137.82"/>
<text xml:space="preserve" text-anchor="middle" x="159.75" y="-145.02" font-family="Times,serif" font-size="14.00">species (2)</text>
</g>
<g id="clust2" class="cluster">
<title>cluster3000</title>
<path fill="none" stroke="black" d="M20,-8C20,-8 168,-8 168,-8 174,-8 180,-14 180,-20 180,-20 180,-117.82 180,-117.82 180,-123.82 174,-129.82 168,-129.82 168,-129.82 20,-129.82 20,-129.82 14,-129.82 8,-123.82 8,-117.82 8,-117.82 8,-20 8,-20 8,-14 14,-8 20,-8"/>
<text xml:space="preserve" text-anchor="middle" x="158.5" y="-15.2" font-family="Times,serif" font-size="14.00">3000</text>
</g>
<!-- psi -->
<g id="node1" class="node">
<title>psi</title>
<ellipse fill="none" stroke="black" cx="52" cy="-210.98" rx="28.81" ry="40.66"/>
<text xml:space="preserve" text-anchor="middle" x="52" y="-222.43" font-family="Times,serif" font-size="14.00">psi</text>
<text xml:space="preserve" text-anchor="middle" x="52" y="-205.93" font-family="Times,serif" font-size="14.00">~</text>
<text xml:space="preserve" text-anchor="middle" x="52" y="-189.43" font-family="Times,serif" font-size="14.00">Beta</text>
</g>
<!-- history -->
<g id="node3" class="node">
<title>history</title>
<ellipse fill="lightgrey" stroke="black" cx="94" cy="-81.16" rx="78.14" ry="40.66"/>
<text xml:space="preserve" text-anchor="middle" x="94" y="-92.61" font-family="Times,serif" font-size="14.00">history</text>
<text xml:space="preserve" text-anchor="middle" x="94" y="-76.11" font-family="Times,serif" font-size="14.00">~</text>
<text xml:space="preserve" text-anchor="middle" x="94" y="-59.61" font-family="Times,serif" font-size="14.00">MarginalMixture</text>
</g>
<!-- psi&#45;&gt;history -->
<g id="edge1" class="edge">
<title>psi&#45;&gt;history</title>
<path fill="none" stroke="black" d="M63.92,-173.69C68.13,-160.88 72.95,-146.23 77.47,-132.47"/>
<polygon fill="black" stroke="black" points="80.75,-133.7 80.54,-123.11 74.1,-131.52 80.75,-133.7"/>
</g>
<!-- p -->
<g id="node2" class="node">
<title>p</title>
<ellipse fill="none" stroke="black" cx="144" cy="-210.98" rx="44.72" ry="40.66"/>
<text xml:space="preserve" text-anchor="middle" x="144" y="-222.43" font-family="Times,serif" font-size="14.00">p</text>
<text xml:space="preserve" text-anchor="middle" x="144" y="-205.93" font-family="Times,serif" font-size="14.00">~</text>
<text xml:space="preserve" text-anchor="middle" x="144" y="-189.43" font-family="Times,serif" font-size="14.00">Uniform</text>
</g>
<!-- p&#45;&gt;history -->
<g id="edge2" class="edge">
<title>p&#45;&gt;history</title>
<path fill="none" stroke="black" d="M129.27,-172.32C124.31,-159.65 118.71,-145.32 113.45,-131.87"/>
<polygon fill="black" stroke="black" points="116.77,-130.77 109.87,-122.73 110.26,-133.32 116.77,-130.77"/>
</g>
</g>
</svg>
