<?xml version="1.0" encoding="UTF-8" standalone="no"?>
<!DOCTYPE svg PUBLIC "-//W3C//DTD SVG 1.1//EN"
 "http://www.w3.org/Graphics/SVG/1.1/DTD/svg11.dtd">
<!-- Generated by graphviz version 13.0.1 (20250615.1724)
 -->
<!-- Pages: 1 -->
<svg width="468pt" height="486pt"
 viewBox="0.00 0.00 468.00 486.00" xmlns="http://www.w3.org/2000/svg" xmlns:xlink="http://www.w3.org/1999/xlink">
<g id="graph0" class="graph" transform="scale(1 1) rotate(0) translate(4 482.27)">
<polygon fill="white" stroke="none" points="-4,4 -4,-482.27 464.19,-482.27 464.19,4 -4,4"/>
<g id="clust1" class="cluster">
<title>cluster17</title>
<path fill="none" stroke="black" d="M207.6,-247.13C207.6,-247.13 281.6,-247.13 281.6,-247.13 287.6,-247.13 293.6,-253.13 293.6,-259.13 293.6,-259.13 293.6,-356.95 293.6,-356.95 293.6,-362.95 287.6,-368.95 281.6,-368.95 281.6,-368.95 207.6,-368.95 207.6,-368.95 201.6,-368.95 195.6,-362.95 195.6,-356.95 195.6,-356.95 195.6,-259.13 195.6,-259.13 195.6,-253.13 201.6,-247.13 207.6,-247.13"/>
<text xml:space="preserve" text-anchor="middle" x="278.85" y="-254.33" font-family="Times,serif" font-size="14.00">17</text>
</g>
<g id="clust2" class="cluster">
<title>cluster500</title>
<path fill="none" stroke="black" d="M334.6,-247.13C334.6,-247.13 408.6,-247.13 408.6,-247.13 414.6,-247.13 420.6,-253.13 420.6,-259.13 420.6,-259.13 420.6,-356.95 420.6,-356.95 420.6,-362.95 414.6,-368.95 408.6,-368.95 408.6,-368.95 334.6,-368.95 334.6,-368.95 328.6,-368.95 322.6,-362.95 322.6,-356.95 322.6,-356.95 322.6,-259.13 322.6,-259.13 322.6,-253.13 328.6,-247.13 334.6,-247.13"/>
<text xml:space="preserve" text-anchor="middle" x="402.48" y="-254.33" font-family="Times,serif" font-size="14.00">500</text>
</g>
<g id="clust3" class="cluster">
<title>cluster500 x 17</title>
<path fill="none" stroke="black" d="M131.6,-8C131.6,-8 257.6,-8 257.6,-8 263.6,-8 269.6,-14 269.6,-20 269.6,-20 269.6,-223.23 269.6,-223.23 269.6,-229.23 263.6,-235.23 257.6,-235.23 257.6,-235.23 131.6,-235.23 131.6,-235.23 125.6,-235.23 119.6,-229.23 119.6,-223.23 119.6,-223.23 119.6,-20 119.6,-20 119.6,-14 125.6,-8 131.6,-8"/>
<text xml:space="preserve" text-anchor="middle" x="237.6" y="-15.2" font-family="Times,serif" font-size="14.00">500 x 17</text>
</g>
<!-- mu -->
<g id="node1" class="node">
<title>mu</title>
<ellipse fill="none" stroke="black" cx="42.6" cy="-320.29" rx="42.6" ry="40.66"/>
<text xml:space="preserve" text-anchor="middle" x="42.6" y="-331.74" font-family="Times,serif" font-size="14.00">mu</text>
<text xml:space="preserve" text-anchor="middle" x="42.6" y="-315.24" font-family="Times,serif" font-size="14.00">~</text>
<text xml:space="preserve" text-anchor="middle" x="42.6" y="-298.74" font-family="Times,serif" font-size="14.00">Logistic</text>
</g>
<!-- p -->
<g id="node9" class="node">
<title>p</title>
<polygon fill="none" stroke="black" points="239.73,-227.23 149.48,-227.23 149.48,-169.73 239.73,-169.73 239.73,-227.23"/>
<text xml:space="preserve" text-anchor="middle" x="194.6" y="-209.93" font-family="Times,serif" font-size="14.00">p</text>
<text xml:space="preserve" text-anchor="middle" x="194.6" y="-193.43" font-family="Times,serif" font-size="14.00">~</text>
<text xml:space="preserve" text-anchor="middle" x="194.6" y="-176.93" font-family="Times,serif" font-size="14.00">Deterministic</text>
</g>
<!-- mu&#45;&gt;p -->
<g id="edge4" class="edge">
<title>mu&#45;&gt;p</title>
<path fill="none" stroke="black" d="M62.79,-284.07C71.38,-271.26 82.27,-257.43 94.6,-247.13 107.62,-236.27 123.53,-227.24 138.8,-220.06"/>
<polygon fill="black" stroke="black" points="140.14,-223.29 147.84,-216.01 137.28,-216.91 140.14,-223.29"/>
</g>
<!-- sigma_alpha -->
<g id="node2" class="node">
<title>sigma_alpha</title>
<ellipse fill="none" stroke="black" cx="244.6" cy="-437.61" rx="60.1" ry="40.66"/>
<text xml:space="preserve" text-anchor="middle" x="244.6" y="-449.06" font-family="Times,serif" font-size="14.00">sigma_alpha</text>
<text xml:space="preserve" text-anchor="middle" x="244.6" y="-432.56" font-family="Times,serif" font-size="14.00">~</text>
<text xml:space="preserve" text-anchor="middle" x="244.6" y="-416.06" font-family="Times,serif" font-size="14.00">InvGamma</text>
</g>
<!-- alpha -->
<g id="node7" class="node">
<title>alpha</title>
<ellipse fill="none" stroke="black" cx="244.6" cy="-320.29" rx="41.01" ry="40.66"/>
<text xml:space="preserve" text-anchor="middle" x="244.6" y="-331.74" font-family="Times,serif" font-size="14.00">alpha</text>
<text xml:space="preserve" text-anchor="middle" x="244.6" y="-315.24" font-family="Times,serif" font-size="14.00">~</text>
<text xml:space="preserve" text-anchor="middle" x="244.6" y="-298.74" font-family="Times,serif" font-size="14.00">Normal</text>
</g>
<!-- sigma_alpha&#45;&gt;alpha -->
<g id="edge1" class="edge">
<title>sigma_alpha&#45;&gt;alpha</title>
<path fill="none" stroke="black" d="M244.6,-396.6C244.6,-388.82 244.6,-380.56 244.6,-372.48"/>
<polygon fill="black" stroke="black" points="248.1,-372.74 244.6,-362.74 241.1,-372.74 248.1,-372.74"/>
</g>
<!-- beta -->
<g id="node3" class="node">
<title>beta</title>
<ellipse fill="none" stroke="black" cx="144.6" cy="-320.29" rx="41.01" ry="40.66"/>
<text xml:space="preserve" text-anchor="middle" x="144.6" y="-331.74" font-family="Times,serif" font-size="14.00">beta</text>
<text xml:space="preserve" text-anchor="middle" x="144.6" y="-315.24" font-family="Times,serif" font-size="14.00">~</text>
<text xml:space="preserve" text-anchor="middle" x="144.6" y="-298.74" font-family="Times,serif" font-size="14.00">Normal</text>
</g>
<!-- beta&#45;&gt;p -->
<g id="edge6" class="edge">
<title>beta&#45;&gt;p</title>
<path fill="none" stroke="black" d="M160.01,-282.37C165.87,-268.34 172.55,-252.33 178.47,-238.15"/>
<polygon fill="black" stroke="black" points="181.61,-239.69 182.23,-229.12 175.15,-237 181.61,-239.69"/>
</g>
<!-- sigma_gamma -->
<g id="node4" class="node">
<title>sigma_gamma</title>
<ellipse fill="none" stroke="black" cx="391.6" cy="-437.61" rx="68.59" ry="40.66"/>
<text xml:space="preserve" text-anchor="middle" x="391.6" y="-449.06" font-family="Times,serif" font-size="14.00">sigma_gamma</text>
<text xml:space="preserve" text-anchor="middle" x="391.6" y="-432.56" font-family="Times,serif" font-size="14.00">~</text>
<text xml:space="preserve" text-anchor="middle" x="391.6" y="-416.06" font-family="Times,serif" font-size="14.00">InvGamma</text>
</g>
<!-- gamma -->
<g id="node8" class="node">
<title>gamma</title>
<ellipse fill="none" stroke="black" cx="371.6" cy="-320.29" rx="41.01" ry="40.66"/>
<text xml:space="preserve" text-anchor="middle" x="371.6" y="-331.74" font-family="Times,serif" font-size="14.00">gamma</text>
<text xml:space="preserve" text-anchor="middle" x="371.6" y="-315.24" font-family="Times,serif" font-size="14.00">~</text>
<text xml:space="preserve" text-anchor="middle" x="371.6" y="-298.74" font-family="Times,serif" font-size="14.00">Normal</text>
</g>
<!-- sigma_gamma&#45;&gt;gamma -->
<g id="edge3" class="edge">
<title>sigma_gamma&#45;&gt;gamma</title>
<path fill="none" stroke="black" d="M384.72,-396.92C383.32,-388.86 381.83,-380.28 380.38,-371.9"/>
<polygon fill="black" stroke="black" points="383.85,-371.41 378.69,-362.15 376.95,-372.6 383.85,-371.41"/>
</g>
<!-- sigma_beta -->
<g id="node5" class="node">
<title>sigma_beta</title>
<ellipse fill="none" stroke="black" cx="111.6" cy="-437.61" rx="55.33" ry="40.66"/>
<text xml:space="preserve" text-anchor="middle" x="111.6" y="-449.06" font-family="Times,serif" font-size="14.00">sigma_beta</text>
<text xml:space="preserve" text-anchor="middle" x="111.6" y="-432.56" font-family="Times,serif" font-size="14.00">~</text>
<text xml:space="preserve" text-anchor="middle" x="111.6" y="-416.06" font-family="Times,serif" font-size="14.00">InvGamma</text>
</g>
<!-- sigma_beta&#45;&gt;beta -->
<g id="edge2" class="edge">
<title>sigma_beta&#45;&gt;beta</title>
<path fill="none" stroke="black" d="M122.78,-397.57C125.22,-389.02 127.84,-379.87 130.39,-370.97"/>
<polygon fill="black" stroke="black" points="133.75,-371.93 133.14,-361.36 127.02,-370.01 133.75,-371.93"/>
</g>
<!-- psi -->
<g id="node6" class="node">
<title>psi</title>
<ellipse fill="none" stroke="black" cx="306.6" cy="-198.48" rx="28.81" ry="40.66"/>
<text xml:space="preserve" text-anchor="middle" x="306.6" y="-209.93" font-family="Times,serif" font-size="14.00">psi</text>
<text xml:space="preserve" text-anchor="middle" x="306.6" y="-193.43" font-family="Times,serif" font-size="14.00">~</text>
<text xml:space="preserve" text-anchor="middle" x="306.6" y="-176.93" font-family="Times,serif" font-size="14.00">Beta</text>
</g>
<!-- y -->
<g id="node10" class="node">
<title>y</title>
<ellipse fill="lightgrey" stroke="black" cx="194.6" cy="-81.16" rx="67" ry="40.66"/>
<text xml:space="preserve" text-anchor="middle" x="194.6" y="-92.61" font-family="Times,serif" font-size="14.00">y</text>
<text xml:space="preserve" text-anchor="middle" x="194.6" y="-76.11" font-family="Times,serif" font-size="14.00">~</text>
<text xml:space="preserve" text-anchor="middle" x="194.6" y="-59.61" font-family="Times,serif" font-size="14.00">CustomDist_y</text>
</g>
<!-- psi&#45;&gt;y -->
<g id="edge8" class="edge">
<title>psi&#45;&gt;y</title>
<path fill="none" stroke="black" d="M285,-170.67C281.28,-166.3 277.39,-161.88 273.6,-157.82 262.87,-146.31 250.8,-134.32 239.4,-123.37"/>
<polygon fill="black" stroke="black" points="241.99,-121 232.33,-116.64 237.16,-126.07 241.99,-121"/>
</g>
<!-- alpha&#45;&gt;p -->
<g id="edge7" class="edge">
<title>alpha&#45;&gt;p</title>
<path fill="none" stroke="black" d="M229.19,-282.37C223.34,-268.34 216.66,-252.33 210.74,-238.15"/>
<polygon fill="black" stroke="black" points="214.05,-237 206.97,-229.12 207.59,-239.69 214.05,-237"/>
</g>
<!-- gamma&#45;&gt;p -->
<g id="edge5" class="edge">
<title>gamma&#45;&gt;p</title>
<path fill="none" stroke="black" d="M346.29,-288.18C333.13,-273.83 315.97,-257.67 297.6,-247.13 286.01,-240.48 281.02,-244.1 268.6,-239.13 262.53,-236.71 256.32,-233.91 250.2,-230.95"/>
<polygon fill="black" stroke="black" points="251.89,-227.89 241.38,-226.54 248.75,-234.14 251.89,-227.89"/>
</g>
<!-- p&#45;&gt;y -->
<g id="edge9" class="edge">
<title>p&#45;&gt;y</title>
<path fill="none" stroke="black" d="M194.6,-169.27C194.6,-158.44 194.6,-145.73 194.6,-133.41"/>
<polygon fill="black" stroke="black" points="198.1,-133.78 194.6,-123.78 191.1,-133.78 198.1,-133.78"/>
</g>
</g>
</svg>
