<?xml version="1.0" encoding="UTF-8" standalone="no"?>
<!DOCTYPE svg PUBLIC "-//W3C//DTD SVG 1.1//EN"
 "http://www.w3.org/Graphics/SVG/1.1/DTD/svg11.dtd">
<!-- Generated by graphviz version 12.2.1 (0)
 -->
<!-- Pages: 1 -->
<svg width="307pt" height="482pt"
 viewBox="0.00 0.00 307.33 482.36" xmlns="http://www.w3.org/2000/svg" xmlns:xlink="http://www.w3.org/1999/xlink">
<g id="graph0" class="graph" transform="scale(1 1) rotate(0) translate(4 478.36)">
<polygon fill="white" stroke="none" points="-4,4 -4,-478.36 303.33,-478.36 303.33,4 -4,4"/>
<g id="clust1" class="cluster">
<title>cluster17</title>
<path fill="none" stroke="black" d="M105.6,-137.82C105.6,-137.82 187.6,-137.82 187.6,-137.82 193.6,-137.82 199.6,-143.82 199.6,-149.82 199.6,-149.82 199.6,-353.04 199.6,-353.04 199.6,-359.04 193.6,-365.04 187.6,-365.04 187.6,-365.04 105.6,-365.04 105.6,-365.04 99.6,-365.04 93.6,-359.04 93.6,-353.04 93.6,-353.04 93.6,-149.82 93.6,-149.82 93.6,-143.82 99.6,-137.82 105.6,-137.82"/>
<text text-anchor="middle" x="184.85" y="-145.02" font-family="Times,serif" font-size="14.00">17</text>
</g>
<g id="clust2" class="cluster">
<title>cluster500 x 17</title>
<path fill="none" stroke="black" d="M94.6,-8C94.6,-8 220.6,-8 220.6,-8 226.6,-8 232.6,-14 232.6,-20 232.6,-20 232.6,-117.82 232.6,-117.82 232.6,-123.82 226.6,-129.82 220.6,-129.82 220.6,-129.82 94.6,-129.82 94.6,-129.82 88.6,-129.82 82.6,-123.82 82.6,-117.82 82.6,-117.82 82.6,-20 82.6,-20 82.6,-14 88.6,-8 94.6,-8"/>
<text text-anchor="middle" x="200.6" y="-15.2" font-family="Times,serif" font-size="14.00">500 x 17</text>
</g>
<!-- mu -->
<g id="node1" class="node">
<title>mu</title>
<ellipse fill="none" stroke="black" cx="42.6" cy="-316.38" rx="42.6" ry="40.66"/>
<text text-anchor="middle" x="42.6" y="-327.83" font-family="Times,serif" font-size="14.00">mu</text>
<text text-anchor="middle" x="42.6" y="-311.33" font-family="Times,serif" font-size="14.00">~</text>
<text text-anchor="middle" x="42.6" y="-294.83" font-family="Times,serif" font-size="14.00">Logistic</text>
</g>
<!-- p -->
<g id="node5" class="node">
<title>p</title>
<polygon fill="none" stroke="black" points="191.73,-227.82 101.48,-227.82 101.48,-170.32 191.73,-170.32 191.73,-227.82"/>
<text text-anchor="middle" x="146.6" y="-210.52" font-family="Times,serif" font-size="14.00">p</text>
<text text-anchor="middle" x="146.6" y="-194.02" font-family="Times,serif" font-size="14.00">~</text>
<text text-anchor="middle" x="146.6" y="-177.52" font-family="Times,serif" font-size="14.00">Deterministic</text>
</g>
<!-- mu&#45;&gt;p -->
<g id="edge2" class="edge">
<title>mu&#45;&gt;p</title>
<path fill="none" stroke="black" d="M70.2,-284.78C83.6,-269.92 99.81,-251.96 113.84,-236.4"/>
<polygon fill="black" stroke="black" points="116.26,-238.94 120.36,-229.17 111.06,-234.25 116.26,-238.94"/>
</g>
<!-- psi -->
<g id="node2" class="node">
<title>psi</title>
<ellipse fill="none" stroke="black" cx="254.6" cy="-199.07" rx="44.72" ry="40.66"/>
<text text-anchor="middle" x="254.6" y="-210.52" font-family="Times,serif" font-size="14.00">psi</text>
<text text-anchor="middle" x="254.6" y="-194.02" font-family="Times,serif" font-size="14.00">~</text>
<text text-anchor="middle" x="254.6" y="-177.52" font-family="Times,serif" font-size="14.00">Uniform</text>
</g>
<!-- y -->
<g id="node6" class="node">
<title>y</title>
<ellipse fill="lightgrey" stroke="black" cx="157.6" cy="-81.16" rx="67" ry="40.66"/>
<text text-anchor="middle" x="157.6" y="-92.61" font-family="Times,serif" font-size="14.00">y</text>
<text text-anchor="middle" x="157.6" y="-76.11" font-family="Times,serif" font-size="14.00">~</text>
<text text-anchor="middle" x="157.6" y="-59.61" font-family="Times,serif" font-size="14.00">CustomDist_y</text>
</g>
<!-- psi&#45;&gt;y -->
<g id="edge4" class="edge">
<title>psi&#45;&gt;y</title>
<path fill="none" stroke="black" d="M227.84,-166.09C217.54,-153.78 205.58,-139.49 194.49,-126.23"/>
<polygon fill="black" stroke="black" points="197.42,-124.29 188.32,-118.86 192.05,-128.78 197.42,-124.29"/>
</g>
<!-- sigma_alpha -->
<g id="node3" class="node">
<title>sigma_alpha</title>
<ellipse fill="none" stroke="black" cx="146.6" cy="-433.7" rx="60.1" ry="40.66"/>
<text text-anchor="middle" x="146.6" y="-445.15" font-family="Times,serif" font-size="14.00">sigma_alpha</text>
<text text-anchor="middle" x="146.6" y="-428.65" font-family="Times,serif" font-size="14.00">~</text>
<text text-anchor="middle" x="146.6" y="-412.15" font-family="Times,serif" font-size="14.00">InvGamma</text>
</g>
<!-- alpha -->
<g id="node4" class="node">
<title>alpha</title>
<ellipse fill="none" stroke="black" cx="146.6" cy="-316.38" rx="41.01" ry="40.66"/>
<text text-anchor="middle" x="146.6" y="-327.83" font-family="Times,serif" font-size="14.00">alpha</text>
<text text-anchor="middle" x="146.6" y="-311.33" font-family="Times,serif" font-size="14.00">~</text>
<text text-anchor="middle" x="146.6" y="-294.83" font-family="Times,serif" font-size="14.00">Normal</text>
</g>
<!-- sigma_alpha&#45;&gt;alpha -->
<g id="edge1" class="edge">
<title>sigma_alpha&#45;&gt;alpha</title>
<path fill="none" stroke="black" d="M146.6,-392.69C146.6,-384.91 146.6,-376.65 146.6,-368.57"/>
<polygon fill="black" stroke="black" points="150.1,-368.84 146.6,-358.84 143.1,-368.84 150.1,-368.84"/>
</g>
<!-- alpha&#45;&gt;p -->
<g id="edge3" class="edge">
<title>alpha&#45;&gt;p</title>
<path fill="none" stroke="black" d="M146.6,-275.38C146.6,-263.67 146.6,-250.88 146.6,-239.23"/>
<polygon fill="black" stroke="black" points="150.1,-239.54 146.6,-229.54 143.1,-239.54 150.1,-239.54"/>
</g>
<!-- p&#45;&gt;y -->
<g id="edge5" class="edge">
<title>p&#45;&gt;y</title>
<path fill="none" stroke="black" d="M149.27,-170.01C150.31,-159.03 151.54,-146.08 152.73,-133.55"/>
<polygon fill="black" stroke="black" points="156.2,-134.02 153.66,-123.73 149.23,-133.36 156.2,-134.02"/>
</g>
</g>
</svg>
