<?xml version="1.0" encoding="UTF-8" standalone="no"?>
<!DOCTYPE svg PUBLIC "-//W3C//DTD SVG 1.1//EN"
 "http://www.w3.org/Graphics/SVG/1.1/DTD/svg11.dtd">
<!-- Generated by graphviz version 12.0.0 (0)
 -->
<!-- Pages: 1 -->
<svg width="360pt" height="486pt"
 viewBox="0.00 0.00 360.06 486.27" xmlns="http://www.w3.org/2000/svg" xmlns:xlink="http://www.w3.org/1999/xlink">
<g id="graph0" class="graph" transform="scale(1 1) rotate(0) translate(4 482.27)">
<polygon fill="white" stroke="none" points="-4,4 -4,-482.27 356.06,-482.27 356.06,4 -4,4"/>
<g id="clust1" class="cluster">
<title>cluster17</title>
<path fill="none" stroke="black" d="M135.72,-247.13C135.72,-247.13 209.72,-247.13 209.72,-247.13 215.72,-247.13 221.72,-253.13 221.72,-259.13 221.72,-259.13 221.72,-356.95 221.72,-356.95 221.72,-362.95 215.72,-368.95 209.72,-368.95 209.72,-368.95 135.72,-368.95 135.72,-368.95 129.72,-368.95 123.72,-362.95 123.72,-356.95 123.72,-356.95 123.72,-259.13 123.72,-259.13 123.72,-253.13 129.72,-247.13 135.72,-247.13"/>
<text text-anchor="middle" x="206.97" y="-254.33" font-family="Times,serif" font-size="14.00">17</text>
</g>
<g id="clust2" class="cluster">
<title>cluster500 x 17</title>
<path fill="none" stroke="black" d="M109.72,-8C109.72,-8 235.72,-8 235.72,-8 241.72,-8 247.72,-14 247.72,-20 247.72,-20 247.72,-223.23 247.72,-223.23 247.72,-229.23 241.72,-235.23 235.72,-235.23 235.72,-235.23 109.72,-235.23 109.72,-235.23 103.72,-235.23 97.72,-229.23 97.72,-223.23 97.72,-223.23 97.72,-20 97.72,-20 97.72,-14 103.72,-8 109.72,-8"/>
<text text-anchor="middle" x="215.72" y="-15.2" font-family="Times,serif" font-size="14.00">500 x 17</text>
</g>
<!-- beta -->
<g id="node1" class="node">
<title>beta</title>
<ellipse fill="none" stroke="black" cx="288.72" cy="-320.29" rx="41.01" ry="40.66"/>
<text text-anchor="middle" x="288.72" y="-331.74" font-family="Times,serif" font-size="14.00">beta</text>
<text text-anchor="middle" x="288.72" y="-315.24" font-family="Times,serif" font-size="14.00">~</text>
<text text-anchor="middle" x="288.72" y="-298.74" font-family="Times,serif" font-size="14.00">Normal</text>
</g>
<!-- p -->
<g id="node7" class="node">
<title>p</title>
<polygon fill="none" stroke="black" points="217.85,-227.23 127.6,-227.23 127.6,-169.73 217.85,-169.73 217.85,-227.23"/>
<text text-anchor="middle" x="172.72" y="-209.93" font-family="Times,serif" font-size="14.00">p</text>
<text text-anchor="middle" x="172.72" y="-193.43" font-family="Times,serif" font-size="14.00">~</text>
<text text-anchor="middle" x="172.72" y="-176.93" font-family="Times,serif" font-size="14.00">Deterministic</text>
</g>
<!-- beta&#45;&gt;p -->
<g id="edge4" class="edge">
<title>beta&#45;&gt;p</title>
<path fill="none" stroke="black" d="M263.15,-288.37C252,-275.32 238.56,-260.16 225.72,-247.13 221.81,-243.16 217.63,-239.11 213.4,-235.13"/>
<polygon fill="black" stroke="black" points="216.08,-232.85 206.36,-228.63 211.33,-237.99 216.08,-232.85"/>
</g>
<!-- sigma_beta -->
<g id="node2" class="node">
<title>sigma_beta</title>
<ellipse fill="none" stroke="black" cx="296.72" cy="-437.61" rx="55.33" ry="40.66"/>
<text text-anchor="middle" x="296.72" y="-449.06" font-family="Times,serif" font-size="14.00">sigma_beta</text>
<text text-anchor="middle" x="296.72" y="-432.56" font-family="Times,serif" font-size="14.00">~</text>
<text text-anchor="middle" x="296.72" y="-416.06" font-family="Times,serif" font-size="14.00">InvGamma</text>
</g>
<!-- sigma_beta&#45;&gt;beta -->
<g id="edge2" class="edge">
<title>sigma_beta&#45;&gt;beta</title>
<path fill="none" stroke="black" d="M293.95,-396.6C293.41,-388.82 292.84,-380.56 292.28,-372.48"/>
<polygon fill="black" stroke="black" points="295.78,-372.47 291.6,-362.74 288.8,-372.96 295.78,-372.47"/>
</g>
<!-- sigma_alpha -->
<g id="node3" class="node">
<title>sigma_alpha</title>
<ellipse fill="none" stroke="black" cx="163.72" cy="-437.61" rx="60.1" ry="40.66"/>
<text text-anchor="middle" x="163.72" y="-449.06" font-family="Times,serif" font-size="14.00">sigma_alpha</text>
<text text-anchor="middle" x="163.72" y="-432.56" font-family="Times,serif" font-size="14.00">~</text>
<text text-anchor="middle" x="163.72" y="-416.06" font-family="Times,serif" font-size="14.00">InvGamma</text>
</g>
<!-- alpha -->
<g id="node6" class="node">
<title>alpha</title>
<ellipse fill="none" stroke="black" cx="172.72" cy="-320.29" rx="41.01" ry="40.66"/>
<text text-anchor="middle" x="172.72" y="-331.74" font-family="Times,serif" font-size="14.00">alpha</text>
<text text-anchor="middle" x="172.72" y="-315.24" font-family="Times,serif" font-size="14.00">~</text>
<text text-anchor="middle" x="172.72" y="-298.74" font-family="Times,serif" font-size="14.00">Normal</text>
</g>
<!-- sigma_alpha&#45;&gt;alpha -->
<g id="edge1" class="edge">
<title>sigma_alpha&#45;&gt;alpha</title>
<path fill="none" stroke="black" d="M166.85,-396.6C167.45,-388.82 168.1,-380.56 168.73,-372.48"/>
<polygon fill="black" stroke="black" points="172.2,-372.98 169.49,-362.74 165.22,-372.44 172.2,-372.98"/>
</g>
<!-- mu -->
<g id="node4" class="node">
<title>mu</title>
<ellipse fill="none" stroke="black" cx="70.72" cy="-320.29" rx="42.6" ry="40.66"/>
<text text-anchor="middle" x="70.72" y="-331.74" font-family="Times,serif" font-size="14.00">mu</text>
<text text-anchor="middle" x="70.72" y="-315.24" font-family="Times,serif" font-size="14.00">~</text>
<text text-anchor="middle" x="70.72" y="-298.74" font-family="Times,serif" font-size="14.00">Logistic</text>
</g>
<!-- mu&#45;&gt;p -->
<g id="edge5" class="edge">
<title>mu&#45;&gt;p</title>
<path fill="none" stroke="black" d="M91.8,-284.64C99.92,-272.32 109.67,-258.66 119.72,-247.13 123.2,-243.15 127,-239.16 130.91,-235.29"/>
<polygon fill="black" stroke="black" points="133.11,-238.02 137.93,-228.59 128.28,-232.96 133.11,-238.02"/>
</g>
<!-- psi -->
<g id="node5" class="node">
<title>psi</title>
<ellipse fill="none" stroke="black" cx="44.72" cy="-198.48" rx="44.72" ry="40.66"/>
<text text-anchor="middle" x="44.72" y="-209.93" font-family="Times,serif" font-size="14.00">psi</text>
<text text-anchor="middle" x="44.72" y="-193.43" font-family="Times,serif" font-size="14.00">~</text>
<text text-anchor="middle" x="44.72" y="-176.93" font-family="Times,serif" font-size="14.00">Uniform</text>
</g>
<!-- y -->
<g id="node8" class="node">
<title>y</title>
<ellipse fill="lightgrey" stroke="black" cx="172.72" cy="-81.16" rx="67" ry="40.66"/>
<text text-anchor="middle" x="172.72" y="-92.61" font-family="Times,serif" font-size="14.00">y</text>
<text text-anchor="middle" x="172.72" y="-76.11" font-family="Times,serif" font-size="14.00">~</text>
<text text-anchor="middle" x="172.72" y="-59.61" font-family="Times,serif" font-size="14.00">CustomDist_y</text>
</g>
<!-- psi&#45;&gt;y -->
<g id="edge7" class="edge">
<title>psi&#45;&gt;y</title>
<path fill="none" stroke="black" d="M76.04,-169.27C91.56,-155.28 110.58,-138.14 127.64,-122.78"/>
<polygon fill="black" stroke="black" points="129.62,-125.71 134.7,-116.41 124.93,-120.51 129.62,-125.71"/>
</g>
<!-- alpha&#45;&gt;p -->
<g id="edge3" class="edge">
<title>alpha&#45;&gt;p</title>
<path fill="none" stroke="black" d="M172.72,-279.4C172.72,-266.37 172.72,-251.91 172.72,-238.91"/>
<polygon fill="black" stroke="black" points="176.22,-238.98 172.72,-228.98 169.22,-238.98 176.22,-238.98"/>
</g>
<!-- p&#45;&gt;y -->
<g id="edge6" class="edge">
<title>p&#45;&gt;y</title>
<path fill="none" stroke="black" d="M172.72,-169.27C172.72,-158.44 172.72,-145.73 172.72,-133.41"/>
<polygon fill="black" stroke="black" points="176.22,-133.78 172.72,-123.78 169.22,-133.78 176.22,-133.78"/>
</g>
</g>
</svg>
