<?xml version="1.0" encoding="UTF-8" standalone="no"?>
<!DOCTYPE svg PUBLIC "-//W3C//DTD SVG 1.1//EN"
 "http://www.w3.org/Graphics/SVG/1.1/DTD/svg11.dtd">
<!-- Generated by graphviz version 13.0.1 (20250615.1724)
 -->
<!-- Pages: 1 -->
<svg width="264pt" height="486pt"
 viewBox="0.00 0.00 264.00 486.00" xmlns="http://www.w3.org/2000/svg" xmlns:xlink="http://www.w3.org/1999/xlink">
<g id="graph0" class="graph" transform="scale(1 1) rotate(0) translate(4 482.27)">
<polygon fill="white" stroke="none" points="-4,4 -4,-482.27 259.72,-482.27 259.72,4 -4,4"/>
<g id="clust1" class="cluster">
<title>cluster500</title>
<path fill="none" stroke="black" d="M148.72,-247.13C148.72,-247.13 222.72,-247.13 222.72,-247.13 228.72,-247.13 234.72,-253.13 234.72,-259.13 234.72,-259.13 234.72,-356.95 234.72,-356.95 234.72,-362.95 228.72,-368.95 222.72,-368.95 222.72,-368.95 148.72,-368.95 148.72,-368.95 142.72,-368.95 136.72,-362.95 136.72,-356.95 136.72,-356.95 136.72,-259.13 136.72,-259.13 136.72,-253.13 142.72,-247.13 148.72,-247.13"/>
<text xml:space="preserve" text-anchor="middle" x="216.6" y="-254.33" font-family="Times,serif" font-size="14.00">500</text>
</g>
<g id="clust2" class="cluster">
<title>cluster500 x 17</title>
<path fill="none" stroke="black" d="M109.72,-8C109.72,-8 235.72,-8 235.72,-8 241.72,-8 247.72,-14 247.72,-20 247.72,-20 247.72,-223.23 247.72,-223.23 247.72,-229.23 241.72,-235.23 235.72,-235.23 235.72,-235.23 109.72,-235.23 109.72,-235.23 103.72,-235.23 97.72,-229.23 97.72,-223.23 97.72,-223.23 97.72,-20 97.72,-20 97.72,-14 103.72,-8 109.72,-8"/>
<text xml:space="preserve" text-anchor="middle" x="215.72" y="-15.2" font-family="Times,serif" font-size="14.00">500 x 17</text>
</g>
<!-- psi -->
<g id="node1" class="node">
<title>psi</title>
<ellipse fill="none" stroke="black" cx="44.72" cy="-198.48" rx="44.72" ry="40.66"/>
<text xml:space="preserve" text-anchor="middle" x="44.72" y="-209.93" font-family="Times,serif" font-size="14.00">psi</text>
<text xml:space="preserve" text-anchor="middle" x="44.72" y="-193.43" font-family="Times,serif" font-size="14.00">~</text>
<text xml:space="preserve" text-anchor="middle" x="44.72" y="-176.93" font-family="Times,serif" font-size="14.00">Uniform</text>
</g>
<!-- y -->
<g id="node6" class="node">
<title>y</title>
<ellipse fill="lightgrey" stroke="black" cx="172.72" cy="-81.16" rx="67" ry="40.66"/>
<text xml:space="preserve" text-anchor="middle" x="172.72" y="-92.61" font-family="Times,serif" font-size="14.00">y</text>
<text xml:space="preserve" text-anchor="middle" x="172.72" y="-76.11" font-family="Times,serif" font-size="14.00">~</text>
<text xml:space="preserve" text-anchor="middle" x="172.72" y="-59.61" font-family="Times,serif" font-size="14.00">CustomDist_y</text>
</g>
<!-- psi&#45;&gt;y -->
<g id="edge4" class="edge">
<title>psi&#45;&gt;y</title>
<path fill="none" stroke="black" d="M76.04,-169.27C91.56,-155.28 110.58,-138.14 127.64,-122.78"/>
<polygon fill="black" stroke="black" points="129.62,-125.71 134.7,-116.41 124.93,-120.51 129.62,-125.71"/>
</g>
<!-- mu -->
<g id="node2" class="node">
<title>mu</title>
<ellipse fill="none" stroke="black" cx="83.72" cy="-320.29" rx="42.6" ry="40.66"/>
<text xml:space="preserve" text-anchor="middle" x="83.72" y="-331.74" font-family="Times,serif" font-size="14.00">mu</text>
<text xml:space="preserve" text-anchor="middle" x="83.72" y="-315.24" font-family="Times,serif" font-size="14.00">~</text>
<text xml:space="preserve" text-anchor="middle" x="83.72" y="-298.74" font-family="Times,serif" font-size="14.00">Logistic</text>
</g>
<!-- p -->
<g id="node5" class="node">
<title>p</title>
<polygon fill="none" stroke="black" points="217.85,-227.23 127.6,-227.23 127.6,-169.73 217.85,-169.73 217.85,-227.23"/>
<text xml:space="preserve" text-anchor="middle" x="172.72" y="-209.93" font-family="Times,serif" font-size="14.00">p</text>
<text xml:space="preserve" text-anchor="middle" x="172.72" y="-193.43" font-family="Times,serif" font-size="14.00">~</text>
<text xml:space="preserve" text-anchor="middle" x="172.72" y="-176.93" font-family="Times,serif" font-size="14.00">Deterministic</text>
</g>
<!-- mu&#45;&gt;p -->
<g id="edge2" class="edge">
<title>mu&#45;&gt;p</title>
<path fill="none" stroke="black" d="M105.72,-285.38C113.93,-273.14 123.5,-259.33 132.72,-247.13 135.4,-243.6 138.24,-239.98 141.13,-236.38"/>
<polygon fill="black" stroke="black" points="143.76,-238.7 147.38,-228.74 138.34,-234.26 143.76,-238.7"/>
</g>
<!-- sigma_gamma -->
<g id="node3" class="node">
<title>sigma_gamma</title>
<ellipse fill="none" stroke="black" cx="185.72" cy="-437.61" rx="68.59" ry="40.66"/>
<text xml:space="preserve" text-anchor="middle" x="185.72" y="-449.06" font-family="Times,serif" font-size="14.00">sigma_gamma</text>
<text xml:space="preserve" text-anchor="middle" x="185.72" y="-432.56" font-family="Times,serif" font-size="14.00">~</text>
<text xml:space="preserve" text-anchor="middle" x="185.72" y="-416.06" font-family="Times,serif" font-size="14.00">InvGamma</text>
</g>
<!-- gamma -->
<g id="node4" class="node">
<title>gamma</title>
<ellipse fill="none" stroke="black" cx="185.72" cy="-320.29" rx="41.01" ry="40.66"/>
<text xml:space="preserve" text-anchor="middle" x="185.72" y="-331.74" font-family="Times,serif" font-size="14.00">gamma</text>
<text xml:space="preserve" text-anchor="middle" x="185.72" y="-315.24" font-family="Times,serif" font-size="14.00">~</text>
<text xml:space="preserve" text-anchor="middle" x="185.72" y="-298.74" font-family="Times,serif" font-size="14.00">Normal</text>
</g>
<!-- sigma_gamma&#45;&gt;gamma -->
<g id="edge1" class="edge">
<title>sigma_gamma&#45;&gt;gamma</title>
<path fill="none" stroke="black" d="M185.72,-396.6C185.72,-388.82 185.72,-380.56 185.72,-372.48"/>
<polygon fill="black" stroke="black" points="189.22,-372.74 185.72,-362.74 182.22,-372.74 189.22,-372.74"/>
</g>
<!-- gamma&#45;&gt;p -->
<g id="edge3" class="edge">
<title>gamma&#45;&gt;p</title>
<path fill="none" stroke="black" d="M181.4,-279.4C179.98,-266.37 178.41,-251.91 177,-238.91"/>
<polygon fill="black" stroke="black" points="180.48,-238.54 175.93,-228.98 173.52,-239.29 180.48,-238.54"/>
</g>
<!-- p&#45;&gt;y -->
<g id="edge5" class="edge">
<title>p&#45;&gt;y</title>
<path fill="none" stroke="black" d="M172.72,-169.27C172.72,-158.44 172.72,-145.73 172.72,-133.41"/>
<polygon fill="black" stroke="black" points="176.22,-133.78 172.72,-123.78 169.22,-133.78 176.22,-133.78"/>
</g>
</g>
</svg>
