<?xml version="1.0" encoding="UTF-8" standalone="no"?>
<!DOCTYPE svg PUBLIC "-//W3C//DTD SVG 1.1//EN"
 "http://www.w3.org/Graphics/SVG/1.1/DTD/svg11.dtd">
<!-- Generated by graphviz version 9.0.0 (0)
 -->
<!-- Pages: 1 -->
<svg width="338pt" height="486pt"
 viewBox="0.00 0.00 338.06 486.27" xmlns="http://www.w3.org/2000/svg" xmlns:xlink="http://www.w3.org/1999/xlink">
<g id="graph0" class="graph" transform="scale(1 1) rotate(0) translate(4 482.27)">
<polygon fill="white" stroke="none" points="-4,4 -4,-482.27 334.06,-482.27 334.06,4 -4,4"/>
<g id="clust1" class="cluster">
<title>cluster17</title>
<path fill="none" stroke="black" d="M222.33,-247.13C222.33,-247.13 296.33,-247.13 296.33,-247.13 302.33,-247.13 308.33,-253.13 308.33,-259.13 308.33,-259.13 308.33,-356.95 308.33,-356.95 308.33,-362.95 302.33,-368.95 296.33,-368.95 296.33,-368.95 222.33,-368.95 222.33,-368.95 216.33,-368.95 210.33,-362.95 210.33,-356.95 210.33,-356.95 210.33,-259.13 210.33,-259.13 210.33,-253.13 216.33,-247.13 222.33,-247.13"/>
<text text-anchor="middle" x="293.58" y="-254.33" font-family="Times,serif" font-size="14.00">17</text>
</g>
<g id="clust2" class="cluster">
<title>cluster500 x 17</title>
<path fill="none" stroke="black" d="M94.33,-8C94.33,-8 220.33,-8 220.33,-8 226.33,-8 232.33,-14 232.33,-20 232.33,-20 232.33,-223.23 232.33,-223.23 232.33,-229.23 226.33,-235.23 220.33,-235.23 220.33,-235.23 94.33,-235.23 94.33,-235.23 88.33,-235.23 82.33,-229.23 82.33,-223.23 82.33,-223.23 82.33,-20 82.33,-20 82.33,-14 88.33,-8 94.33,-8"/>
<text text-anchor="middle" x="200.33" y="-15.2" font-family="Times,serif" font-size="14.00">500 x 17</text>
</g>
<!-- sigma_beta -->
<g id="node1" class="node">
<title>sigma_beta</title>
<ellipse fill="none" stroke="black" cx="55.33" cy="-437.61" rx="55.33" ry="40.66"/>
<text text-anchor="middle" x="55.33" y="-449.06" font-family="Times,serif" font-size="14.00">sigma_beta</text>
<text text-anchor="middle" x="55.33" y="-432.56" font-family="Times,serif" font-size="14.00">~</text>
<text text-anchor="middle" x="55.33" y="-416.06" font-family="Times,serif" font-size="14.00">InvGamma</text>
</g>
<!-- beta -->
<g id="node5" class="node">
<title>beta</title>
<ellipse fill="none" stroke="black" cx="55.33" cy="-320.29" rx="41.01" ry="40.66"/>
<text text-anchor="middle" x="55.33" y="-331.74" font-family="Times,serif" font-size="14.00">beta</text>
<text text-anchor="middle" x="55.33" y="-315.24" font-family="Times,serif" font-size="14.00">~</text>
<text text-anchor="middle" x="55.33" y="-298.74" font-family="Times,serif" font-size="14.00">Normal</text>
</g>
<!-- sigma_beta&#45;&gt;beta -->
<g id="edge2" class="edge">
<title>sigma_beta&#45;&gt;beta</title>
<path fill="none" stroke="black" d="M55.33,-396.6C55.33,-388.82 55.33,-380.56 55.33,-372.48"/>
<polygon fill="black" stroke="black" points="58.83,-372.74 55.33,-362.74 51.83,-372.74 58.83,-372.74"/>
</g>
<!-- psi -->
<g id="node2" class="node">
<title>psi</title>
<ellipse fill="none" stroke="black" cx="285.33" cy="-198.48" rx="44.72" ry="40.66"/>
<text text-anchor="middle" x="285.33" y="-209.93" font-family="Times,serif" font-size="14.00">psi</text>
<text text-anchor="middle" x="285.33" y="-193.43" font-family="Times,serif" font-size="14.00">~</text>
<text text-anchor="middle" x="285.33" y="-176.93" font-family="Times,serif" font-size="14.00">Uniform</text>
</g>
<!-- y -->
<g id="node7" class="node">
<title>y</title>
<ellipse fill="lightgrey" stroke="black" cx="157.33" cy="-81.16" rx="67" ry="40.66"/>
<text text-anchor="middle" x="157.33" y="-92.61" font-family="Times,serif" font-size="14.00">y</text>
<text text-anchor="middle" x="157.33" y="-76.11" font-family="Times,serif" font-size="14.00">~</text>
<text text-anchor="middle" x="157.33" y="-59.61" font-family="Times,serif" font-size="14.00">CustomDist_y</text>
</g>
<!-- psi&#45;&gt;y -->
<g id="edge6" class="edge">
<title>psi&#45;&gt;y</title>
<path fill="none" stroke="black" d="M254.02,-169.27C238.5,-155.28 219.47,-138.14 202.42,-122.78"/>
<polygon fill="black" stroke="black" points="205.12,-120.51 195.35,-116.41 200.44,-125.71 205.12,-120.51"/>
</g>
<!-- mu -->
<g id="node3" class="node">
<title>mu</title>
<ellipse fill="none" stroke="black" cx="157.33" cy="-320.29" rx="42.6" ry="40.66"/>
<text text-anchor="middle" x="157.33" y="-331.74" font-family="Times,serif" font-size="14.00">mu</text>
<text text-anchor="middle" x="157.33" y="-315.24" font-family="Times,serif" font-size="14.00">~</text>
<text text-anchor="middle" x="157.33" y="-298.74" font-family="Times,serif" font-size="14.00">Logistic</text>
</g>
<!-- p -->
<g id="node8" class="node">
<title>p</title>
<polygon fill="none" stroke="black" points="202.46,-227.23 112.21,-227.23 112.21,-169.73 202.46,-169.73 202.46,-227.23"/>
<text text-anchor="middle" x="157.33" y="-209.93" font-family="Times,serif" font-size="14.00">p</text>
<text text-anchor="middle" x="157.33" y="-193.43" font-family="Times,serif" font-size="14.00">~</text>
<text text-anchor="middle" x="157.33" y="-176.93" font-family="Times,serif" font-size="14.00">Deterministic</text>
</g>
<!-- mu&#45;&gt;p -->
<g id="edge3" class="edge">
<title>mu&#45;&gt;p</title>
<path fill="none" stroke="black" d="M157.33,-279.4C157.33,-266.37 157.33,-251.91 157.33,-238.91"/>
<polygon fill="black" stroke="black" points="160.83,-238.98 157.33,-228.98 153.83,-238.98 160.83,-238.98"/>
</g>
<!-- sigma_alpha -->
<g id="node4" class="node">
<title>sigma_alpha</title>
<ellipse fill="none" stroke="black" cx="259.33" cy="-437.61" rx="60.1" ry="40.66"/>
<text text-anchor="middle" x="259.33" y="-449.06" font-family="Times,serif" font-size="14.00">sigma_alpha</text>
<text text-anchor="middle" x="259.33" y="-432.56" font-family="Times,serif" font-size="14.00">~</text>
<text text-anchor="middle" x="259.33" y="-416.06" font-family="Times,serif" font-size="14.00">InvGamma</text>
</g>
<!-- alpha -->
<g id="node6" class="node">
<title>alpha</title>
<ellipse fill="none" stroke="black" cx="259.33" cy="-320.29" rx="41.01" ry="40.66"/>
<text text-anchor="middle" x="259.33" y="-331.74" font-family="Times,serif" font-size="14.00">alpha</text>
<text text-anchor="middle" x="259.33" y="-315.24" font-family="Times,serif" font-size="14.00">~</text>
<text text-anchor="middle" x="259.33" y="-298.74" font-family="Times,serif" font-size="14.00">Normal</text>
</g>
<!-- sigma_alpha&#45;&gt;alpha -->
<g id="edge1" class="edge">
<title>sigma_alpha&#45;&gt;alpha</title>
<path fill="none" stroke="black" d="M259.33,-396.6C259.33,-388.82 259.33,-380.56 259.33,-372.48"/>
<polygon fill="black" stroke="black" points="262.83,-372.74 259.33,-362.74 255.83,-372.74 262.83,-372.74"/>
</g>
<!-- beta&#45;&gt;p -->
<g id="edge4" class="edge">
<title>beta&#45;&gt;p</title>
<path fill="none" stroke="black" d="M76.75,-285.09C85.1,-272.68 95.11,-258.85 105.33,-247.13 108.77,-243.19 112.52,-239.23 116.36,-235.38"/>
<polygon fill="black" stroke="black" points="118.51,-238.17 123.25,-228.7 113.64,-233.15 118.51,-238.17"/>
</g>
<!-- alpha&#45;&gt;p -->
<g id="edge5" class="edge">
<title>alpha&#45;&gt;p</title>
<path fill="none" stroke="black" d="M237.91,-285.09C229.57,-272.68 219.55,-258.85 209.33,-247.13 205.89,-243.19 202.15,-239.23 198.3,-235.38"/>
<polygon fill="black" stroke="black" points="201.03,-233.15 191.41,-228.7 196.15,-238.17 201.03,-233.15"/>
</g>
<!-- p&#45;&gt;y -->
<g id="edge7" class="edge">
<title>p&#45;&gt;y</title>
<path fill="none" stroke="black" d="M157.33,-169.27C157.33,-158.44 157.33,-145.73 157.33,-133.41"/>
<polygon fill="black" stroke="black" points="160.83,-133.78 157.33,-123.78 153.83,-133.78 160.83,-133.78"/>
</g>
</g>
</svg>
