<?xml version="1.0" encoding="UTF-8" standalone="no"?>
<!DOCTYPE svg PUBLIC "-//W3C//DTD SVG 1.1//EN"
 "http://www.w3.org/Graphics/SVG/1.1/DTD/svg11.dtd">
<!-- Generated by graphviz version 12.2.1 (20241206.2353)
 -->
<!-- Pages: 1 -->
<svg width="293pt" height="486pt"
 viewBox="0.00 0.00 293.33 486.27" xmlns="http://www.w3.org/2000/svg" xmlns:xlink="http://www.w3.org/1999/xlink">
<g id="graph0" class="graph" transform="scale(1 1) rotate(0) translate(4 482.27)">
<polygon fill="white" stroke="none" points="-4,4 -4,-482.27 289.33,-482.27 289.33,4 -4,4"/>
<g id="clust1" class="cluster">
<title>cluster500</title>
<path fill="none" stroke="black" d="M107.6,-247.13C107.6,-247.13 181.6,-247.13 181.6,-247.13 187.6,-247.13 193.6,-253.13 193.6,-259.13 193.6,-259.13 193.6,-356.95 193.6,-356.95 193.6,-362.95 187.6,-368.95 181.6,-368.95 181.6,-368.95 107.6,-368.95 107.6,-368.95 101.6,-368.95 95.6,-362.95 95.6,-356.95 95.6,-356.95 95.6,-259.13 95.6,-259.13 95.6,-253.13 101.6,-247.13 107.6,-247.13"/>
<text text-anchor="middle" x="175.48" y="-254.33" font-family="Times,serif" font-size="14.00">500</text>
</g>
<g id="clust2" class="cluster">
<title>cluster500 x 17</title>
<path fill="none" stroke="black" d="M49.6,-8C49.6,-8 175.6,-8 175.6,-8 181.6,-8 187.6,-14 187.6,-20 187.6,-20 187.6,-223.23 187.6,-223.23 187.6,-229.23 181.6,-235.23 175.6,-235.23 175.6,-235.23 49.6,-235.23 49.6,-235.23 43.6,-235.23 37.6,-229.23 37.6,-223.23 37.6,-223.23 37.6,-20 37.6,-20 37.6,-14 43.6,-8 49.6,-8"/>
<text text-anchor="middle" x="155.6" y="-15.2" font-family="Times,serif" font-size="14.00">500 x 17</text>
</g>
<!-- mu -->
<g id="node1" class="node">
<title>mu</title>
<ellipse fill="none" stroke="black" cx="42.6" cy="-320.29" rx="42.6" ry="40.66"/>
<text text-anchor="middle" x="42.6" y="-331.74" font-family="Times,serif" font-size="14.00">mu</text>
<text text-anchor="middle" x="42.6" y="-315.24" font-family="Times,serif" font-size="14.00">~</text>
<text text-anchor="middle" x="42.6" y="-298.74" font-family="Times,serif" font-size="14.00">Logistic</text>
</g>
<!-- p -->
<g id="node5" class="node">
<title>p</title>
<polygon fill="none" stroke="black" points="157.73,-227.23 67.48,-227.23 67.48,-169.73 157.73,-169.73 157.73,-227.23"/>
<text text-anchor="middle" x="112.6" y="-209.93" font-family="Times,serif" font-size="14.00">p</text>
<text text-anchor="middle" x="112.6" y="-193.43" font-family="Times,serif" font-size="14.00">~</text>
<text text-anchor="middle" x="112.6" y="-176.93" font-family="Times,serif" font-size="14.00">Deterministic</text>
</g>
<!-- mu&#45;&gt;p -->
<g id="edge2" class="edge">
<title>mu&#45;&gt;p</title>
<path fill="none" stroke="black" d="M63.04,-284.31C71.71,-269.47 81.84,-252.14 90.67,-237.02"/>
<polygon fill="black" stroke="black" points="93.47,-239.17 95.49,-228.77 87.42,-235.64 93.47,-239.17"/>
</g>
<!-- sigma_gamma -->
<g id="node2" class="node">
<title>sigma_gamma</title>
<ellipse fill="none" stroke="black" cx="144.6" cy="-437.61" rx="68.59" ry="40.66"/>
<text text-anchor="middle" x="144.6" y="-449.06" font-family="Times,serif" font-size="14.00">sigma_gamma</text>
<text text-anchor="middle" x="144.6" y="-432.56" font-family="Times,serif" font-size="14.00">~</text>
<text text-anchor="middle" x="144.6" y="-416.06" font-family="Times,serif" font-size="14.00">InvGamma</text>
</g>
<!-- gamma -->
<g id="node4" class="node">
<title>gamma</title>
<ellipse fill="none" stroke="black" cx="144.6" cy="-320.29" rx="41.01" ry="40.66"/>
<text text-anchor="middle" x="144.6" y="-331.74" font-family="Times,serif" font-size="14.00">gamma</text>
<text text-anchor="middle" x="144.6" y="-315.24" font-family="Times,serif" font-size="14.00">~</text>
<text text-anchor="middle" x="144.6" y="-298.74" font-family="Times,serif" font-size="14.00">Normal</text>
</g>
<!-- sigma_gamma&#45;&gt;gamma -->
<g id="edge1" class="edge">
<title>sigma_gamma&#45;&gt;gamma</title>
<path fill="none" stroke="black" d="M144.6,-396.6C144.6,-388.82 144.6,-380.56 144.6,-372.48"/>
<polygon fill="black" stroke="black" points="148.1,-372.74 144.6,-362.74 141.1,-372.74 148.1,-372.74"/>
</g>
<!-- psi -->
<g id="node3" class="node">
<title>psi</title>
<ellipse fill="none" stroke="black" cx="240.6" cy="-198.48" rx="44.72" ry="40.66"/>
<text text-anchor="middle" x="240.6" y="-209.93" font-family="Times,serif" font-size="14.00">psi</text>
<text text-anchor="middle" x="240.6" y="-193.43" font-family="Times,serif" font-size="14.00">~</text>
<text text-anchor="middle" x="240.6" y="-176.93" font-family="Times,serif" font-size="14.00">Uniform</text>
</g>
<!-- y -->
<g id="node6" class="node">
<title>y</title>
<ellipse fill="lightgrey" stroke="black" cx="112.6" cy="-81.16" rx="67" ry="40.66"/>
<text text-anchor="middle" x="112.6" y="-92.61" font-family="Times,serif" font-size="14.00">y</text>
<text text-anchor="middle" x="112.6" y="-76.11" font-family="Times,serif" font-size="14.00">~</text>
<text text-anchor="middle" x="112.6" y="-59.61" font-family="Times,serif" font-size="14.00">CustomDist_y</text>
</g>
<!-- psi&#45;&gt;y -->
<g id="edge5" class="edge">
<title>psi&#45;&gt;y</title>
<path fill="none" stroke="black" d="M209.29,-169.27C193.77,-155.28 174.75,-138.14 157.69,-122.78"/>
<polygon fill="black" stroke="black" points="160.4,-120.51 150.62,-116.41 155.71,-125.71 160.4,-120.51"/>
</g>
<!-- gamma&#45;&gt;p -->
<g id="edge3" class="edge">
<title>gamma&#45;&gt;p</title>
<path fill="none" stroke="black" d="M134.3,-280.72C130.7,-267.25 126.67,-252.13 123.06,-238.62"/>
<polygon fill="black" stroke="black" points="126.5,-237.94 120.54,-229.18 119.73,-239.74 126.5,-237.94"/>
</g>
<!-- p&#45;&gt;y -->
<g id="edge4" class="edge">
<title>p&#45;&gt;y</title>
<path fill="none" stroke="black" d="M112.6,-169.27C112.6,-158.44 112.6,-145.73 112.6,-133.41"/>
<polygon fill="black" stroke="black" points="116.1,-133.78 112.6,-123.78 109.1,-133.78 116.1,-133.78"/>
</g>
</g>
</svg>
