<?xml version="1.0" encoding="UTF-8" standalone="no"?>
<!DOCTYPE svg PUBLIC "-//W3C//DTD SVG 1.1//EN"
 "http://www.w3.org/Graphics/SVG/1.1/DTD/svg11.dtd">
<!-- Generated by graphviz version 12.0.0 (0)
 -->
<!-- Pages: 1 -->
<svg width="339pt" height="486pt"
 viewBox="0.00 0.00 338.93 486.27" xmlns="http://www.w3.org/2000/svg" xmlns:xlink="http://www.w3.org/1999/xlink">
<g id="graph0" class="graph" transform="scale(1 1) rotate(0) translate(4 482.27)">
<polygon fill="white" stroke="none" points="-4,4 -4,-482.27 334.93,-482.27 334.93,4 -4,4"/>
<g id="clust1" class="cluster">
<title>cluster500</title>
<path fill="none" stroke="black" d="M107.6,-247.13C107.6,-247.13 181.6,-247.13 181.6,-247.13 187.6,-247.13 193.6,-253.13 193.6,-259.13 193.6,-259.13 193.6,-356.95 193.6,-356.95 193.6,-362.95 187.6,-368.95 181.6,-368.95 181.6,-368.95 107.6,-368.95 107.6,-368.95 101.6,-368.95 95.6,-362.95 95.6,-356.95 95.6,-356.95 95.6,-259.13 95.6,-259.13 95.6,-253.13 101.6,-247.13 107.6,-247.13"/>
<text text-anchor="middle" x="175.48" y="-254.33" font-family="Times,serif" font-size="14.00">500</text>
</g>
<g id="clust2" class="cluster">
<title>cluster500 x 17</title>
<path fill="none" stroke="black" d="M81.6,-8C81.6,-8 207.6,-8 207.6,-8 213.6,-8 219.6,-14 219.6,-20 219.6,-20 219.6,-223.23 219.6,-223.23 219.6,-229.23 213.6,-235.23 207.6,-235.23 207.6,-235.23 81.6,-235.23 81.6,-235.23 75.6,-235.23 69.6,-229.23 69.6,-223.23 69.6,-223.23 69.6,-20 69.6,-20 69.6,-14 75.6,-8 81.6,-8"/>
<text text-anchor="middle" x="187.6" y="-15.2" font-family="Times,serif" font-size="14.00">500 x 17</text>
</g>
<!-- beta -->
<g id="node1" class="node">
<title>beta</title>
<ellipse fill="none" stroke="black" cx="265.6" cy="-320.29" rx="41.01" ry="40.66"/>
<text text-anchor="middle" x="265.6" y="-331.74" font-family="Times,serif" font-size="14.00">beta</text>
<text text-anchor="middle" x="265.6" y="-315.24" font-family="Times,serif" font-size="14.00">~</text>
<text text-anchor="middle" x="265.6" y="-298.74" font-family="Times,serif" font-size="14.00">Normal</text>
</g>
<!-- p -->
<g id="node7" class="node">
<title>p</title>
<polygon fill="none" stroke="black" points="189.73,-227.23 99.48,-227.23 99.48,-169.73 189.73,-169.73 189.73,-227.23"/>
<text text-anchor="middle" x="144.6" y="-209.93" font-family="Times,serif" font-size="14.00">p</text>
<text text-anchor="middle" x="144.6" y="-193.43" font-family="Times,serif" font-size="14.00">~</text>
<text text-anchor="middle" x="144.6" y="-176.93" font-family="Times,serif" font-size="14.00">Deterministic</text>
</g>
<!-- beta&#45;&gt;p -->
<g id="edge3" class="edge">
<title>beta&#45;&gt;p</title>
<path fill="none" stroke="black" d="M238.35,-289.27C226.13,-276.1 211.39,-260.61 197.6,-247.13 193.56,-243.18 189.27,-239.12 184.95,-235.12"/>
<polygon fill="black" stroke="black" points="187.52,-232.73 177.78,-228.56 182.79,-237.89 187.52,-232.73"/>
</g>
<!-- sigma_gamma -->
<g id="node2" class="node">
<title>sigma_gamma</title>
<ellipse fill="none" stroke="black" cx="133.6" cy="-437.61" rx="68.59" ry="40.66"/>
<text text-anchor="middle" x="133.6" y="-449.06" font-family="Times,serif" font-size="14.00">sigma_gamma</text>
<text text-anchor="middle" x="133.6" y="-432.56" font-family="Times,serif" font-size="14.00">~</text>
<text text-anchor="middle" x="133.6" y="-416.06" font-family="Times,serif" font-size="14.00">InvGamma</text>
</g>
<!-- gamma -->
<g id="node6" class="node">
<title>gamma</title>
<ellipse fill="none" stroke="black" cx="144.6" cy="-320.29" rx="41.01" ry="40.66"/>
<text text-anchor="middle" x="144.6" y="-331.74" font-family="Times,serif" font-size="14.00">gamma</text>
<text text-anchor="middle" x="144.6" y="-315.24" font-family="Times,serif" font-size="14.00">~</text>
<text text-anchor="middle" x="144.6" y="-298.74" font-family="Times,serif" font-size="14.00">Normal</text>
</g>
<!-- sigma_gamma&#45;&gt;gamma -->
<g id="edge2" class="edge">
<title>sigma_gamma&#45;&gt;gamma</title>
<path fill="none" stroke="black" d="M137.42,-396.6C138.16,-388.82 138.95,-380.56 139.72,-372.48"/>
<polygon fill="black" stroke="black" points="143.18,-373.03 140.65,-362.74 136.22,-372.36 143.18,-373.03"/>
</g>
<!-- sigma_beta -->
<g id="node3" class="node">
<title>sigma_beta</title>
<ellipse fill="none" stroke="black" cx="275.6" cy="-437.61" rx="55.33" ry="40.66"/>
<text text-anchor="middle" x="275.6" y="-449.06" font-family="Times,serif" font-size="14.00">sigma_beta</text>
<text text-anchor="middle" x="275.6" y="-432.56" font-family="Times,serif" font-size="14.00">~</text>
<text text-anchor="middle" x="275.6" y="-416.06" font-family="Times,serif" font-size="14.00">InvGamma</text>
</g>
<!-- sigma_beta&#45;&gt;beta -->
<g id="edge1" class="edge">
<title>sigma_beta&#45;&gt;beta</title>
<path fill="none" stroke="black" d="M272.13,-396.6C271.46,-388.82 270.74,-380.56 270.04,-372.48"/>
<polygon fill="black" stroke="black" points="273.55,-372.4 269.2,-362.74 266.57,-373 273.55,-372.4"/>
</g>
<!-- mu -->
<g id="node4" class="node">
<title>mu</title>
<ellipse fill="none" stroke="black" cx="42.6" cy="-320.29" rx="42.6" ry="40.66"/>
<text text-anchor="middle" x="42.6" y="-331.74" font-family="Times,serif" font-size="14.00">mu</text>
<text text-anchor="middle" x="42.6" y="-315.24" font-family="Times,serif" font-size="14.00">~</text>
<text text-anchor="middle" x="42.6" y="-298.74" font-family="Times,serif" font-size="14.00">Logistic</text>
</g>
<!-- mu&#45;&gt;p -->
<g id="edge5" class="edge">
<title>mu&#45;&gt;p</title>
<path fill="none" stroke="black" d="M63.68,-284.64C71.8,-272.32 81.55,-258.66 91.6,-247.13 95.08,-243.15 98.88,-239.16 102.78,-235.29"/>
<polygon fill="black" stroke="black" points="104.99,-238.02 109.81,-228.59 100.16,-232.96 104.99,-238.02"/>
</g>
<!-- psi -->
<g id="node5" class="node">
<title>psi</title>
<ellipse fill="none" stroke="black" cx="32.6" cy="-198.48" rx="28.81" ry="40.66"/>
<text text-anchor="middle" x="32.6" y="-209.93" font-family="Times,serif" font-size="14.00">psi</text>
<text text-anchor="middle" x="32.6" y="-193.43" font-family="Times,serif" font-size="14.00">~</text>
<text text-anchor="middle" x="32.6" y="-176.93" font-family="Times,serif" font-size="14.00">Beta</text>
</g>
<!-- y -->
<g id="node8" class="node">
<title>y</title>
<ellipse fill="lightgrey" stroke="black" cx="144.6" cy="-81.16" rx="67" ry="40.66"/>
<text text-anchor="middle" x="144.6" y="-92.61" font-family="Times,serif" font-size="14.00">y</text>
<text text-anchor="middle" x="144.6" y="-76.11" font-family="Times,serif" font-size="14.00">~</text>
<text text-anchor="middle" x="144.6" y="-59.61" font-family="Times,serif" font-size="14.00">CustomDist_y</text>
</g>
<!-- psi&#45;&gt;y -->
<g id="edge7" class="edge">
<title>psi&#45;&gt;y</title>
<path fill="none" stroke="black" d="M54.21,-170.67C57.93,-166.3 61.82,-161.88 65.6,-157.82 76.34,-146.31 88.4,-134.32 99.81,-123.37"/>
<polygon fill="black" stroke="black" points="102.05,-126.07 106.88,-116.64 97.22,-121 102.05,-126.07"/>
</g>
<!-- gamma&#45;&gt;p -->
<g id="edge4" class="edge">
<title>gamma&#45;&gt;p</title>
<path fill="none" stroke="black" d="M144.6,-279.4C144.6,-266.37 144.6,-251.91 144.6,-238.91"/>
<polygon fill="black" stroke="black" points="148.1,-238.98 144.6,-228.98 141.1,-238.98 148.1,-238.98"/>
</g>
<!-- p&#45;&gt;y -->
<g id="edge6" class="edge">
<title>p&#45;&gt;y</title>
<path fill="none" stroke="black" d="M144.6,-169.27C144.6,-158.44 144.6,-145.73 144.6,-133.41"/>
<polygon fill="black" stroke="black" points="148.1,-133.78 144.6,-123.78 141.1,-133.78 148.1,-133.78"/>
</g>
</g>
</svg>
