<?xml version="1.0" encoding="UTF-8" standalone="no"?>
<!DOCTYPE svg PUBLIC "-//W3C//DTD SVG 1.1//EN"
 "http://www.w3.org/Graphics/SVG/1.1/DTD/svg11.dtd">
<!-- Generated by graphviz version 13.0.1 (20250615.1724)
 -->
<!-- Pages: 1 -->
<svg width="337pt" height="486pt"
 viewBox="0.00 0.00 337.00 486.00" xmlns="http://www.w3.org/2000/svg" xmlns:xlink="http://www.w3.org/1999/xlink">
<g id="graph0" class="graph" transform="scale(1 1) rotate(0) translate(4 482.27)">
<polygon fill="white" stroke="none" points="-4,4 -4,-482.27 332.71,-482.27 332.71,4 -4,4"/>
<g id="clust1" class="cluster">
<title>cluster17</title>
<path fill="none" stroke="black" d="M223.6,-247.13C223.6,-247.13 297.6,-247.13 297.6,-247.13 303.6,-247.13 309.6,-253.13 309.6,-259.13 309.6,-259.13 309.6,-356.95 309.6,-356.95 309.6,-362.95 303.6,-368.95 297.6,-368.95 297.6,-368.95 223.6,-368.95 223.6,-368.95 217.6,-368.95 211.6,-362.95 211.6,-356.95 211.6,-356.95 211.6,-259.13 211.6,-259.13 211.6,-253.13 217.6,-247.13 223.6,-247.13"/>
<text xml:space="preserve" text-anchor="middle" x="294.85" y="-254.33" font-family="Times,serif" font-size="14.00">17</text>
</g>
<g id="clust2" class="cluster">
<title>cluster500 x 17</title>
<path fill="none" stroke="black" d="M81.6,-8C81.6,-8 207.6,-8 207.6,-8 213.6,-8 219.6,-14 219.6,-20 219.6,-20 219.6,-223.23 219.6,-223.23 219.6,-229.23 213.6,-235.23 207.6,-235.23 207.6,-235.23 81.6,-235.23 81.6,-235.23 75.6,-235.23 69.6,-229.23 69.6,-223.23 69.6,-223.23 69.6,-20 69.6,-20 69.6,-14 75.6,-8 81.6,-8"/>
<text xml:space="preserve" text-anchor="middle" x="187.6" y="-15.2" font-family="Times,serif" font-size="14.00">500 x 17</text>
</g>
<!-- mu -->
<g id="node1" class="node">
<title>mu</title>
<ellipse fill="none" stroke="black" cx="42.6" cy="-320.29" rx="42.6" ry="40.66"/>
<text xml:space="preserve" text-anchor="middle" x="42.6" y="-331.74" font-family="Times,serif" font-size="14.00">mu</text>
<text xml:space="preserve" text-anchor="middle" x="42.6" y="-315.24" font-family="Times,serif" font-size="14.00">~</text>
<text xml:space="preserve" text-anchor="middle" x="42.6" y="-298.74" font-family="Times,serif" font-size="14.00">Logistic</text>
</g>
<!-- p -->
<g id="node7" class="node">
<title>p</title>
<polygon fill="none" stroke="black" points="189.73,-227.23 99.48,-227.23 99.48,-169.73 189.73,-169.73 189.73,-227.23"/>
<text xml:space="preserve" text-anchor="middle" x="144.6" y="-209.93" font-family="Times,serif" font-size="14.00">p</text>
<text xml:space="preserve" text-anchor="middle" x="144.6" y="-193.43" font-family="Times,serif" font-size="14.00">~</text>
<text xml:space="preserve" text-anchor="middle" x="144.6" y="-176.93" font-family="Times,serif" font-size="14.00">Deterministic</text>
</g>
<!-- mu&#45;&gt;p -->
<g id="edge3" class="edge">
<title>mu&#45;&gt;p</title>
<path fill="none" stroke="black" d="M65.18,-285.26C73.9,-272.87 84.25,-259.01 94.6,-247.13 97.93,-243.32 101.52,-239.47 105.19,-235.69"/>
<polygon fill="black" stroke="black" points="107.62,-238.21 112.23,-228.67 102.68,-233.26 107.62,-238.21"/>
</g>
<!-- sigma_alpha -->
<g id="node2" class="node">
<title>sigma_alpha</title>
<ellipse fill="none" stroke="black" cx="268.6" cy="-437.61" rx="60.1" ry="40.66"/>
<text xml:space="preserve" text-anchor="middle" x="268.6" y="-449.06" font-family="Times,serif" font-size="14.00">sigma_alpha</text>
<text xml:space="preserve" text-anchor="middle" x="268.6" y="-432.56" font-family="Times,serif" font-size="14.00">~</text>
<text xml:space="preserve" text-anchor="middle" x="268.6" y="-416.06" font-family="Times,serif" font-size="14.00">InvGamma</text>
</g>
<!-- alpha -->
<g id="node6" class="node">
<title>alpha</title>
<ellipse fill="none" stroke="black" cx="260.6" cy="-320.29" rx="41.01" ry="40.66"/>
<text xml:space="preserve" text-anchor="middle" x="260.6" y="-331.74" font-family="Times,serif" font-size="14.00">alpha</text>
<text xml:space="preserve" text-anchor="middle" x="260.6" y="-315.24" font-family="Times,serif" font-size="14.00">~</text>
<text xml:space="preserve" text-anchor="middle" x="260.6" y="-298.74" font-family="Times,serif" font-size="14.00">Normal</text>
</g>
<!-- sigma_alpha&#45;&gt;alpha -->
<g id="edge1" class="edge">
<title>sigma_alpha&#45;&gt;alpha</title>
<path fill="none" stroke="black" d="M265.83,-396.6C265.29,-388.82 264.71,-380.56 264.15,-372.48"/>
<polygon fill="black" stroke="black" points="267.66,-372.47 263.48,-362.74 260.68,-372.96 267.66,-372.47"/>
</g>
<!-- beta -->
<g id="node3" class="node">
<title>beta</title>
<ellipse fill="none" stroke="black" cx="144.6" cy="-320.29" rx="41.01" ry="40.66"/>
<text xml:space="preserve" text-anchor="middle" x="144.6" y="-331.74" font-family="Times,serif" font-size="14.00">beta</text>
<text xml:space="preserve" text-anchor="middle" x="144.6" y="-315.24" font-family="Times,serif" font-size="14.00">~</text>
<text xml:space="preserve" text-anchor="middle" x="144.6" y="-298.74" font-family="Times,serif" font-size="14.00">Normal</text>
</g>
<!-- beta&#45;&gt;p -->
<g id="edge4" class="edge">
<title>beta&#45;&gt;p</title>
<path fill="none" stroke="black" d="M144.6,-279.4C144.6,-266.37 144.6,-251.91 144.6,-238.91"/>
<polygon fill="black" stroke="black" points="148.1,-238.98 144.6,-228.98 141.1,-238.98 148.1,-238.98"/>
</g>
<!-- sigma_beta -->
<g id="node4" class="node">
<title>sigma_beta</title>
<ellipse fill="none" stroke="black" cx="135.6" cy="-437.61" rx="55.33" ry="40.66"/>
<text xml:space="preserve" text-anchor="middle" x="135.6" y="-449.06" font-family="Times,serif" font-size="14.00">sigma_beta</text>
<text xml:space="preserve" text-anchor="middle" x="135.6" y="-432.56" font-family="Times,serif" font-size="14.00">~</text>
<text xml:space="preserve" text-anchor="middle" x="135.6" y="-416.06" font-family="Times,serif" font-size="14.00">InvGamma</text>
</g>
<!-- sigma_beta&#45;&gt;beta -->
<g id="edge2" class="edge">
<title>sigma_beta&#45;&gt;beta</title>
<path fill="none" stroke="black" d="M138.73,-396.6C139.33,-388.82 139.98,-380.56 140.61,-372.48"/>
<polygon fill="black" stroke="black" points="144.08,-372.98 141.37,-362.74 137.1,-372.44 144.08,-372.98"/>
</g>
<!-- psi -->
<g id="node5" class="node">
<title>psi</title>
<ellipse fill="none" stroke="black" cx="272.6" cy="-198.48" rx="44.72" ry="40.66"/>
<text xml:space="preserve" text-anchor="middle" x="272.6" y="-209.93" font-family="Times,serif" font-size="14.00">psi</text>
<text xml:space="preserve" text-anchor="middle" x="272.6" y="-193.43" font-family="Times,serif" font-size="14.00">~</text>
<text xml:space="preserve" text-anchor="middle" x="272.6" y="-176.93" font-family="Times,serif" font-size="14.00">Uniform</text>
</g>
<!-- y -->
<g id="node8" class="node">
<title>y</title>
<ellipse fill="lightgrey" stroke="black" cx="144.6" cy="-81.16" rx="67" ry="40.66"/>
<text xml:space="preserve" text-anchor="middle" x="144.6" y="-92.61" font-family="Times,serif" font-size="14.00">y</text>
<text xml:space="preserve" text-anchor="middle" x="144.6" y="-76.11" font-family="Times,serif" font-size="14.00">~</text>
<text xml:space="preserve" text-anchor="middle" x="144.6" y="-59.61" font-family="Times,serif" font-size="14.00">CustomDist_y</text>
</g>
<!-- psi&#45;&gt;y -->
<g id="edge6" class="edge">
<title>psi&#45;&gt;y</title>
<path fill="none" stroke="black" d="M241.29,-169.27C225.77,-155.28 206.75,-138.14 189.69,-122.78"/>
<polygon fill="black" stroke="black" points="192.4,-120.51 182.62,-116.41 187.71,-125.71 192.4,-120.51"/>
</g>
<!-- alpha&#45;&gt;p -->
<g id="edge5" class="edge">
<title>alpha&#45;&gt;p</title>
<path fill="none" stroke="black" d="M233.76,-289.02C221.95,-275.95 207.79,-260.6 194.6,-247.13 190.87,-243.32 186.92,-239.39 182.94,-235.5"/>
<polygon fill="black" stroke="black" points="185.51,-233.12 175.89,-228.68 180.64,-238.15 185.51,-233.12"/>
</g>
<!-- p&#45;&gt;y -->
<g id="edge7" class="edge">
<title>p&#45;&gt;y</title>
<path fill="none" stroke="black" d="M144.6,-169.27C144.6,-158.44 144.6,-145.73 144.6,-133.41"/>
<polygon fill="black" stroke="black" points="148.1,-133.78 144.6,-123.78 141.1,-133.78 148.1,-133.78"/>
</g>
</g>
</svg>
