<?xml version="1.0" encoding="UTF-8" standalone="no"?>
<!DOCTYPE svg PUBLIC "-//W3C//DTD SVG 1.1//EN"
 "http://www.w3.org/Graphics/SVG/1.1/DTD/svg11.dtd">
<!-- Generated by graphviz version 12.2.1 (20241206.2353)
 -->
<!-- Pages: 1 -->
<svg width="222pt" height="482pt"
 viewBox="0.00 0.00 221.72 482.36" xmlns="http://www.w3.org/2000/svg" xmlns:xlink="http://www.w3.org/1999/xlink">
<g id="graph0" class="graph" transform="scale(1 1) rotate(0) translate(4 478.36)">
<polygon fill="white" stroke="none" points="-4,4 -4,-478.36 217.72,-478.36 217.72,4 -4,4"/>
<g id="clust1" class="cluster">
<title>cluster17</title>
<path fill="none" stroke="black" d="M20,-137.82C20,-137.82 102,-137.82 102,-137.82 108,-137.82 114,-143.82 114,-149.82 114,-149.82 114,-353.04 114,-353.04 114,-359.04 108,-365.04 102,-365.04 102,-365.04 20,-365.04 20,-365.04 14,-365.04 8,-359.04 8,-353.04 8,-353.04 8,-149.82 8,-149.82 8,-143.82 14,-137.82 20,-137.82"/>
<text text-anchor="middle" x="99.25" y="-145.02" font-family="Times,serif" font-size="14.00">17</text>
</g>
<g id="clust2" class="cluster">
<title>cluster500 x 17</title>
<path fill="none" stroke="black" d="M31,-8C31,-8 157,-8 157,-8 163,-8 169,-14 169,-20 169,-20 169,-117.82 169,-117.82 169,-123.82 163,-129.82 157,-129.82 157,-129.82 31,-129.82 31,-129.82 25,-129.82 19,-123.82 19,-117.82 19,-117.82 19,-20 19,-20 19,-14 25,-8 31,-8"/>
<text text-anchor="middle" x="137" y="-15.2" font-family="Times,serif" font-size="14.00">500 x 17</text>
</g>
<!-- sigma_alpha -->
<g id="node1" class="node">
<title>sigma_alpha</title>
<ellipse fill="none" stroke="black" cx="61" cy="-433.7" rx="60.1" ry="40.66"/>
<text text-anchor="middle" x="61" y="-445.15" font-family="Times,serif" font-size="14.00">sigma_alpha</text>
<text text-anchor="middle" x="61" y="-428.65" font-family="Times,serif" font-size="14.00">~</text>
<text text-anchor="middle" x="61" y="-412.15" font-family="Times,serif" font-size="14.00">InvGamma</text>
</g>
<!-- alpha -->
<g id="node4" class="node">
<title>alpha</title>
<ellipse fill="none" stroke="black" cx="61" cy="-316.38" rx="41.01" ry="40.66"/>
<text text-anchor="middle" x="61" y="-327.83" font-family="Times,serif" font-size="14.00">alpha</text>
<text text-anchor="middle" x="61" y="-311.33" font-family="Times,serif" font-size="14.00">~</text>
<text text-anchor="middle" x="61" y="-294.83" font-family="Times,serif" font-size="14.00">Normal</text>
</g>
<!-- sigma_alpha&#45;&gt;alpha -->
<g id="edge1" class="edge">
<title>sigma_alpha&#45;&gt;alpha</title>
<path fill="none" stroke="black" d="M61,-392.69C61,-384.91 61,-376.65 61,-368.57"/>
<polygon fill="black" stroke="black" points="64.5,-368.84 61,-358.84 57.5,-368.84 64.5,-368.84"/>
</g>
<!-- mu -->
<g id="node2" class="node">
<title>mu</title>
<ellipse fill="none" stroke="black" cx="165" cy="-316.38" rx="42.6" ry="40.66"/>
<text text-anchor="middle" x="165" y="-327.83" font-family="Times,serif" font-size="14.00">mu</text>
<text text-anchor="middle" x="165" y="-311.33" font-family="Times,serif" font-size="14.00">~</text>
<text text-anchor="middle" x="165" y="-294.83" font-family="Times,serif" font-size="14.00">Logistic</text>
</g>
<!-- p -->
<g id="node5" class="node">
<title>p</title>
<polygon fill="none" stroke="black" points="106.12,-227.82 15.88,-227.82 15.88,-170.32 106.12,-170.32 106.12,-227.82"/>
<text text-anchor="middle" x="61" y="-210.52" font-family="Times,serif" font-size="14.00">p</text>
<text text-anchor="middle" x="61" y="-194.02" font-family="Times,serif" font-size="14.00">~</text>
<text text-anchor="middle" x="61" y="-177.52" font-family="Times,serif" font-size="14.00">Deterministic</text>
</g>
<!-- mu&#45;&gt;p -->
<g id="edge3" class="edge">
<title>mu&#45;&gt;p</title>
<path fill="none" stroke="black" d="M137.4,-284.78C124,-269.92 107.8,-251.96 93.77,-236.4"/>
<polygon fill="black" stroke="black" points="96.54,-234.25 87.24,-229.17 91.34,-238.94 96.54,-234.25"/>
</g>
<!-- psi -->
<g id="node3" class="node">
<title>psi</title>
<ellipse fill="none" stroke="black" cx="169" cy="-199.07" rx="44.72" ry="40.66"/>
<text text-anchor="middle" x="169" y="-210.52" font-family="Times,serif" font-size="14.00">psi</text>
<text text-anchor="middle" x="169" y="-194.02" font-family="Times,serif" font-size="14.00">~</text>
<text text-anchor="middle" x="169" y="-177.52" font-family="Times,serif" font-size="14.00">Uniform</text>
</g>
<!-- y -->
<g id="node6" class="node">
<title>y</title>
<ellipse fill="lightgrey" stroke="black" cx="94" cy="-81.16" rx="67" ry="40.66"/>
<text text-anchor="middle" x="94" y="-92.61" font-family="Times,serif" font-size="14.00">y</text>
<text text-anchor="middle" x="94" y="-76.11" font-family="Times,serif" font-size="14.00">~</text>
<text text-anchor="middle" x="94" y="-59.61" font-family="Times,serif" font-size="14.00">CustomDist_y</text>
</g>
<!-- psi&#45;&gt;y -->
<g id="edge5" class="edge">
<title>psi&#45;&gt;y</title>
<path fill="none" stroke="black" d="M146.7,-163.6C139.68,-152.76 131.81,-140.6 124.34,-129.04"/>
<polygon fill="black" stroke="black" points="127.37,-127.29 119,-120.79 121.49,-131.09 127.37,-127.29"/>
</g>
<!-- alpha&#45;&gt;p -->
<g id="edge2" class="edge">
<title>alpha&#45;&gt;p</title>
<path fill="none" stroke="black" d="M61,-275.38C61,-263.67 61,-250.88 61,-239.23"/>
<polygon fill="black" stroke="black" points="64.5,-239.54 61,-229.54 57.5,-239.54 64.5,-239.54"/>
</g>
<!-- p&#45;&gt;y -->
<g id="edge4" class="edge">
<title>p&#45;&gt;y</title>
<path fill="none" stroke="black" d="M68.99,-170.01C72.24,-158.6 76.09,-145.06 79.79,-132.07"/>
<polygon fill="black" stroke="black" points="83.06,-133.38 82.43,-122.8 76.32,-131.46 83.06,-133.38"/>
</g>
</g>
</svg>
