<?xml version="1.0" encoding="UTF-8" standalone="no"?>
<!DOCTYPE svg PUBLIC "-//W3C//DTD SVG 1.1//EN"
 "http://www.w3.org/Graphics/SVG/1.1/DTD/svg11.dtd">
<!-- Generated by graphviz version 12.0.0 (0)
 -->
<!-- Pages: 1 -->
<svg width="456pt" height="486pt"
 viewBox="0.00 0.00 455.93 486.27" xmlns="http://www.w3.org/2000/svg" xmlns:xlink="http://www.w3.org/1999/xlink">
<g id="graph0" class="graph" transform="scale(1 1) rotate(0) translate(4 482.27)">
<polygon fill="white" stroke="none" points="-4,4 -4,-482.27 451.93,-482.27 451.93,4 -4,4"/>
<g id="clust1" class="cluster">
<title>cluster17</title>
<path fill="none" stroke="black" d="M107.6,-247.13C107.6,-247.13 181.6,-247.13 181.6,-247.13 187.6,-247.13 193.6,-253.13 193.6,-259.13 193.6,-259.13 193.6,-356.95 193.6,-356.95 193.6,-362.95 187.6,-368.95 181.6,-368.95 181.6,-368.95 107.6,-368.95 107.6,-368.95 101.6,-368.95 95.6,-362.95 95.6,-356.95 95.6,-356.95 95.6,-259.13 95.6,-259.13 95.6,-253.13 101.6,-247.13 107.6,-247.13"/>
<text text-anchor="middle" x="178.85" y="-254.33" font-family="Times,serif" font-size="14.00">17</text>
</g>
<g id="clust2" class="cluster">
<title>cluster500</title>
<path fill="none" stroke="black" d="M213.6,-247.13C213.6,-247.13 287.6,-247.13 287.6,-247.13 293.6,-247.13 299.6,-253.13 299.6,-259.13 299.6,-259.13 299.6,-356.95 299.6,-356.95 299.6,-362.95 293.6,-368.95 287.6,-368.95 287.6,-368.95 213.6,-368.95 213.6,-368.95 207.6,-368.95 201.6,-362.95 201.6,-356.95 201.6,-356.95 201.6,-259.13 201.6,-259.13 201.6,-253.13 207.6,-247.13 213.6,-247.13"/>
<text text-anchor="middle" x="281.48" y="-254.33" font-family="Times,serif" font-size="14.00">500</text>
</g>
<g id="clust3" class="cluster">
<title>cluster500 x 17</title>
<path fill="none" stroke="black" d="M94.6,-8C94.6,-8 220.6,-8 220.6,-8 226.6,-8 232.6,-14 232.6,-20 232.6,-20 232.6,-223.23 232.6,-223.23 232.6,-229.23 226.6,-235.23 220.6,-235.23 220.6,-235.23 94.6,-235.23 94.6,-235.23 88.6,-235.23 82.6,-229.23 82.6,-223.23 82.6,-223.23 82.6,-20 82.6,-20 82.6,-14 88.6,-8 94.6,-8"/>
<text text-anchor="middle" x="200.6" y="-15.2" font-family="Times,serif" font-size="14.00">500 x 17</text>
</g>
<!-- beta -->
<g id="node1" class="node">
<title>beta</title>
<ellipse fill="none" stroke="black" cx="371.6" cy="-320.29" rx="41.01" ry="40.66"/>
<text text-anchor="middle" x="371.6" y="-331.74" font-family="Times,serif" font-size="14.00">beta</text>
<text text-anchor="middle" x="371.6" y="-315.24" font-family="Times,serif" font-size="14.00">~</text>
<text text-anchor="middle" x="371.6" y="-298.74" font-family="Times,serif" font-size="14.00">Normal</text>
</g>
<!-- p -->
<g id="node9" class="node">
<title>p</title>
<polygon fill="none" stroke="black" points="202.73,-227.23 112.48,-227.23 112.48,-169.73 202.73,-169.73 202.73,-227.23"/>
<text text-anchor="middle" x="157.6" y="-209.93" font-family="Times,serif" font-size="14.00">p</text>
<text text-anchor="middle" x="157.6" y="-193.43" font-family="Times,serif" font-size="14.00">~</text>
<text text-anchor="middle" x="157.6" y="-176.93" font-family="Times,serif" font-size="14.00">Deterministic</text>
</g>
<!-- beta&#45;&gt;p -->
<g id="edge4" class="edge">
<title>beta&#45;&gt;p</title>
<path fill="none" stroke="black" d="M347.34,-287.02C335.47,-273.11 320.17,-257.65 303.6,-247.13 276.37,-229.86 242.28,-218.27 213.9,-210.85"/>
<polygon fill="black" stroke="black" points="214.94,-207.5 204.39,-208.48 213.24,-214.3 214.94,-207.5"/>
</g>
<!-- sigma_gamma -->
<g id="node2" class="node">
<title>sigma_gamma</title>
<ellipse fill="none" stroke="black" cx="250.6" cy="-437.61" rx="68.59" ry="40.66"/>
<text text-anchor="middle" x="250.6" y="-449.06" font-family="Times,serif" font-size="14.00">sigma_gamma</text>
<text text-anchor="middle" x="250.6" y="-432.56" font-family="Times,serif" font-size="14.00">~</text>
<text text-anchor="middle" x="250.6" y="-416.06" font-family="Times,serif" font-size="14.00">InvGamma</text>
</g>
<!-- gamma -->
<g id="node8" class="node">
<title>gamma</title>
<ellipse fill="none" stroke="black" cx="250.6" cy="-320.29" rx="41.01" ry="40.66"/>
<text text-anchor="middle" x="250.6" y="-331.74" font-family="Times,serif" font-size="14.00">gamma</text>
<text text-anchor="middle" x="250.6" y="-315.24" font-family="Times,serif" font-size="14.00">~</text>
<text text-anchor="middle" x="250.6" y="-298.74" font-family="Times,serif" font-size="14.00">Normal</text>
</g>
<!-- sigma_gamma&#45;&gt;gamma -->
<g id="edge3" class="edge">
<title>sigma_gamma&#45;&gt;gamma</title>
<path fill="none" stroke="black" d="M250.6,-396.6C250.6,-388.82 250.6,-380.56 250.6,-372.48"/>
<polygon fill="black" stroke="black" points="254.1,-372.74 250.6,-362.74 247.1,-372.74 254.1,-372.74"/>
</g>
<!-- sigma_beta -->
<g id="node3" class="node">
<title>sigma_beta</title>
<ellipse fill="none" stroke="black" cx="392.6" cy="-437.61" rx="55.33" ry="40.66"/>
<text text-anchor="middle" x="392.6" y="-449.06" font-family="Times,serif" font-size="14.00">sigma_beta</text>
<text text-anchor="middle" x="392.6" y="-432.56" font-family="Times,serif" font-size="14.00">~</text>
<text text-anchor="middle" x="392.6" y="-416.06" font-family="Times,serif" font-size="14.00">InvGamma</text>
</g>
<!-- sigma_beta&#45;&gt;beta -->
<g id="edge2" class="edge">
<title>sigma_beta&#45;&gt;beta</title>
<path fill="none" stroke="black" d="M385.38,-396.92C383.91,-388.86 382.34,-380.28 380.82,-371.9"/>
<polygon fill="black" stroke="black" points="384.28,-371.36 379.04,-362.15 377.39,-372.62 384.28,-371.36"/>
</g>
<!-- sigma_alpha -->
<g id="node4" class="node">
<title>sigma_alpha</title>
<ellipse fill="none" stroke="black" cx="103.6" cy="-437.61" rx="60.1" ry="40.66"/>
<text text-anchor="middle" x="103.6" y="-449.06" font-family="Times,serif" font-size="14.00">sigma_alpha</text>
<text text-anchor="middle" x="103.6" y="-432.56" font-family="Times,serif" font-size="14.00">~</text>
<text text-anchor="middle" x="103.6" y="-416.06" font-family="Times,serif" font-size="14.00">InvGamma</text>
</g>
<!-- alpha -->
<g id="node7" class="node">
<title>alpha</title>
<ellipse fill="none" stroke="black" cx="144.6" cy="-320.29" rx="41.01" ry="40.66"/>
<text text-anchor="middle" x="144.6" y="-331.74" font-family="Times,serif" font-size="14.00">alpha</text>
<text text-anchor="middle" x="144.6" y="-315.24" font-family="Times,serif" font-size="14.00">~</text>
<text text-anchor="middle" x="144.6" y="-298.74" font-family="Times,serif" font-size="14.00">Normal</text>
</g>
<!-- sigma_alpha&#45;&gt;alpha -->
<g id="edge1" class="edge">
<title>sigma_alpha&#45;&gt;alpha</title>
<path fill="none" stroke="black" d="M117.48,-397.57C120.66,-388.65 124.07,-379.06 127.36,-369.79"/>
<polygon fill="black" stroke="black" points="130.59,-371.14 130.65,-360.55 124,-368.8 130.59,-371.14"/>
</g>
<!-- mu -->
<g id="node5" class="node">
<title>mu</title>
<ellipse fill="none" stroke="black" cx="42.6" cy="-320.29" rx="42.6" ry="40.66"/>
<text text-anchor="middle" x="42.6" y="-331.74" font-family="Times,serif" font-size="14.00">mu</text>
<text text-anchor="middle" x="42.6" y="-315.24" font-family="Times,serif" font-size="14.00">~</text>
<text text-anchor="middle" x="42.6" y="-298.74" font-family="Times,serif" font-size="14.00">Logistic</text>
</g>
<!-- mu&#45;&gt;p -->
<g id="edge7" class="edge">
<title>mu&#45;&gt;p</title>
<path fill="none" stroke="black" d="M62.78,-284.4C70.88,-271.92 80.84,-258.21 91.6,-247.13 95.79,-242.83 100.4,-238.64 105.19,-234.64"/>
<polygon fill="black" stroke="black" points="107.11,-237.59 112.75,-228.62 102.75,-232.11 107.11,-237.59"/>
</g>
<!-- psi -->
<g id="node6" class="node">
<title>psi</title>
<ellipse fill="none" stroke="black" cx="45.6" cy="-198.48" rx="28.81" ry="40.66"/>
<text text-anchor="middle" x="45.6" y="-209.93" font-family="Times,serif" font-size="14.00">psi</text>
<text text-anchor="middle" x="45.6" y="-193.43" font-family="Times,serif" font-size="14.00">~</text>
<text text-anchor="middle" x="45.6" y="-176.93" font-family="Times,serif" font-size="14.00">Beta</text>
</g>
<!-- y -->
<g id="node10" class="node">
<title>y</title>
<ellipse fill="lightgrey" stroke="black" cx="157.6" cy="-81.16" rx="67" ry="40.66"/>
<text text-anchor="middle" x="157.6" y="-92.61" font-family="Times,serif" font-size="14.00">y</text>
<text text-anchor="middle" x="157.6" y="-76.11" font-family="Times,serif" font-size="14.00">~</text>
<text text-anchor="middle" x="157.6" y="-59.61" font-family="Times,serif" font-size="14.00">CustomDist_y</text>
</g>
<!-- psi&#45;&gt;y -->
<g id="edge9" class="edge">
<title>psi&#45;&gt;y</title>
<path fill="none" stroke="black" d="M67.21,-170.67C70.93,-166.3 74.82,-161.88 78.6,-157.82 89.34,-146.31 101.4,-134.32 112.81,-123.37"/>
<polygon fill="black" stroke="black" points="115.05,-126.07 119.88,-116.64 110.22,-121 115.05,-126.07"/>
</g>
<!-- alpha&#45;&gt;p -->
<g id="edge5" class="edge">
<title>alpha&#45;&gt;p</title>
<path fill="none" stroke="black" d="M148.93,-279.4C150.35,-266.37 151.91,-251.91 153.32,-238.91"/>
<polygon fill="black" stroke="black" points="156.8,-239.29 154.4,-228.98 149.84,-238.54 156.8,-239.29"/>
</g>
<!-- gamma&#45;&gt;p -->
<g id="edge6" class="edge">
<title>gamma&#45;&gt;p</title>
<path fill="none" stroke="black" d="M227.3,-286.63C218.21,-274.14 207.59,-259.85 197.6,-247.13 194.87,-243.65 191.98,-240.06 189.06,-236.49"/>
<polygon fill="black" stroke="black" points="191.84,-234.35 182.77,-228.87 186.44,-238.81 191.84,-234.35"/>
</g>
<!-- p&#45;&gt;y -->
<g id="edge8" class="edge">
<title>p&#45;&gt;y</title>
<path fill="none" stroke="black" d="M157.6,-169.27C157.6,-158.44 157.6,-145.73 157.6,-133.41"/>
<polygon fill="black" stroke="black" points="161.1,-133.78 157.6,-123.78 154.1,-133.78 161.1,-133.78"/>
</g>
</g>
</svg>
