<?xml version="1.0" encoding="UTF-8" standalone="no"?>
<!DOCTYPE svg PUBLIC "-//W3C//DTD SVG 1.1//EN"
 "http://www.w3.org/Graphics/SVG/1.1/DTD/svg11.dtd">
<!-- Generated by graphviz version 9.0.0 (0)
 -->
<!-- Pages: 1 -->
<svg width="264pt" height="364pt"
 viewBox="0.00 0.00 263.72 364.45" xmlns="http://www.w3.org/2000/svg" xmlns:xlink="http://www.w3.org/1999/xlink">
<g id="graph0" class="graph" transform="scale(1 1) rotate(0) translate(4 360.45)">
<polygon fill="white" stroke="none" points="-4,4 -4,-360.45 259.72,-360.45 259.72,4 -4,4"/>
<g id="clust1" class="cluster">
<title>cluster500 x 17</title>
<path fill="none" stroke="black" d="M20,-8C20,-8 146,-8 146,-8 152,-8 158,-14 158,-20 158,-20 158,-223.23 158,-223.23 158,-229.23 152,-235.23 146,-235.23 146,-235.23 20,-235.23 20,-235.23 14,-235.23 8,-229.23 8,-223.23 8,-223.23 8,-20 8,-20 8,-14 14,-8 20,-8"/>
<text text-anchor="middle" x="126" y="-15.2" font-family="Times,serif" font-size="14.00">500 x 17</text>
</g>
<!-- mu -->
<g id="node1" class="node">
<title>mu</title>
<ellipse fill="none" stroke="black" cx="83" cy="-315.79" rx="42.6" ry="40.66"/>
<text text-anchor="middle" x="83" y="-327.24" font-family="Times,serif" font-size="14.00">mu</text>
<text text-anchor="middle" x="83" y="-310.74" font-family="Times,serif" font-size="14.00">~</text>
<text text-anchor="middle" x="83" y="-294.24" font-family="Times,serif" font-size="14.00">Logistic</text>
</g>
<!-- p -->
<g id="node4" class="node">
<title>p</title>
<polygon fill="none" stroke="black" points="128.12,-227.23 37.88,-227.23 37.88,-169.73 128.12,-169.73 128.12,-227.23"/>
<text text-anchor="middle" x="83" y="-209.93" font-family="Times,serif" font-size="14.00">p</text>
<text text-anchor="middle" x="83" y="-193.43" font-family="Times,serif" font-size="14.00">~</text>
<text text-anchor="middle" x="83" y="-176.93" font-family="Times,serif" font-size="14.00">Deterministic</text>
</g>
<!-- mu&#45;&gt;p -->
<g id="edge1" class="edge">
<title>mu&#45;&gt;p</title>
<path fill="none" stroke="black" d="M83,-274.78C83,-263.08 83,-250.29 83,-238.64"/>
<polygon fill="black" stroke="black" points="86.5,-238.95 83,-228.95 79.5,-238.95 86.5,-238.95"/>
</g>
<!-- psi -->
<g id="node2" class="node">
<title>psi</title>
<ellipse fill="none" stroke="black" cx="211" cy="-198.48" rx="44.72" ry="40.66"/>
<text text-anchor="middle" x="211" y="-209.93" font-family="Times,serif" font-size="14.00">psi</text>
<text text-anchor="middle" x="211" y="-193.43" font-family="Times,serif" font-size="14.00">~</text>
<text text-anchor="middle" x="211" y="-176.93" font-family="Times,serif" font-size="14.00">Uniform</text>
</g>
<!-- y -->
<g id="node3" class="node">
<title>y</title>
<ellipse fill="lightgrey" stroke="black" cx="83" cy="-81.16" rx="67" ry="40.66"/>
<text text-anchor="middle" x="83" y="-92.61" font-family="Times,serif" font-size="14.00">y</text>
<text text-anchor="middle" x="83" y="-76.11" font-family="Times,serif" font-size="14.00">~</text>
<text text-anchor="middle" x="83" y="-59.61" font-family="Times,serif" font-size="14.00">CustomDist_y</text>
</g>
<!-- psi&#45;&gt;y -->
<g id="edge2" class="edge">
<title>psi&#45;&gt;y</title>
<path fill="none" stroke="black" d="M179.69,-169.27C164.17,-155.28 145.14,-138.14 128.09,-122.78"/>
<polygon fill="black" stroke="black" points="130.79,-120.51 121.02,-116.41 126.11,-125.71 130.79,-120.51"/>
</g>
<!-- p&#45;&gt;y -->
<g id="edge3" class="edge">
<title>p&#45;&gt;y</title>
<path fill="none" stroke="black" d="M83,-169.27C83,-158.44 83,-145.73 83,-133.41"/>
<polygon fill="black" stroke="black" points="86.5,-133.78 83,-123.78 79.5,-133.78 86.5,-133.78"/>
</g>
</g>
</svg>
