<?xml version="1.0" encoding="UTF-8" standalone="no"?>
<!DOCTYPE svg PUBLIC "-//W3C//DTD SVG 1.1//EN"
 "http://www.w3.org/Graphics/SVG/1.1/DTD/svg11.dtd">
<!-- Generated by graphviz version 9.0.0 (0)
 -->
<!-- Pages: 1 -->
<svg width="281pt" height="486pt"
 viewBox="0.00 0.00 281.31 486.27" xmlns="http://www.w3.org/2000/svg" xmlns:xlink="http://www.w3.org/1999/xlink">
<g id="graph0" class="graph" transform="scale(1 1) rotate(0) translate(4 482.27)">
<polygon fill="white" stroke="none" points="-4,4 -4,-482.27 277.31,-482.27 277.31,4 -4,4"/>
<g id="clust1" class="cluster">
<title>cluster500</title>
<path fill="none" stroke="black" d="M31.59,-247.13C31.59,-247.13 105.59,-247.13 105.59,-247.13 111.59,-247.13 117.59,-253.13 117.59,-259.13 117.59,-259.13 117.59,-356.95 117.59,-356.95 117.59,-362.95 111.59,-368.95 105.59,-368.95 105.59,-368.95 31.59,-368.95 31.59,-368.95 25.59,-368.95 19.59,-362.95 19.59,-356.95 19.59,-356.95 19.59,-259.13 19.59,-259.13 19.59,-253.13 25.59,-247.13 31.59,-247.13"/>
<text text-anchor="middle" x="99.46" y="-254.33" font-family="Times,serif" font-size="14.00">500</text>
</g>
<g id="clust2" class="cluster">
<title>cluster500 x 17</title>
<path fill="none" stroke="black" d="M37.59,-8C37.59,-8 163.59,-8 163.59,-8 169.59,-8 175.59,-14 175.59,-20 175.59,-20 175.59,-223.23 175.59,-223.23 175.59,-229.23 169.59,-235.23 163.59,-235.23 163.59,-235.23 37.59,-235.23 37.59,-235.23 31.59,-235.23 25.59,-229.23 25.59,-223.23 25.59,-223.23 25.59,-20 25.59,-20 25.59,-14 31.59,-8 37.59,-8"/>
<text text-anchor="middle" x="143.59" y="-15.2" font-family="Times,serif" font-size="14.00">500 x 17</text>
</g>
<!-- sigma_gamma -->
<g id="node1" class="node">
<title>sigma_gamma</title>
<ellipse fill="none" stroke="black" cx="68.59" cy="-437.61" rx="68.59" ry="40.66"/>
<text text-anchor="middle" x="68.59" y="-449.06" font-family="Times,serif" font-size="14.00">sigma_gamma</text>
<text text-anchor="middle" x="68.59" y="-432.56" font-family="Times,serif" font-size="14.00">~</text>
<text text-anchor="middle" x="68.59" y="-416.06" font-family="Times,serif" font-size="14.00">InvGamma</text>
</g>
<!-- gamma -->
<g id="node4" class="node">
<title>gamma</title>
<ellipse fill="none" stroke="black" cx="68.59" cy="-320.29" rx="41.01" ry="40.66"/>
<text text-anchor="middle" x="68.59" y="-331.74" font-family="Times,serif" font-size="14.00">gamma</text>
<text text-anchor="middle" x="68.59" y="-315.24" font-family="Times,serif" font-size="14.00">~</text>
<text text-anchor="middle" x="68.59" y="-298.74" font-family="Times,serif" font-size="14.00">Normal</text>
</g>
<!-- sigma_gamma&#45;&gt;gamma -->
<g id="edge1" class="edge">
<title>sigma_gamma&#45;&gt;gamma</title>
<path fill="none" stroke="black" d="M68.59,-396.6C68.59,-388.82 68.59,-380.56 68.59,-372.48"/>
<polygon fill="black" stroke="black" points="72.09,-372.74 68.59,-362.74 65.09,-372.74 72.09,-372.74"/>
</g>
<!-- mu -->
<g id="node2" class="node">
<title>mu</title>
<ellipse fill="none" stroke="black" cx="170.59" cy="-320.29" rx="42.6" ry="40.66"/>
<text text-anchor="middle" x="170.59" y="-331.74" font-family="Times,serif" font-size="14.00">mu</text>
<text text-anchor="middle" x="170.59" y="-315.24" font-family="Times,serif" font-size="14.00">~</text>
<text text-anchor="middle" x="170.59" y="-298.74" font-family="Times,serif" font-size="14.00">Logistic</text>
</g>
<!-- p -->
<g id="node6" class="node">
<title>p</title>
<polygon fill="none" stroke="black" points="145.71,-227.23 55.46,-227.23 55.46,-169.73 145.71,-169.73 145.71,-227.23"/>
<text text-anchor="middle" x="100.59" y="-209.93" font-family="Times,serif" font-size="14.00">p</text>
<text text-anchor="middle" x="100.59" y="-193.43" font-family="Times,serif" font-size="14.00">~</text>
<text text-anchor="middle" x="100.59" y="-176.93" font-family="Times,serif" font-size="14.00">Deterministic</text>
</g>
<!-- mu&#45;&gt;p -->
<g id="edge2" class="edge">
<title>mu&#45;&gt;p</title>
<path fill="none" stroke="black" d="M150.15,-284.31C141.48,-269.47 131.36,-252.14 122.53,-237.02"/>
<polygon fill="black" stroke="black" points="125.77,-235.64 117.7,-228.77 119.72,-239.17 125.77,-235.64"/>
</g>
<!-- psi -->
<g id="node3" class="node">
<title>psi</title>
<ellipse fill="none" stroke="black" cx="228.59" cy="-198.48" rx="44.72" ry="40.66"/>
<text text-anchor="middle" x="228.59" y="-209.93" font-family="Times,serif" font-size="14.00">psi</text>
<text text-anchor="middle" x="228.59" y="-193.43" font-family="Times,serif" font-size="14.00">~</text>
<text text-anchor="middle" x="228.59" y="-176.93" font-family="Times,serif" font-size="14.00">Uniform</text>
</g>
<!-- y -->
<g id="node5" class="node">
<title>y</title>
<ellipse fill="lightgrey" stroke="black" cx="100.59" cy="-81.16" rx="67" ry="40.66"/>
<text text-anchor="middle" x="100.59" y="-92.61" font-family="Times,serif" font-size="14.00">y</text>
<text text-anchor="middle" x="100.59" y="-76.11" font-family="Times,serif" font-size="14.00">~</text>
<text text-anchor="middle" x="100.59" y="-59.61" font-family="Times,serif" font-size="14.00">CustomDist_y</text>
</g>
<!-- psi&#45;&gt;y -->
<g id="edge4" class="edge">
<title>psi&#45;&gt;y</title>
<path fill="none" stroke="black" d="M197.28,-169.27C181.76,-155.28 162.73,-138.14 145.68,-122.78"/>
<polygon fill="black" stroke="black" points="148.38,-120.51 138.61,-116.41 143.7,-125.71 148.38,-120.51"/>
</g>
<!-- gamma&#45;&gt;p -->
<g id="edge3" class="edge">
<title>gamma&#45;&gt;p</title>
<path fill="none" stroke="black" d="M78.89,-280.72C82.49,-267.25 86.53,-252.13 90.14,-238.62"/>
<polygon fill="black" stroke="black" points="93.46,-239.74 92.66,-229.18 86.7,-237.94 93.46,-239.74"/>
</g>
<!-- p&#45;&gt;y -->
<g id="edge5" class="edge">
<title>p&#45;&gt;y</title>
<path fill="none" stroke="black" d="M100.59,-169.27C100.59,-158.44 100.59,-145.73 100.59,-133.41"/>
<polygon fill="black" stroke="black" points="104.09,-133.78 100.59,-123.78 97.09,-133.78 104.09,-133.78"/>
</g>
</g>
</svg>
