<?xml version="1.0" encoding="UTF-8" standalone="no"?>
<!DOCTYPE svg PUBLIC "-//W3C//DTD SVG 1.1//EN"
 "http://www.w3.org/Graphics/SVG/1.1/DTD/svg11.dtd">
<!-- Generated by graphviz version 9.0.0 (0)
 -->
<!-- Pages: 1 -->
<svg width="465pt" height="486pt"
 viewBox="0.00 0.00 464.69 486.27" xmlns="http://www.w3.org/2000/svg" xmlns:xlink="http://www.w3.org/1999/xlink">
<g id="graph0" class="graph" transform="scale(1 1) rotate(0) translate(4 482.27)">
<polygon fill="white" stroke="none" points="-4,4 -4,-482.27 460.69,-482.27 460.69,4 -4,4"/>
<g id="clust1" class="cluster">
<title>cluster17</title>
<path fill="none" stroke="black" d="M351.59,-247.13C351.59,-247.13 425.59,-247.13 425.59,-247.13 431.59,-247.13 437.59,-253.13 437.59,-259.13 437.59,-259.13 437.59,-356.95 437.59,-356.95 437.59,-362.95 431.59,-368.95 425.59,-368.95 425.59,-368.95 351.59,-368.95 351.59,-368.95 345.59,-368.95 339.59,-362.95 339.59,-356.95 339.59,-356.95 339.59,-259.13 339.59,-259.13 339.59,-253.13 345.59,-247.13 351.59,-247.13"/>
<text text-anchor="middle" x="422.84" y="-254.33" font-family="Times,serif" font-size="14.00">17</text>
</g>
<g id="clust2" class="cluster">
<title>cluster500</title>
<path fill="none" stroke="black" d="M31.59,-247.13C31.59,-247.13 105.59,-247.13 105.59,-247.13 111.59,-247.13 117.59,-253.13 117.59,-259.13 117.59,-259.13 117.59,-356.95 117.59,-356.95 117.59,-362.95 111.59,-368.95 105.59,-368.95 105.59,-368.95 31.59,-368.95 31.59,-368.95 25.59,-368.95 19.59,-362.95 19.59,-356.95 19.59,-356.95 19.59,-259.13 19.59,-259.13 19.59,-253.13 25.59,-247.13 31.59,-247.13"/>
<text text-anchor="middle" x="99.46" y="-254.33" font-family="Times,serif" font-size="14.00">500</text>
</g>
<g id="clust3" class="cluster">
<title>cluster500 x 17</title>
<path fill="none" stroke="black" d="M158.59,-8C158.59,-8 284.59,-8 284.59,-8 290.59,-8 296.59,-14 296.59,-20 296.59,-20 296.59,-223.23 296.59,-223.23 296.59,-229.23 290.59,-235.23 284.59,-235.23 284.59,-235.23 158.59,-235.23 158.59,-235.23 152.59,-235.23 146.59,-229.23 146.59,-223.23 146.59,-223.23 146.59,-20 146.59,-20 146.59,-14 152.59,-8 158.59,-8"/>
<text text-anchor="middle" x="264.59" y="-15.2" font-family="Times,serif" font-size="14.00">500 x 17</text>
</g>
<!-- sigma_gamma -->
<g id="node1" class="node">
<title>sigma_gamma</title>
<ellipse fill="none" stroke="black" cx="68.59" cy="-437.61" rx="68.59" ry="40.66"/>
<text text-anchor="middle" x="68.59" y="-449.06" font-family="Times,serif" font-size="14.00">sigma_gamma</text>
<text text-anchor="middle" x="68.59" y="-432.56" font-family="Times,serif" font-size="14.00">~</text>
<text text-anchor="middle" x="68.59" y="-416.06" font-family="Times,serif" font-size="14.00">InvGamma</text>
</g>
<!-- gamma -->
<g id="node8" class="node">
<title>gamma</title>
<ellipse fill="none" stroke="black" cx="68.59" cy="-320.29" rx="41.01" ry="40.66"/>
<text text-anchor="middle" x="68.59" y="-331.74" font-family="Times,serif" font-size="14.00">gamma</text>
<text text-anchor="middle" x="68.59" y="-315.24" font-family="Times,serif" font-size="14.00">~</text>
<text text-anchor="middle" x="68.59" y="-298.74" font-family="Times,serif" font-size="14.00">Normal</text>
</g>
<!-- sigma_gamma&#45;&gt;gamma -->
<g id="edge3" class="edge">
<title>sigma_gamma&#45;&gt;gamma</title>
<path fill="none" stroke="black" d="M68.59,-396.6C68.59,-388.82 68.59,-380.56 68.59,-372.48"/>
<polygon fill="black" stroke="black" points="72.09,-372.74 68.59,-362.74 65.09,-372.74 72.09,-372.74"/>
</g>
<!-- sigma_beta -->
<g id="node2" class="node">
<title>sigma_beta</title>
<ellipse fill="none" stroke="black" cx="263.59" cy="-437.61" rx="55.33" ry="40.66"/>
<text text-anchor="middle" x="263.59" y="-449.06" font-family="Times,serif" font-size="14.00">sigma_beta</text>
<text text-anchor="middle" x="263.59" y="-432.56" font-family="Times,serif" font-size="14.00">~</text>
<text text-anchor="middle" x="263.59" y="-416.06" font-family="Times,serif" font-size="14.00">InvGamma</text>
</g>
<!-- beta -->
<g id="node6" class="node">
<title>beta</title>
<ellipse fill="none" stroke="black" cx="272.59" cy="-320.29" rx="41.01" ry="40.66"/>
<text text-anchor="middle" x="272.59" y="-331.74" font-family="Times,serif" font-size="14.00">beta</text>
<text text-anchor="middle" x="272.59" y="-315.24" font-family="Times,serif" font-size="14.00">~</text>
<text text-anchor="middle" x="272.59" y="-298.74" font-family="Times,serif" font-size="14.00">Normal</text>
</g>
<!-- sigma_beta&#45;&gt;beta -->
<g id="edge2" class="edge">
<title>sigma_beta&#45;&gt;beta</title>
<path fill="none" stroke="black" d="M266.71,-396.6C267.32,-388.82 267.96,-380.56 268.59,-372.48"/>
<polygon fill="black" stroke="black" points="272.07,-372.98 269.35,-362.74 265.09,-372.44 272.07,-372.98"/>
</g>
<!-- psi -->
<g id="node3" class="node">
<title>psi</title>
<ellipse fill="none" stroke="black" cx="333.59" cy="-198.48" rx="28.81" ry="40.66"/>
<text text-anchor="middle" x="333.59" y="-209.93" font-family="Times,serif" font-size="14.00">psi</text>
<text text-anchor="middle" x="333.59" y="-193.43" font-family="Times,serif" font-size="14.00">~</text>
<text text-anchor="middle" x="333.59" y="-176.93" font-family="Times,serif" font-size="14.00">Beta</text>
</g>
<!-- y -->
<g id="node9" class="node">
<title>y</title>
<ellipse fill="lightgrey" stroke="black" cx="221.59" cy="-81.16" rx="67" ry="40.66"/>
<text text-anchor="middle" x="221.59" y="-92.61" font-family="Times,serif" font-size="14.00">y</text>
<text text-anchor="middle" x="221.59" y="-76.11" font-family="Times,serif" font-size="14.00">~</text>
<text text-anchor="middle" x="221.59" y="-59.61" font-family="Times,serif" font-size="14.00">CustomDist_y</text>
</g>
<!-- psi&#45;&gt;y -->
<g id="edge8" class="edge">
<title>psi&#45;&gt;y</title>
<path fill="none" stroke="black" d="M311.98,-170.67C308.27,-166.3 304.38,-161.88 300.59,-157.82 289.85,-146.31 277.79,-134.32 266.38,-123.37"/>
<polygon fill="black" stroke="black" points="268.97,-121 259.32,-116.64 264.15,-126.07 268.97,-121"/>
</g>
<!-- mu -->
<g id="node4" class="node">
<title>mu</title>
<ellipse fill="none" stroke="black" cx="170.59" cy="-320.29" rx="42.6" ry="40.66"/>
<text text-anchor="middle" x="170.59" y="-331.74" font-family="Times,serif" font-size="14.00">mu</text>
<text text-anchor="middle" x="170.59" y="-315.24" font-family="Times,serif" font-size="14.00">~</text>
<text text-anchor="middle" x="170.59" y="-298.74" font-family="Times,serif" font-size="14.00">Logistic</text>
</g>
<!-- p -->
<g id="node10" class="node">
<title>p</title>
<polygon fill="none" stroke="black" points="266.71,-227.23 176.46,-227.23 176.46,-169.73 266.71,-169.73 266.71,-227.23"/>
<text text-anchor="middle" x="221.59" y="-209.93" font-family="Times,serif" font-size="14.00">p</text>
<text text-anchor="middle" x="221.59" y="-193.43" font-family="Times,serif" font-size="14.00">~</text>
<text text-anchor="middle" x="221.59" y="-176.93" font-family="Times,serif" font-size="14.00">Deterministic</text>
</g>
<!-- mu&#45;&gt;p -->
<g id="edge7" class="edge">
<title>mu&#45;&gt;p</title>
<path fill="none" stroke="black" d="M186.45,-282.04C192.41,-268.02 199.2,-252.07 205.21,-237.95"/>
<polygon fill="black" stroke="black" points="208.34,-239.53 209.04,-228.96 201.9,-236.79 208.34,-239.53"/>
</g>
<!-- sigma_alpha -->
<g id="node5" class="node">
<title>sigma_alpha</title>
<ellipse fill="none" stroke="black" cx="396.59" cy="-437.61" rx="60.1" ry="40.66"/>
<text text-anchor="middle" x="396.59" y="-449.06" font-family="Times,serif" font-size="14.00">sigma_alpha</text>
<text text-anchor="middle" x="396.59" y="-432.56" font-family="Times,serif" font-size="14.00">~</text>
<text text-anchor="middle" x="396.59" y="-416.06" font-family="Times,serif" font-size="14.00">InvGamma</text>
</g>
<!-- alpha -->
<g id="node7" class="node">
<title>alpha</title>
<ellipse fill="none" stroke="black" cx="388.59" cy="-320.29" rx="41.01" ry="40.66"/>
<text text-anchor="middle" x="388.59" y="-331.74" font-family="Times,serif" font-size="14.00">alpha</text>
<text text-anchor="middle" x="388.59" y="-315.24" font-family="Times,serif" font-size="14.00">~</text>
<text text-anchor="middle" x="388.59" y="-298.74" font-family="Times,serif" font-size="14.00">Normal</text>
</g>
<!-- sigma_alpha&#45;&gt;alpha -->
<g id="edge1" class="edge">
<title>sigma_alpha&#45;&gt;alpha</title>
<path fill="none" stroke="black" d="M393.81,-396.6C393.27,-388.82 392.7,-380.56 392.14,-372.48"/>
<polygon fill="black" stroke="black" points="395.65,-372.47 391.46,-362.74 388.67,-372.96 395.65,-372.47"/>
</g>
<!-- beta&#45;&gt;p -->
<g id="edge5" class="edge">
<title>beta&#45;&gt;p</title>
<path fill="none" stroke="black" d="M256.87,-282.37C250.9,-268.34 244.09,-252.33 238.05,-238.15"/>
<polygon fill="black" stroke="black" points="241.34,-236.94 234.2,-229.11 234.9,-239.68 241.34,-236.94"/>
</g>
<!-- alpha&#45;&gt;p -->
<g id="edge6" class="edge">
<title>alpha&#45;&gt;p</title>
<path fill="none" stroke="black" d="M365.04,-286.42C353.62,-272.56 338.85,-257.31 322.59,-247.13 311.98,-240.5 307.17,-243.89 295.59,-239.13 289.54,-236.65 283.35,-233.82 277.23,-230.84"/>
<polygon fill="black" stroke="black" points="278.93,-227.77 268.42,-226.4 275.78,-234.02 278.93,-227.77"/>
</g>
<!-- gamma&#45;&gt;p -->
<g id="edge4" class="edge">
<title>gamma&#45;&gt;p</title>
<path fill="none" stroke="black" d="M87.71,-283.97C95.93,-271.16 106.46,-257.34 118.59,-247.13 132.32,-235.59 149.32,-226.23 165.51,-218.96"/>
<polygon fill="black" stroke="black" points="166.79,-222.22 174.61,-215.07 164.04,-215.78 166.79,-222.22"/>
</g>
<!-- p&#45;&gt;y -->
<g id="edge9" class="edge">
<title>p&#45;&gt;y</title>
<path fill="none" stroke="black" d="M221.59,-169.27C221.59,-158.44 221.59,-145.73 221.59,-133.41"/>
<polygon fill="black" stroke="black" points="225.09,-133.78 221.59,-123.78 218.09,-133.78 225.09,-133.78"/>
</g>
</g>
</svg>
