<?xml version="1.0" encoding="UTF-8" standalone="no"?>
<!DOCTYPE svg PUBLIC "-//W3C//DTD SVG 1.1//EN"
 "http://www.w3.org/Graphics/SVG/1.1/DTD/svg11.dtd">
<!-- Generated by graphviz version 12.2.1 (20241206.2353)
 -->
<!-- Pages: 1 -->
<svg width="341pt" height="486pt"
 viewBox="0.00 0.00 340.69 486.27" xmlns="http://www.w3.org/2000/svg" xmlns:xlink="http://www.w3.org/1999/xlink">
<g id="graph0" class="graph" transform="scale(1 1) rotate(0) translate(4 482.27)">
<polygon fill="white" stroke="none" points="-4,4 -4,-482.27 336.69,-482.27 336.69,4 -4,4"/>
<g id="clust1" class="cluster">
<title>cluster17</title>
<path fill="none" stroke="black" d="M23.1,-247.13C23.1,-247.13 97.1,-247.13 97.1,-247.13 103.1,-247.13 109.1,-253.13 109.1,-259.13 109.1,-259.13 109.1,-356.95 109.1,-356.95 109.1,-362.95 103.1,-368.95 97.1,-368.95 97.1,-368.95 23.1,-368.95 23.1,-368.95 17.1,-368.95 11.1,-362.95 11.1,-356.95 11.1,-356.95 11.1,-259.13 11.1,-259.13 11.1,-253.13 17.1,-247.13 23.1,-247.13"/>
<text text-anchor="middle" x="94.35" y="-254.33" font-family="Times,serif" font-size="14.00">17</text>
</g>
<g id="clust2" class="cluster">
<title>cluster500</title>
<path fill="none" stroke="black" d="M227.1,-247.13C227.1,-247.13 301.1,-247.13 301.1,-247.13 307.1,-247.13 313.1,-253.13 313.1,-259.13 313.1,-259.13 313.1,-356.95 313.1,-356.95 313.1,-362.95 307.1,-368.95 301.1,-368.95 301.1,-368.95 227.1,-368.95 227.1,-368.95 221.1,-368.95 215.1,-362.95 215.1,-356.95 215.1,-356.95 215.1,-259.13 215.1,-259.13 215.1,-253.13 221.1,-247.13 227.1,-247.13"/>
<text text-anchor="middle" x="294.98" y="-254.33" font-family="Times,serif" font-size="14.00">500</text>
</g>
<g id="clust3" class="cluster">
<title>cluster500 x 17</title>
<path fill="none" stroke="black" d="M99.1,-8C99.1,-8 225.1,-8 225.1,-8 231.1,-8 237.1,-14 237.1,-20 237.1,-20 237.1,-223.23 237.1,-223.23 237.1,-229.23 231.1,-235.23 225.1,-235.23 225.1,-235.23 99.1,-235.23 99.1,-235.23 93.1,-235.23 87.1,-229.23 87.1,-223.23 87.1,-223.23 87.1,-20 87.1,-20 87.1,-14 93.1,-8 99.1,-8"/>
<text text-anchor="middle" x="205.1" y="-15.2" font-family="Times,serif" font-size="14.00">500 x 17</text>
</g>
<!-- sigma_alpha -->
<g id="node1" class="node">
<title>sigma_alpha</title>
<ellipse fill="none" stroke="black" cx="60.1" cy="-437.61" rx="60.1" ry="40.66"/>
<text text-anchor="middle" x="60.1" y="-449.06" font-family="Times,serif" font-size="14.00">sigma_alpha</text>
<text text-anchor="middle" x="60.1" y="-432.56" font-family="Times,serif" font-size="14.00">~</text>
<text text-anchor="middle" x="60.1" y="-416.06" font-family="Times,serif" font-size="14.00">InvGamma</text>
</g>
<!-- alpha -->
<g id="node5" class="node">
<title>alpha</title>
<ellipse fill="none" stroke="black" cx="60.1" cy="-320.29" rx="41.01" ry="40.66"/>
<text text-anchor="middle" x="60.1" y="-331.74" font-family="Times,serif" font-size="14.00">alpha</text>
<text text-anchor="middle" x="60.1" y="-315.24" font-family="Times,serif" font-size="14.00">~</text>
<text text-anchor="middle" x="60.1" y="-298.74" font-family="Times,serif" font-size="14.00">Normal</text>
</g>
<!-- sigma_alpha&#45;&gt;alpha -->
<g id="edge1" class="edge">
<title>sigma_alpha&#45;&gt;alpha</title>
<path fill="none" stroke="black" d="M60.1,-396.6C60.1,-388.82 60.1,-380.56 60.1,-372.48"/>
<polygon fill="black" stroke="black" points="63.6,-372.74 60.1,-362.74 56.6,-372.74 63.6,-372.74"/>
</g>
<!-- mu -->
<g id="node2" class="node">
<title>mu</title>
<ellipse fill="none" stroke="black" cx="162.1" cy="-320.29" rx="42.6" ry="40.66"/>
<text text-anchor="middle" x="162.1" y="-331.74" font-family="Times,serif" font-size="14.00">mu</text>
<text text-anchor="middle" x="162.1" y="-315.24" font-family="Times,serif" font-size="14.00">~</text>
<text text-anchor="middle" x="162.1" y="-298.74" font-family="Times,serif" font-size="14.00">Logistic</text>
</g>
<!-- p -->
<g id="node7" class="node">
<title>p</title>
<polygon fill="none" stroke="black" points="207.23,-227.23 116.98,-227.23 116.98,-169.73 207.23,-169.73 207.23,-227.23"/>
<text text-anchor="middle" x="162.1" y="-209.93" font-family="Times,serif" font-size="14.00">p</text>
<text text-anchor="middle" x="162.1" y="-193.43" font-family="Times,serif" font-size="14.00">~</text>
<text text-anchor="middle" x="162.1" y="-176.93" font-family="Times,serif" font-size="14.00">Deterministic</text>
</g>
<!-- mu&#45;&gt;p -->
<g id="edge4" class="edge">
<title>mu&#45;&gt;p</title>
<path fill="none" stroke="black" d="M162.1,-279.4C162.1,-266.37 162.1,-251.91 162.1,-238.91"/>
<polygon fill="black" stroke="black" points="165.6,-238.98 162.1,-228.98 158.6,-238.98 165.6,-238.98"/>
</g>
<!-- sigma_gamma -->
<g id="node3" class="node">
<title>sigma_gamma</title>
<ellipse fill="none" stroke="black" cx="264.1" cy="-437.61" rx="68.59" ry="40.66"/>
<text text-anchor="middle" x="264.1" y="-449.06" font-family="Times,serif" font-size="14.00">sigma_gamma</text>
<text text-anchor="middle" x="264.1" y="-432.56" font-family="Times,serif" font-size="14.00">~</text>
<text text-anchor="middle" x="264.1" y="-416.06" font-family="Times,serif" font-size="14.00">InvGamma</text>
</g>
<!-- gamma -->
<g id="node6" class="node">
<title>gamma</title>
<ellipse fill="none" stroke="black" cx="264.1" cy="-320.29" rx="41.01" ry="40.66"/>
<text text-anchor="middle" x="264.1" y="-331.74" font-family="Times,serif" font-size="14.00">gamma</text>
<text text-anchor="middle" x="264.1" y="-315.24" font-family="Times,serif" font-size="14.00">~</text>
<text text-anchor="middle" x="264.1" y="-298.74" font-family="Times,serif" font-size="14.00">Normal</text>
</g>
<!-- sigma_gamma&#45;&gt;gamma -->
<g id="edge2" class="edge">
<title>sigma_gamma&#45;&gt;gamma</title>
<path fill="none" stroke="black" d="M264.1,-396.6C264.1,-388.82 264.1,-380.56 264.1,-372.48"/>
<polygon fill="black" stroke="black" points="267.6,-372.74 264.1,-362.74 260.6,-372.74 267.6,-372.74"/>
</g>
<!-- psi -->
<g id="node4" class="node">
<title>psi</title>
<ellipse fill="none" stroke="black" cx="274.1" cy="-198.48" rx="28.81" ry="40.66"/>
<text text-anchor="middle" x="274.1" y="-209.93" font-family="Times,serif" font-size="14.00">psi</text>
<text text-anchor="middle" x="274.1" y="-193.43" font-family="Times,serif" font-size="14.00">~</text>
<text text-anchor="middle" x="274.1" y="-176.93" font-family="Times,serif" font-size="14.00">Beta</text>
</g>
<!-- y -->
<g id="node8" class="node">
<title>y</title>
<ellipse fill="lightgrey" stroke="black" cx="162.1" cy="-81.16" rx="67" ry="40.66"/>
<text text-anchor="middle" x="162.1" y="-92.61" font-family="Times,serif" font-size="14.00">y</text>
<text text-anchor="middle" x="162.1" y="-76.11" font-family="Times,serif" font-size="14.00">~</text>
<text text-anchor="middle" x="162.1" y="-59.61" font-family="Times,serif" font-size="14.00">CustomDist_y</text>
</g>
<!-- psi&#45;&gt;y -->
<g id="edge7" class="edge">
<title>psi&#45;&gt;y</title>
<path fill="none" stroke="black" d="M252.5,-170.67C248.78,-166.3 244.89,-161.88 241.1,-157.82 230.37,-146.31 218.3,-134.32 206.9,-123.37"/>
<polygon fill="black" stroke="black" points="209.49,-121 199.83,-116.64 204.66,-126.07 209.49,-121"/>
</g>
<!-- alpha&#45;&gt;p -->
<g id="edge3" class="edge">
<title>alpha&#45;&gt;p</title>
<path fill="none" stroke="black" d="M81.52,-285.09C89.87,-272.68 99.88,-258.85 110.1,-247.13 113.55,-243.19 117.29,-239.23 121.14,-235.38"/>
<polygon fill="black" stroke="black" points="123.28,-238.17 128.03,-228.7 118.41,-233.15 123.28,-238.17"/>
</g>
<!-- gamma&#45;&gt;p -->
<g id="edge5" class="edge">
<title>gamma&#45;&gt;p</title>
<path fill="none" stroke="black" d="M242.69,-285.09C234.34,-272.68 224.32,-258.85 214.1,-247.13 210.66,-243.19 206.92,-239.23 203.07,-235.38"/>
<polygon fill="black" stroke="black" points="205.8,-233.15 196.18,-228.7 200.93,-238.17 205.8,-233.15"/>
</g>
<!-- p&#45;&gt;y -->
<g id="edge6" class="edge">
<title>p&#45;&gt;y</title>
<path fill="none" stroke="black" d="M162.1,-169.27C162.1,-158.44 162.1,-145.73 162.1,-133.41"/>
<polygon fill="black" stroke="black" points="165.6,-133.78 162.1,-123.78 158.6,-133.78 165.6,-133.78"/>
</g>
</g>
</svg>
