<?xml version="1.0" encoding="UTF-8" standalone="no"?>
<!DOCTYPE svg PUBLIC "-//W3C//DTD SVG 1.1//EN"
 "http://www.w3.org/Graphics/SVG/1.1/DTD/svg11.dtd">
<!-- Generated by graphviz version 9.0.0 (0)
 -->
<!-- Pages: 1 -->
<svg width="287pt" height="482pt"
 viewBox="0.00 0.00 287.06 481.77" xmlns="http://www.w3.org/2000/svg" xmlns:xlink="http://www.w3.org/1999/xlink">
<g id="graph0" class="graph" transform="scale(1 1) rotate(0) translate(4 477.77)">
<polygon fill="white" stroke="none" points="-4,4 -4,-477.77 283.06,-477.77 283.06,4 -4,4"/>
<g id="clust1" class="cluster">
<title>cluster500 x 17</title>
<path fill="none" stroke="black" d="M43.33,-8C43.33,-8 169.33,-8 169.33,-8 175.33,-8 181.33,-14 181.33,-20 181.33,-20 181.33,-223.23 181.33,-223.23 181.33,-229.23 175.33,-235.23 169.33,-235.23 169.33,-235.23 43.33,-235.23 43.33,-235.23 37.33,-235.23 31.33,-229.23 31.33,-223.23 31.33,-223.23 31.33,-20 31.33,-20 31.33,-14 37.33,-8 43.33,-8"/>
<text text-anchor="middle" x="149.33" y="-15.2" font-family="Times,serif" font-size="14.00">500 x 17</text>
</g>
<!-- sigma_beta -->
<g id="node1" class="node">
<title>sigma_beta</title>
<ellipse fill="none" stroke="black" cx="55.33" cy="-433.11" rx="55.33" ry="40.66"/>
<text text-anchor="middle" x="55.33" y="-444.56" font-family="Times,serif" font-size="14.00">sigma_beta</text>
<text text-anchor="middle" x="55.33" y="-428.06" font-family="Times,serif" font-size="14.00">~</text>
<text text-anchor="middle" x="55.33" y="-411.56" font-family="Times,serif" font-size="14.00">InvGamma</text>
</g>
<!-- beta -->
<g id="node3" class="node">
<title>beta</title>
<ellipse fill="none" stroke="black" cx="55.33" cy="-315.79" rx="41.01" ry="40.66"/>
<text text-anchor="middle" x="55.33" y="-327.24" font-family="Times,serif" font-size="14.00">beta</text>
<text text-anchor="middle" x="55.33" y="-310.74" font-family="Times,serif" font-size="14.00">~</text>
<text text-anchor="middle" x="55.33" y="-294.24" font-family="Times,serif" font-size="14.00">Normal</text>
</g>
<!-- sigma_beta&#45;&gt;beta -->
<g id="edge1" class="edge">
<title>sigma_beta&#45;&gt;beta</title>
<path fill="none" stroke="black" d="M55.33,-392.1C55.33,-384.32 55.33,-376.06 55.33,-367.98"/>
<polygon fill="black" stroke="black" points="58.83,-368.24 55.33,-358.24 51.83,-368.24 58.83,-368.24"/>
</g>
<!-- mu -->
<g id="node2" class="node">
<title>mu</title>
<ellipse fill="none" stroke="black" cx="157.33" cy="-315.79" rx="42.6" ry="40.66"/>
<text text-anchor="middle" x="157.33" y="-327.24" font-family="Times,serif" font-size="14.00">mu</text>
<text text-anchor="middle" x="157.33" y="-310.74" font-family="Times,serif" font-size="14.00">~</text>
<text text-anchor="middle" x="157.33" y="-294.24" font-family="Times,serif" font-size="14.00">Logistic</text>
</g>
<!-- p -->
<g id="node6" class="node">
<title>p</title>
<polygon fill="none" stroke="black" points="151.46,-227.23 61.21,-227.23 61.21,-169.73 151.46,-169.73 151.46,-227.23"/>
<text text-anchor="middle" x="106.33" y="-209.93" font-family="Times,serif" font-size="14.00">p</text>
<text text-anchor="middle" x="106.33" y="-193.43" font-family="Times,serif" font-size="14.00">~</text>
<text text-anchor="middle" x="106.33" y="-176.93" font-family="Times,serif" font-size="14.00">Deterministic</text>
</g>
<!-- mu&#45;&gt;p -->
<g id="edge2" class="edge">
<title>mu&#45;&gt;p</title>
<path fill="none" stroke="black" d="M141.05,-277.99C135.41,-265.22 129.06,-250.87 123.35,-237.97"/>
<polygon fill="black" stroke="black" points="126.6,-236.65 119.35,-228.92 120.2,-239.48 126.6,-236.65"/>
</g>
<!-- beta&#45;&gt;p -->
<g id="edge3" class="edge">
<title>beta&#45;&gt;p</title>
<path fill="none" stroke="black" d="M71.61,-277.99C77.26,-265.22 83.6,-250.87 89.31,-237.97"/>
<polygon fill="black" stroke="black" points="92.47,-239.48 93.31,-228.92 86.06,-236.65 92.47,-239.48"/>
</g>
<!-- psi -->
<g id="node4" class="node">
<title>psi</title>
<ellipse fill="none" stroke="black" cx="234.33" cy="-198.48" rx="44.72" ry="40.66"/>
<text text-anchor="middle" x="234.33" y="-209.93" font-family="Times,serif" font-size="14.00">psi</text>
<text text-anchor="middle" x="234.33" y="-193.43" font-family="Times,serif" font-size="14.00">~</text>
<text text-anchor="middle" x="234.33" y="-176.93" font-family="Times,serif" font-size="14.00">Uniform</text>
</g>
<!-- y -->
<g id="node5" class="node">
<title>y</title>
<ellipse fill="lightgrey" stroke="black" cx="106.33" cy="-81.16" rx="67" ry="40.66"/>
<text text-anchor="middle" x="106.33" y="-92.61" font-family="Times,serif" font-size="14.00">y</text>
<text text-anchor="middle" x="106.33" y="-76.11" font-family="Times,serif" font-size="14.00">~</text>
<text text-anchor="middle" x="106.33" y="-59.61" font-family="Times,serif" font-size="14.00">CustomDist_y</text>
</g>
<!-- psi&#45;&gt;y -->
<g id="edge4" class="edge">
<title>psi&#45;&gt;y</title>
<path fill="none" stroke="black" d="M203.02,-169.27C187.5,-155.28 168.47,-138.14 151.42,-122.78"/>
<polygon fill="black" stroke="black" points="154.12,-120.51 144.35,-116.41 149.44,-125.71 154.12,-120.51"/>
</g>
<!-- p&#45;&gt;y -->
<g id="edge5" class="edge">
<title>p&#45;&gt;y</title>
<path fill="none" stroke="black" d="M106.33,-169.27C106.33,-158.44 106.33,-145.73 106.33,-133.41"/>
<polygon fill="black" stroke="black" points="109.83,-133.78 106.33,-123.78 102.83,-133.78 109.83,-133.78"/>
</g>
</g>
</svg>
