<?xml version="1.0" encoding="UTF-8" standalone="no"?>
<!DOCTYPE svg PUBLIC "-//W3C//DTD SVG 1.1//EN"
 "http://www.w3.org/Graphics/SVG/1.1/DTD/svg11.dtd">
<!-- Generated by graphviz version 13.0.1 (20250615.1724)
 -->
<!-- Pages: 1 -->
<svg width="264pt" height="364pt"
 viewBox="0.00 0.00 264.00 364.00" xmlns="http://www.w3.org/2000/svg" xmlns:xlink="http://www.w3.org/1999/xlink">
<g id="graph0" class="graph" transform="scale(1 1) rotate(0) translate(4 360.45)">
<polygon fill="white" stroke="none" points="-4,4 -4,-360.45 259.72,-360.45 259.72,4 -4,4"/>
<g id="clust1" class="cluster">
<title>cluster500 x 17</title>
<path fill="none" stroke="black" d="M109.72,-8C109.72,-8 235.72,-8 235.72,-8 241.72,-8 247.72,-14 247.72,-20 247.72,-20 247.72,-223.23 247.72,-223.23 247.72,-229.23 241.72,-235.23 235.72,-235.23 235.72,-235.23 109.72,-235.23 109.72,-235.23 103.72,-235.23 97.72,-229.23 97.72,-223.23 97.72,-223.23 97.72,-20 97.72,-20 97.72,-14 103.72,-8 109.72,-8"/>
<text xml:space="preserve" text-anchor="middle" x="215.72" y="-15.2" font-family="Times,serif" font-size="14.00">500 x 17</text>
</g>
<!-- psi -->
<g id="node1" class="node">
<title>psi</title>
<ellipse fill="none" stroke="black" cx="44.72" cy="-198.48" rx="44.72" ry="40.66"/>
<text xml:space="preserve" text-anchor="middle" x="44.72" y="-209.93" font-family="Times,serif" font-size="14.00">psi</text>
<text xml:space="preserve" text-anchor="middle" x="44.72" y="-193.43" font-family="Times,serif" font-size="14.00">~</text>
<text xml:space="preserve" text-anchor="middle" x="44.72" y="-176.93" font-family="Times,serif" font-size="14.00">Uniform</text>
</g>
<!-- y -->
<g id="node4" class="node">
<title>y</title>
<ellipse fill="lightgrey" stroke="black" cx="172.72" cy="-81.16" rx="67" ry="40.66"/>
<text xml:space="preserve" text-anchor="middle" x="172.72" y="-92.61" font-family="Times,serif" font-size="14.00">y</text>
<text xml:space="preserve" text-anchor="middle" x="172.72" y="-76.11" font-family="Times,serif" font-size="14.00">~</text>
<text xml:space="preserve" text-anchor="middle" x="172.72" y="-59.61" font-family="Times,serif" font-size="14.00">CustomDist_y</text>
</g>
<!-- psi&#45;&gt;y -->
<g id="edge2" class="edge">
<title>psi&#45;&gt;y</title>
<path fill="none" stroke="black" d="M76.04,-169.27C91.56,-155.28 110.58,-138.14 127.64,-122.78"/>
<polygon fill="black" stroke="black" points="129.62,-125.71 134.7,-116.41 124.93,-120.51 129.62,-125.71"/>
</g>
<!-- mu -->
<g id="node2" class="node">
<title>mu</title>
<ellipse fill="none" stroke="black" cx="172.72" cy="-315.79" rx="42.6" ry="40.66"/>
<text xml:space="preserve" text-anchor="middle" x="172.72" y="-327.24" font-family="Times,serif" font-size="14.00">mu</text>
<text xml:space="preserve" text-anchor="middle" x="172.72" y="-310.74" font-family="Times,serif" font-size="14.00">~</text>
<text xml:space="preserve" text-anchor="middle" x="172.72" y="-294.24" font-family="Times,serif" font-size="14.00">Logistic</text>
</g>
<!-- p -->
<g id="node3" class="node">
<title>p</title>
<polygon fill="none" stroke="black" points="217.85,-227.23 127.6,-227.23 127.6,-169.73 217.85,-169.73 217.85,-227.23"/>
<text xml:space="preserve" text-anchor="middle" x="172.72" y="-209.93" font-family="Times,serif" font-size="14.00">p</text>
<text xml:space="preserve" text-anchor="middle" x="172.72" y="-193.43" font-family="Times,serif" font-size="14.00">~</text>
<text xml:space="preserve" text-anchor="middle" x="172.72" y="-176.93" font-family="Times,serif" font-size="14.00">Deterministic</text>
</g>
<!-- mu&#45;&gt;p -->
<g id="edge1" class="edge">
<title>mu&#45;&gt;p</title>
<path fill="none" stroke="black" d="M172.72,-274.78C172.72,-263.08 172.72,-250.29 172.72,-238.64"/>
<polygon fill="black" stroke="black" points="176.22,-238.95 172.72,-228.95 169.22,-238.95 176.22,-238.95"/>
</g>
<!-- p&#45;&gt;y -->
<g id="edge3" class="edge">
<title>p&#45;&gt;y</title>
<path fill="none" stroke="black" d="M172.72,-169.27C172.72,-158.44 172.72,-145.73 172.72,-133.41"/>
<polygon fill="black" stroke="black" points="176.22,-133.78 172.72,-123.78 169.22,-133.78 176.22,-133.78"/>
</g>
</g>
</svg>
