<?xml version="1.0" encoding="UTF-8" standalone="no"?>
<!DOCTYPE svg PUBLIC "-//W3C//DTD SVG 1.1//EN"
 "http://www.w3.org/Graphics/SVG/1.1/DTD/svg11.dtd">
<!-- Generated by graphviz version 9.0.0 (0)
 -->
<!-- Pages: 1 -->
<svg width="336pt" height="486pt"
 viewBox="0.00 0.00 335.92 486.27" xmlns="http://www.w3.org/2000/svg" xmlns:xlink="http://www.w3.org/1999/xlink">
<g id="graph0" class="graph" transform="scale(1 1) rotate(0) translate(4 482.27)">
<polygon fill="white" stroke="none" points="-4,4 -4,-482.27 331.92,-482.27 331.92,4 -4,4"/>
<g id="clust1" class="cluster">
<title>cluster500</title>
<path fill="none" stroke="black" d="M31.59,-247.13C31.59,-247.13 105.59,-247.13 105.59,-247.13 111.59,-247.13 117.59,-253.13 117.59,-259.13 117.59,-259.13 117.59,-356.95 117.59,-356.95 117.59,-362.95 111.59,-368.95 105.59,-368.95 105.59,-368.95 31.59,-368.95 31.59,-368.95 25.59,-368.95 19.59,-362.95 19.59,-356.95 19.59,-356.95 19.59,-259.13 19.59,-259.13 19.59,-253.13 25.59,-247.13 31.59,-247.13"/>
<text text-anchor="middle" x="99.46" y="-254.33" font-family="Times,serif" font-size="14.00">500</text>
</g>
<g id="clust2" class="cluster">
<title>cluster500 x 17</title>
<path fill="none" stroke="black" d="M107.59,-8C107.59,-8 233.59,-8 233.59,-8 239.59,-8 245.59,-14 245.59,-20 245.59,-20 245.59,-223.23 245.59,-223.23 245.59,-229.23 239.59,-235.23 233.59,-235.23 233.59,-235.23 107.59,-235.23 107.59,-235.23 101.59,-235.23 95.59,-229.23 95.59,-223.23 95.59,-223.23 95.59,-20 95.59,-20 95.59,-14 101.59,-8 107.59,-8"/>
<text text-anchor="middle" x="213.59" y="-15.2" font-family="Times,serif" font-size="14.00">500 x 17</text>
</g>
<!-- sigma_gamma -->
<g id="node1" class="node">
<title>sigma_gamma</title>
<ellipse fill="none" stroke="black" cx="68.59" cy="-437.61" rx="68.59" ry="40.66"/>
<text text-anchor="middle" x="68.59" y="-449.06" font-family="Times,serif" font-size="14.00">sigma_gamma</text>
<text text-anchor="middle" x="68.59" y="-432.56" font-family="Times,serif" font-size="14.00">~</text>
<text text-anchor="middle" x="68.59" y="-416.06" font-family="Times,serif" font-size="14.00">InvGamma</text>
</g>
<!-- gamma -->
<g id="node6" class="node">
<title>gamma</title>
<ellipse fill="none" stroke="black" cx="68.59" cy="-320.29" rx="41.01" ry="40.66"/>
<text text-anchor="middle" x="68.59" y="-331.74" font-family="Times,serif" font-size="14.00">gamma</text>
<text text-anchor="middle" x="68.59" y="-315.24" font-family="Times,serif" font-size="14.00">~</text>
<text text-anchor="middle" x="68.59" y="-298.74" font-family="Times,serif" font-size="14.00">Normal</text>
</g>
<!-- sigma_gamma&#45;&gt;gamma -->
<g id="edge2" class="edge">
<title>sigma_gamma&#45;&gt;gamma</title>
<path fill="none" stroke="black" d="M68.59,-396.6C68.59,-388.82 68.59,-380.56 68.59,-372.48"/>
<polygon fill="black" stroke="black" points="72.09,-372.74 68.59,-362.74 65.09,-372.74 72.09,-372.74"/>
</g>
<!-- sigma_beta -->
<g id="node2" class="node">
<title>sigma_beta</title>
<ellipse fill="none" stroke="black" cx="272.59" cy="-437.61" rx="55.33" ry="40.66"/>
<text text-anchor="middle" x="272.59" y="-449.06" font-family="Times,serif" font-size="14.00">sigma_beta</text>
<text text-anchor="middle" x="272.59" y="-432.56" font-family="Times,serif" font-size="14.00">~</text>
<text text-anchor="middle" x="272.59" y="-416.06" font-family="Times,serif" font-size="14.00">InvGamma</text>
</g>
<!-- beta -->
<g id="node5" class="node">
<title>beta</title>
<ellipse fill="none" stroke="black" cx="272.59" cy="-320.29" rx="41.01" ry="40.66"/>
<text text-anchor="middle" x="272.59" y="-331.74" font-family="Times,serif" font-size="14.00">beta</text>
<text text-anchor="middle" x="272.59" y="-315.24" font-family="Times,serif" font-size="14.00">~</text>
<text text-anchor="middle" x="272.59" y="-298.74" font-family="Times,serif" font-size="14.00">Normal</text>
</g>
<!-- sigma_beta&#45;&gt;beta -->
<g id="edge1" class="edge">
<title>sigma_beta&#45;&gt;beta</title>
<path fill="none" stroke="black" d="M272.59,-396.6C272.59,-388.82 272.59,-380.56 272.59,-372.48"/>
<polygon fill="black" stroke="black" points="276.09,-372.74 272.59,-362.74 269.09,-372.74 276.09,-372.74"/>
</g>
<!-- psi -->
<g id="node3" class="node">
<title>psi</title>
<ellipse fill="none" stroke="black" cx="282.59" cy="-198.48" rx="28.81" ry="40.66"/>
<text text-anchor="middle" x="282.59" y="-209.93" font-family="Times,serif" font-size="14.00">psi</text>
<text text-anchor="middle" x="282.59" y="-193.43" font-family="Times,serif" font-size="14.00">~</text>
<text text-anchor="middle" x="282.59" y="-176.93" font-family="Times,serif" font-size="14.00">Beta</text>
</g>
<!-- y -->
<g id="node7" class="node">
<title>y</title>
<ellipse fill="lightgrey" stroke="black" cx="170.59" cy="-81.16" rx="67" ry="40.66"/>
<text text-anchor="middle" x="170.59" y="-92.61" font-family="Times,serif" font-size="14.00">y</text>
<text text-anchor="middle" x="170.59" y="-76.11" font-family="Times,serif" font-size="14.00">~</text>
<text text-anchor="middle" x="170.59" y="-59.61" font-family="Times,serif" font-size="14.00">CustomDist_y</text>
</g>
<!-- psi&#45;&gt;y -->
<g id="edge6" class="edge">
<title>psi&#45;&gt;y</title>
<path fill="none" stroke="black" d="M260.98,-170.67C257.27,-166.3 253.38,-161.88 249.59,-157.82 238.85,-146.31 226.79,-134.32 215.38,-123.37"/>
<polygon fill="black" stroke="black" points="217.97,-121 208.32,-116.64 213.15,-126.07 217.97,-121"/>
</g>
<!-- mu -->
<g id="node4" class="node">
<title>mu</title>
<ellipse fill="none" stroke="black" cx="170.59" cy="-320.29" rx="42.6" ry="40.66"/>
<text text-anchor="middle" x="170.59" y="-331.74" font-family="Times,serif" font-size="14.00">mu</text>
<text text-anchor="middle" x="170.59" y="-315.24" font-family="Times,serif" font-size="14.00">~</text>
<text text-anchor="middle" x="170.59" y="-298.74" font-family="Times,serif" font-size="14.00">Logistic</text>
</g>
<!-- p -->
<g id="node8" class="node">
<title>p</title>
<polygon fill="none" stroke="black" points="215.71,-227.23 125.46,-227.23 125.46,-169.73 215.71,-169.73 215.71,-227.23"/>
<text text-anchor="middle" x="170.59" y="-209.93" font-family="Times,serif" font-size="14.00">p</text>
<text text-anchor="middle" x="170.59" y="-193.43" font-family="Times,serif" font-size="14.00">~</text>
<text text-anchor="middle" x="170.59" y="-176.93" font-family="Times,serif" font-size="14.00">Deterministic</text>
</g>
<!-- mu&#45;&gt;p -->
<g id="edge3" class="edge">
<title>mu&#45;&gt;p</title>
<path fill="none" stroke="black" d="M170.59,-279.4C170.59,-266.37 170.59,-251.91 170.59,-238.91"/>
<polygon fill="black" stroke="black" points="174.09,-238.98 170.59,-228.98 167.09,-238.98 174.09,-238.98"/>
</g>
<!-- beta&#45;&gt;p -->
<g id="edge4" class="edge">
<title>beta&#45;&gt;p</title>
<path fill="none" stroke="black" d="M251.17,-285.09C242.82,-272.68 232.81,-258.85 222.59,-247.13 219.15,-243.19 215.41,-239.23 211.56,-235.38"/>
<polygon fill="black" stroke="black" points="214.28,-233.15 204.67,-228.7 209.41,-238.17 214.28,-233.15"/>
</g>
<!-- gamma&#45;&gt;p -->
<g id="edge5" class="edge">
<title>gamma&#45;&gt;p</title>
<path fill="none" stroke="black" d="M90.01,-285.09C98.35,-272.68 108.37,-258.85 118.59,-247.13 122.03,-243.19 125.77,-239.23 129.62,-235.38"/>
<polygon fill="black" stroke="black" points="131.77,-238.17 136.51,-228.7 126.89,-233.15 131.77,-238.17"/>
</g>
<!-- p&#45;&gt;y -->
<g id="edge7" class="edge">
<title>p&#45;&gt;y</title>
<path fill="none" stroke="black" d="M170.59,-169.27C170.59,-158.44 170.59,-145.73 170.59,-133.41"/>
<polygon fill="black" stroke="black" points="174.09,-133.78 170.59,-123.78 167.09,-133.78 174.09,-133.78"/>
</g>
</g>
</svg>
