<?xml version="1.0" encoding="UTF-8" standalone="no"?>
<!DOCTYPE svg PUBLIC "-//W3C//DTD SVG 1.1//EN"
 "http://www.w3.org/Graphics/SVG/1.1/DTD/svg11.dtd">
<!-- Generated by graphviz version 9.0.0 (0)
 -->
<!-- Pages: 1 -->
<svg width="273pt" height="486pt"
 viewBox="0.00 0.00 272.83 486.27" xmlns="http://www.w3.org/2000/svg" xmlns:xlink="http://www.w3.org/1999/xlink">
<g id="graph0" class="graph" transform="scale(1 1) rotate(0) translate(4 482.27)">
<polygon fill="white" stroke="none" points="-4,4 -4,-482.27 268.83,-482.27 268.83,4 -4,4"/>
<g id="clust1" class="cluster">
<title>cluster17</title>
<path fill="none" stroke="black" d="M23.1,-247.13C23.1,-247.13 97.1,-247.13 97.1,-247.13 103.1,-247.13 109.1,-253.13 109.1,-259.13 109.1,-259.13 109.1,-356.95 109.1,-356.95 109.1,-362.95 103.1,-368.95 97.1,-368.95 97.1,-368.95 23.1,-368.95 23.1,-368.95 17.1,-368.95 11.1,-362.95 11.1,-356.95 11.1,-356.95 11.1,-259.13 11.1,-259.13 11.1,-253.13 17.1,-247.13 23.1,-247.13"/>
<text text-anchor="middle" x="94.35" y="-254.33" font-family="Times,serif" font-size="14.00">17</text>
</g>
<g id="clust2" class="cluster">
<title>cluster500 x 17</title>
<path fill="none" stroke="black" d="M29.1,-8C29.1,-8 155.1,-8 155.1,-8 161.1,-8 167.1,-14 167.1,-20 167.1,-20 167.1,-223.23 167.1,-223.23 167.1,-229.23 161.1,-235.23 155.1,-235.23 155.1,-235.23 29.1,-235.23 29.1,-235.23 23.1,-235.23 17.1,-229.23 17.1,-223.23 17.1,-223.23 17.1,-20 17.1,-20 17.1,-14 23.1,-8 29.1,-8"/>
<text text-anchor="middle" x="135.1" y="-15.2" font-family="Times,serif" font-size="14.00">500 x 17</text>
</g>
<!-- sigma_alpha -->
<g id="node1" class="node">
<title>sigma_alpha</title>
<ellipse fill="none" stroke="black" cx="60.1" cy="-437.61" rx="60.1" ry="40.66"/>
<text text-anchor="middle" x="60.1" y="-449.06" font-family="Times,serif" font-size="14.00">sigma_alpha</text>
<text text-anchor="middle" x="60.1" y="-432.56" font-family="Times,serif" font-size="14.00">~</text>
<text text-anchor="middle" x="60.1" y="-416.06" font-family="Times,serif" font-size="14.00">InvGamma</text>
</g>
<!-- alpha -->
<g id="node4" class="node">
<title>alpha</title>
<ellipse fill="none" stroke="black" cx="60.1" cy="-320.29" rx="41.01" ry="40.66"/>
<text text-anchor="middle" x="60.1" y="-331.74" font-family="Times,serif" font-size="14.00">alpha</text>
<text text-anchor="middle" x="60.1" y="-315.24" font-family="Times,serif" font-size="14.00">~</text>
<text text-anchor="middle" x="60.1" y="-298.74" font-family="Times,serif" font-size="14.00">Normal</text>
</g>
<!-- sigma_alpha&#45;&gt;alpha -->
<g id="edge1" class="edge">
<title>sigma_alpha&#45;&gt;alpha</title>
<path fill="none" stroke="black" d="M60.1,-396.6C60.1,-388.82 60.1,-380.56 60.1,-372.48"/>
<polygon fill="black" stroke="black" points="63.6,-372.74 60.1,-362.74 56.6,-372.74 63.6,-372.74"/>
</g>
<!-- mu -->
<g id="node2" class="node">
<title>mu</title>
<ellipse fill="none" stroke="black" cx="162.1" cy="-320.29" rx="42.6" ry="40.66"/>
<text text-anchor="middle" x="162.1" y="-331.74" font-family="Times,serif" font-size="14.00">mu</text>
<text text-anchor="middle" x="162.1" y="-315.24" font-family="Times,serif" font-size="14.00">~</text>
<text text-anchor="middle" x="162.1" y="-298.74" font-family="Times,serif" font-size="14.00">Logistic</text>
</g>
<!-- p -->
<g id="node6" class="node">
<title>p</title>
<polygon fill="none" stroke="black" points="137.23,-227.23 46.98,-227.23 46.98,-169.73 137.23,-169.73 137.23,-227.23"/>
<text text-anchor="middle" x="92.1" y="-209.93" font-family="Times,serif" font-size="14.00">p</text>
<text text-anchor="middle" x="92.1" y="-193.43" font-family="Times,serif" font-size="14.00">~</text>
<text text-anchor="middle" x="92.1" y="-176.93" font-family="Times,serif" font-size="14.00">Deterministic</text>
</g>
<!-- mu&#45;&gt;p -->
<g id="edge2" class="edge">
<title>mu&#45;&gt;p</title>
<path fill="none" stroke="black" d="M141.67,-284.31C133,-269.47 122.87,-252.14 114.04,-237.02"/>
<polygon fill="black" stroke="black" points="117.28,-235.64 109.22,-228.77 111.24,-239.17 117.28,-235.64"/>
</g>
<!-- psi -->
<g id="node3" class="node">
<title>psi</title>
<ellipse fill="none" stroke="black" cx="220.1" cy="-198.48" rx="44.72" ry="40.66"/>
<text text-anchor="middle" x="220.1" y="-209.93" font-family="Times,serif" font-size="14.00">psi</text>
<text text-anchor="middle" x="220.1" y="-193.43" font-family="Times,serif" font-size="14.00">~</text>
<text text-anchor="middle" x="220.1" y="-176.93" font-family="Times,serif" font-size="14.00">Uniform</text>
</g>
<!-- y -->
<g id="node5" class="node">
<title>y</title>
<ellipse fill="lightgrey" stroke="black" cx="92.1" cy="-81.16" rx="67" ry="40.66"/>
<text text-anchor="middle" x="92.1" y="-92.61" font-family="Times,serif" font-size="14.00">y</text>
<text text-anchor="middle" x="92.1" y="-76.11" font-family="Times,serif" font-size="14.00">~</text>
<text text-anchor="middle" x="92.1" y="-59.61" font-family="Times,serif" font-size="14.00">CustomDist_y</text>
</g>
<!-- psi&#45;&gt;y -->
<g id="edge4" class="edge">
<title>psi&#45;&gt;y</title>
<path fill="none" stroke="black" d="M188.79,-169.27C173.27,-155.28 154.25,-138.14 137.19,-122.78"/>
<polygon fill="black" stroke="black" points="139.9,-120.51 130.13,-116.41 135.21,-125.71 139.9,-120.51"/>
</g>
<!-- alpha&#45;&gt;p -->
<g id="edge3" class="edge">
<title>alpha&#45;&gt;p</title>
<path fill="none" stroke="black" d="M70.41,-280.72C74,-267.25 78.04,-252.13 81.65,-238.62"/>
<polygon fill="black" stroke="black" points="84.97,-239.74 84.17,-229.18 78.21,-237.94 84.97,-239.74"/>
</g>
<!-- p&#45;&gt;y -->
<g id="edge5" class="edge">
<title>p&#45;&gt;y</title>
<path fill="none" stroke="black" d="M92.1,-169.27C92.1,-158.44 92.1,-145.73 92.1,-133.41"/>
<polygon fill="black" stroke="black" points="95.6,-133.78 92.1,-123.78 88.6,-133.78 95.6,-133.78"/>
</g>
</g>
</svg>
