<?xml version="1.0" encoding="UTF-8" standalone="no"?>
<!DOCTYPE svg PUBLIC "-//W3C//DTD SVG 1.1//EN"
 "http://www.w3.org/Graphics/SVG/1.1/DTD/svg11.dtd">
<!-- Generated by graphviz version 13.0.1 (20250615.1724)
 -->
<!-- Pages: 1 -->
<svg width="307pt" height="482pt"
 viewBox="0.00 0.00 307.00 482.00" xmlns="http://www.w3.org/2000/svg" xmlns:xlink="http://www.w3.org/1999/xlink">
<g id="graph0" class="graph" transform="scale(1 1) rotate(0) translate(4 478.36)">
<polygon fill="white" stroke="none" points="-4,4 -4,-478.36 303.33,-478.36 303.33,4 -4,4"/>
<g id="clust1" class="cluster">
<title>cluster17</title>
<path fill="none" stroke="black" d="M111.72,-137.82C111.72,-137.82 193.72,-137.82 193.72,-137.82 199.72,-137.82 205.72,-143.82 205.72,-149.82 205.72,-149.82 205.72,-353.04 205.72,-353.04 205.72,-359.04 199.72,-365.04 193.72,-365.04 193.72,-365.04 111.72,-365.04 111.72,-365.04 105.72,-365.04 99.72,-359.04 99.72,-353.04 99.72,-353.04 99.72,-149.82 99.72,-149.82 99.72,-143.82 105.72,-137.82 111.72,-137.82"/>
<text xml:space="preserve" text-anchor="middle" x="190.97" y="-145.02" font-family="Times,serif" font-size="14.00">17</text>
</g>
<g id="clust2" class="cluster">
<title>cluster500 x 17</title>
<path fill="none" stroke="black" d="M30.72,-8C30.72,-8 156.72,-8 156.72,-8 162.72,-8 168.72,-14 168.72,-20 168.72,-20 168.72,-117.82 168.72,-117.82 168.72,-123.82 162.72,-129.82 156.72,-129.82 156.72,-129.82 30.72,-129.82 30.72,-129.82 24.72,-129.82 18.72,-123.82 18.72,-117.82 18.72,-117.82 18.72,-20 18.72,-20 18.72,-14 24.72,-8 30.72,-8"/>
<text xml:space="preserve" text-anchor="middle" x="136.72" y="-15.2" font-family="Times,serif" font-size="14.00">500 x 17</text>
</g>
<!-- psi -->
<g id="node1" class="node">
<title>psi</title>
<ellipse fill="none" stroke="black" cx="44.72" cy="-199.07" rx="44.72" ry="40.66"/>
<text xml:space="preserve" text-anchor="middle" x="44.72" y="-210.52" font-family="Times,serif" font-size="14.00">psi</text>
<text xml:space="preserve" text-anchor="middle" x="44.72" y="-194.02" font-family="Times,serif" font-size="14.00">~</text>
<text xml:space="preserve" text-anchor="middle" x="44.72" y="-177.52" font-family="Times,serif" font-size="14.00">Uniform</text>
</g>
<!-- y -->
<g id="node6" class="node">
<title>y</title>
<ellipse fill="lightgrey" stroke="black" cx="93.72" cy="-81.16" rx="67" ry="40.66"/>
<text xml:space="preserve" text-anchor="middle" x="93.72" y="-92.61" font-family="Times,serif" font-size="14.00">y</text>
<text xml:space="preserve" text-anchor="middle" x="93.72" y="-76.11" font-family="Times,serif" font-size="14.00">~</text>
<text xml:space="preserve" text-anchor="middle" x="93.72" y="-59.61" font-family="Times,serif" font-size="14.00">CustomDist_y</text>
</g>
<!-- psi&#45;&gt;y -->
<g id="edge4" class="edge">
<title>psi&#45;&gt;y</title>
<path fill="none" stroke="black" d="M60.5,-160.76C64.44,-151.42 68.73,-141.27 72.88,-131.46"/>
<polygon fill="black" stroke="black" points="76.05,-132.96 76.72,-122.39 69.6,-130.24 76.05,-132.96"/>
</g>
<!-- mu -->
<g id="node2" class="node">
<title>mu</title>
<ellipse fill="none" stroke="black" cx="256.72" cy="-316.38" rx="42.6" ry="40.66"/>
<text xml:space="preserve" text-anchor="middle" x="256.72" y="-327.83" font-family="Times,serif" font-size="14.00">mu</text>
<text xml:space="preserve" text-anchor="middle" x="256.72" y="-311.33" font-family="Times,serif" font-size="14.00">~</text>
<text xml:space="preserve" text-anchor="middle" x="256.72" y="-294.83" font-family="Times,serif" font-size="14.00">Logistic</text>
</g>
<!-- p -->
<g id="node4" class="node">
<title>p</title>
<polygon fill="none" stroke="black" points="197.85,-227.82 107.6,-227.82 107.6,-170.32 197.85,-170.32 197.85,-227.82"/>
<text xml:space="preserve" text-anchor="middle" x="152.72" y="-210.52" font-family="Times,serif" font-size="14.00">p</text>
<text xml:space="preserve" text-anchor="middle" x="152.72" y="-194.02" font-family="Times,serif" font-size="14.00">~</text>
<text xml:space="preserve" text-anchor="middle" x="152.72" y="-177.52" font-family="Times,serif" font-size="14.00">Deterministic</text>
</g>
<!-- mu&#45;&gt;p -->
<g id="edge2" class="edge">
<title>mu&#45;&gt;p</title>
<path fill="none" stroke="black" d="M229.13,-284.78C215.72,-269.92 199.52,-251.96 185.49,-236.4"/>
<polygon fill="black" stroke="black" points="188.26,-234.25 178.97,-229.17 183.07,-238.94 188.26,-234.25"/>
</g>
<!-- sigma_alpha -->
<g id="node3" class="node">
<title>sigma_alpha</title>
<ellipse fill="none" stroke="black" cx="152.72" cy="-433.7" rx="60.1" ry="40.66"/>
<text xml:space="preserve" text-anchor="middle" x="152.72" y="-445.15" font-family="Times,serif" font-size="14.00">sigma_alpha</text>
<text xml:space="preserve" text-anchor="middle" x="152.72" y="-428.65" font-family="Times,serif" font-size="14.00">~</text>
<text xml:space="preserve" text-anchor="middle" x="152.72" y="-412.15" font-family="Times,serif" font-size="14.00">InvGamma</text>
</g>
<!-- alpha -->
<g id="node5" class="node">
<title>alpha</title>
<ellipse fill="none" stroke="black" cx="152.72" cy="-316.38" rx="41.01" ry="40.66"/>
<text xml:space="preserve" text-anchor="middle" x="152.72" y="-327.83" font-family="Times,serif" font-size="14.00">alpha</text>
<text xml:space="preserve" text-anchor="middle" x="152.72" y="-311.33" font-family="Times,serif" font-size="14.00">~</text>
<text xml:space="preserve" text-anchor="middle" x="152.72" y="-294.83" font-family="Times,serif" font-size="14.00">Normal</text>
</g>
<!-- sigma_alpha&#45;&gt;alpha -->
<g id="edge1" class="edge">
<title>sigma_alpha&#45;&gt;alpha</title>
<path fill="none" stroke="black" d="M152.72,-392.69C152.72,-384.91 152.72,-376.65 152.72,-368.57"/>
<polygon fill="black" stroke="black" points="156.22,-368.84 152.72,-358.84 149.22,-368.84 156.22,-368.84"/>
</g>
<!-- p&#45;&gt;y -->
<g id="edge5" class="edge">
<title>p&#45;&gt;y</title>
<path fill="none" stroke="black" d="M138.44,-170.01C132.41,-158.16 125.21,-144.01 118.36,-130.56"/>
<polygon fill="black" stroke="black" points="121.57,-129.14 113.91,-121.82 115.33,-132.32 121.57,-129.14"/>
</g>
<!-- alpha&#45;&gt;p -->
<g id="edge3" class="edge">
<title>alpha&#45;&gt;p</title>
<path fill="none" stroke="black" d="M152.72,-275.38C152.72,-263.67 152.72,-250.88 152.72,-239.23"/>
<polygon fill="black" stroke="black" points="156.22,-239.54 152.72,-229.54 149.22,-239.54 156.22,-239.54"/>
</g>
</g>
</svg>
