<?xml version="1.0" encoding="UTF-8" standalone="no"?>
<!DOCTYPE svg PUBLIC "-//W3C//DTD SVG 1.1//EN"
 "http://www.w3.org/Graphics/SVG/1.1/DTD/svg11.dtd">
<!-- Generated by graphviz version 12.2.1 (20241206.2353)
 -->
<!-- Pages: 1 -->
<svg width="274pt" height="482pt"
 viewBox="0.00 0.00 274.33 481.77" xmlns="http://www.w3.org/2000/svg" xmlns:xlink="http://www.w3.org/1999/xlink">
<g id="graph0" class="graph" transform="scale(1 1) rotate(0) translate(4 477.77)">
<polygon fill="white" stroke="none" points="-4,4 -4,-477.77 270.33,-477.77 270.33,4 -4,4"/>
<g id="clust1" class="cluster">
<title>cluster500 x 17</title>
<path fill="none" stroke="black" d="M30.6,-8C30.6,-8 156.6,-8 156.6,-8 162.6,-8 168.6,-14 168.6,-20 168.6,-20 168.6,-223.23 168.6,-223.23 168.6,-229.23 162.6,-235.23 156.6,-235.23 156.6,-235.23 30.6,-235.23 30.6,-235.23 24.6,-235.23 18.6,-229.23 18.6,-223.23 18.6,-223.23 18.6,-20 18.6,-20 18.6,-14 24.6,-8 30.6,-8"/>
<text text-anchor="middle" x="136.6" y="-15.2" font-family="Times,serif" font-size="14.00">500 x 17</text>
</g>
<!-- mu -->
<g id="node1" class="node">
<title>mu</title>
<ellipse fill="none" stroke="black" cx="42.6" cy="-315.79" rx="42.6" ry="40.66"/>
<text text-anchor="middle" x="42.6" y="-327.24" font-family="Times,serif" font-size="14.00">mu</text>
<text text-anchor="middle" x="42.6" y="-310.74" font-family="Times,serif" font-size="14.00">~</text>
<text text-anchor="middle" x="42.6" y="-294.24" font-family="Times,serif" font-size="14.00">Logistic</text>
</g>
<!-- p -->
<g id="node5" class="node">
<title>p</title>
<polygon fill="none" stroke="black" points="138.73,-227.23 48.48,-227.23 48.48,-169.73 138.73,-169.73 138.73,-227.23"/>
<text text-anchor="middle" x="93.6" y="-209.93" font-family="Times,serif" font-size="14.00">p</text>
<text text-anchor="middle" x="93.6" y="-193.43" font-family="Times,serif" font-size="14.00">~</text>
<text text-anchor="middle" x="93.6" y="-176.93" font-family="Times,serif" font-size="14.00">Deterministic</text>
</g>
<!-- mu&#45;&gt;p -->
<g id="edge2" class="edge">
<title>mu&#45;&gt;p</title>
<path fill="none" stroke="black" d="M58.88,-277.99C64.53,-265.22 70.87,-250.87 76.58,-237.97"/>
<polygon fill="black" stroke="black" points="79.74,-239.48 80.58,-228.92 73.34,-236.65 79.74,-239.48"/>
</g>
<!-- sigma_beta -->
<g id="node2" class="node">
<title>sigma_beta</title>
<ellipse fill="none" stroke="black" cx="144.6" cy="-433.11" rx="55.33" ry="40.66"/>
<text text-anchor="middle" x="144.6" y="-444.56" font-family="Times,serif" font-size="14.00">sigma_beta</text>
<text text-anchor="middle" x="144.6" y="-428.06" font-family="Times,serif" font-size="14.00">~</text>
<text text-anchor="middle" x="144.6" y="-411.56" font-family="Times,serif" font-size="14.00">InvGamma</text>
</g>
<!-- beta -->
<g id="node4" class="node">
<title>beta</title>
<ellipse fill="none" stroke="black" cx="144.6" cy="-315.79" rx="41.01" ry="40.66"/>
<text text-anchor="middle" x="144.6" y="-327.24" font-family="Times,serif" font-size="14.00">beta</text>
<text text-anchor="middle" x="144.6" y="-310.74" font-family="Times,serif" font-size="14.00">~</text>
<text text-anchor="middle" x="144.6" y="-294.24" font-family="Times,serif" font-size="14.00">Normal</text>
</g>
<!-- sigma_beta&#45;&gt;beta -->
<g id="edge1" class="edge">
<title>sigma_beta&#45;&gt;beta</title>
<path fill="none" stroke="black" d="M144.6,-392.1C144.6,-384.32 144.6,-376.06 144.6,-367.98"/>
<polygon fill="black" stroke="black" points="148.1,-368.24 144.6,-358.24 141.1,-368.24 148.1,-368.24"/>
</g>
<!-- psi -->
<g id="node3" class="node">
<title>psi</title>
<ellipse fill="none" stroke="black" cx="221.6" cy="-198.48" rx="44.72" ry="40.66"/>
<text text-anchor="middle" x="221.6" y="-209.93" font-family="Times,serif" font-size="14.00">psi</text>
<text text-anchor="middle" x="221.6" y="-193.43" font-family="Times,serif" font-size="14.00">~</text>
<text text-anchor="middle" x="221.6" y="-176.93" font-family="Times,serif" font-size="14.00">Uniform</text>
</g>
<!-- y -->
<g id="node6" class="node">
<title>y</title>
<ellipse fill="lightgrey" stroke="black" cx="93.6" cy="-81.16" rx="67" ry="40.66"/>
<text text-anchor="middle" x="93.6" y="-92.61" font-family="Times,serif" font-size="14.00">y</text>
<text text-anchor="middle" x="93.6" y="-76.11" font-family="Times,serif" font-size="14.00">~</text>
<text text-anchor="middle" x="93.6" y="-59.61" font-family="Times,serif" font-size="14.00">CustomDist_y</text>
</g>
<!-- psi&#45;&gt;y -->
<g id="edge5" class="edge">
<title>psi&#45;&gt;y</title>
<path fill="none" stroke="black" d="M190.29,-169.27C174.77,-155.28 155.75,-138.14 138.69,-122.78"/>
<polygon fill="black" stroke="black" points="141.4,-120.51 131.62,-116.41 136.71,-125.71 141.4,-120.51"/>
</g>
<!-- beta&#45;&gt;p -->
<g id="edge3" class="edge">
<title>beta&#45;&gt;p</title>
<path fill="none" stroke="black" d="M128.33,-277.99C122.68,-265.22 116.33,-250.87 110.63,-237.97"/>
<polygon fill="black" stroke="black" points="113.87,-236.65 106.62,-228.92 107.47,-239.48 113.87,-236.65"/>
</g>
<!-- p&#45;&gt;y -->
<g id="edge4" class="edge">
<title>p&#45;&gt;y</title>
<path fill="none" stroke="black" d="M93.6,-169.27C93.6,-158.44 93.6,-145.73 93.6,-133.41"/>
<polygon fill="black" stroke="black" points="97.1,-133.78 93.6,-123.78 90.1,-133.78 97.1,-133.78"/>
</g>
</g>
</svg>
