<?xml version="1.0" encoding="UTF-8" standalone="no"?>
<!DOCTYPE svg PUBLIC "-//W3C//DTD SVG 1.1//EN"
 "http://www.w3.org/Graphics/SVG/1.1/DTD/svg11.dtd">
<!-- Generated by graphviz version 13.0.1 (20250615.1724)
 -->
<!-- Pages: 1 -->
<svg width="352pt" height="486pt"
 viewBox="0.00 0.00 352.00 486.00" xmlns="http://www.w3.org/2000/svg" xmlns:xlink="http://www.w3.org/1999/xlink">
<g id="graph0" class="graph" transform="scale(1 1) rotate(0) translate(4 482.27)">
<polygon fill="white" stroke="none" points="-4,4 -4,-482.27 348.19,-482.27 348.19,4 -4,4"/>
<g id="clust1" class="cluster">
<title>cluster500</title>
<path fill="none" stroke="black" d="M228.6,-247.13C228.6,-247.13 302.6,-247.13 302.6,-247.13 308.6,-247.13 314.6,-253.13 314.6,-259.13 314.6,-259.13 314.6,-356.95 314.6,-356.95 314.6,-362.95 308.6,-368.95 302.6,-368.95 302.6,-368.95 228.6,-368.95 228.6,-368.95 222.6,-368.95 216.6,-362.95 216.6,-356.95 216.6,-356.95 216.6,-259.13 216.6,-259.13 216.6,-253.13 222.6,-247.13 228.6,-247.13"/>
<text xml:space="preserve" text-anchor="middle" x="296.48" y="-254.33" font-family="Times,serif" font-size="14.00">500</text>
</g>
<g id="clust2" class="cluster">
<title>cluster500 x 17</title>
<path fill="none" stroke="black" d="M81.6,-8C81.6,-8 207.6,-8 207.6,-8 213.6,-8 219.6,-14 219.6,-20 219.6,-20 219.6,-223.23 219.6,-223.23 219.6,-229.23 213.6,-235.23 207.6,-235.23 207.6,-235.23 81.6,-235.23 81.6,-235.23 75.6,-235.23 69.6,-229.23 69.6,-223.23 69.6,-223.23 69.6,-20 69.6,-20 69.6,-14 75.6,-8 81.6,-8"/>
<text xml:space="preserve" text-anchor="middle" x="187.6" y="-15.2" font-family="Times,serif" font-size="14.00">500 x 17</text>
</g>
<!-- mu -->
<g id="node1" class="node">
<title>mu</title>
<ellipse fill="none" stroke="black" cx="42.6" cy="-320.29" rx="42.6" ry="40.66"/>
<text xml:space="preserve" text-anchor="middle" x="42.6" y="-331.74" font-family="Times,serif" font-size="14.00">mu</text>
<text xml:space="preserve" text-anchor="middle" x="42.6" y="-315.24" font-family="Times,serif" font-size="14.00">~</text>
<text xml:space="preserve" text-anchor="middle" x="42.6" y="-298.74" font-family="Times,serif" font-size="14.00">Logistic</text>
</g>
<!-- p -->
<g id="node7" class="node">
<title>p</title>
<polygon fill="none" stroke="black" points="189.73,-227.23 99.48,-227.23 99.48,-169.73 189.73,-169.73 189.73,-227.23"/>
<text xml:space="preserve" text-anchor="middle" x="144.6" y="-209.93" font-family="Times,serif" font-size="14.00">p</text>
<text xml:space="preserve" text-anchor="middle" x="144.6" y="-193.43" font-family="Times,serif" font-size="14.00">~</text>
<text xml:space="preserve" text-anchor="middle" x="144.6" y="-176.93" font-family="Times,serif" font-size="14.00">Deterministic</text>
</g>
<!-- mu&#45;&gt;p -->
<g id="edge3" class="edge">
<title>mu&#45;&gt;p</title>
<path fill="none" stroke="black" d="M65.18,-285.26C73.9,-272.87 84.25,-259.01 94.6,-247.13 97.93,-243.32 101.52,-239.47 105.19,-235.69"/>
<polygon fill="black" stroke="black" points="107.62,-238.21 112.23,-228.67 102.68,-233.26 107.62,-238.21"/>
</g>
<!-- beta -->
<g id="node2" class="node">
<title>beta</title>
<ellipse fill="none" stroke="black" cx="144.6" cy="-320.29" rx="41.01" ry="40.66"/>
<text xml:space="preserve" text-anchor="middle" x="144.6" y="-331.74" font-family="Times,serif" font-size="14.00">beta</text>
<text xml:space="preserve" text-anchor="middle" x="144.6" y="-315.24" font-family="Times,serif" font-size="14.00">~</text>
<text xml:space="preserve" text-anchor="middle" x="144.6" y="-298.74" font-family="Times,serif" font-size="14.00">Normal</text>
</g>
<!-- beta&#45;&gt;p -->
<g id="edge5" class="edge">
<title>beta&#45;&gt;p</title>
<path fill="none" stroke="black" d="M144.6,-279.4C144.6,-266.37 144.6,-251.91 144.6,-238.91"/>
<polygon fill="black" stroke="black" points="148.1,-238.98 144.6,-228.98 141.1,-238.98 148.1,-238.98"/>
</g>
<!-- sigma_gamma -->
<g id="node3" class="node">
<title>sigma_gamma</title>
<ellipse fill="none" stroke="black" cx="275.6" cy="-437.61" rx="68.59" ry="40.66"/>
<text xml:space="preserve" text-anchor="middle" x="275.6" y="-449.06" font-family="Times,serif" font-size="14.00">sigma_gamma</text>
<text xml:space="preserve" text-anchor="middle" x="275.6" y="-432.56" font-family="Times,serif" font-size="14.00">~</text>
<text xml:space="preserve" text-anchor="middle" x="275.6" y="-416.06" font-family="Times,serif" font-size="14.00">InvGamma</text>
</g>
<!-- gamma -->
<g id="node6" class="node">
<title>gamma</title>
<ellipse fill="none" stroke="black" cx="265.6" cy="-320.29" rx="41.01" ry="40.66"/>
<text xml:space="preserve" text-anchor="middle" x="265.6" y="-331.74" font-family="Times,serif" font-size="14.00">gamma</text>
<text xml:space="preserve" text-anchor="middle" x="265.6" y="-315.24" font-family="Times,serif" font-size="14.00">~</text>
<text xml:space="preserve" text-anchor="middle" x="265.6" y="-298.74" font-family="Times,serif" font-size="14.00">Normal</text>
</g>
<!-- sigma_gamma&#45;&gt;gamma -->
<g id="edge2" class="edge">
<title>sigma_gamma&#45;&gt;gamma</title>
<path fill="none" stroke="black" d="M272.13,-396.6C271.46,-388.82 270.74,-380.56 270.04,-372.48"/>
<polygon fill="black" stroke="black" points="273.55,-372.4 269.2,-362.74 266.57,-373 273.55,-372.4"/>
</g>
<!-- sigma_beta -->
<g id="node4" class="node">
<title>sigma_beta</title>
<ellipse fill="none" stroke="black" cx="133.6" cy="-437.61" rx="55.33" ry="40.66"/>
<text xml:space="preserve" text-anchor="middle" x="133.6" y="-449.06" font-family="Times,serif" font-size="14.00">sigma_beta</text>
<text xml:space="preserve" text-anchor="middle" x="133.6" y="-432.56" font-family="Times,serif" font-size="14.00">~</text>
<text xml:space="preserve" text-anchor="middle" x="133.6" y="-416.06" font-family="Times,serif" font-size="14.00">InvGamma</text>
</g>
<!-- sigma_beta&#45;&gt;beta -->
<g id="edge1" class="edge">
<title>sigma_beta&#45;&gt;beta</title>
<path fill="none" stroke="black" d="M137.42,-396.6C138.16,-388.82 138.95,-380.56 139.72,-372.48"/>
<polygon fill="black" stroke="black" points="143.18,-373.03 140.65,-362.74 136.22,-372.36 143.18,-373.03"/>
</g>
<!-- psi -->
<g id="node5" class="node">
<title>psi</title>
<ellipse fill="none" stroke="black" cx="256.6" cy="-198.48" rx="28.81" ry="40.66"/>
<text xml:space="preserve" text-anchor="middle" x="256.6" y="-209.93" font-family="Times,serif" font-size="14.00">psi</text>
<text xml:space="preserve" text-anchor="middle" x="256.6" y="-193.43" font-family="Times,serif" font-size="14.00">~</text>
<text xml:space="preserve" text-anchor="middle" x="256.6" y="-176.93" font-family="Times,serif" font-size="14.00">Beta</text>
</g>
<!-- y -->
<g id="node8" class="node">
<title>y</title>
<ellipse fill="lightgrey" stroke="black" cx="144.6" cy="-81.16" rx="67" ry="40.66"/>
<text xml:space="preserve" text-anchor="middle" x="144.6" y="-92.61" font-family="Times,serif" font-size="14.00">y</text>
<text xml:space="preserve" text-anchor="middle" x="144.6" y="-76.11" font-family="Times,serif" font-size="14.00">~</text>
<text xml:space="preserve" text-anchor="middle" x="144.6" y="-59.61" font-family="Times,serif" font-size="14.00">CustomDist_y</text>
</g>
<!-- psi&#45;&gt;y -->
<g id="edge6" class="edge">
<title>psi&#45;&gt;y</title>
<path fill="none" stroke="black" d="M235,-170.67C231.28,-166.3 227.39,-161.88 223.6,-157.82 212.87,-146.31 200.8,-134.32 189.4,-123.37"/>
<polygon fill="black" stroke="black" points="191.99,-121 182.33,-116.64 187.16,-126.07 191.99,-121"/>
</g>
<!-- gamma&#45;&gt;p -->
<g id="edge4" class="edge">
<title>gamma&#45;&gt;p</title>
<path fill="none" stroke="black" d="M237.48,-290.29C224.52,-277.04 208.88,-261.19 194.6,-247.13 190.75,-243.34 186.7,-239.4 182.64,-235.49"/>
<polygon fill="black" stroke="black" points="185.1,-232.99 175.46,-228.59 180.25,-238.04 185.1,-232.99"/>
</g>
<!-- p&#45;&gt;y -->
<g id="edge7" class="edge">
<title>p&#45;&gt;y</title>
<path fill="none" stroke="black" d="M144.6,-169.27C144.6,-158.44 144.6,-145.73 144.6,-133.41"/>
<polygon fill="black" stroke="black" points="148.1,-133.78 144.6,-123.78 141.1,-133.78 148.1,-133.78"/>
</g>
</g>
</svg>
