<?xml version="1.0" encoding="UTF-8" standalone="no"?>
<!DOCTYPE svg PUBLIC "-//W3C//DTD SVG 1.1//EN"
 "http://www.w3.org/Graphics/SVG/1.1/DTD/svg11.dtd">
<!-- Generated by graphviz version 14.1.1 (20251213.1925)
 -->
<!-- Pages: 1 -->
<svg width="221pt" height="276pt"
 viewBox="0.00 0.00 221.00 276.00" xmlns="http://www.w3.org/2000/svg" xmlns:xlink="http://www.w3.org/1999/xlink">
<g id="graph0" class="graph" transform="scale(1 1) rotate(0) translate(4 271.63)">
<polygon fill="white" stroke="none" points="-4,4 -4,-271.63 216.72,-271.63 216.72,4 -4,4"/>
<g id="clust1" class="cluster">
<title>cluster10</title>
<path fill="none" stroke="black" d="M110.72,-137.82C110.72,-137.82 192.72,-137.82 192.72,-137.82 198.72,-137.82 204.72,-143.82 204.72,-149.82 204.72,-149.82 204.72,-247.63 204.72,-247.63 204.72,-253.63 198.72,-259.63 192.72,-259.63 192.72,-259.63 110.72,-259.63 110.72,-259.63 104.72,-259.63 98.72,-253.63 98.72,-247.63 98.72,-247.63 98.72,-149.82 98.72,-149.82 98.72,-143.82 104.72,-137.82 110.72,-137.82"/>
<text xml:space="preserve" text-anchor="middle" x="189.97" y="-145.02" font-family="Times,serif" font-size="14.00">10</text>
</g>
<g id="clust2" class="cluster">
<title>cluster10 x 11</title>
<path fill="none" stroke="black" d="M38.72,-8C38.72,-8 150.72,-8 150.72,-8 156.72,-8 162.72,-14 162.72,-20 162.72,-20 162.72,-117.82 162.72,-117.82 162.72,-123.82 156.72,-129.82 150.72,-129.82 150.72,-129.82 38.72,-129.82 38.72,-129.82 32.72,-129.82 26.72,-123.82 26.72,-117.82 26.72,-117.82 26.72,-20 26.72,-20 26.72,-14 32.72,-8 38.72,-8"/>
<text xml:space="preserve" text-anchor="middle" x="134.1" y="-15.2" font-family="Times,serif" font-size="14.00">10 x 11</text>
</g>
<!-- p -->
<g id="node1" class="node">
<title>p</title>
<ellipse fill="none" stroke="black" cx="44.72" cy="-210.98" rx="44.72" ry="40.66"/>
<text xml:space="preserve" text-anchor="middle" x="44.72" y="-222.43" font-family="Times,serif" font-size="14.00">p</text>
<text xml:space="preserve" text-anchor="middle" x="44.72" y="-205.93" font-family="Times,serif" font-size="14.00">~</text>
<text xml:space="preserve" text-anchor="middle" x="44.72" y="-189.43" font-family="Times,serif" font-size="14.00">Uniform</text>
</g>
<!-- M&#45;array -->
<g id="node3" class="node">
<title>M&#45;array</title>
<ellipse fill="lightgrey" stroke="black" cx="94.72" cy="-81.16" rx="60.1" ry="40.66"/>
<text xml:space="preserve" text-anchor="middle" x="94.72" y="-92.61" font-family="Times,serif" font-size="14.00">M&#45;array</text>
<text xml:space="preserve" text-anchor="middle" x="94.72" y="-76.11" font-family="Times,serif" font-size="14.00">~</text>
<text xml:space="preserve" text-anchor="middle" x="94.72" y="-59.61" font-family="Times,serif" font-size="14.00">Multinomial</text>
</g>
<!-- p&#45;&gt;M&#45;array -->
<g id="edge1" class="edge">
<title>p&#45;&gt;M&#45;array</title>
<path fill="none" stroke="black" d="M59.46,-172.32C64.46,-159.53 70.12,-145.06 75.42,-131.5"/>
<polygon fill="black" stroke="black" points="78.64,-132.87 79.03,-122.29 72.12,-130.32 78.64,-132.87"/>
</g>
<!-- phi -->
<g id="node2" class="node">
<title>phi</title>
<ellipse fill="none" stroke="black" cx="151.72" cy="-210.98" rx="44.72" ry="40.66"/>
<text xml:space="preserve" text-anchor="middle" x="151.72" y="-222.43" font-family="Times,serif" font-size="14.00">phi</text>
<text xml:space="preserve" text-anchor="middle" x="151.72" y="-205.93" font-family="Times,serif" font-size="14.00">~</text>
<text xml:space="preserve" text-anchor="middle" x="151.72" y="-189.43" font-family="Times,serif" font-size="14.00">Uniform</text>
</g>
<!-- phi&#45;&gt;M&#45;array -->
<g id="edge2" class="edge">
<title>phi&#45;&gt;M&#45;array</title>
<path fill="none" stroke="black" d="M135.24,-173.01C129.37,-159.85 122.67,-144.82 116.43,-130.83"/>
<polygon fill="black" stroke="black" points="119.65,-129.47 112.38,-121.76 113.26,-132.32 119.65,-129.47"/>
</g>
</g>
</svg>
