<?xml version="1.0" encoding="UTF-8" standalone="no"?>
<!DOCTYPE svg PUBLIC "-//W3C//DTD SVG 1.1//EN"
 "http://www.w3.org/Graphics/SVG/1.1/DTD/svg11.dtd">
<!-- Generated by graphviz version 13.0.1 (20250615.1724)
 -->
<!-- Pages: 1 -->
<svg width="279pt" height="385pt"
 viewBox="0.00 0.00 279.00 385.00" xmlns="http://www.w3.org/2000/svg" xmlns:xlink="http://www.w3.org/1999/xlink">
<g id="graph0" class="graph" transform="scale(1 1) rotate(0) translate(4 380.95)">
<polygon fill="white" stroke="none" points="-4,4 -4,-380.95 274.81,-380.95 274.81,4 -4,4"/>
<g id="clust1" class="cluster">
<title>cluster427</title>
<path fill="none" stroke="black" d="M128.81,-247.13C128.81,-247.13 250.81,-247.13 250.81,-247.13 256.81,-247.13 262.81,-253.13 262.81,-259.13 262.81,-259.13 262.81,-356.95 262.81,-356.95 262.81,-362.95 256.81,-368.95 250.81,-368.95 250.81,-368.95 128.81,-368.95 128.81,-368.95 122.81,-368.95 116.81,-362.95 116.81,-356.95 116.81,-356.95 116.81,-259.13 116.81,-259.13 116.81,-253.13 122.81,-247.13 128.81,-247.13"/>
<text xml:space="preserve" text-anchor="middle" x="244.69" y="-254.33" font-family="Times,serif" font-size="14.00">427</text>
</g>
<g id="clust2" class="cluster">
<title>cluster500</title>
<path fill="none" stroke="black" d="M79.81,-8C79.81,-8 161.81,-8 161.81,-8 167.81,-8 173.81,-14 173.81,-20 173.81,-20 173.81,-223.23 173.81,-223.23 173.81,-229.23 167.81,-235.23 161.81,-235.23 161.81,-235.23 79.81,-235.23 79.81,-235.23 73.81,-235.23 67.81,-229.23 67.81,-223.23 67.81,-223.23 67.81,-20 67.81,-20 67.81,-14 73.81,-8 79.81,-8"/>
<text xml:space="preserve" text-anchor="middle" x="155.69" y="-15.2" font-family="Times,serif" font-size="14.00">500</text>
</g>
<!-- psi -->
<g id="node1" class="node">
<title>psi</title>
<ellipse fill="none" stroke="black" cx="28.81" cy="-198.48" rx="28.81" ry="40.66"/>
<text xml:space="preserve" text-anchor="middle" x="28.81" y="-209.93" font-family="Times,serif" font-size="14.00">psi</text>
<text xml:space="preserve" text-anchor="middle" x="28.81" y="-193.43" font-family="Times,serif" font-size="14.00">~</text>
<text xml:space="preserve" text-anchor="middle" x="28.81" y="-176.93" font-family="Times,serif" font-size="14.00">Beta</text>
</g>
<!-- y -->
<g id="node4" class="node">
<title>y</title>
<ellipse fill="lightgrey" stroke="black" cx="119.81" cy="-81.16" rx="42.6" ry="40.66"/>
<text xml:space="preserve" text-anchor="middle" x="119.81" y="-92.61" font-family="Times,serif" font-size="14.00">y</text>
<text xml:space="preserve" text-anchor="middle" x="119.81" y="-76.11" font-family="Times,serif" font-size="14.00">~</text>
<text xml:space="preserve" text-anchor="middle" x="119.81" y="-59.61" font-family="Times,serif" font-size="14.00">Mixture</text>
</g>
<!-- psi&#45;&gt;y -->
<g id="edge3" class="edge">
<title>psi&#45;&gt;y</title>
<path fill="none" stroke="black" d="M50.15,-170.44C61.22,-156.42 74.97,-138.99 87.33,-123.33"/>
<polygon fill="black" stroke="black" points="90.02,-125.56 93.47,-115.54 84.53,-121.23 90.02,-125.56"/>
</g>
<!-- sigma -->
<g id="node2" class="node">
<title>sigma</title>
<ellipse fill="none" stroke="black" cx="61.81" cy="-320.29" rx="44.72" ry="40.66"/>
<text xml:space="preserve" text-anchor="middle" x="61.81" y="-331.74" font-family="Times,serif" font-size="14.00">sigma</text>
<text xml:space="preserve" text-anchor="middle" x="61.81" y="-315.24" font-family="Times,serif" font-size="14.00">~</text>
<text xml:space="preserve" text-anchor="middle" x="61.81" y="-298.74" font-family="Times,serif" font-size="14.00">Uniform</text>
</g>
<!-- p -->
<g id="node5" class="node">
<title>p</title>
<polygon fill="none" stroke="black" points="165.94,-227.23 75.69,-227.23 75.69,-169.73 165.94,-169.73 165.94,-227.23"/>
<text xml:space="preserve" text-anchor="middle" x="120.81" y="-209.93" font-family="Times,serif" font-size="14.00">p</text>
<text xml:space="preserve" text-anchor="middle" x="120.81" y="-193.43" font-family="Times,serif" font-size="14.00">~</text>
<text xml:space="preserve" text-anchor="middle" x="120.81" y="-176.93" font-family="Times,serif" font-size="14.00">Deterministic</text>
</g>
<!-- sigma&#45;&gt;p -->
<g id="edge2" class="edge">
<title>sigma&#45;&gt;p</title>
<path fill="none" stroke="black" d="M79.84,-282.69C86.87,-268.41 94.94,-252.02 102.05,-237.59"/>
<polygon fill="black" stroke="black" points="105.07,-239.36 106.35,-228.85 98.8,-236.27 105.07,-239.36"/>
</g>
<!-- x_unobserved -->
<g id="node3" class="node">
<title>x_unobserved</title>
<ellipse fill="none" stroke="black" cx="189.81" cy="-320.29" rx="64.88" ry="40.66"/>
<text xml:space="preserve" text-anchor="middle" x="189.81" y="-331.74" font-family="Times,serif" font-size="14.00">x_unobserved</text>
<text xml:space="preserve" text-anchor="middle" x="189.81" y="-315.24" font-family="Times,serif" font-size="14.00">~</text>
<text xml:space="preserve" text-anchor="middle" x="189.81" y="-298.74" font-family="Times,serif" font-size="14.00">Uniform</text>
</g>
<!-- x_unobserved&#45;&gt;p -->
<g id="edge1" class="edge">
<title>x_unobserved&#45;&gt;p</title>
<path fill="none" stroke="black" d="M168.17,-281.71C160.03,-267.57 150.77,-251.5 142.62,-237.34"/>
<polygon fill="black" stroke="black" points="145.68,-235.65 137.66,-228.73 139.62,-239.14 145.68,-235.65"/>
</g>
<!-- p&#45;&gt;y -->
<g id="edge4" class="edge">
<title>p&#45;&gt;y</title>
<path fill="none" stroke="black" d="M120.57,-169.27C120.48,-158.44 120.37,-145.73 120.26,-133.41"/>
<polygon fill="black" stroke="black" points="123.76,-133.75 120.18,-123.78 116.76,-133.81 123.76,-133.75"/>
</g>
</g>
</svg>
