<?xml version="1.0" encoding="UTF-8" standalone="no"?>
<!DOCTYPE svg PUBLIC "-//W3C//DTD SVG 1.1//EN"
 "http://www.w3.org/Graphics/SVG/1.1/DTD/svg11.dtd">
<!-- Generated by graphviz version 13.1.2 (0)
 -->
<!-- Pages: 1 -->
<svg width="460pt" height="276pt"
 viewBox="0.00 0.00 460.00 276.00" xmlns="http://www.w3.org/2000/svg" xmlns:xlink="http://www.w3.org/1999/xlink">
<g id="graph0" class="graph" transform="scale(1 1) rotate(0) translate(4 271.63)">
<polygon fill="white" stroke="none" points="-4,4 -4,-271.63 456,-271.63 456,4 -4,4"/>
<g id="clust1" class="cluster">
<title>cluster6</title>
<path fill="none" stroke="black" d="M334,-137.82C334,-137.82 416,-137.82 416,-137.82 422,-137.82 428,-143.82 428,-149.82 428,-149.82 428,-247.63 428,-247.63 428,-253.63 422,-259.63 416,-259.63 416,-259.63 334,-259.63 334,-259.63 328,-259.63 322,-253.63 322,-247.63 322,-247.63 322,-149.82 322,-149.82 322,-143.82 328,-137.82 334,-137.82"/>
<text xml:space="preserve" text-anchor="middle" x="416.62" y="-145.02" font-family="Times,serif" font-size="14.00">6</text>
</g>
<g id="clust2" class="cluster">
<title>cluster7 x 7</title>
<path fill="none" stroke="black" d="M20,-8C20,-8 288,-8 288,-8 294,-8 300,-14 300,-20 300,-20 300,-117.82 300,-117.82 300,-123.82 294,-129.82 288,-129.82 288,-129.82 20,-129.82 20,-129.82 14,-129.82 8,-123.82 8,-117.82 8,-117.82 8,-20 8,-20 8,-14 14,-8 20,-8"/>
<text xml:space="preserve" text-anchor="middle" x="278.12" y="-15.2" font-family="Times,serif" font-size="14.00">7 x 7</text>
</g>
<g id="clust3" class="cluster">
<title>cluster6 x 7</title>
<path fill="none" stroke="black" d="M320,-8C320,-8 432,-8 432,-8 438,-8 444,-14 444,-20 444,-20 444,-117.82 444,-117.82 444,-123.82 438,-129.82 432,-129.82 432,-129.82 320,-129.82 320,-129.82 314,-129.82 308,-123.82 308,-117.82 308,-117.82 308,-20 308,-20 308,-14 314,-8 320,-8"/>
<text xml:space="preserve" text-anchor="middle" x="422.12" y="-15.2" font-family="Times,serif" font-size="14.00">6 x 7</text>
</g>
<!-- N -->
<g id="node1" class="node">
<title>N</title>
<ellipse fill="none" stroke="black" cx="48" cy="-210.98" rx="44.72" ry="40.66"/>
<text xml:space="preserve" text-anchor="middle" x="48" y="-222.43" font-family="Times,serif" font-size="14.00">N</text>
<text xml:space="preserve" text-anchor="middle" x="48" y="-205.93" font-family="Times,serif" font-size="14.00">~</text>
<text xml:space="preserve" text-anchor="middle" x="48" y="-189.43" font-family="Times,serif" font-size="14.00">Uniform</text>
</g>
<!-- Unmarked captures -->
<g id="node5" class="node">
<title>Unmarked captures</title>
<ellipse fill="lightgrey" stroke="black" cx="154" cy="-81.16" rx="137.53" ry="40.66"/>
<text xml:space="preserve" text-anchor="middle" x="154" y="-92.61" font-family="Times,serif" font-size="14.00">Unmarked captures</text>
<text xml:space="preserve" text-anchor="middle" x="154" y="-76.11" font-family="Times,serif" font-size="14.00">~</text>
<text xml:space="preserve" text-anchor="middle" x="154" y="-59.61" font-family="Times,serif" font-size="14.00">CustomDist_Unmarked captures</text>
</g>
<!-- N&#45;&gt;Unmarked captures -->
<g id="edge1" class="edge">
<title>N&#45;&gt;Unmarked captures</title>
<path fill="none" stroke="black" d="M71.41,-176.25C80.34,-163.9 90.82,-149.97 101,-137.82 103.47,-134.86 106.06,-131.87 108.71,-128.88"/>
<polygon fill="black" stroke="black" points="111.16,-131.39 115.27,-121.63 105.97,-126.7 111.16,-131.39"/>
</g>
<!-- p -->
<g id="node2" class="node">
<title>p</title>
<ellipse fill="none" stroke="black" cx="264" cy="-210.98" rx="44.72" ry="40.66"/>
<text xml:space="preserve" text-anchor="middle" x="264" y="-222.43" font-family="Times,serif" font-size="14.00">p</text>
<text xml:space="preserve" text-anchor="middle" x="264" y="-205.93" font-family="Times,serif" font-size="14.00">~</text>
<text xml:space="preserve" text-anchor="middle" x="264" y="-189.43" font-family="Times,serif" font-size="14.00">Uniform</text>
</g>
<!-- p&#45;&gt;Unmarked captures -->
<g id="edge3" class="edge">
<title>p&#45;&gt;Unmarked captures</title>
<path fill="none" stroke="black" d="M239.95,-176.58C230.62,-164.14 219.64,-150.06 209,-137.82 206.43,-134.86 203.74,-131.86 200.98,-128.86"/>
<polygon fill="black" stroke="black" points="203.55,-126.48 194.16,-121.58 198.44,-131.27 203.55,-126.48"/>
</g>
<!-- M&#45;array -->
<g id="node6" class="node">
<title>M&#45;array</title>
<ellipse fill="lightgrey" stroke="black" cx="376" cy="-81.16" rx="60.1" ry="40.66"/>
<text xml:space="preserve" text-anchor="middle" x="376" y="-92.61" font-family="Times,serif" font-size="14.00">M&#45;array</text>
<text xml:space="preserve" text-anchor="middle" x="376" y="-76.11" font-family="Times,serif" font-size="14.00">~</text>
<text xml:space="preserve" text-anchor="middle" x="376" y="-59.61" font-family="Times,serif" font-size="14.00">Multinomial</text>
</g>
<!-- p&#45;&gt;M&#45;array -->
<g id="edge5" class="edge">
<title>p&#45;&gt;M&#45;array</title>
<path fill="none" stroke="black" d="M287.63,-176.03C296.71,-163.66 307.43,-149.77 318,-137.82 322.61,-132.6 327.63,-127.31 332.72,-122.16"/>
<polygon fill="black" stroke="black" points="335.01,-124.82 339.65,-115.3 330.08,-119.85 335.01,-124.82"/>
</g>
<!-- b0 -->
<g id="node3" class="node">
<title>b0</title>
<ellipse fill="none" stroke="black" cx="155" cy="-210.98" rx="44.72" ry="40.66"/>
<text xml:space="preserve" text-anchor="middle" x="155" y="-222.43" font-family="Times,serif" font-size="14.00">b0</text>
<text xml:space="preserve" text-anchor="middle" x="155" y="-205.93" font-family="Times,serif" font-size="14.00">~</text>
<text xml:space="preserve" text-anchor="middle" x="155" y="-189.43" font-family="Times,serif" font-size="14.00">Uniform</text>
</g>
<!-- b0&#45;&gt;Unmarked captures -->
<g id="edge4" class="edge">
<title>b0&#45;&gt;Unmarked captures</title>
<path fill="none" stroke="black" d="M154.69,-169.88C154.6,-158.34 154.5,-145.6 154.4,-133.48"/>
<polygon fill="black" stroke="black" points="157.9,-133.59 154.32,-123.62 150.9,-133.65 157.9,-133.59"/>
</g>
<!-- phi -->
<g id="node4" class="node">
<title>phi</title>
<ellipse fill="none" stroke="black" cx="375" cy="-210.98" rx="44.72" ry="40.66"/>
<text xml:space="preserve" text-anchor="middle" x="375" y="-222.43" font-family="Times,serif" font-size="14.00">phi</text>
<text xml:space="preserve" text-anchor="middle" x="375" y="-205.93" font-family="Times,serif" font-size="14.00">~</text>
<text xml:space="preserve" text-anchor="middle" x="375" y="-189.43" font-family="Times,serif" font-size="14.00">Uniform</text>
</g>
<!-- phi&#45;&gt;Unmarked captures -->
<g id="edge2" class="edge">
<title>phi&#45;&gt;Unmarked captures</title>
<path fill="none" stroke="black" d="M353.73,-175.11C344.2,-161.89 331.96,-147.67 318,-137.82 307.62,-130.49 286.23,-121.94 262.22,-113.77"/>
<polygon fill="black" stroke="black" points="263.45,-110.49 252.86,-110.65 261.24,-117.13 263.45,-110.49"/>
</g>
<!-- phi&#45;&gt;M&#45;array -->
<g id="edge6" class="edge">
<title>phi&#45;&gt;M&#45;array</title>
<path fill="none" stroke="black" d="M375.31,-169.88C375.4,-158.34 375.5,-145.6 375.6,-133.48"/>
<polygon fill="black" stroke="black" points="379.1,-133.65 375.68,-123.62 372.1,-133.59 379.1,-133.65"/>
</g>
</g>
</svg>
