<?xml version="1.0" encoding="UTF-8" standalone="no"?>
<!DOCTYPE svg PUBLIC "-//W3C//DTD SVG 1.1//EN"
 "http://www.w3.org/Graphics/SVG/1.1/DTD/svg11.dtd">
<!-- Generated by graphviz version 13.0.1 (20250615.1724)
 -->
<!-- Pages: 1 -->
<svg width="252pt" height="519pt"
 viewBox="0.00 0.00 252.00 519.00" xmlns="http://www.w3.org/2000/svg" xmlns:xlink="http://www.w3.org/1999/xlink">
<g id="graph0" class="graph" transform="scale(1 1) rotate(0) translate(4 515.27)">
<polygon fill="white" stroke="none" points="-4,4 -4,-515.27 248,-515.27 248,4 -4,4"/>
<g id="clust1" class="cluster">
<title>clusterbeta_coefs (3)</title>
<path fill="none" stroke="black" d="M26,-381.45C26,-381.45 100,-381.45 100,-381.45 106,-381.45 112,-387.45 112,-393.45 112,-393.45 112,-491.27 112,-491.27 112,-497.27 106,-503.27 100,-503.27 100,-503.27 26,-503.27 26,-503.27 20,-503.27 14,-497.27 14,-491.27 14,-491.27 14,-393.45 14,-393.45 14,-387.45 20,-381.45 26,-381.45"/>
<text xml:space="preserve" text-anchor="middle" x="65.38" y="-388.65" font-family="Times,serif" font-size="14.00">beta_coefs (3)</text>
</g>
<g id="clust2" class="cluster">
<title>cluster37</title>
<path fill="none" stroke="black" d="M20,-129.82C20,-129.82 106,-129.82 106,-129.82 112,-129.82 118,-135.82 118,-141.82 118,-141.82 118,-349.54 118,-349.54 118,-355.54 112,-361.54 106,-361.54 106,-361.54 20,-361.54 20,-361.54 14,-361.54 8,-355.54 8,-349.54 8,-349.54 8,-141.82 8,-141.82 8,-135.82 14,-129.82 20,-129.82"/>
<text xml:space="preserve" text-anchor="middle" x="103.25" y="-137.02" font-family="Times,serif" font-size="14.00">37</text>
</g>
<g id="clust3" class="cluster">
<title>clusteralpha_coefs (3)</title>
<path fill="none" stroke="black" d="M143,-251.63C143,-251.63 219,-251.63 219,-251.63 225,-251.63 231,-257.63 231,-263.63 231,-263.63 231,-361.45 231,-361.45 231,-367.45 225,-373.45 219,-373.45 219,-373.45 143,-373.45 143,-373.45 137,-373.45 131,-367.45 131,-361.45 131,-361.45 131,-263.63 131,-263.63 131,-257.63 137,-251.63 143,-251.63"/>
<text xml:space="preserve" text-anchor="middle" x="181" y="-258.83" font-family="Times,serif" font-size="14.00">alpha_coefs (3)</text>
</g>
<g id="clust4" class="cluster">
<title>cluster37 x 3</title>
<path fill="none" stroke="black" d="M138,-8C138,-8 224,-8 224,-8 230,-8 236,-14 236,-20 236,-20 236,-227.73 236,-227.73 236,-233.73 230,-239.73 224,-239.73 224,-239.73 138,-239.73 138,-239.73 132,-239.73 126,-233.73 126,-227.73 126,-227.73 126,-20 126,-20 126,-14 132,-8 138,-8"/>
<text xml:space="preserve" text-anchor="middle" x="210.75" y="-15.2" font-family="Times,serif" font-size="14.00">37 x 3</text>
</g>
<!-- Beta -->
<g id="node1" class="node">
<title>Beta</title>
<ellipse fill="none" stroke="black" cx="63" cy="-454.61" rx="41.01" ry="40.66"/>
<text xml:space="preserve" text-anchor="middle" x="63" y="-466.06" font-family="Times,serif" font-size="14.00">Beta</text>
<text xml:space="preserve" text-anchor="middle" x="63" y="-449.56" font-family="Times,serif" font-size="14.00">~</text>
<text xml:space="preserve" text-anchor="middle" x="63" y="-433.06" font-family="Times,serif" font-size="14.00">Normal</text>
</g>
<!-- psi -->
<g id="node3" class="node">
<title>psi</title>
<polygon fill="none" stroke="black" points="108.12,-353.54 17.88,-353.54 17.88,-296.04 108.12,-296.04 108.12,-353.54"/>
<text xml:space="preserve" text-anchor="middle" x="63" y="-336.24" font-family="Times,serif" font-size="14.00">psi</text>
<text xml:space="preserve" text-anchor="middle" x="63" y="-319.74" font-family="Times,serif" font-size="14.00">~</text>
<text xml:space="preserve" text-anchor="middle" x="63" y="-303.24" font-family="Times,serif" font-size="14.00">Deterministic</text>
</g>
<!-- Beta&#45;&gt;psi -->
<g id="edge1" class="edge">
<title>Beta&#45;&gt;psi</title>
<path fill="none" stroke="black" d="M63,-413.52C63,-398.12 63,-380.56 63,-365.22"/>
<polygon fill="black" stroke="black" points="66.5,-365.51 63,-355.51 59.5,-365.51 66.5,-365.51"/>
</g>
<!-- z -->
<g id="node2" class="node">
<title>z</title>
<ellipse fill="none" stroke="black" cx="63" cy="-202.98" rx="47.38" ry="40.66"/>
<text xml:space="preserve" text-anchor="middle" x="63" y="-214.43" font-family="Times,serif" font-size="14.00">z</text>
<text xml:space="preserve" text-anchor="middle" x="63" y="-197.93" font-family="Times,serif" font-size="14.00">~</text>
<text xml:space="preserve" text-anchor="middle" x="63" y="-181.43" font-family="Times,serif" font-size="14.00">Bernoulli</text>
</g>
<!-- y -->
<g id="node5" class="node">
<title>y</title>
<ellipse fill="lightgrey" stroke="black" cx="181" cy="-81.16" rx="47.38" ry="40.66"/>
<text xml:space="preserve" text-anchor="middle" x="181" y="-92.61" font-family="Times,serif" font-size="14.00">y</text>
<text xml:space="preserve" text-anchor="middle" x="181" y="-76.11" font-family="Times,serif" font-size="14.00">~</text>
<text xml:space="preserve" text-anchor="middle" x="181" y="-59.61" font-family="Times,serif" font-size="14.00">Bernoulli</text>
</g>
<!-- z&#45;&gt;y -->
<g id="edge4" class="edge">
<title>z&#45;&gt;y</title>
<path fill="none" stroke="black" d="M88.08,-168.42C98.09,-155.82 110.06,-141.68 122,-129.82 126.67,-125.18 131.76,-120.54 136.93,-116.07"/>
<polygon fill="black" stroke="black" points="139.09,-118.82 144.5,-109.71 134.59,-113.46 139.09,-118.82"/>
</g>
<!-- psi&#45;&gt;z -->
<g id="edge3" class="edge">
<title>psi&#45;&gt;z</title>
<path fill="none" stroke="black" d="M63,-295.7C63,-283.6 63,-269.05 63,-255.15"/>
<polygon fill="black" stroke="black" points="66.5,-255.2 63,-245.2 59.5,-255.2 66.5,-255.2"/>
</g>
<!-- Alpha -->
<g id="node4" class="node">
<title>Alpha</title>
<ellipse fill="none" stroke="black" cx="181" cy="-324.79" rx="41.01" ry="40.66"/>
<text xml:space="preserve" text-anchor="middle" x="181" y="-336.24" font-family="Times,serif" font-size="14.00">Alpha</text>
<text xml:space="preserve" text-anchor="middle" x="181" y="-319.74" font-family="Times,serif" font-size="14.00">~</text>
<text xml:space="preserve" text-anchor="middle" x="181" y="-303.24" font-family="Times,serif" font-size="14.00">Normal</text>
</g>
<!-- p -->
<g id="node6" class="node">
<title>p</title>
<polygon fill="none" stroke="black" points="226.12,-231.73 135.88,-231.73 135.88,-174.23 226.12,-174.23 226.12,-231.73"/>
<text xml:space="preserve" text-anchor="middle" x="181" y="-214.43" font-family="Times,serif" font-size="14.00">p</text>
<text xml:space="preserve" text-anchor="middle" x="181" y="-197.93" font-family="Times,serif" font-size="14.00">~</text>
<text xml:space="preserve" text-anchor="middle" x="181" y="-181.43" font-family="Times,serif" font-size="14.00">Deterministic</text>
</g>
<!-- Alpha&#45;&gt;p -->
<g id="edge2" class="edge">
<title>Alpha&#45;&gt;p</title>
<path fill="none" stroke="black" d="M181,-283.9C181,-270.87 181,-256.41 181,-243.41"/>
<polygon fill="black" stroke="black" points="184.5,-243.48 181,-233.48 177.5,-243.48 184.5,-243.48"/>
</g>
<!-- p&#45;&gt;y -->
<g id="edge5" class="edge">
<title>p&#45;&gt;y</title>
<path fill="none" stroke="black" d="M181,-173.88C181,-161.78 181,-147.23 181,-133.33"/>
<polygon fill="black" stroke="black" points="184.5,-133.38 181,-123.38 177.5,-133.38 184.5,-133.38"/>
</g>
</g>
</svg>
