<?xml version="1.0" encoding="UTF-8" standalone="no"?>
<!DOCTYPE svg PUBLIC "-//W3C//DTD SVG 1.1//EN"
 "http://www.w3.org/Graphics/SVG/1.1/DTD/svg11.dtd">
<!-- Generated by graphviz version 13.1.2 (0)
 -->
<!-- Pages: 1 -->
<svg width="252pt" height="364pt"
 viewBox="0.00 0.00 252.00 364.00" xmlns="http://www.w3.org/2000/svg" xmlns:xlink="http://www.w3.org/1999/xlink">
<g id="graph0" class="graph" transform="scale(1 1) rotate(0) translate(4 360.45)">
<polygon fill="white" stroke="none" points="-4,4 -4,-360.45 247.74,-360.45 247.74,4 -4,4"/>
<g id="clust1" class="cluster">
<title>cluster200</title>
<path fill="none" stroke="black" d="M111.72,-8C111.72,-8 193.72,-8 193.72,-8 199.72,-8 205.72,-14 205.72,-20 205.72,-20 205.72,-223.23 205.72,-223.23 205.72,-229.23 199.72,-235.23 193.72,-235.23 193.72,-235.23 111.72,-235.23 111.72,-235.23 105.72,-235.23 99.72,-229.23 99.72,-223.23 99.72,-223.23 99.72,-20 99.72,-20 99.72,-14 105.72,-8 111.72,-8"/>
<text xml:space="preserve" text-anchor="middle" x="187.6" y="-15.2" font-family="Times,serif" font-size="14.00">200</text>
</g>
<!-- p -->
<g id="node1" class="node">
<title>p</title>
<ellipse fill="none" stroke="black" cx="44.72" cy="-198.48" rx="44.72" ry="40.66"/>
<text xml:space="preserve" text-anchor="middle" x="44.72" y="-209.93" font-family="Times,serif" font-size="14.00">p</text>
<text xml:space="preserve" text-anchor="middle" x="44.72" y="-193.43" font-family="Times,serif" font-size="14.00">~</text>
<text xml:space="preserve" text-anchor="middle" x="44.72" y="-176.93" font-family="Times,serif" font-size="14.00">Uniform</text>
</g>
<!-- y -->
<g id="node5" class="node">
<title>y</title>
<ellipse fill="lightgrey" stroke="black" cx="151.72" cy="-81.16" rx="42.6" ry="40.66"/>
<text xml:space="preserve" text-anchor="middle" x="151.72" y="-92.61" font-family="Times,serif" font-size="14.00">y</text>
<text xml:space="preserve" text-anchor="middle" x="151.72" y="-76.11" font-family="Times,serif" font-size="14.00">~</text>
<text xml:space="preserve" text-anchor="middle" x="151.72" y="-59.61" font-family="Times,serif" font-size="14.00">Mixture</text>
</g>
<!-- p&#45;&gt;y -->
<g id="edge3" class="edge">
<title>p&#45;&gt;y</title>
<path fill="none" stroke="black" d="M73.12,-166.88C86.39,-152.58 102.32,-135.4 116.36,-120.27"/>
<polygon fill="black" stroke="black" points="118.67,-122.92 122.91,-113.21 113.54,-118.16 118.67,-122.92"/>
</g>
<!-- beta1 -->
<g id="node2" class="node">
<title>beta1</title>
<ellipse fill="none" stroke="black" cx="102.72" cy="-315.79" rx="41.01" ry="40.66"/>
<text xml:space="preserve" text-anchor="middle" x="102.72" y="-327.24" font-family="Times,serif" font-size="14.00">beta1</text>
<text xml:space="preserve" text-anchor="middle" x="102.72" y="-310.74" font-family="Times,serif" font-size="14.00">~</text>
<text xml:space="preserve" text-anchor="middle" x="102.72" y="-294.24" font-family="Times,serif" font-size="14.00">Normal</text>
</g>
<!-- psi -->
<g id="node4" class="node">
<title>psi</title>
<polygon fill="none" stroke="black" points="197.85,-227.23 107.6,-227.23 107.6,-169.73 197.85,-169.73 197.85,-227.23"/>
<text xml:space="preserve" text-anchor="middle" x="152.72" y="-209.93" font-family="Times,serif" font-size="14.00">psi</text>
<text xml:space="preserve" text-anchor="middle" x="152.72" y="-193.43" font-family="Times,serif" font-size="14.00">~</text>
<text xml:space="preserve" text-anchor="middle" x="152.72" y="-176.93" font-family="Times,serif" font-size="14.00">Deterministic</text>
</g>
<!-- beta1&#45;&gt;psi -->
<g id="edge1" class="edge">
<title>beta1&#45;&gt;psi</title>
<path fill="none" stroke="black" d="M118.68,-277.99C124.22,-265.22 130.44,-250.87 136.04,-237.97"/>
<polygon fill="black" stroke="black" points="139.19,-239.49 139.96,-228.92 132.77,-236.7 139.19,-239.49"/>
</g>
<!-- beta0 -->
<g id="node3" class="node">
<title>beta0</title>
<ellipse fill="none" stroke="black" cx="202.72" cy="-315.79" rx="41.01" ry="40.66"/>
<text xml:space="preserve" text-anchor="middle" x="202.72" y="-327.24" font-family="Times,serif" font-size="14.00">beta0</text>
<text xml:space="preserve" text-anchor="middle" x="202.72" y="-310.74" font-family="Times,serif" font-size="14.00">~</text>
<text xml:space="preserve" text-anchor="middle" x="202.72" y="-294.24" font-family="Times,serif" font-size="14.00">Normal</text>
</g>
<!-- beta0&#45;&gt;psi -->
<g id="edge2" class="edge">
<title>beta0&#45;&gt;psi</title>
<path fill="none" stroke="black" d="M186.77,-277.99C181.23,-265.22 175.01,-250.87 169.41,-237.97"/>
<polygon fill="black" stroke="black" points="172.68,-236.7 165.49,-228.92 166.26,-239.49 172.68,-236.7"/>
</g>
<!-- psi&#45;&gt;y -->
<g id="edge4" class="edge">
<title>psi&#45;&gt;y</title>
<path fill="none" stroke="black" d="M152.48,-169.27C152.39,-158.44 152.28,-145.73 152.17,-133.41"/>
<polygon fill="black" stroke="black" points="155.67,-133.75 152.09,-123.78 148.67,-133.81 155.67,-133.75"/>
</g>
</g>
</svg>
