<?xml version="1.0" encoding="UTF-8" standalone="no"?>
<!DOCTYPE svg PUBLIC "-//W3C//DTD SVG 1.1//EN"
 "http://www.w3.org/Graphics/SVG/1.1/DTD/svg11.dtd">
<!-- Generated by graphviz version 13.0.1 (20250615.1724)
 -->
<!-- Pages: 1 -->
<svg width="351pt" height="486pt"
 viewBox="0.00 0.00 351.00 486.00" xmlns="http://www.w3.org/2000/svg" xmlns:xlink="http://www.w3.org/1999/xlink">
<g id="graph0" class="graph" transform="scale(1 1) rotate(0) translate(4 482.27)">
<polygon fill="white" stroke="none" points="-4,4 -4,-482.27 347.02,-482.27 347.02,4 -4,4"/>
<g id="clust1" class="cluster">
<title>cluster200</title>
<path fill="none" stroke="black" d="M48.01,-129.82C48.01,-129.82 134.01,-129.82 134.01,-129.82 140.01,-129.82 146.01,-135.82 146.01,-141.82 146.01,-141.82 146.01,-345.04 146.01,-345.04 146.01,-351.04 140.01,-357.04 134.01,-357.04 134.01,-357.04 48.01,-357.04 48.01,-357.04 42.01,-357.04 36.01,-351.04 36.01,-345.04 36.01,-345.04 36.01,-141.82 36.01,-141.82 36.01,-135.82 42.01,-129.82 48.01,-129.82"/>
<text xml:space="preserve" text-anchor="middle" x="127.89" y="-137.02" font-family="Times,serif" font-size="14.00">200</text>
</g>
<g id="clust2" class="cluster">
<title>cluster200 x 3</title>
<path fill="none" stroke="black" d="M166.01,-8C166.01,-8 252.01,-8 252.01,-8 258.01,-8 264.01,-14 264.01,-20 264.01,-20 264.01,-227.73 264.01,-227.73 264.01,-233.73 258.01,-239.73 252.01,-239.73 252.01,-239.73 166.01,-239.73 166.01,-239.73 160.01,-239.73 154.01,-233.73 154.01,-227.73 154.01,-227.73 154.01,-20 154.01,-20 154.01,-14 160.01,-8 166.01,-8"/>
<text xml:space="preserve" text-anchor="middle" x="235.39" y="-15.2" font-family="Times,serif" font-size="14.00">200 x 3</text>
</g>
<!-- beta1 -->
<g id="node1" class="node">
<title>beta1</title>
<ellipse fill="none" stroke="black" cx="41.01" cy="-437.61" rx="41.01" ry="40.66"/>
<text xml:space="preserve" text-anchor="middle" x="41.01" y="-449.06" font-family="Times,serif" font-size="14.00">beta1</text>
<text xml:space="preserve" text-anchor="middle" x="41.01" y="-432.56" font-family="Times,serif" font-size="14.00">~</text>
<text xml:space="preserve" text-anchor="middle" x="41.01" y="-416.06" font-family="Times,serif" font-size="14.00">Normal</text>
</g>
<!-- psi -->
<g id="node6" class="node">
<title>psi</title>
<polygon fill="none" stroke="black" points="136.14,-349.04 45.89,-349.04 45.89,-291.54 136.14,-291.54 136.14,-349.04"/>
<text xml:space="preserve" text-anchor="middle" x="91.01" y="-331.74" font-family="Times,serif" font-size="14.00">psi</text>
<text xml:space="preserve" text-anchor="middle" x="91.01" y="-315.24" font-family="Times,serif" font-size="14.00">~</text>
<text xml:space="preserve" text-anchor="middle" x="91.01" y="-298.74" font-family="Times,serif" font-size="14.00">Deterministic</text>
</g>
<!-- beta1&#45;&gt;psi -->
<g id="edge1" class="edge">
<title>beta1&#45;&gt;psi</title>
<path fill="none" stroke="black" d="M56.97,-399.81C62.51,-387.04 68.73,-372.69 74.32,-359.78"/>
<polygon fill="black" stroke="black" points="77.48,-361.31 78.24,-350.74 71.06,-358.52 77.48,-361.31"/>
</g>
<!-- alpha1 -->
<g id="node2" class="node">
<title>alpha1</title>
<ellipse fill="none" stroke="black" cx="202.01" cy="-320.29" rx="41.01" ry="40.66"/>
<text xml:space="preserve" text-anchor="middle" x="202.01" y="-331.74" font-family="Times,serif" font-size="14.00">alpha1</text>
<text xml:space="preserve" text-anchor="middle" x="202.01" y="-315.24" font-family="Times,serif" font-size="14.00">~</text>
<text xml:space="preserve" text-anchor="middle" x="202.01" y="-298.74" font-family="Times,serif" font-size="14.00">Normal</text>
</g>
<!-- p -->
<g id="node8" class="node">
<title>p</title>
<polygon fill="none" stroke="black" points="254.14,-231.73 163.89,-231.73 163.89,-174.23 254.14,-174.23 254.14,-231.73"/>
<text xml:space="preserve" text-anchor="middle" x="209.01" y="-214.43" font-family="Times,serif" font-size="14.00">p</text>
<text xml:space="preserve" text-anchor="middle" x="209.01" y="-197.93" font-family="Times,serif" font-size="14.00">~</text>
<text xml:space="preserve" text-anchor="middle" x="209.01" y="-181.43" font-family="Times,serif" font-size="14.00">Deterministic</text>
</g>
<!-- alpha1&#45;&gt;p -->
<g id="edge4" class="edge">
<title>alpha1&#45;&gt;p</title>
<path fill="none" stroke="black" d="M204.44,-279.28C205.15,-267.58 205.93,-254.79 206.64,-243.14"/>
<polygon fill="black" stroke="black" points="210.11,-243.64 207.22,-233.45 203.12,-243.22 210.11,-243.64"/>
</g>
<!-- alpha0 -->
<g id="node3" class="node">
<title>alpha0</title>
<ellipse fill="none" stroke="black" cx="302.01" cy="-320.29" rx="41.01" ry="40.66"/>
<text xml:space="preserve" text-anchor="middle" x="302.01" y="-331.74" font-family="Times,serif" font-size="14.00">alpha0</text>
<text xml:space="preserve" text-anchor="middle" x="302.01" y="-315.24" font-family="Times,serif" font-size="14.00">~</text>
<text xml:space="preserve" text-anchor="middle" x="302.01" y="-298.74" font-family="Times,serif" font-size="14.00">Normal</text>
</g>
<!-- alpha0&#45;&gt;p -->
<g id="edge3" class="edge">
<title>alpha0&#45;&gt;p</title>
<path fill="none" stroke="black" d="M276.6,-287.78C264.82,-273.18 250.75,-255.73 238.51,-240.55"/>
<polygon fill="black" stroke="black" points="241.49,-238.67 232.49,-233.09 236.04,-243.07 241.49,-238.67"/>
</g>
<!-- beta0 -->
<g id="node4" class="node">
<title>beta0</title>
<ellipse fill="none" stroke="black" cx="141.01" cy="-437.61" rx="41.01" ry="40.66"/>
<text xml:space="preserve" text-anchor="middle" x="141.01" y="-449.06" font-family="Times,serif" font-size="14.00">beta0</text>
<text xml:space="preserve" text-anchor="middle" x="141.01" y="-432.56" font-family="Times,serif" font-size="14.00">~</text>
<text xml:space="preserve" text-anchor="middle" x="141.01" y="-416.06" font-family="Times,serif" font-size="14.00">Normal</text>
</g>
<!-- beta0&#45;&gt;psi -->
<g id="edge2" class="edge">
<title>beta0&#45;&gt;psi</title>
<path fill="none" stroke="black" d="M125.05,-399.81C119.52,-387.04 113.3,-372.69 107.7,-359.78"/>
<polygon fill="black" stroke="black" points="110.97,-358.52 103.78,-350.74 104.55,-361.31 110.97,-358.52"/>
</g>
<!-- z -->
<g id="node5" class="node">
<title>z</title>
<ellipse fill="none" stroke="black" cx="91.01" cy="-202.98" rx="47.38" ry="40.66"/>
<text xml:space="preserve" text-anchor="middle" x="91.01" y="-214.43" font-family="Times,serif" font-size="14.00">z</text>
<text xml:space="preserve" text-anchor="middle" x="91.01" y="-197.93" font-family="Times,serif" font-size="14.00">~</text>
<text xml:space="preserve" text-anchor="middle" x="91.01" y="-181.43" font-family="Times,serif" font-size="14.00">Bernoulli</text>
</g>
<!-- y -->
<g id="node7" class="node">
<title>y</title>
<ellipse fill="lightgrey" stroke="black" cx="209.01" cy="-81.16" rx="47.38" ry="40.66"/>
<text xml:space="preserve" text-anchor="middle" x="209.01" y="-92.61" font-family="Times,serif" font-size="14.00">y</text>
<text xml:space="preserve" text-anchor="middle" x="209.01" y="-76.11" font-family="Times,serif" font-size="14.00">~</text>
<text xml:space="preserve" text-anchor="middle" x="209.01" y="-59.61" font-family="Times,serif" font-size="14.00">Bernoulli</text>
</g>
<!-- z&#45;&gt;y -->
<g id="edge6" class="edge">
<title>z&#45;&gt;y</title>
<path fill="none" stroke="black" d="M116.09,-168.42C126.1,-155.82 138.08,-141.68 150.01,-129.82 154.68,-125.18 159.77,-120.54 164.95,-116.07"/>
<polygon fill="black" stroke="black" points="167.1,-118.82 172.51,-109.71 162.6,-113.46 167.1,-118.82"/>
</g>
<!-- psi&#45;&gt;z -->
<g id="edge5" class="edge">
<title>psi&#45;&gt;z</title>
<path fill="none" stroke="black" d="M91.01,-291.08C91.01,-280.26 91.01,-267.55 91.01,-255.23"/>
<polygon fill="black" stroke="black" points="94.51,-255.6 91.01,-245.6 87.51,-255.6 94.51,-255.6"/>
</g>
<!-- p&#45;&gt;y -->
<g id="edge7" class="edge">
<title>p&#45;&gt;y</title>
<path fill="none" stroke="black" d="M209.01,-173.88C209.01,-161.78 209.01,-147.23 209.01,-133.33"/>
<polygon fill="black" stroke="black" points="212.51,-133.38 209.01,-123.38 205.51,-133.38 212.51,-133.38"/>
</g>
</g>
</svg>
