<?xml version="1.0" encoding="UTF-8" standalone="no"?>
<!DOCTYPE svg PUBLIC "-//W3C//DTD SVG 1.1//EN"
 "http://www.w3.org/Graphics/SVG/1.1/DTD/svg11.dtd">
<!-- Generated by graphviz version 14.1.1 (20251213.1925)
 -->
<!-- Pages: 1 -->
<svg width="204pt" height="247pt"
 viewBox="0.00 0.00 204.00 247.00" xmlns="http://www.w3.org/2000/svg" xmlns:xlink="http://www.w3.org/1999/xlink">
<g id="graph0" class="graph" transform="scale(1 1) rotate(0) translate(4 243.13)">
<polygon fill="white" stroke="none" points="-4,4 -4,-243.13 200.45,-243.13 200.45,4 -4,4"/>
<g id="clust1" class="cluster">
<title>cluster200</title>
<path fill="none" stroke="black" d="M59.72,-8C59.72,-8 137.72,-8 137.72,-8 143.72,-8 149.72,-14 149.72,-20 149.72,-20 149.72,-117.82 149.72,-117.82 149.72,-123.82 143.72,-129.82 137.72,-129.82 137.72,-129.82 59.72,-129.82 59.72,-129.82 53.72,-129.82 47.72,-123.82 47.72,-117.82 47.72,-117.82 47.72,-20 47.72,-20 47.72,-14 53.72,-8 59.72,-8"/>
<text xml:space="preserve" text-anchor="middle" x="131.6" y="-15.2" font-family="Times,serif" font-size="14.00">200</text>
</g>
<!-- psi -->
<g id="node1" class="node">
<title>psi</title>
<ellipse fill="none" stroke="black" cx="44.72" cy="-198.48" rx="44.72" ry="40.66"/>
<text xml:space="preserve" text-anchor="middle" x="44.72" y="-209.93" font-family="Times,serif" font-size="14.00">psi</text>
<text xml:space="preserve" text-anchor="middle" x="44.72" y="-193.43" font-family="Times,serif" font-size="14.00">~</text>
<text xml:space="preserve" text-anchor="middle" x="44.72" y="-176.93" font-family="Times,serif" font-size="14.00">Uniform</text>
</g>
<!-- y -->
<g id="node3" class="node">
<title>y</title>
<ellipse fill="lightgrey" stroke="black" cx="98.72" cy="-81.16" rx="42.6" ry="40.66"/>
<text xml:space="preserve" text-anchor="middle" x="98.72" y="-92.61" font-family="Times,serif" font-size="14.00">y</text>
<text xml:space="preserve" text-anchor="middle" x="98.72" y="-76.11" font-family="Times,serif" font-size="14.00">~</text>
<text xml:space="preserve" text-anchor="middle" x="98.72" y="-59.61" font-family="Times,serif" font-size="14.00">Mixture</text>
</g>
<!-- psi&#45;&gt;y -->
<g id="edge1" class="edge">
<title>psi&#45;&gt;y</title>
<path fill="none" stroke="black" d="M61.96,-160.67C66.68,-150.59 71.86,-139.52 76.81,-128.95"/>
<polygon fill="black" stroke="black" points="79.94,-130.52 81.01,-119.98 73.6,-127.56 79.94,-130.52"/>
</g>
<!-- p -->
<g id="node2" class="node">
<title>p</title>
<ellipse fill="none" stroke="black" cx="151.72" cy="-198.48" rx="44.72" ry="40.66"/>
<text xml:space="preserve" text-anchor="middle" x="151.72" y="-209.93" font-family="Times,serif" font-size="14.00">p</text>
<text xml:space="preserve" text-anchor="middle" x="151.72" y="-193.43" font-family="Times,serif" font-size="14.00">~</text>
<text xml:space="preserve" text-anchor="middle" x="151.72" y="-176.93" font-family="Times,serif" font-size="14.00">Uniform</text>
</g>
<!-- p&#45;&gt;y -->
<g id="edge2" class="edge">
<title>p&#45;&gt;y</title>
<path fill="none" stroke="black" d="M134.81,-160.67C130.17,-150.59 125.09,-139.52 120.23,-128.95"/>
<polygon fill="black" stroke="black" points="123.47,-127.61 116.11,-119.99 117.11,-130.54 123.47,-127.61"/>
</g>
</g>
</svg>
