<?xml version="1.0" encoding="UTF-8" standalone="no"?>
<!DOCTYPE svg PUBLIC "-//W3C//DTD SVG 1.1//EN"
 "http://www.w3.org/Graphics/SVG/1.1/DTD/svg11.dtd">
<!-- Generated by graphviz version 8.1.0 (0)
 -->
<!-- Pages: 1 -->
<svg width="286pt" height="364pt"
 viewBox="0.00 0.00 285.72 364.45" xmlns="http://www.w3.org/2000/svg" xmlns:xlink="http://www.w3.org/1999/xlink">
<g id="graph0" class="graph" transform="scale(1 1) rotate(0) translate(4 360.45)">
<polygon fill="white" stroke="none" points="-4,4 -4,-360.45 281.72,-360.45 281.72,4 -4,4"/>
<g id="clust1" class="cluster">
<title>cluster200</title>
<path fill="none" stroke="black" d="M20,-8C20,-8 168,-8 168,-8 174,-8 180,-14 180,-20 180,-20 180,-223.23 180,-223.23 180,-229.23 174,-235.23 168,-235.23 168,-235.23 20,-235.23 20,-235.23 14,-235.23 8,-229.23 8,-223.23 8,-223.23 8,-20 8,-20 8,-14 14,-8 20,-8"/>
<text text-anchor="middle" x="161.88" y="-15.2" font-family="Times,serif" font-size="14.00">200</text>
</g>
<!-- beta1 -->
<g id="node1" class="node">
<title>beta1</title>
<ellipse fill="none" stroke="black" cx="44" cy="-315.79" rx="41.01" ry="40.66"/>
<text text-anchor="middle" x="44" y="-327.24" font-family="Times,serif" font-size="14.00">beta1</text>
<text text-anchor="middle" x="44" y="-310.74" font-family="Times,serif" font-size="14.00">~</text>
<text text-anchor="middle" x="44" y="-294.24" font-family="Times,serif" font-size="14.00">Normal</text>
</g>
<!-- psi -->
<g id="node4" class="node">
<title>psi</title>
<polygon fill="none" stroke="black" points="139.12,-227.23 48.88,-227.23 48.88,-169.73 139.12,-169.73 139.12,-227.23"/>
<text text-anchor="middle" x="94" y="-209.93" font-family="Times,serif" font-size="14.00">psi</text>
<text text-anchor="middle" x="94" y="-193.43" font-family="Times,serif" font-size="14.00">~</text>
<text text-anchor="middle" x="94" y="-176.93" font-family="Times,serif" font-size="14.00">Deterministic</text>
</g>
<!-- beta1&#45;&gt;psi -->
<g id="edge1" class="edge">
<title>beta1&#45;&gt;psi</title>
<path fill="none" stroke="black" d="M59.96,-277.99C65.55,-265.09 71.84,-250.58 77.48,-237.58"/>
<polygon fill="black" stroke="black" points="81.07,-239.1 81.83,-228.53 74.65,-236.32 81.07,-239.1"/>
</g>
<!-- beta0 -->
<g id="node2" class="node">
<title>beta0</title>
<ellipse fill="none" stroke="black" cx="144" cy="-315.79" rx="41.01" ry="40.66"/>
<text text-anchor="middle" x="144" y="-327.24" font-family="Times,serif" font-size="14.00">beta0</text>
<text text-anchor="middle" x="144" y="-310.74" font-family="Times,serif" font-size="14.00">~</text>
<text text-anchor="middle" x="144" y="-294.24" font-family="Times,serif" font-size="14.00">Normal</text>
</g>
<!-- beta0&#45;&gt;psi -->
<g id="edge2" class="edge">
<title>beta0&#45;&gt;psi</title>
<path fill="none" stroke="black" d="M128.04,-277.99C122.45,-265.09 116.16,-250.58 110.52,-237.58"/>
<polygon fill="black" stroke="black" points="113.35,-236.32 106.17,-228.53 106.93,-239.1 113.35,-236.32"/>
</g>
<!-- p -->
<g id="node3" class="node">
<title>p</title>
<ellipse fill="none" stroke="black" cx="233" cy="-198.48" rx="44.72" ry="40.66"/>
<text text-anchor="middle" x="233" y="-209.93" font-family="Times,serif" font-size="14.00">p</text>
<text text-anchor="middle" x="233" y="-193.43" font-family="Times,serif" font-size="14.00">~</text>
<text text-anchor="middle" x="233" y="-176.93" font-family="Times,serif" font-size="14.00">Uniform</text>
</g>
<!-- y -->
<g id="node5" class="node">
<title>y</title>
<ellipse fill="lightgrey" stroke="black" cx="94" cy="-81.16" rx="78.14" ry="40.66"/>
<text text-anchor="middle" x="94" y="-92.61" font-family="Times,serif" font-size="14.00">y</text>
<text text-anchor="middle" x="94" y="-76.11" font-family="Times,serif" font-size="14.00">~</text>
<text text-anchor="middle" x="94" y="-59.61" font-family="Times,serif" font-size="14.00">MarginalMixture</text>
</g>
<!-- p&#45;&gt;y -->
<g id="edge4" class="edge">
<title>p&#45;&gt;y</title>
<path fill="none" stroke="black" d="M200.41,-170.44C183.36,-156.29 162.12,-138.67 143.12,-122.91"/>
<polygon fill="black" stroke="black" points="145.78,-119.74 135.85,-116.05 141.31,-125.13 145.78,-119.74"/>
</g>
<!-- psi&#45;&gt;y -->
<g id="edge3" class="edge">
<title>psi&#45;&gt;y</title>
<path fill="none" stroke="black" d="M94,-169.27C94,-158.33 94,-145.47 94,-133.03"/>
<polygon fill="black" stroke="black" points="97.5,-133.27 94,-123.27 90.5,-133.27 97.5,-133.27"/>
</g>
</g>
</svg>
