<?xml version="1.0" encoding="UTF-8" standalone="no"?>
<!DOCTYPE svg PUBLIC "-//W3C//DTD SVG 1.1//EN"
 "http://www.w3.org/Graphics/SVG/1.1/DTD/svg11.dtd">
<!-- Generated by graphviz version 8.1.0 (0)
 -->
<!-- Pages: 1 -->
<svg width="204pt" height="247pt"
 viewBox="0.00 0.00 204.45 247.13" xmlns="http://www.w3.org/2000/svg" xmlns:xlink="http://www.w3.org/1999/xlink">
<g id="graph0" class="graph" transform="scale(1 1) rotate(0) translate(4 243.13)">
<polygon fill="white" stroke="none" points="-4,4 -4,-243.13 200.45,-243.13 200.45,4 -4,4"/>
<g id="clust1" class="cluster">
<title>cluster200</title>
<path fill="none" stroke="black" d="M23.72,-8C23.72,-8 171.72,-8 171.72,-8 177.72,-8 183.72,-14 183.72,-20 183.72,-20 183.72,-117.82 183.72,-117.82 183.72,-123.82 177.72,-129.82 171.72,-129.82 171.72,-129.82 23.72,-129.82 23.72,-129.82 17.72,-129.82 11.72,-123.82 11.72,-117.82 11.72,-117.82 11.72,-20 11.72,-20 11.72,-14 17.72,-8 23.72,-8"/>
<text text-anchor="middle" x="165.6" y="-15.2" font-family="Times,serif" font-size="14.00">200</text>
</g>
<!-- psi -->
<g id="node1" class="node">
<title>psi</title>
<ellipse fill="none" stroke="black" cx="44.72" cy="-198.48" rx="44.72" ry="40.66"/>
<text text-anchor="middle" x="44.72" y="-209.93" font-family="Times,serif" font-size="14.00">psi</text>
<text text-anchor="middle" x="44.72" y="-193.43" font-family="Times,serif" font-size="14.00">~</text>
<text text-anchor="middle" x="44.72" y="-176.93" font-family="Times,serif" font-size="14.00">Uniform</text>
</g>
<!-- y -->
<g id="node3" class="node">
<title>y</title>
<ellipse fill="lightgrey" stroke="black" cx="97.72" cy="-81.16" rx="78.14" ry="40.66"/>
<text text-anchor="middle" x="97.72" y="-92.61" font-family="Times,serif" font-size="14.00">y</text>
<text text-anchor="middle" x="97.72" y="-76.11" font-family="Times,serif" font-size="14.00">~</text>
<text text-anchor="middle" x="97.72" y="-59.61" font-family="Times,serif" font-size="14.00">MarginalMixture</text>
</g>
<!-- psi&#45;&gt;y -->
<g id="edge1" class="edge">
<title>psi&#45;&gt;y</title>
<path fill="none" stroke="black" d="M61.64,-160.67C66,-151.18 70.77,-140.82 75.36,-130.82"/>
<polygon fill="black" stroke="black" points="78.88,-132.55 79.87,-122 72.52,-129.62 78.88,-132.55"/>
</g>
<!-- p -->
<g id="node2" class="node">
<title>p</title>
<ellipse fill="none" stroke="black" cx="151.72" cy="-198.48" rx="44.72" ry="40.66"/>
<text text-anchor="middle" x="151.72" y="-209.93" font-family="Times,serif" font-size="14.00">p</text>
<text text-anchor="middle" x="151.72" y="-193.43" font-family="Times,serif" font-size="14.00">~</text>
<text text-anchor="middle" x="151.72" y="-176.93" font-family="Times,serif" font-size="14.00">Uniform</text>
</g>
<!-- p&#45;&gt;y -->
<g id="edge2" class="edge">
<title>p&#45;&gt;y</title>
<path fill="none" stroke="black" d="M134.49,-160.67C130.05,-151.18 125.19,-140.82 120.51,-130.82"/>
<polygon fill="black" stroke="black" points="123.32,-129.57 115.91,-122 116.98,-132.54 123.32,-129.57"/>
</g>
</g>
</svg>
