<?xml version="1.0" encoding="UTF-8" standalone="no"?>
<!DOCTYPE svg PUBLIC "-//W3C//DTD SVG 1.1//EN"
 "http://www.w3.org/Graphics/SVG/1.1/DTD/svg11.dtd">
<!-- Generated by graphviz version 9.0.0 (20230911.1827)
 -->
<!-- Pages: 1 -->
<svg width="286pt" height="364pt"
 viewBox="0.00 0.00 285.72 364.45" xmlns="http://www.w3.org/2000/svg" xmlns:xlink="http://www.w3.org/1999/xlink">
<g id="graph0" class="graph" transform="scale(1 1) rotate(0) translate(4 360.45)">
<polygon fill="white" stroke="none" points="-4,4 -4,-360.45 281.72,-360.45 281.72,4 -4,4"/>
<g id="clust1" class="cluster">
<title>cluster200</title>
<path fill="none" stroke="black" d="M109.72,-8C109.72,-8 257.72,-8 257.72,-8 263.72,-8 269.72,-14 269.72,-20 269.72,-20 269.72,-223.23 269.72,-223.23 269.72,-229.23 263.72,-235.23 257.72,-235.23 257.72,-235.23 109.72,-235.23 109.72,-235.23 103.72,-235.23 97.72,-229.23 97.72,-223.23 97.72,-223.23 97.72,-20 97.72,-20 97.72,-14 103.72,-8 109.72,-8"/>
<text text-anchor="middle" x="251.6" y="-15.2" font-family="Times,serif" font-size="14.00">200</text>
</g>
<!-- p -->
<g id="node1" class="node">
<title>p</title>
<ellipse fill="none" stroke="black" cx="44.72" cy="-198.48" rx="44.72" ry="40.66"/>
<text text-anchor="middle" x="44.72" y="-209.93" font-family="Times,serif" font-size="14.00">p</text>
<text text-anchor="middle" x="44.72" y="-193.43" font-family="Times,serif" font-size="14.00">~</text>
<text text-anchor="middle" x="44.72" y="-176.93" font-family="Times,serif" font-size="14.00">Uniform</text>
</g>
<!-- y -->
<g id="node4" class="node">
<title>y</title>
<ellipse fill="lightgrey" stroke="black" cx="183.72" cy="-81.16" rx="78.14" ry="40.66"/>
<text text-anchor="middle" x="183.72" y="-92.61" font-family="Times,serif" font-size="14.00">y</text>
<text text-anchor="middle" x="183.72" y="-76.11" font-family="Times,serif" font-size="14.00">~</text>
<text text-anchor="middle" x="183.72" y="-59.61" font-family="Times,serif" font-size="14.00">MarginalMixture</text>
</g>
<!-- p&#45;&gt;y -->
<g id="edge3" class="edge">
<title>p&#45;&gt;y</title>
<path fill="none" stroke="black" d="M77.31,-170.44C94.22,-156.42 115.22,-138.99 134.09,-123.33"/>
<polygon fill="black" stroke="black" points="136.25,-126.09 141.71,-117.02 131.78,-120.71 136.25,-126.09"/>
</g>
<!-- beta0 -->
<g id="node2" class="node">
<title>beta0</title>
<ellipse fill="none" stroke="black" cx="133.72" cy="-315.79" rx="41.01" ry="40.66"/>
<text text-anchor="middle" x="133.72" y="-327.24" font-family="Times,serif" font-size="14.00">beta0</text>
<text text-anchor="middle" x="133.72" y="-310.74" font-family="Times,serif" font-size="14.00">~</text>
<text text-anchor="middle" x="133.72" y="-294.24" font-family="Times,serif" font-size="14.00">Normal</text>
</g>
<!-- psi -->
<g id="node5" class="node">
<title>psi</title>
<polygon fill="none" stroke="black" points="228.85,-227.23 138.6,-227.23 138.6,-169.73 228.85,-169.73 228.85,-227.23"/>
<text text-anchor="middle" x="183.72" y="-209.93" font-family="Times,serif" font-size="14.00">psi</text>
<text text-anchor="middle" x="183.72" y="-193.43" font-family="Times,serif" font-size="14.00">~</text>
<text text-anchor="middle" x="183.72" y="-176.93" font-family="Times,serif" font-size="14.00">Deterministic</text>
</g>
<!-- beta0&#45;&gt;psi -->
<g id="edge1" class="edge">
<title>beta0&#45;&gt;psi</title>
<path fill="none" stroke="black" d="M149.68,-277.99C155.22,-265.22 161.44,-250.87 167.04,-237.97"/>
<polygon fill="black" stroke="black" points="170.19,-239.49 170.96,-228.92 163.77,-236.7 170.19,-239.49"/>
</g>
<!-- beta1 -->
<g id="node3" class="node">
<title>beta1</title>
<ellipse fill="none" stroke="black" cx="233.72" cy="-315.79" rx="41.01" ry="40.66"/>
<text text-anchor="middle" x="233.72" y="-327.24" font-family="Times,serif" font-size="14.00">beta1</text>
<text text-anchor="middle" x="233.72" y="-310.74" font-family="Times,serif" font-size="14.00">~</text>
<text text-anchor="middle" x="233.72" y="-294.24" font-family="Times,serif" font-size="14.00">Normal</text>
</g>
<!-- beta1&#45;&gt;psi -->
<g id="edge2" class="edge">
<title>beta1&#45;&gt;psi</title>
<path fill="none" stroke="black" d="M217.77,-277.99C212.23,-265.22 206.01,-250.87 200.41,-237.97"/>
<polygon fill="black" stroke="black" points="203.68,-236.7 196.49,-228.92 197.26,-239.49 203.68,-236.7"/>
</g>
<!-- psi&#45;&gt;y -->
<g id="edge4" class="edge">
<title>psi&#45;&gt;y</title>
<path fill="none" stroke="black" d="M183.72,-169.27C183.72,-158.44 183.72,-145.73 183.72,-133.41"/>
<polygon fill="black" stroke="black" points="187.22,-133.78 183.72,-123.78 180.22,-133.78 187.22,-133.78"/>
</g>
</g>
</svg>
