<?xml version="1.0" encoding="UTF-8" standalone="no"?>
<!DOCTYPE svg PUBLIC "-//W3C//DTD SVG 1.1//EN"
 "http://www.w3.org/Graphics/SVG/1.1/DTD/svg11.dtd">
<!-- Generated by graphviz version 8.1.0 (0)
 -->
<!-- Pages: 1 -->
<svg width="408pt" height="345pt"
 viewBox="0.00 0.00 408.02 345.13" xmlns="http://www.w3.org/2000/svg" xmlns:xlink="http://www.w3.org/1999/xlink">
<g id="graph0" class="graph" transform="scale(1 1) rotate(0) translate(4 341.13)">
<polygon fill="white" stroke="none" points="-4,4 -4,-341.13 404.02,-341.13 404.02,4 -4,4"/>
<g id="clust1" class="cluster">
<title>cluster200</title>
<path fill="none" stroke="black" d="M91.01,-129.82C91.01,-129.82 173.01,-129.82 173.01,-129.82 179.01,-129.82 185.01,-135.82 185.01,-141.82 185.01,-141.82 185.01,-215.82 185.01,-215.82 185.01,-221.82 179.01,-227.82 173.01,-227.82 173.01,-227.82 91.01,-227.82 91.01,-227.82 85.01,-227.82 79.01,-221.82 79.01,-215.82 79.01,-215.82 79.01,-141.82 79.01,-141.82 79.01,-135.82 85.01,-129.82 91.01,-129.82"/>
<text text-anchor="middle" x="166.89" y="-137.02" font-family="Times,serif" font-size="14.00">200</text>
</g>
<g id="clust2" class="cluster">
<title>cluster200 x 3</title>
<path fill="none" stroke="black" d="M205.01,-8C205.01,-8 331.01,-8 331.01,-8 337.01,-8 343.01,-14 343.01,-20 343.01,-20 343.01,-215.82 343.01,-215.82 343.01,-221.82 337.01,-227.82 331.01,-227.82 331.01,-227.82 205.01,-227.82 205.01,-227.82 199.01,-227.82 193.01,-221.82 193.01,-215.82 193.01,-215.82 193.01,-20 193.01,-20 193.01,-14 199.01,-8 205.01,-8"/>
<text text-anchor="middle" x="314.39" y="-15.2" font-family="Times,serif" font-size="14.00">200 x 3</text>
</g>
<!-- beta1 -->
<g id="node1" class="node">
<title>beta1</title>
<ellipse fill="none" stroke="black" cx="41.01" cy="-296.48" rx="41.01" ry="40.66"/>
<text text-anchor="middle" x="41.01" y="-307.93" font-family="Times,serif" font-size="14.00">beta1</text>
<text text-anchor="middle" x="41.01" y="-291.43" font-family="Times,serif" font-size="14.00">~</text>
<text text-anchor="middle" x="41.01" y="-274.93" font-family="Times,serif" font-size="14.00">Normal</text>
</g>
<!-- psi -->
<g id="node5" class="node">
<title>psi</title>
<polygon fill="none" stroke="black" points="177.14,-219.82 86.89,-219.82 86.89,-162.32 177.14,-162.32 177.14,-219.82"/>
<text text-anchor="middle" x="132.01" y="-202.52" font-family="Times,serif" font-size="14.00">psi</text>
<text text-anchor="middle" x="132.01" y="-186.02" font-family="Times,serif" font-size="14.00">~</text>
<text text-anchor="middle" x="132.01" y="-169.52" font-family="Times,serif" font-size="14.00">Deterministic</text>
</g>
<!-- beta1&#45;&gt;psi -->
<g id="edge1" class="edge">
<title>beta1&#45;&gt;psi</title>
<path fill="none" stroke="black" d="M67.58,-265.29C77.81,-253.66 89.59,-240.27 100.26,-228.15"/>
<polygon fill="black" stroke="black" points="103.46,-230.81 107.44,-220.99 98.2,-226.19 103.46,-230.81"/>
</g>
<!-- beta0 -->
<g id="node2" class="node">
<title>beta0</title>
<ellipse fill="none" stroke="black" cx="141.01" cy="-296.48" rx="41.01" ry="40.66"/>
<text text-anchor="middle" x="141.01" y="-307.93" font-family="Times,serif" font-size="14.00">beta0</text>
<text text-anchor="middle" x="141.01" y="-291.43" font-family="Times,serif" font-size="14.00">~</text>
<text text-anchor="middle" x="141.01" y="-274.93" font-family="Times,serif" font-size="14.00">Normal</text>
</g>
<!-- beta0&#45;&gt;psi -->
<g id="edge2" class="edge">
<title>beta0&#45;&gt;psi</title>
<path fill="none" stroke="black" d="M137.53,-255.5C136.83,-247.46 136.1,-239.03 135.4,-231.03"/>
<polygon fill="black" stroke="black" points="138.81,-230.75 134.45,-221.09 131.83,-231.36 138.81,-230.75"/>
</g>
<!-- alpha1 -->
<g id="node3" class="node">
<title>alpha1</title>
<ellipse fill="none" stroke="black" cx="259.01" cy="-296.48" rx="41.01" ry="40.66"/>
<text text-anchor="middle" x="259.01" y="-307.93" font-family="Times,serif" font-size="14.00">alpha1</text>
<text text-anchor="middle" x="259.01" y="-291.43" font-family="Times,serif" font-size="14.00">~</text>
<text text-anchor="middle" x="259.01" y="-274.93" font-family="Times,serif" font-size="14.00">Normal</text>
</g>
<!-- p -->
<g id="node7" class="node">
<title>p</title>
<polygon fill="none" stroke="black" points="313.14,-219.82 222.89,-219.82 222.89,-162.32 313.14,-162.32 313.14,-219.82"/>
<text text-anchor="middle" x="268.01" y="-202.52" font-family="Times,serif" font-size="14.00">p</text>
<text text-anchor="middle" x="268.01" y="-186.02" font-family="Times,serif" font-size="14.00">~</text>
<text text-anchor="middle" x="268.01" y="-169.52" font-family="Times,serif" font-size="14.00">Deterministic</text>
</g>
<!-- alpha1&#45;&gt;p -->
<g id="edge4" class="edge">
<title>alpha1&#45;&gt;p</title>
<path fill="none" stroke="black" d="M262.49,-255.5C263.19,-247.46 263.93,-239.03 264.62,-231.03"/>
<polygon fill="black" stroke="black" points="268.19,-231.36 265.57,-221.09 261.22,-230.75 268.19,-231.36"/>
</g>
<!-- alpha0 -->
<g id="node4" class="node">
<title>alpha0</title>
<ellipse fill="none" stroke="black" cx="359.01" cy="-296.48" rx="41.01" ry="40.66"/>
<text text-anchor="middle" x="359.01" y="-307.93" font-family="Times,serif" font-size="14.00">alpha0</text>
<text text-anchor="middle" x="359.01" y="-291.43" font-family="Times,serif" font-size="14.00">~</text>
<text text-anchor="middle" x="359.01" y="-274.93" font-family="Times,serif" font-size="14.00">Normal</text>
</g>
<!-- alpha0&#45;&gt;p -->
<g id="edge3" class="edge">
<title>alpha0&#45;&gt;p</title>
<path fill="none" stroke="black" d="M332.45,-265.29C322.22,-253.66 310.43,-240.27 299.76,-228.15"/>
<polygon fill="black" stroke="black" points="301.82,-226.19 292.59,-220.99 296.56,-230.81 301.82,-226.19"/>
</g>
<!-- y -->
<g id="node6" class="node">
<title>y</title>
<ellipse fill="lightgrey" stroke="black" cx="268.01" cy="-81.16" rx="67" ry="40.66"/>
<text text-anchor="middle" x="268.01" y="-92.61" font-family="Times,serif" font-size="14.00">y</text>
<text text-anchor="middle" x="268.01" y="-76.11" font-family="Times,serif" font-size="14.00">~</text>
<text text-anchor="middle" x="268.01" y="-59.61" font-family="Times,serif" font-size="14.00">CustomDist_y</text>
</g>
<!-- psi&#45;&gt;y -->
<g id="edge5" class="edge">
<title>psi&#45;&gt;y</title>
<path fill="none" stroke="black" d="M155.54,-162.11C165.31,-151.37 177.12,-139.39 189.01,-129.82 195.42,-124.66 202.43,-119.66 209.55,-114.95"/>
<polygon fill="black" stroke="black" points="211.05,-117.5 217.58,-109.16 207.27,-111.61 211.05,-117.5"/>
</g>
<!-- p&#45;&gt;y -->
<g id="edge6" class="edge">
<title>p&#45;&gt;y</title>
<path fill="none" stroke="black" d="M268.01,-162C268.01,-153.1 268.01,-142.97 268.01,-132.99"/>
<polygon fill="black" stroke="black" points="271.51,-133.28 268.01,-123.28 264.51,-133.28 271.51,-133.28"/>
</g>
</g>
</svg>
