<?xml version="1.0" encoding="UTF-8" standalone="no"?>
<!DOCTYPE svg PUBLIC "-//W3C//DTD SVG 1.1//EN"
 "http://www.w3.org/Graphics/SVG/1.1/DTD/svg11.dtd">
<!-- Generated by graphviz version 8.1.0 (0)
 -->
<!-- Pages: 1 -->
<svg width="369pt" height="276pt"
 viewBox="0.00 0.00 368.72 275.63" xmlns="http://www.w3.org/2000/svg" xmlns:xlink="http://www.w3.org/1999/xlink">
<g id="graph0" class="graph" transform="scale(1 1) rotate(0) translate(4 271.63)">
<polygon fill="white" stroke="none" points="-4,4 -4,-271.63 364.72,-271.63 364.72,4 -4,4"/>
<g id="clust1" class="cluster">
<title>cluster427</title>
<path fill="none" stroke="black" d="M218.72,-137.82C218.72,-137.82 340.72,-137.82 340.72,-137.82 346.72,-137.82 352.72,-143.82 352.72,-149.82 352.72,-149.82 352.72,-247.63 352.72,-247.63 352.72,-253.63 346.72,-259.63 340.72,-259.63 340.72,-259.63 218.72,-259.63 218.72,-259.63 212.72,-259.63 206.72,-253.63 206.72,-247.63 206.72,-247.63 206.72,-149.82 206.72,-149.82 206.72,-143.82 212.72,-137.82 218.72,-137.82"/>
<text text-anchor="middle" x="334.6" y="-145.02" font-family="Times,serif" font-size="14.00">427</text>
</g>
<g id="clust2" class="cluster">
<title>cluster500</title>
<path fill="none" stroke="black" d="M77.72,-8C77.72,-8 225.72,-8 225.72,-8 231.72,-8 237.72,-14 237.72,-20 237.72,-20 237.72,-117.82 237.72,-117.82 237.72,-123.82 231.72,-129.82 225.72,-129.82 225.72,-129.82 77.72,-129.82 77.72,-129.82 71.72,-129.82 65.72,-123.82 65.72,-117.82 65.72,-117.82 65.72,-20 65.72,-20 65.72,-14 71.72,-8 77.72,-8"/>
<text text-anchor="middle" x="219.6" y="-15.2" font-family="Times,serif" font-size="14.00">500</text>
</g>
<!-- psi -->
<g id="node1" class="node">
<title>psi</title>
<ellipse fill="none" stroke="black" cx="44.72" cy="-210.98" rx="44.72" ry="40.66"/>
<text text-anchor="middle" x="44.72" y="-222.43" font-family="Times,serif" font-size="14.00">psi</text>
<text text-anchor="middle" x="44.72" y="-205.93" font-family="Times,serif" font-size="14.00">~</text>
<text text-anchor="middle" x="44.72" y="-189.43" font-family="Times,serif" font-size="14.00">Uniform</text>
</g>
<!-- y -->
<g id="node4" class="node">
<title>y</title>
<ellipse fill="lightgrey" stroke="black" cx="151.72" cy="-81.16" rx="78.14" ry="40.66"/>
<text text-anchor="middle" x="151.72" y="-92.61" font-family="Times,serif" font-size="14.00">y</text>
<text text-anchor="middle" x="151.72" y="-76.11" font-family="Times,serif" font-size="14.00">~</text>
<text text-anchor="middle" x="151.72" y="-59.61" font-family="Times,serif" font-size="14.00">MarginalMixture</text>
</g>
<!-- psi&#45;&gt;y -->
<g id="edge1" class="edge">
<title>psi&#45;&gt;y</title>
<path fill="none" stroke="black" d="M68.07,-176.2C76.99,-163.84 87.49,-149.92 97.72,-137.82 101.17,-133.75 104.84,-129.6 108.58,-125.5"/>
<polygon fill="black" stroke="black" points="110.58,-128.42 114.84,-118.71 105.46,-123.65 110.58,-128.42"/>
</g>
<!-- sigma -->
<g id="node2" class="node">
<title>sigma</title>
<ellipse fill="none" stroke="black" cx="151.72" cy="-210.98" rx="44.72" ry="40.66"/>
<text text-anchor="middle" x="151.72" y="-222.43" font-family="Times,serif" font-size="14.00">sigma</text>
<text text-anchor="middle" x="151.72" y="-205.93" font-family="Times,serif" font-size="14.00">~</text>
<text text-anchor="middle" x="151.72" y="-189.43" font-family="Times,serif" font-size="14.00">Uniform</text>
</g>
<!-- sigma&#45;&gt;y -->
<g id="edge2" class="edge">
<title>sigma&#45;&gt;y</title>
<path fill="none" stroke="black" d="M151.72,-169.88C151.72,-158.23 151.72,-145.33 151.72,-133.1"/>
<polygon fill="black" stroke="black" points="155.22,-133.11 151.72,-123.11 148.22,-133.11 155.22,-133.11"/>
</g>
<!-- x_unobserved -->
<g id="node3" class="node">
<title>x_unobserved</title>
<ellipse fill="none" stroke="black" cx="279.72" cy="-210.98" rx="64.88" ry="40.66"/>
<text text-anchor="middle" x="279.72" y="-222.43" font-family="Times,serif" font-size="14.00">x_unobserved</text>
<text text-anchor="middle" x="279.72" y="-205.93" font-family="Times,serif" font-size="14.00">~</text>
<text text-anchor="middle" x="279.72" y="-189.43" font-family="Times,serif" font-size="14.00">Uniform</text>
</g>
<!-- x_unobserved&#45;&gt;y -->
<g id="edge3" class="edge">
<title>x_unobserved&#45;&gt;y</title>
<path fill="none" stroke="black" d="M245.76,-176.06C230.09,-160.41 211.31,-141.66 194.67,-125.04"/>
<polygon fill="black" stroke="black" points="197.74,-123.16 188.19,-118.57 192.79,-128.12 197.74,-123.16"/>
</g>
</g>
</svg>
