<?xml version="1.0" encoding="UTF-8" standalone="no"?>
<!DOCTYPE svg PUBLIC "-//W3C//DTD SVG 1.1//EN"
 "http://www.w3.org/Graphics/SVG/1.1/DTD/svg11.dtd">
<!-- Generated by graphviz version 9.0.0 (0)
 -->
<!-- Pages: 1 -->
<svg width="308pt" height="385pt"
 viewBox="0.00 0.00 307.72 384.95" xmlns="http://www.w3.org/2000/svg" xmlns:xlink="http://www.w3.org/1999/xlink">
<g id="graph0" class="graph" transform="scale(1 1) rotate(0) translate(4 380.95)">
<polygon fill="white" stroke="none" points="-4,4 -4,-380.95 303.72,-380.95 303.72,4 -4,4"/>
<g id="clust1" class="cluster">
<title>cluster427</title>
<path fill="none" stroke="black" d="M157.72,-247.13C157.72,-247.13 279.72,-247.13 279.72,-247.13 285.72,-247.13 291.72,-253.13 291.72,-259.13 291.72,-259.13 291.72,-356.95 291.72,-356.95 291.72,-362.95 285.72,-368.95 279.72,-368.95 279.72,-368.95 157.72,-368.95 157.72,-368.95 151.72,-368.95 145.72,-362.95 145.72,-356.95 145.72,-356.95 145.72,-259.13 145.72,-259.13 145.72,-253.13 151.72,-247.13 157.72,-247.13"/>
<text text-anchor="middle" x="273.6" y="-254.33" font-family="Times,serif" font-size="14.00">427</text>
</g>
<g id="clust2" class="cluster">
<title>cluster500</title>
<path fill="none" stroke="black" d="M109.72,-8C109.72,-8 257.72,-8 257.72,-8 263.72,-8 269.72,-14 269.72,-20 269.72,-20 269.72,-223.23 269.72,-223.23 269.72,-229.23 263.72,-235.23 257.72,-235.23 257.72,-235.23 109.72,-235.23 109.72,-235.23 103.72,-235.23 97.72,-229.23 97.72,-223.23 97.72,-223.23 97.72,-20 97.72,-20 97.72,-14 103.72,-8 109.72,-8"/>
<text text-anchor="middle" x="251.6" y="-15.2" font-family="Times,serif" font-size="14.00">500</text>
</g>
<!-- psi -->
<g id="node1" class="node">
<title>psi</title>
<ellipse fill="none" stroke="black" cx="44.72" cy="-198.48" rx="44.72" ry="40.66"/>
<text text-anchor="middle" x="44.72" y="-209.93" font-family="Times,serif" font-size="14.00">psi</text>
<text text-anchor="middle" x="44.72" y="-193.43" font-family="Times,serif" font-size="14.00">~</text>
<text text-anchor="middle" x="44.72" y="-176.93" font-family="Times,serif" font-size="14.00">Uniform</text>
</g>
<!-- y -->
<g id="node4" class="node">
<title>y</title>
<ellipse fill="lightgrey" stroke="black" cx="183.72" cy="-81.16" rx="78.14" ry="40.66"/>
<text text-anchor="middle" x="183.72" y="-92.61" font-family="Times,serif" font-size="14.00">y</text>
<text text-anchor="middle" x="183.72" y="-76.11" font-family="Times,serif" font-size="14.00">~</text>
<text text-anchor="middle" x="183.72" y="-59.61" font-family="Times,serif" font-size="14.00">MarginalMixture</text>
</g>
<!-- psi&#45;&gt;y -->
<g id="edge3" class="edge">
<title>psi&#45;&gt;y</title>
<path fill="none" stroke="black" d="M77.31,-170.44C94.22,-156.42 115.22,-138.99 134.09,-123.33"/>
<polygon fill="black" stroke="black" points="136.25,-126.09 141.71,-117.02 131.78,-120.71 136.25,-126.09"/>
</g>
<!-- sigma -->
<g id="node2" class="node">
<title>sigma</title>
<ellipse fill="none" stroke="black" cx="90.72" cy="-320.29" rx="44.72" ry="40.66"/>
<text text-anchor="middle" x="90.72" y="-331.74" font-family="Times,serif" font-size="14.00">sigma</text>
<text text-anchor="middle" x="90.72" y="-315.24" font-family="Times,serif" font-size="14.00">~</text>
<text text-anchor="middle" x="90.72" y="-298.74" font-family="Times,serif" font-size="14.00">Uniform</text>
</g>
<!-- p -->
<g id="node5" class="node">
<title>p</title>
<polygon fill="none" stroke="black" points="228.85,-227.23 138.6,-227.23 138.6,-169.73 228.85,-169.73 228.85,-227.23"/>
<text text-anchor="middle" x="183.72" y="-209.93" font-family="Times,serif" font-size="14.00">p</text>
<text text-anchor="middle" x="183.72" y="-193.43" font-family="Times,serif" font-size="14.00">~</text>
<text text-anchor="middle" x="183.72" y="-176.93" font-family="Times,serif" font-size="14.00">Deterministic</text>
</g>
<!-- sigma&#45;&gt;p -->
<g id="edge2" class="edge">
<title>sigma&#45;&gt;p</title>
<path fill="none" stroke="black" d="M113.86,-284.97C122.35,-272.81 132.21,-259.17 141.72,-247.13 144.61,-243.48 147.68,-239.74 150.81,-236.04"/>
<polygon fill="black" stroke="black" points="153.27,-238.54 157.13,-228.68 147.96,-233.98 153.27,-238.54"/>
</g>
<!-- x_unobserved -->
<g id="node3" class="node">
<title>x_unobserved</title>
<ellipse fill="none" stroke="black" cx="218.72" cy="-320.29" rx="64.88" ry="40.66"/>
<text text-anchor="middle" x="218.72" y="-331.74" font-family="Times,serif" font-size="14.00">x_unobserved</text>
<text text-anchor="middle" x="218.72" y="-315.24" font-family="Times,serif" font-size="14.00">~</text>
<text text-anchor="middle" x="218.72" y="-298.74" font-family="Times,serif" font-size="14.00">Uniform</text>
</g>
<!-- x_unobserved&#45;&gt;p -->
<g id="edge1" class="edge">
<title>x_unobserved&#45;&gt;p</title>
<path fill="none" stroke="black" d="M207.26,-280.06C203.34,-266.62 198.95,-251.61 195.04,-238.21"/>
<polygon fill="black" stroke="black" points="198.47,-237.48 192.31,-228.86 191.75,-239.44 198.47,-237.48"/>
</g>
<!-- p&#45;&gt;y -->
<g id="edge4" class="edge">
<title>p&#45;&gt;y</title>
<path fill="none" stroke="black" d="M183.72,-169.27C183.72,-158.44 183.72,-145.73 183.72,-133.41"/>
<polygon fill="black" stroke="black" points="187.22,-133.78 183.72,-123.78 180.22,-133.78 187.22,-133.78"/>
</g>
</g>
</svg>
