<?xml version="1.0" encoding="UTF-8" standalone="no"?>
<!DOCTYPE svg PUBLIC "-//W3C//DTD SVG 1.1//EN"
 "http://www.w3.org/Graphics/SVG/1.1/DTD/svg11.dtd">
<!-- Generated by graphviz version 8.1.0 (0)
 -->
<!-- Pages: 1 -->
<svg width="464pt" height="276pt"
 viewBox="0.00 0.00 463.72 275.63" xmlns="http://www.w3.org/2000/svg" xmlns:xlink="http://www.w3.org/1999/xlink">
<g id="graph0" class="graph" transform="scale(1 1) rotate(0) translate(4 271.63)">
<polygon fill="white" stroke="none" points="-4,4 -4,-271.63 459.72,-271.63 459.72,4 -4,4"/>
<g id="clust3" class="cluster">
<title>cluster6 x 7</title>
<path fill="none" stroke="black" d="M323.72,-8C323.72,-8 435.72,-8 435.72,-8 441.72,-8 447.72,-14 447.72,-20 447.72,-20 447.72,-117.82 447.72,-117.82 447.72,-123.82 441.72,-129.82 435.72,-129.82 435.72,-129.82 323.72,-129.82 323.72,-129.82 317.72,-129.82 311.72,-123.82 311.72,-117.82 311.72,-117.82 311.72,-20 311.72,-20 311.72,-14 317.72,-8 323.72,-8"/>
<text text-anchor="middle" x="425.85" y="-15.2" font-family="Times,serif" font-size="14.00">6 x 7</text>
</g>
<g id="clust1" class="cluster">
<title>cluster6</title>
<path fill="none" stroke="black" d="M337.72,-137.82C337.72,-137.82 419.72,-137.82 419.72,-137.82 425.72,-137.82 431.72,-143.82 431.72,-149.82 431.72,-149.82 431.72,-247.63 431.72,-247.63 431.72,-253.63 425.72,-259.63 419.72,-259.63 419.72,-259.63 337.72,-259.63 337.72,-259.63 331.72,-259.63 325.72,-253.63 325.72,-247.63 325.72,-247.63 325.72,-149.82 325.72,-149.82 325.72,-143.82 331.72,-137.82 337.72,-137.82"/>
<text text-anchor="middle" x="420.35" y="-145.02" font-family="Times,serif" font-size="14.00">6</text>
</g>
<g id="clust2" class="cluster">
<title>cluster7</title>
<path fill="none" stroke="black" d="M23.72,-8C23.72,-8 291.72,-8 291.72,-8 297.72,-8 303.72,-14 303.72,-20 303.72,-20 303.72,-117.82 303.72,-117.82 303.72,-123.82 297.72,-129.82 291.72,-129.82 291.72,-129.82 23.72,-129.82 23.72,-129.82 17.72,-129.82 11.72,-123.82 11.72,-117.82 11.72,-117.82 11.72,-20 11.72,-20 11.72,-14 17.72,-8 23.72,-8"/>
<text text-anchor="middle" x="292.35" y="-15.2" font-family="Times,serif" font-size="14.00">7</text>
</g>
<!-- p -->
<g id="node1" class="node">
<title>p</title>
<ellipse fill="none" stroke="black" cx="270.72" cy="-210.98" rx="44.72" ry="40.66"/>
<text text-anchor="middle" x="270.72" y="-222.43" font-family="Times,serif" font-size="14.00">p</text>
<text text-anchor="middle" x="270.72" y="-205.93" font-family="Times,serif" font-size="14.00">~</text>
<text text-anchor="middle" x="270.72" y="-189.43" font-family="Times,serif" font-size="14.00">Uniform</text>
</g>
<!-- Unmarked captures -->
<g id="node5" class="node">
<title>Unmarked captures</title>
<ellipse fill="lightgrey" stroke="black" cx="157.72" cy="-81.16" rx="137.53" ry="40.66"/>
<text text-anchor="middle" x="157.72" y="-92.61" font-family="Times,serif" font-size="14.00">Unmarked captures</text>
<text text-anchor="middle" x="157.72" y="-76.11" font-family="Times,serif" font-size="14.00">~</text>
<text text-anchor="middle" x="157.72" y="-59.61" font-family="Times,serif" font-size="14.00">CustomDist_Unmarked captures</text>
</g>
<!-- p&#45;&gt;Unmarked captures -->
<g id="edge4" class="edge">
<title>p&#45;&gt;Unmarked captures</title>
<path fill="none" stroke="black" d="M247.15,-175.98C238.08,-163.6 227.35,-149.73 216.72,-137.82 213.77,-134.51 210.65,-131.17 207.45,-127.86"/>
<polygon fill="black" stroke="black" points="210.4,-125.86 200.88,-121.22 205.43,-130.78 210.4,-125.86"/>
</g>
<!-- M&#45;array -->
<g id="node6" class="node">
<title>M&#45;array</title>
<ellipse fill="lightgrey" stroke="black" cx="379.72" cy="-81.16" rx="60.1" ry="40.66"/>
<text text-anchor="middle" x="379.72" y="-92.61" font-family="Times,serif" font-size="14.00">M&#45;array</text>
<text text-anchor="middle" x="379.72" y="-76.11" font-family="Times,serif" font-size="14.00">~</text>
<text text-anchor="middle" x="379.72" y="-59.61" font-family="Times,serif" font-size="14.00">Multinomial</text>
</g>
<!-- p&#45;&gt;M&#45;array -->
<g id="edge5" class="edge">
<title>p&#45;&gt;M&#45;array</title>
<path fill="none" stroke="black" d="M293.06,-175.57C301.55,-163.27 311.62,-149.56 321.72,-137.82 326.31,-132.49 331.34,-127.1 336.46,-121.88"/>
<polygon fill="black" stroke="black" points="338.37,-124.92 342.98,-115.39 333.43,-119.97 338.37,-124.92"/>
</g>
<!-- b0 -->
<g id="node2" class="node">
<title>b0</title>
<ellipse fill="none" stroke="black" cx="44.72" cy="-210.98" rx="44.72" ry="40.66"/>
<text text-anchor="middle" x="44.72" y="-222.43" font-family="Times,serif" font-size="14.00">b0</text>
<text text-anchor="middle" x="44.72" y="-205.93" font-family="Times,serif" font-size="14.00">~</text>
<text text-anchor="middle" x="44.72" y="-189.43" font-family="Times,serif" font-size="14.00">Uniform</text>
</g>
<!-- b0&#45;&gt;Unmarked captures -->
<g id="edge2" class="edge">
<title>b0&#45;&gt;Unmarked captures</title>
<path fill="none" stroke="black" d="M68.3,-175.98C77.37,-163.6 88.1,-149.73 98.72,-137.82 101.68,-134.51 104.8,-131.17 108,-127.86"/>
<polygon fill="black" stroke="black" points="110.02,-130.78 114.57,-121.22 105.05,-125.86 110.02,-130.78"/>
</g>
<!-- N -->
<g id="node3" class="node">
<title>N</title>
<ellipse fill="none" stroke="black" cx="157.72" cy="-210.98" rx="50.03" ry="40.66"/>
<text text-anchor="middle" x="157.72" y="-222.43" font-family="Times,serif" font-size="14.00">N</text>
<text text-anchor="middle" x="157.72" y="-205.93" font-family="Times,serif" font-size="14.00">~</text>
<text text-anchor="middle" x="157.72" y="-189.43" font-family="Times,serif" font-size="14.00">Truncated</text>
</g>
<!-- N&#45;&gt;Unmarked captures -->
<g id="edge1" class="edge">
<title>N&#45;&gt;Unmarked captures</title>
<path fill="none" stroke="black" d="M157.72,-169.88C157.72,-158.23 157.72,-145.33 157.72,-133.1"/>
<polygon fill="black" stroke="black" points="161.22,-133.11 157.72,-123.11 154.22,-133.11 161.22,-133.11"/>
</g>
<!-- phi -->
<g id="node4" class="node">
<title>phi</title>
<ellipse fill="none" stroke="black" cx="378.72" cy="-210.98" rx="44.72" ry="40.66"/>
<text text-anchor="middle" x="378.72" y="-222.43" font-family="Times,serif" font-size="14.00">phi</text>
<text text-anchor="middle" x="378.72" y="-205.93" font-family="Times,serif" font-size="14.00">~</text>
<text text-anchor="middle" x="378.72" y="-189.43" font-family="Times,serif" font-size="14.00">Uniform</text>
</g>
<!-- phi&#45;&gt;Unmarked captures -->
<g id="edge3" class="edge">
<title>phi&#45;&gt;Unmarked captures</title>
<path fill="none" stroke="black" d="M358.43,-174.31C349.53,-161.3 338.05,-147.43 324.72,-137.82 318.6,-133.4 292.32,-124.1 262.35,-114.34"/>
<polygon fill="black" stroke="black" points="263.66,-110.76 253.07,-111.02 261.51,-117.42 263.66,-110.76"/>
</g>
<!-- phi&#45;&gt;M&#45;array -->
<g id="edge6" class="edge">
<title>phi&#45;&gt;M&#45;array</title>
<path fill="none" stroke="black" d="M379.04,-169.88C379.13,-158.23 379.23,-145.33 379.33,-133.1"/>
<polygon fill="black" stroke="black" points="382.83,-133.13 379.41,-123.11 375.83,-133.08 382.83,-133.13"/>
</g>
</g>
</svg>
