<?xml version="1.0" encoding="UTF-8" standalone="no"?>
<!DOCTYPE svg PUBLIC "-//W3C//DTD SVG 1.1//EN"
 "http://www.w3.org/Graphics/SVG/1.1/DTD/svg11.dtd">
<!-- Generated by graphviz version 8.1.0 (0)
 -->
<!-- Pages: 1 -->
<svg width="468pt" height="276pt"
 viewBox="0.00 0.00 468.03 275.63" xmlns="http://www.w3.org/2000/svg" xmlns:xlink="http://www.w3.org/1999/xlink">
<g id="graph0" class="graph" transform="scale(1 1) rotate(0) translate(4 271.63)">
<polygon fill="white" stroke="none" points="-4,4 -4,-271.63 464.03,-271.63 464.03,4 -4,4"/>
<g id="clust1" class="cluster">
<title>cluster6</title>
<path fill="none" stroke="black" d="M342.03,-137.82C342.03,-137.82 424.03,-137.82 424.03,-137.82 430.03,-137.82 436.03,-143.82 436.03,-149.82 436.03,-149.82 436.03,-247.63 436.03,-247.63 436.03,-253.63 430.03,-259.63 424.03,-259.63 424.03,-259.63 342.03,-259.63 342.03,-259.63 336.03,-259.63 330.03,-253.63 330.03,-247.63 330.03,-247.63 330.03,-149.82 330.03,-149.82 330.03,-143.82 336.03,-137.82 342.03,-137.82"/>
<text text-anchor="middle" x="424.65" y="-145.02" font-family="Times,serif" font-size="14.00">6</text>
</g>
<g id="clust2" class="cluster">
<title>cluster7</title>
<path fill="none" stroke="black" d="M28.03,-8C28.03,-8 296.03,-8 296.03,-8 302.03,-8 308.03,-14 308.03,-20 308.03,-20 308.03,-117.82 308.03,-117.82 308.03,-123.82 302.03,-129.82 296.03,-129.82 296.03,-129.82 28.03,-129.82 28.03,-129.82 22.03,-129.82 16.03,-123.82 16.03,-117.82 16.03,-117.82 16.03,-20 16.03,-20 16.03,-14 22.03,-8 28.03,-8"/>
<text text-anchor="middle" x="296.65" y="-15.2" font-family="Times,serif" font-size="14.00">7</text>
</g>
<g id="clust3" class="cluster">
<title>cluster6 x 7</title>
<path fill="none" stroke="black" d="M328.03,-8C328.03,-8 440.03,-8 440.03,-8 446.03,-8 452.03,-14 452.03,-20 452.03,-20 452.03,-117.82 452.03,-117.82 452.03,-123.82 446.03,-129.82 440.03,-129.82 440.03,-129.82 328.03,-129.82 328.03,-129.82 322.03,-129.82 316.03,-123.82 316.03,-117.82 316.03,-117.82 316.03,-20 316.03,-20 316.03,-14 322.03,-8 328.03,-8"/>
<text text-anchor="middle" x="430.15" y="-15.2" font-family="Times,serif" font-size="14.00">6 x 7</text>
</g>
<!-- p -->
<g id="node1" class="node">
<title>p</title>
<ellipse fill="none" stroke="black" cx="272.03" cy="-210.98" rx="44.72" ry="40.66"/>
<text text-anchor="middle" x="272.03" y="-222.43" font-family="Times,serif" font-size="14.00">p</text>
<text text-anchor="middle" x="272.03" y="-205.93" font-family="Times,serif" font-size="14.00">~</text>
<text text-anchor="middle" x="272.03" y="-189.43" font-family="Times,serif" font-size="14.00">Uniform</text>
</g>
<!-- Unmarked captures -->
<g id="node5" class="node">
<title>Unmarked captures</title>
<ellipse fill="lightgrey" stroke="black" cx="162.03" cy="-81.16" rx="137.53" ry="40.66"/>
<text text-anchor="middle" x="162.03" y="-92.61" font-family="Times,serif" font-size="14.00">Unmarked captures</text>
<text text-anchor="middle" x="162.03" y="-76.11" font-family="Times,serif" font-size="14.00">~</text>
<text text-anchor="middle" x="162.03" y="-59.61" font-family="Times,serif" font-size="14.00">CustomDist_Unmarked captures</text>
</g>
<!-- p&#45;&gt;Unmarked captures -->
<g id="edge1" class="edge">
<title>p&#45;&gt;Unmarked captures</title>
<path fill="none" stroke="black" d="M247.98,-176.58C238.65,-164.14 227.67,-150.06 217.03,-137.82 214.3,-134.68 211.44,-131.49 208.51,-128.32"/>
<polygon fill="black" stroke="black" points="211.54,-126.37 202.15,-121.48 206.44,-131.16 211.54,-126.37"/>
</g>
<!-- M&#45;array -->
<g id="node6" class="node">
<title>M&#45;array</title>
<ellipse fill="lightgrey" stroke="black" cx="384.03" cy="-81.16" rx="60.1" ry="40.66"/>
<text text-anchor="middle" x="384.03" y="-92.61" font-family="Times,serif" font-size="14.00">M&#45;array</text>
<text text-anchor="middle" x="384.03" y="-76.11" font-family="Times,serif" font-size="14.00">~</text>
<text text-anchor="middle" x="384.03" y="-59.61" font-family="Times,serif" font-size="14.00">Multinomial</text>
</g>
<!-- p&#45;&gt;M&#45;array -->
<g id="edge5" class="edge">
<title>p&#45;&gt;M&#45;array</title>
<path fill="none" stroke="black" d="M295.66,-176.03C304.73,-163.66 315.45,-149.77 326.03,-137.82 330.75,-132.48 335.89,-127.06 341.11,-121.8"/>
<polygon fill="black" stroke="black" points="343.11,-124.75 347.75,-115.23 338.18,-119.78 343.11,-124.75"/>
</g>
<!-- N -->
<g id="node2" class="node">
<title>N</title>
<ellipse fill="none" stroke="black" cx="50.03" cy="-210.98" rx="50.03" ry="40.66"/>
<text text-anchor="middle" x="50.03" y="-222.43" font-family="Times,serif" font-size="14.00">N</text>
<text text-anchor="middle" x="50.03" y="-205.93" font-family="Times,serif" font-size="14.00">~</text>
<text text-anchor="middle" x="50.03" y="-189.43" font-family="Times,serif" font-size="14.00">Truncated</text>
</g>
<!-- N&#45;&gt;Unmarked captures -->
<g id="edge2" class="edge">
<title>N&#45;&gt;Unmarked captures</title>
<path fill="none" stroke="black" d="M76.83,-176.13C86.75,-163.89 98.21,-150.07 109.03,-137.82 111.65,-134.84 114.39,-131.81 117.16,-128.76"/>
<polygon fill="black" stroke="black" points="119.37,-131.46 123.58,-121.73 114.22,-126.71 119.37,-131.46"/>
</g>
<!-- b0 -->
<g id="node3" class="node">
<title>b0</title>
<ellipse fill="none" stroke="black" cx="163.03" cy="-210.98" rx="44.72" ry="40.66"/>
<text text-anchor="middle" x="163.03" y="-222.43" font-family="Times,serif" font-size="14.00">b0</text>
<text text-anchor="middle" x="163.03" y="-205.93" font-family="Times,serif" font-size="14.00">~</text>
<text text-anchor="middle" x="163.03" y="-189.43" font-family="Times,serif" font-size="14.00">Uniform</text>
</g>
<!-- b0&#45;&gt;Unmarked captures -->
<g id="edge3" class="edge">
<title>b0&#45;&gt;Unmarked captures</title>
<path fill="none" stroke="black" d="M162.71,-169.88C162.62,-158.23 162.52,-145.33 162.43,-133.1"/>
<polygon fill="black" stroke="black" points="165.92,-133.08 162.34,-123.11 158.92,-133.13 165.92,-133.08"/>
</g>
<!-- phi -->
<g id="node4" class="node">
<title>phi</title>
<ellipse fill="none" stroke="black" cx="383.03" cy="-210.98" rx="44.72" ry="40.66"/>
<text text-anchor="middle" x="383.03" y="-222.43" font-family="Times,serif" font-size="14.00">phi</text>
<text text-anchor="middle" x="383.03" y="-205.93" font-family="Times,serif" font-size="14.00">~</text>
<text text-anchor="middle" x="383.03" y="-189.43" font-family="Times,serif" font-size="14.00">Uniform</text>
</g>
<!-- phi&#45;&gt;Unmarked captures -->
<g id="edge4" class="edge">
<title>phi&#45;&gt;Unmarked captures</title>
<path fill="none" stroke="black" d="M361.76,-175.11C352.23,-161.89 339.98,-147.67 326.03,-137.82 315.56,-130.43 293.87,-121.78 269.6,-113.55"/>
<polygon fill="black" stroke="black" points="271.04,-110 260.45,-110.17 268.83,-116.64 271.04,-110"/>
</g>
<!-- phi&#45;&gt;M&#45;array -->
<g id="edge6" class="edge">
<title>phi&#45;&gt;M&#45;array</title>
<path fill="none" stroke="black" d="M383.34,-169.88C383.43,-158.23 383.53,-145.33 383.63,-133.1"/>
<polygon fill="black" stroke="black" points="387.14,-133.13 383.72,-123.11 380.14,-133.08 387.14,-133.13"/>
</g>
</g>
</svg>
