<?xml version="1.0" encoding="UTF-8" standalone="no"?>
<!DOCTYPE svg PUBLIC "-//W3C//DTD SVG 1.1//EN"
 "http://www.w3.org/Graphics/SVG/1.1/DTD/svg11.dtd">
<!-- Generated by graphviz version 12.2.1 (0)
 -->
<!-- Pages: 1 -->
<svg width="328pt" height="369pt"
 viewBox="0.00 0.00 327.72 369.13" xmlns="http://www.w3.org/2000/svg" xmlns:xlink="http://www.w3.org/1999/xlink">
<g id="graph0" class="graph" transform="scale(1 1) rotate(0) translate(4 365.13)">
<polygon fill="white" stroke="none" points="-4,4 -4,-365.13 323.72,-365.13 323.72,4 -4,4"/>
<g id="clust1" class="cluster">
<title>cluster109 x 2</title>
<path fill="none" stroke="black" d="M20,-231.32C20,-231.32 102,-231.32 102,-231.32 108,-231.32 114,-237.32 114,-243.32 114,-243.32 114,-341.13 114,-341.13 114,-347.13 108,-353.13 102,-353.13 102,-353.13 20,-353.13 20,-353.13 14,-353.13 8,-347.13 8,-341.13 8,-341.13 8,-243.32 8,-243.32 8,-237.32 14,-231.32 20,-231.32"/>
<text text-anchor="middle" x="85.38" y="-238.52" font-family="Times,serif" font-size="14.00">109 x 2</text>
</g>
<g id="clust2" class="cluster">
<title>cluster109 x 44</title>
<path fill="none" stroke="black" d="M125,-8C125,-8 211,-8 211,-8 217,-8 223,-14 223,-20 223,-20 223,-211.32 223,-211.32 223,-217.32 217,-223.32 211,-223.32 211,-223.32 125,-223.32 125,-223.32 119,-223.32 113,-217.32 113,-211.32 113,-211.32 113,-20 113,-20 113,-14 119,-8 125,-8"/>
<text text-anchor="middle" x="191" y="-15.2" font-family="Times,serif" font-size="14.00">109 x 44</text>
</g>
<!-- S -->
<g id="node1" class="node">
<title>S</title>
<ellipse fill="none" stroke="black" cx="61" cy="-304.48" rx="44.72" ry="40.66"/>
<text text-anchor="middle" x="61" y="-315.93" font-family="Times,serif" font-size="14.00">S</text>
<text text-anchor="middle" x="61" y="-299.43" font-family="Times,serif" font-size="14.00">~</text>
<text text-anchor="middle" x="61" y="-282.93" font-family="Times,serif" font-size="14.00">Uniform</text>
</g>
<!-- p -->
<g id="node5" class="node">
<title>p</title>
<polygon fill="none" stroke="black" points="213.12,-215.32 122.88,-215.32 122.88,-157.82 213.12,-157.82 213.12,-215.32"/>
<text text-anchor="middle" x="168" y="-198.02" font-family="Times,serif" font-size="14.00">p</text>
<text text-anchor="middle" x="168" y="-181.52" font-family="Times,serif" font-size="14.00">~</text>
<text text-anchor="middle" x="168" y="-165.02" font-family="Times,serif" font-size="14.00">Deterministic</text>
</g>
<!-- S&#45;&gt;p -->
<g id="edge2" class="edge">
<title>S&#45;&gt;p</title>
<path fill="none" stroke="black" d="M83.58,-269.01C92.42,-256.58 103.06,-242.79 114,-231.32 116.54,-228.65 119.24,-226 122.03,-223.4"/>
<polygon fill="black" stroke="black" points="124.32,-226.05 129.45,-216.79 119.66,-220.83 124.32,-226.05"/>
</g>
<!-- g0 -->
<g id="node2" class="node">
<title>g0</title>
<ellipse fill="none" stroke="black" cx="168" cy="-304.48" rx="44.72" ry="40.66"/>
<text text-anchor="middle" x="168" y="-315.93" font-family="Times,serif" font-size="14.00">g0</text>
<text text-anchor="middle" x="168" y="-299.43" font-family="Times,serif" font-size="14.00">~</text>
<text text-anchor="middle" x="168" y="-282.93" font-family="Times,serif" font-size="14.00">Uniform</text>
</g>
<!-- g0&#45;&gt;p -->
<g id="edge1" class="edge">
<title>g0&#45;&gt;p</title>
<path fill="none" stroke="black" d="M168,-263.59C168,-251.7 168,-238.69 168,-226.84"/>
<polygon fill="black" stroke="black" points="171.5,-226.98 168,-216.98 164.5,-226.98 171.5,-226.98"/>
</g>
<!-- sigma -->
<g id="node3" class="node">
<title>sigma</title>
<ellipse fill="none" stroke="black" cx="275" cy="-304.48" rx="44.72" ry="40.66"/>
<text text-anchor="middle" x="275" y="-315.93" font-family="Times,serif" font-size="14.00">sigma</text>
<text text-anchor="middle" x="275" y="-299.43" font-family="Times,serif" font-size="14.00">~</text>
<text text-anchor="middle" x="275" y="-282.93" font-family="Times,serif" font-size="14.00">Uniform</text>
</g>
<!-- sigma&#45;&gt;p -->
<g id="edge3" class="edge">
<title>sigma&#45;&gt;p</title>
<path fill="none" stroke="black" d="M252.42,-269.01C243.58,-256.58 232.94,-242.79 222,-231.32 219.46,-228.65 216.76,-226 213.97,-223.4"/>
<polygon fill="black" stroke="black" points="216.34,-220.83 206.55,-216.79 211.68,-226.05 216.34,-220.83"/>
</g>
<!-- y -->
<g id="node4" class="node">
<title>y</title>
<ellipse fill="lightgrey" stroke="black" cx="168" cy="-81.16" rx="47.38" ry="40.66"/>
<text text-anchor="middle" x="168" y="-92.61" font-family="Times,serif" font-size="14.00">y</text>
<text text-anchor="middle" x="168" y="-76.11" font-family="Times,serif" font-size="14.00">~</text>
<text text-anchor="middle" x="168" y="-59.61" font-family="Times,serif" font-size="14.00">Binomial</text>
</g>
<!-- p&#45;&gt;y -->
<g id="edge4" class="edge">
<title>p&#45;&gt;y</title>
<path fill="none" stroke="black" d="M168,-157.58C168,-150.1 168,-141.77 168,-133.45"/>
<polygon fill="black" stroke="black" points="171.5,-133.71 168,-123.71 164.5,-133.71 171.5,-133.71"/>
</g>
</g>
</svg>
