<?xml version="1.0" encoding="UTF-8" standalone="no"?>
<!DOCTYPE svg PUBLIC "-//W3C//DTD SVG 1.1//EN"
 "http://www.w3.org/Graphics/SVG/1.1/DTD/svg11.dtd">
<!-- Generated by graphviz version 14.1.1 (20251213.1925)
 -->
<!-- Pages: 1 -->
<svg width="417pt" height="397pt"
 viewBox="0.00 0.00 417.00 397.00" xmlns="http://www.w3.org/2000/svg" xmlns:xlink="http://www.w3.org/1999/xlink">
<g id="graph0" class="graph" transform="scale(1 1) rotate(0) translate(4 393.45)">
<polygon fill="white" stroke="none" points="-4,4 -4,-393.45 413,-393.45 413,4 -4,4"/>
<g id="clust1" class="cluster">
<title>cluster200 x 2</title>
<path fill="none" stroke="black" d="M20,-259.63C20,-259.63 102,-259.63 102,-259.63 108,-259.63 114,-265.63 114,-271.63 114,-271.63 114,-369.45 114,-369.45 114,-375.45 108,-381.45 102,-381.45 102,-381.45 20,-381.45 20,-381.45 14,-381.45 8,-375.45 8,-369.45 8,-369.45 8,-271.63 8,-271.63 8,-265.63 14,-259.63 20,-259.63"/>
<text xml:space="preserve" text-anchor="middle" x="85.38" y="-266.83" font-family="Times,serif" font-size="14.00">200 x 2</text>
</g>
<g id="clust2" class="cluster">
<title>cluster200 x 44</title>
<path fill="none" stroke="black" d="M146,-8C146,-8 232,-8 232,-8 238,-8 244,-14 244,-20 244,-20 244,-227.73 244,-227.73 244,-233.73 238,-239.73 232,-239.73 232,-239.73 146,-239.73 146,-239.73 140,-239.73 134,-233.73 134,-227.73 134,-227.73 134,-20 134,-20 134,-14 140,-8 146,-8"/>
<text xml:space="preserve" text-anchor="middle" x="212" y="-15.2" font-family="Times,serif" font-size="14.00">200 x 44</text>
</g>
<g id="clust3" class="cluster">
<title>cluster200</title>
<path fill="none" stroke="black" d="M303,-129.82C303,-129.82 389,-129.82 389,-129.82 395,-129.82 401,-135.82 401,-141.82 401,-141.82 401,-239.63 401,-239.63 401,-245.63 395,-251.63 389,-251.63 389,-251.63 303,-251.63 303,-251.63 297,-251.63 291,-245.63 291,-239.63 291,-239.63 291,-141.82 291,-141.82 291,-135.82 297,-129.82 303,-129.82"/>
<text xml:space="preserve" text-anchor="middle" x="382.88" y="-137.02" font-family="Times,serif" font-size="14.00">200</text>
</g>
<!-- S -->
<g id="node1" class="node">
<title>S</title>
<ellipse fill="none" stroke="black" cx="61" cy="-332.79" rx="44.72" ry="40.66"/>
<text xml:space="preserve" text-anchor="middle" x="61" y="-344.24" font-family="Times,serif" font-size="14.00">S</text>
<text xml:space="preserve" text-anchor="middle" x="61" y="-327.74" font-family="Times,serif" font-size="14.00">~</text>
<text xml:space="preserve" text-anchor="middle" x="61" y="-311.24" font-family="Times,serif" font-size="14.00">Uniform</text>
</g>
<!-- p -->
<g id="node5" class="node">
<title>p</title>
<polygon fill="none" stroke="black" points="233.12,-231.73 142.88,-231.73 142.88,-174.23 233.12,-174.23 233.12,-231.73"/>
<text xml:space="preserve" text-anchor="middle" x="188" y="-214.43" font-family="Times,serif" font-size="14.00">p</text>
<text xml:space="preserve" text-anchor="middle" x="188" y="-197.93" font-family="Times,serif" font-size="14.00">~</text>
<text xml:space="preserve" text-anchor="middle" x="188" y="-181.43" font-family="Times,serif" font-size="14.00">Deterministic</text>
</g>
<!-- S&#45;&gt;p -->
<g id="edge2" class="edge">
<title>S&#45;&gt;p</title>
<path fill="none" stroke="black" d="M83.36,-297.11C92.17,-284.65 102.85,-270.91 114,-259.63 121.14,-252.41 129.26,-245.37 137.44,-238.85"/>
<polygon fill="black" stroke="black" points="139.33,-241.81 145.1,-232.93 135.05,-236.28 139.33,-241.81"/>
</g>
<!-- sigma -->
<g id="node2" class="node">
<title>sigma</title>
<ellipse fill="none" stroke="black" cx="168" cy="-332.79" rx="44.72" ry="40.66"/>
<text xml:space="preserve" text-anchor="middle" x="168" y="-344.24" font-family="Times,serif" font-size="14.00">sigma</text>
<text xml:space="preserve" text-anchor="middle" x="168" y="-327.74" font-family="Times,serif" font-size="14.00">~</text>
<text xml:space="preserve" text-anchor="middle" x="168" y="-311.24" font-family="Times,serif" font-size="14.00">Uniform</text>
</g>
<!-- sigma&#45;&gt;p -->
<g id="edge1" class="edge">
<title>sigma&#45;&gt;p</title>
<path fill="none" stroke="black" d="M174.22,-292.05C176.65,-276.52 179.43,-258.75 181.85,-243.26"/>
<polygon fill="black" stroke="black" points="185.3,-243.85 183.39,-233.43 178.39,-242.77 185.3,-243.85"/>
</g>
<!-- g0 -->
<g id="node3" class="node">
<title>g0</title>
<ellipse fill="none" stroke="black" cx="275" cy="-332.79" rx="44.72" ry="40.66"/>
<text xml:space="preserve" text-anchor="middle" x="275" y="-344.24" font-family="Times,serif" font-size="14.00">g0</text>
<text xml:space="preserve" text-anchor="middle" x="275" y="-327.74" font-family="Times,serif" font-size="14.00">~</text>
<text xml:space="preserve" text-anchor="middle" x="275" y="-311.24" font-family="Times,serif" font-size="14.00">Uniform</text>
</g>
<!-- g0&#45;&gt;p -->
<g id="edge3" class="edge">
<title>g0&#45;&gt;p</title>
<path fill="none" stroke="black" d="M251.69,-297.54C239.88,-280.2 225.52,-259.11 213.43,-241.34"/>
<polygon fill="black" stroke="black" points="216.35,-239.41 207.83,-233.11 210.57,-243.35 216.35,-239.41"/>
</g>
<!-- psi -->
<g id="node4" class="node">
<title>psi</title>
<ellipse fill="none" stroke="black" cx="367" cy="-332.79" rx="28.81" ry="40.66"/>
<text xml:space="preserve" text-anchor="middle" x="367" y="-344.24" font-family="Times,serif" font-size="14.00">psi</text>
<text xml:space="preserve" text-anchor="middle" x="367" y="-327.74" font-family="Times,serif" font-size="14.00">~</text>
<text xml:space="preserve" text-anchor="middle" x="367" y="-311.24" font-family="Times,serif" font-size="14.00">Beta</text>
</g>
<!-- z -->
<g id="node7" class="node">
<title>z</title>
<ellipse fill="none" stroke="black" cx="346" cy="-202.98" rx="47.38" ry="40.66"/>
<text xml:space="preserve" text-anchor="middle" x="346" y="-214.43" font-family="Times,serif" font-size="14.00">z</text>
<text xml:space="preserve" text-anchor="middle" x="346" y="-197.93" font-family="Times,serif" font-size="14.00">~</text>
<text xml:space="preserve" text-anchor="middle" x="346" y="-181.43" font-family="Times,serif" font-size="14.00">Bernoulli</text>
</g>
<!-- psi&#45;&gt;z -->
<g id="edge4" class="edge">
<title>psi&#45;&gt;z</title>
<path fill="none" stroke="black" d="M360.59,-292.75C358.63,-280.83 356.45,-267.55 354.38,-254.97"/>
<polygon fill="black" stroke="black" points="357.84,-254.46 352.77,-245.16 350.93,-255.59 357.84,-254.46"/>
</g>
<!-- y -->
<g id="node6" class="node">
<title>y</title>
<ellipse fill="lightgrey" stroke="black" cx="189" cy="-81.16" rx="47.38" ry="40.66"/>
<text xml:space="preserve" text-anchor="middle" x="189" y="-92.61" font-family="Times,serif" font-size="14.00">y</text>
<text xml:space="preserve" text-anchor="middle" x="189" y="-76.11" font-family="Times,serif" font-size="14.00">~</text>
<text xml:space="preserve" text-anchor="middle" x="189" y="-59.61" font-family="Times,serif" font-size="14.00">Binomial</text>
</g>
<!-- p&#45;&gt;y -->
<g id="edge6" class="edge">
<title>p&#45;&gt;y</title>
<path fill="none" stroke="black" d="M188.23,-173.88C188.34,-161.78 188.46,-147.23 188.57,-133.33"/>
<polygon fill="black" stroke="black" points="192.07,-133.41 188.66,-123.38 185.07,-133.35 192.07,-133.41"/>
</g>
<!-- z&#45;&gt;y -->
<g id="edge5" class="edge">
<title>z&#45;&gt;y</title>
<path fill="none" stroke="black" d="M311.16,-175.38C288.07,-157.76 257.58,-134.5 232.85,-115.62"/>
<polygon fill="black" stroke="black" points="235.29,-113.09 225.22,-109.8 231.05,-118.65 235.29,-113.09"/>
</g>
</g>
</svg>
