<?xml version="1.0" encoding="UTF-8" standalone="no"?>
<!DOCTYPE svg PUBLIC "-//W3C//DTD SVG 1.1//EN"
 "http://www.w3.org/Graphics/SVG/1.1/DTD/svg11.dtd">
<!-- Generated by graphviz version 9.0.0 (20230911.1827)
 -->
<!-- Pages: 1 -->
<svg width="468pt" height="276pt"
 viewBox="0.00 0.00 468.03 275.63" xmlns="http://www.w3.org/2000/svg" xmlns:xlink="http://www.w3.org/1999/xlink">
<g id="graph0" class="graph" transform="scale(1 1) rotate(0) translate(4 271.63)">
<polygon fill="white" stroke="none" points="-4,4 -4,-271.63 464.03,-271.63 464.03,4 -4,4"/>
<g id="clust1" class="cluster">
<title>cluster6</title>
<path fill="none" stroke="black" d="M342.03,-137.82C342.03,-137.82 424.03,-137.82 424.03,-137.82 430.03,-137.82 436.03,-143.82 436.03,-149.82 436.03,-149.82 436.03,-247.63 436.03,-247.63 436.03,-253.63 430.03,-259.63 424.03,-259.63 424.03,-259.63 342.03,-259.63 342.03,-259.63 336.03,-259.63 330.03,-253.63 330.03,-247.63 330.03,-247.63 330.03,-149.82 330.03,-149.82 330.03,-143.82 336.03,-137.82 342.03,-137.82"/>
<text text-anchor="middle" x="424.65" y="-145.02" font-family="Times,serif" font-size="14.00">6</text>
</g>
<g id="clust2" class="cluster">
<title>cluster7</title>
<path fill="none" stroke="black" d="M28.03,-8C28.03,-8 296.03,-8 296.03,-8 302.03,-8 308.03,-14 308.03,-20 308.03,-20 308.03,-117.82 308.03,-117.82 308.03,-123.82 302.03,-129.82 296.03,-129.82 296.03,-129.82 28.03,-129.82 28.03,-129.82 22.03,-129.82 16.03,-123.82 16.03,-117.82 16.03,-117.82 16.03,-20 16.03,-20 16.03,-14 22.03,-8 28.03,-8"/>
<text text-anchor="middle" x="296.65" y="-15.2" font-family="Times,serif" font-size="14.00">7</text>
</g>
<g id="clust3" class="cluster">
<title>cluster6 x 7</title>
<path fill="none" stroke="black" d="M328.03,-8C328.03,-8 440.03,-8 440.03,-8 446.03,-8 452.03,-14 452.03,-20 452.03,-20 452.03,-117.82 452.03,-117.82 452.03,-123.82 446.03,-129.82 440.03,-129.82 440.03,-129.82 328.03,-129.82 328.03,-129.82 322.03,-129.82 316.03,-123.82 316.03,-117.82 316.03,-117.82 316.03,-20 316.03,-20 316.03,-14 322.03,-8 328.03,-8"/>
<text text-anchor="middle" x="430.15" y="-15.2" font-family="Times,serif" font-size="14.00">6 x 7</text>
</g>
<!-- N -->
<g id="node1" class="node">
<title>N</title>
<ellipse fill="none" stroke="black" cx="50.03" cy="-210.98" rx="50.03" ry="40.66"/>
<text text-anchor="middle" x="50.03" y="-222.43" font-family="Times,serif" font-size="14.00">N</text>
<text text-anchor="middle" x="50.03" y="-205.93" font-family="Times,serif" font-size="14.00">~</text>
<text text-anchor="middle" x="50.03" y="-189.43" font-family="Times,serif" font-size="14.00">Truncated</text>
</g>
<!-- Unmarked captures -->
<g id="node5" class="node">
<title>Unmarked captures</title>
<ellipse fill="lightgrey" stroke="black" cx="162.03" cy="-81.16" rx="137.53" ry="40.66"/>
<text text-anchor="middle" x="162.03" y="-92.61" font-family="Times,serif" font-size="14.00">Unmarked captures</text>
<text text-anchor="middle" x="162.03" y="-76.11" font-family="Times,serif" font-size="14.00">~</text>
<text text-anchor="middle" x="162.03" y="-59.61" font-family="Times,serif" font-size="14.00">CustomDist_Unmarked captures</text>
</g>
<!-- N&#45;&gt;Unmarked captures -->
<g id="edge1" class="edge">
<title>N&#45;&gt;Unmarked captures</title>
<path fill="none" stroke="black" d="M76.83,-176.13C86.75,-163.89 98.21,-150.07 109.03,-137.82 111.58,-134.93 114.23,-131.98 116.92,-129.03"/>
<polygon fill="black" stroke="black" points="119.34,-131.57 123.55,-121.85 114.2,-126.82 119.34,-131.57"/>
</g>
<!-- p -->
<g id="node2" class="node">
<title>p</title>
<ellipse fill="none" stroke="black" cx="272.03" cy="-210.98" rx="44.72" ry="40.66"/>
<text text-anchor="middle" x="272.03" y="-222.43" font-family="Times,serif" font-size="14.00">p</text>
<text text-anchor="middle" x="272.03" y="-205.93" font-family="Times,serif" font-size="14.00">~</text>
<text text-anchor="middle" x="272.03" y="-189.43" font-family="Times,serif" font-size="14.00">Uniform</text>
</g>
<!-- p&#45;&gt;Unmarked captures -->
<g id="edge3" class="edge">
<title>p&#45;&gt;Unmarked captures</title>
<path fill="none" stroke="black" d="M247.98,-176.58C238.65,-164.14 227.67,-150.06 217.03,-137.82 214.45,-134.86 211.76,-131.86 209.01,-128.86"/>
<polygon fill="black" stroke="black" points="211.58,-126.48 202.18,-121.58 206.47,-131.27 211.58,-126.48"/>
</g>
<!-- M&#45;array -->
<g id="node6" class="node">
<title>M&#45;array</title>
<ellipse fill="lightgrey" stroke="black" cx="384.03" cy="-81.16" rx="60.1" ry="40.66"/>
<text text-anchor="middle" x="384.03" y="-92.61" font-family="Times,serif" font-size="14.00">M&#45;array</text>
<text text-anchor="middle" x="384.03" y="-76.11" font-family="Times,serif" font-size="14.00">~</text>
<text text-anchor="middle" x="384.03" y="-59.61" font-family="Times,serif" font-size="14.00">Multinomial</text>
</g>
<!-- p&#45;&gt;M&#45;array -->
<g id="edge6" class="edge">
<title>p&#45;&gt;M&#45;array</title>
<path fill="none" stroke="black" d="M295.66,-176.03C304.73,-163.66 315.45,-149.77 326.03,-137.82 330.64,-132.6 335.66,-127.31 340.74,-122.16"/>
<polygon fill="black" stroke="black" points="343.03,-124.82 347.68,-115.3 338.11,-119.85 343.03,-124.82"/>
</g>
<!-- b0 -->
<g id="node3" class="node">
<title>b0</title>
<ellipse fill="none" stroke="black" cx="163.03" cy="-210.98" rx="44.72" ry="40.66"/>
<text text-anchor="middle" x="163.03" y="-222.43" font-family="Times,serif" font-size="14.00">b0</text>
<text text-anchor="middle" x="163.03" y="-205.93" font-family="Times,serif" font-size="14.00">~</text>
<text text-anchor="middle" x="163.03" y="-189.43" font-family="Times,serif" font-size="14.00">Uniform</text>
</g>
<!-- b0&#45;&gt;Unmarked captures -->
<g id="edge4" class="edge">
<title>b0&#45;&gt;Unmarked captures</title>
<path fill="none" stroke="black" d="M162.71,-169.88C162.62,-158.34 162.52,-145.6 162.43,-133.48"/>
<polygon fill="black" stroke="black" points="165.93,-133.59 162.35,-123.62 158.93,-133.65 165.93,-133.59"/>
</g>
<!-- phi -->
<g id="node4" class="node">
<title>phi</title>
<ellipse fill="none" stroke="black" cx="383.03" cy="-210.98" rx="44.72" ry="40.66"/>
<text text-anchor="middle" x="383.03" y="-222.43" font-family="Times,serif" font-size="14.00">phi</text>
<text text-anchor="middle" x="383.03" y="-205.93" font-family="Times,serif" font-size="14.00">~</text>
<text text-anchor="middle" x="383.03" y="-189.43" font-family="Times,serif" font-size="14.00">Uniform</text>
</g>
<!-- phi&#45;&gt;Unmarked captures -->
<g id="edge2" class="edge">
<title>phi&#45;&gt;Unmarked captures</title>
<path fill="none" stroke="black" d="M361.76,-175.11C352.23,-161.89 339.98,-147.67 326.03,-137.82 315.65,-130.49 294.26,-121.94 270.25,-113.77"/>
<polygon fill="black" stroke="black" points="271.48,-110.49 260.88,-110.65 269.27,-117.13 271.48,-110.49"/>
</g>
<!-- phi&#45;&gt;M&#45;array -->
<g id="edge5" class="edge">
<title>phi&#45;&gt;M&#45;array</title>
<path fill="none" stroke="black" d="M383.34,-169.88C383.43,-158.34 383.53,-145.6 383.63,-133.48"/>
<polygon fill="black" stroke="black" points="387.12,-133.65 383.7,-123.62 380.13,-133.59 387.12,-133.65"/>
</g>
</g>
</svg>
