<?xml version="1.0" encoding="UTF-8" standalone="no"?>
<!DOCTYPE svg PUBLIC "-//W3C//DTD SVG 1.1//EN"
 "http://www.w3.org/Graphics/SVG/1.1/DTD/svg11.dtd">
<!-- Generated by graphviz version 12.0.0 (0)
 -->
<!-- Pages: 1 -->
<svg width="605pt" height="511pt"
 viewBox="0.00 0.00 605.00 511.45" xmlns="http://www.w3.org/2000/svg" xmlns:xlink="http://www.w3.org/1999/xlink">
<g id="graph0" class="graph" transform="scale(1 1) rotate(0) translate(4 507.45)">
<polygon fill="white" stroke="none" points="-4,4 -4,-507.45 601,-507.45 601,4 -4,4"/>
<g id="clust1" class="cluster">
<title>clusterprocess (2)</title>
<path fill="none" stroke="black" d="M81,-373.63C81,-373.63 155,-373.63 155,-373.63 161,-373.63 167,-379.63 167,-385.63 167,-385.63 167,-483.45 167,-483.45 167,-489.45 161,-495.45 155,-495.45 155,-495.45 81,-495.45 81,-495.45 75,-495.45 69,-489.45 69,-483.45 69,-483.45 69,-385.63 69,-385.63 69,-379.63 75,-373.63 81,-373.63"/>
<text text-anchor="middle" x="129" y="-380.83" font-family="Times,serif" font-size="14.00">process (2)</text>
</g>
<g id="clust2" class="cluster">
<title>cluster3</title>
<path fill="none" stroke="black" d="M231,-373.63C231,-373.63 391,-373.63 391,-373.63 397,-373.63 403,-379.63 403,-385.63 403,-385.63 403,-483.45 403,-483.45 403,-489.45 397,-495.45 391,-495.45 391,-495.45 231,-495.45 231,-495.45 225,-495.45 219,-489.45 219,-483.45 219,-483.45 219,-385.63 219,-385.63 219,-379.63 225,-373.63 231,-373.63"/>
<text text-anchor="middle" x="391.62" y="-380.83" font-family="Times,serif" font-size="14.00">3</text>
</g>
<g id="clust3" class="cluster">
<title>cluster2 x 2</title>
<path fill="none" stroke="black" d="M201,-255.73C201,-255.73 283,-255.73 283,-255.73 289,-255.73 295,-261.73 295,-267.73 295,-267.73 295,-341.73 295,-341.73 295,-347.73 289,-353.73 283,-353.73 283,-353.73 201,-353.73 201,-353.73 195,-353.73 189,-347.73 189,-341.73 189,-341.73 189,-267.73 189,-267.73 189,-261.73 195,-255.73 201,-255.73"/>
<text text-anchor="middle" x="273.12" y="-262.93" font-family="Times,serif" font-size="14.00">2 x 2</text>
</g>
<g id="clust4" class="cluster">
<title>cluster2</title>
<path fill="none" stroke="black" d="M315,-255.73C315,-255.73 397,-255.73 397,-255.73 403,-255.73 409,-261.73 409,-267.73 409,-267.73 409,-341.73 409,-341.73 409,-347.73 403,-353.73 397,-353.73 397,-353.73 315,-353.73 315,-353.73 309,-353.73 303,-347.73 303,-341.73 303,-341.73 303,-267.73 303,-267.73 303,-261.73 309,-255.73 315,-255.73"/>
<text text-anchor="middle" x="397.62" y="-262.93" font-family="Times,serif" font-size="14.00">2</text>
</g>
<g id="clust5" class="cluster">
<title>clusterprocess (2) x process_bis (2)</title>
<path fill="none" stroke="black" d="M429,-255.73C429,-255.73 577,-255.73 577,-255.73 583,-255.73 589,-261.73 589,-267.73 589,-267.73 589,-341.73 589,-341.73 589,-347.73 583,-353.73 577,-353.73 577,-353.73 429,-353.73 429,-353.73 423,-353.73 417,-347.73 417,-341.73 417,-341.73 417,-267.73 417,-267.73 417,-261.73 423,-255.73 429,-255.73"/>
<text text-anchor="middle" x="502.62" y="-262.93" font-family="Times,serif" font-size="14.00">process (2) x process_bis (2)</text>
</g>
<g id="clust6" class="cluster">
<title>clusterspecies (99) x process (2)</title>
<path fill="none" stroke="black" d="M38,-243.82C38,-243.82 169,-243.82 169,-243.82 175,-243.82 181,-249.82 181,-255.82 181,-255.82 181,-353.63 181,-353.63 181,-359.63 175,-365.63 169,-365.63 169,-365.63 38,-365.63 38,-365.63 32,-365.63 26,-359.63 26,-353.63 26,-353.63 26,-255.82 26,-255.82 26,-249.82 32,-243.82 38,-243.82"/>
<text text-anchor="middle" x="103.25" y="-251.02" font-family="Times,serif" font-size="14.00">species (99) x process (2)</text>
</g>
<g id="clust7" class="cluster">
<title>cluster99 x 1</title>
<path fill="none" stroke="black" d="M20,-137.82C20,-137.82 210,-137.82 210,-137.82 216,-137.82 222,-143.82 222,-149.82 222,-149.82 222,-223.82 222,-223.82 222,-229.82 216,-235.82 210,-235.82 210,-235.82 20,-235.82 20,-235.82 14,-235.82 8,-229.82 8,-223.82 8,-223.82 8,-149.82 8,-149.82 8,-143.82 14,-137.82 20,-137.82"/>
<text text-anchor="middle" x="196.75" y="-145.02" font-family="Times,serif" font-size="14.00">99 x 1</text>
</g>
<g id="clust8" class="cluster">
<title>cluster99 x 50</title>
<path fill="none" stroke="black" d="M49,-8C49,-8 197,-8 197,-8 203,-8 209,-14 209,-20 209,-20 209,-117.82 209,-117.82 209,-123.82 203,-129.82 197,-129.82 197,-129.82 49,-129.82 49,-129.82 43,-129.82 37,-123.82 37,-117.82 37,-117.82 37,-20 37,-20 37,-14 43,-8 49,-8"/>
<text text-anchor="middle" x="180.38" y="-15.2" font-family="Times,serif" font-size="14.00">99 x 50</text>
</g>
<!-- mu -->
<g id="node1" class="node">
<title>mu</title>
<ellipse fill="none" stroke="black" cx="118" cy="-446.79" rx="41.01" ry="40.66"/>
<text text-anchor="middle" x="118" y="-458.24" font-family="Times,serif" font-size="14.00">mu</text>
<text text-anchor="middle" x="118" y="-441.74" font-family="Times,serif" font-size="14.00">~</text>
<text text-anchor="middle" x="118" y="-425.24" font-family="Times,serif" font-size="14.00">Normal</text>
</g>
<!-- ab -->
<g id="node6" class="node">
<title>ab</title>
<ellipse fill="none" stroke="black" cx="118" cy="-316.98" rx="54.8" ry="40.66"/>
<text text-anchor="middle" x="118" y="-328.43" font-family="Times,serif" font-size="14.00">ab</text>
<text text-anchor="middle" x="118" y="-311.93" font-family="Times,serif" font-size="14.00">~</text>
<text text-anchor="middle" x="118" y="-295.43" font-family="Times,serif" font-size="14.00">MvNormal</text>
</g>
<!-- mu&#45;&gt;ab -->
<g id="edge5" class="edge">
<title>mu&#45;&gt;ab</title>
<path fill="none" stroke="black" d="M118,-405.7C118,-394.16 118,-381.41 118,-369.29"/>
<polygon fill="black" stroke="black" points="121.5,-369.44 118,-359.44 114.5,-369.44 121.5,-369.44"/>
</g>
<!-- chol -->
<g id="node2" class="node">
<title>chol</title>
<ellipse fill="none" stroke="black" cx="311" cy="-446.79" rx="84.5" ry="40.66"/>
<text text-anchor="middle" x="311" y="-458.24" font-family="Times,serif" font-size="14.00">chol</text>
<text text-anchor="middle" x="311" y="-441.74" font-family="Times,serif" font-size="14.00">~</text>
<text text-anchor="middle" x="311" y="-425.24" font-family="Times,serif" font-size="14.00">_LKJCholeskyCov</text>
</g>
<!-- chol_corr -->
<g id="node3" class="node">
<title>chol_corr</title>
<polygon fill="none" stroke="black" points="287.12,-345.73 196.88,-345.73 196.88,-288.23 287.12,-288.23 287.12,-345.73"/>
<text text-anchor="middle" x="242" y="-328.43" font-family="Times,serif" font-size="14.00">chol_corr</text>
<text text-anchor="middle" x="242" y="-311.93" font-family="Times,serif" font-size="14.00">~</text>
<text text-anchor="middle" x="242" y="-295.43" font-family="Times,serif" font-size="14.00">Deterministic</text>
</g>
<!-- chol&#45;&gt;chol_corr -->
<g id="edge1" class="edge">
<title>chol&#45;&gt;chol_corr</title>
<path fill="none" stroke="black" d="M290.11,-407.1C281.31,-390.79 271.1,-371.87 262.35,-355.68"/>
<polygon fill="black" stroke="black" points="265.67,-354.46 257.84,-347.32 259.51,-357.78 265.67,-354.46"/>
</g>
<!-- chol_stds -->
<g id="node4" class="node">
<title>chol_stds</title>
<polygon fill="none" stroke="black" points="401.12,-345.73 310.88,-345.73 310.88,-288.23 401.12,-288.23 401.12,-345.73"/>
<text text-anchor="middle" x="356" y="-328.43" font-family="Times,serif" font-size="14.00">chol_stds</text>
<text text-anchor="middle" x="356" y="-311.93" font-family="Times,serif" font-size="14.00">~</text>
<text text-anchor="middle" x="356" y="-295.43" font-family="Times,serif" font-size="14.00">Deterministic</text>
</g>
<!-- chol&#45;&gt;chol_stds -->
<g id="edge2" class="edge">
<title>chol&#45;&gt;chol_stds</title>
<path fill="none" stroke="black" d="M324.87,-406.4C330.45,-390.55 336.87,-372.32 342.42,-356.55"/>
<polygon fill="black" stroke="black" points="345.58,-358.11 345.6,-347.51 338.98,-355.78 345.58,-358.11"/>
</g>
<!-- cov -->
<g id="node5" class="node">
<title>cov</title>
<polygon fill="none" stroke="black" points="515.12,-345.73 424.88,-345.73 424.88,-288.23 515.12,-288.23 515.12,-345.73"/>
<text text-anchor="middle" x="470" y="-328.43" font-family="Times,serif" font-size="14.00">cov</text>
<text text-anchor="middle" x="470" y="-311.93" font-family="Times,serif" font-size="14.00">~</text>
<text text-anchor="middle" x="470" y="-295.43" font-family="Times,serif" font-size="14.00">Deterministic</text>
</g>
<!-- chol&#45;&gt;cov -->
<g id="edge3" class="edge">
<title>chol&#45;&gt;cov</title>
<path fill="none" stroke="black" d="M354.91,-411.76C373,-397.61 394.1,-380.95 413,-365.63 417.94,-361.63 423.1,-357.4 428.2,-353.17"/>
<polygon fill="black" stroke="black" points="430.07,-356.17 435.52,-347.09 425.59,-350.79 430.07,-356.17"/>
</g>
<!-- chol&#45;&gt;ab -->
<g id="edge4" class="edge">
<title>chol&#45;&gt;ab</title>
<path fill="none" stroke="black" d="M259.73,-414.01C236.7,-399.53 209.3,-381.99 185,-365.63 178.79,-361.46 172.32,-356.99 165.95,-352.53"/>
<polygon fill="black" stroke="black" points="168.16,-349.81 157.97,-346.91 164.13,-355.53 168.16,-349.81"/>
</g>
<!-- psi -->
<g id="node7" class="node">
<title>psi</title>
<polygon fill="none" stroke="black" points="106.12,-227.82 15.88,-227.82 15.88,-170.32 106.12,-170.32 106.12,-227.82"/>
<text text-anchor="middle" x="61" y="-210.52" font-family="Times,serif" font-size="14.00">psi</text>
<text text-anchor="middle" x="61" y="-194.02" font-family="Times,serif" font-size="14.00">~</text>
<text text-anchor="middle" x="61" y="-177.52" font-family="Times,serif" font-size="14.00">Deterministic</text>
</g>
<!-- ab&#45;&gt;psi -->
<g id="edge7" class="edge">
<title>ab&#45;&gt;psi</title>
<path fill="none" stroke="black" d="M99.49,-278.34C93.13,-265.41 86.01,-250.93 79.64,-237.97"/>
<polygon fill="black" stroke="black" points="82.94,-236.75 75.39,-229.32 76.66,-239.84 82.94,-236.75"/>
</g>
<!-- p -->
<g id="node8" class="node">
<title>p</title>
<polygon fill="none" stroke="black" points="214.12,-227.82 123.88,-227.82 123.88,-170.32 214.12,-170.32 214.12,-227.82"/>
<text text-anchor="middle" x="169" y="-210.52" font-family="Times,serif" font-size="14.00">p</text>
<text text-anchor="middle" x="169" y="-194.02" font-family="Times,serif" font-size="14.00">~</text>
<text text-anchor="middle" x="169" y="-177.52" font-family="Times,serif" font-size="14.00">Deterministic</text>
</g>
<!-- ab&#45;&gt;p -->
<g id="edge6" class="edge">
<title>ab&#45;&gt;p</title>
<path fill="none" stroke="black" d="M134.7,-278.02C140.28,-265.33 146.51,-251.19 152.1,-238.46"/>
<polygon fill="black" stroke="black" points="155.2,-240.12 156.02,-229.56 148.79,-237.31 155.2,-240.12"/>
</g>
<!-- Y -->
<g id="node9" class="node">
<title>Y</title>
<ellipse fill="lightgrey" stroke="black" cx="123" cy="-81.16" rx="78.14" ry="40.66"/>
<text text-anchor="middle" x="123" y="-92.61" font-family="Times,serif" font-size="14.00">Y</text>
<text text-anchor="middle" x="123" y="-76.11" font-family="Times,serif" font-size="14.00">~</text>
<text text-anchor="middle" x="123" y="-59.61" font-family="Times,serif" font-size="14.00">MarginalMixture</text>
</g>
<!-- psi&#45;&gt;Y -->
<g id="edge8" class="edge">
<title>psi&#45;&gt;Y</title>
<path fill="none" stroke="black" d="M76.01,-170.01C82.35,-158.16 89.92,-144.01 97.11,-130.56"/>
<polygon fill="black" stroke="black" points="100.16,-132.27 101.79,-121.8 93.99,-128.97 100.16,-132.27"/>
</g>
<!-- p&#45;&gt;Y -->
<g id="edge9" class="edge">
<title>p&#45;&gt;Y</title>
<path fill="none" stroke="black" d="M157.86,-170.01C153.29,-158.48 147.86,-144.79 142.65,-131.68"/>
<polygon fill="black" stroke="black" points="146.05,-130.75 139.11,-122.75 139.55,-133.34 146.05,-130.75"/>
</g>
</g>
</svg>
