<?xml version="1.0" encoding="UTF-8" standalone="no"?>
<!DOCTYPE svg PUBLIC "-//W3C//DTD SVG 1.1//EN"
 "http://www.w3.org/Graphics/SVG/1.1/DTD/svg11.dtd">
<!-- Generated by graphviz version 12.2.1 (0)
 -->
<!-- Pages: 1 -->
<svg width="648pt" height="515pt"
 viewBox="0.00 0.00 648.30 515.36" xmlns="http://www.w3.org/2000/svg" xmlns:xlink="http://www.w3.org/1999/xlink">
<g id="graph0" class="graph" transform="scale(1 1) rotate(0) translate(4 511.36)">
<polygon fill="white" stroke="none" points="-4,4 -4,-511.36 644.3,-511.36 644.3,4 -4,4"/>
<g id="clust1" class="cluster">
<title>clusterprocess (2)</title>
<path fill="none" stroke="black" d="M124.3,-377.54C124.3,-377.54 198.3,-377.54 198.3,-377.54 204.3,-377.54 210.3,-383.54 210.3,-389.54 210.3,-389.54 210.3,-487.36 210.3,-487.36 210.3,-493.36 204.3,-499.36 198.3,-499.36 198.3,-499.36 124.3,-499.36 124.3,-499.36 118.3,-499.36 112.3,-493.36 112.3,-487.36 112.3,-487.36 112.3,-389.54 112.3,-389.54 112.3,-383.54 118.3,-377.54 124.3,-377.54"/>
<text text-anchor="middle" x="172.3" y="-384.74" font-family="Times,serif" font-size="14.00">process (2)</text>
</g>
<g id="clust2" class="cluster">
<title>cluster3</title>
<path fill="none" stroke="black" d="M274.3,-377.54C274.3,-377.54 434.3,-377.54 434.3,-377.54 440.3,-377.54 446.3,-383.54 446.3,-389.54 446.3,-389.54 446.3,-487.36 446.3,-487.36 446.3,-493.36 440.3,-499.36 434.3,-499.36 434.3,-499.36 274.3,-499.36 274.3,-499.36 268.3,-499.36 262.3,-493.36 262.3,-487.36 262.3,-487.36 262.3,-389.54 262.3,-389.54 262.3,-383.54 268.3,-377.54 274.3,-377.54"/>
<text text-anchor="middle" x="434.92" y="-384.74" font-family="Times,serif" font-size="14.00">3</text>
</g>
<g id="clust3" class="cluster">
<title>cluster2 x 2</title>
<path fill="none" stroke="black" d="M244.3,-259.63C244.3,-259.63 326.3,-259.63 326.3,-259.63 332.3,-259.63 338.3,-265.63 338.3,-271.63 338.3,-271.63 338.3,-345.63 338.3,-345.63 338.3,-351.63 332.3,-357.63 326.3,-357.63 326.3,-357.63 244.3,-357.63 244.3,-357.63 238.3,-357.63 232.3,-351.63 232.3,-345.63 232.3,-345.63 232.3,-271.63 232.3,-271.63 232.3,-265.63 238.3,-259.63 244.3,-259.63"/>
<text text-anchor="middle" x="316.42" y="-266.83" font-family="Times,serif" font-size="14.00">2 x 2</text>
</g>
<g id="clust4" class="cluster">
<title>cluster2</title>
<path fill="none" stroke="black" d="M358.3,-259.63C358.3,-259.63 440.3,-259.63 440.3,-259.63 446.3,-259.63 452.3,-265.63 452.3,-271.63 452.3,-271.63 452.3,-345.63 452.3,-345.63 452.3,-351.63 446.3,-357.63 440.3,-357.63 440.3,-357.63 358.3,-357.63 358.3,-357.63 352.3,-357.63 346.3,-351.63 346.3,-345.63 346.3,-345.63 346.3,-271.63 346.3,-271.63 346.3,-265.63 352.3,-259.63 358.3,-259.63"/>
<text text-anchor="middle" x="440.92" y="-266.83" font-family="Times,serif" font-size="14.00">2</text>
</g>
<g id="clust5" class="cluster">
<title>clusterprocess (2) x process_bis (2)</title>
<path fill="none" stroke="black" d="M472.3,-259.63C472.3,-259.63 620.3,-259.63 620.3,-259.63 626.3,-259.63 632.3,-265.63 632.3,-271.63 632.3,-271.63 632.3,-345.63 632.3,-345.63 632.3,-351.63 626.3,-357.63 620.3,-357.63 620.3,-357.63 472.3,-357.63 472.3,-357.63 466.3,-357.63 460.3,-351.63 460.3,-345.63 460.3,-345.63 460.3,-271.63 460.3,-271.63 460.3,-265.63 466.3,-259.63 472.3,-259.63"/>
<text text-anchor="middle" x="545.92" y="-266.83" font-family="Times,serif" font-size="14.00">process (2) x process_bis (2)</text>
</g>
<g id="clust6" class="cluster">
<title>clusterspecies_aug (250) x process (2)</title>
<path fill="none" stroke="black" d="M48.3,-247.73C48.3,-247.73 212.3,-247.73 212.3,-247.73 218.3,-247.73 224.3,-253.73 224.3,-259.73 224.3,-259.73 224.3,-357.54 224.3,-357.54 224.3,-363.54 218.3,-369.54 212.3,-369.54 212.3,-369.54 48.3,-369.54 48.3,-369.54 42.3,-369.54 36.3,-363.54 36.3,-357.54 36.3,-357.54 36.3,-259.73 36.3,-259.73 36.3,-253.73 42.3,-247.73 48.3,-247.73"/>
<text text-anchor="middle" x="130.05" y="-254.93" font-family="Times,serif" font-size="14.00">species_aug (250) x process (2)</text>
</g>
<g id="clust7" class="cluster">
<title>cluster250</title>
<path fill="none" stroke="black" d="M96.3,-137.82C96.3,-137.82 286.3,-137.82 286.3,-137.82 292.3,-137.82 298.3,-143.82 298.3,-149.82 298.3,-149.82 298.3,-223.82 298.3,-223.82 298.3,-229.82 292.3,-235.82 286.3,-235.82 286.3,-235.82 96.3,-235.82 96.3,-235.82 90.3,-235.82 84.3,-229.82 84.3,-223.82 84.3,-223.82 84.3,-149.82 84.3,-149.82 84.3,-143.82 90.3,-137.82 96.3,-137.82"/>
<text text-anchor="middle" x="280.17" y="-145.02" font-family="Times,serif" font-size="14.00">250</text>
</g>
<g id="clust8" class="cluster">
<title>cluster250 x 50</title>
<path fill="none" stroke="black" d="M72.3,-8C72.3,-8 202.3,-8 202.3,-8 208.3,-8 214.3,-14 214.3,-20 214.3,-20 214.3,-117.82 214.3,-117.82 214.3,-123.82 208.3,-129.82 202.3,-129.82 202.3,-129.82 72.3,-129.82 72.3,-129.82 66.3,-129.82 60.3,-123.82 60.3,-117.82 60.3,-117.82 60.3,-20 60.3,-20 60.3,-14 66.3,-8 72.3,-8"/>
<text text-anchor="middle" x="182.3" y="-15.2" font-family="Times,serif" font-size="14.00">250 x 50</text>
</g>
<!-- omega -->
<g id="node1" class="node">
<title>omega</title>
<ellipse fill="none" stroke="black" cx="37.3" cy="-199.07" rx="37.3" ry="40.66"/>
<text text-anchor="middle" x="37.3" y="-210.52" font-family="Times,serif" font-size="14.00">omega</text>
<text text-anchor="middle" x="37.3" y="-194.02" font-family="Times,serif" font-size="14.00">~</text>
<text text-anchor="middle" x="37.3" y="-177.52" font-family="Times,serif" font-size="14.00">Beta</text>
</g>
<!-- Y -->
<g id="node10" class="node">
<title>Y</title>
<ellipse fill="lightgrey" stroke="black" cx="137.3" cy="-81.16" rx="69.12" ry="40.66"/>
<text text-anchor="middle" x="137.3" y="-92.61" font-family="Times,serif" font-size="14.00">Y</text>
<text text-anchor="middle" x="137.3" y="-76.11" font-family="Times,serif" font-size="14.00">~</text>
<text text-anchor="middle" x="137.3" y="-59.61" font-family="Times,serif" font-size="14.00">CustomDist_Y</text>
</g>
<!-- omega&#45;&gt;Y -->
<g id="edge10" class="edge">
<title>omega&#45;&gt;Y</title>
<path fill="none" stroke="black" d="M58.82,-165.69C65.39,-156.43 72.86,-146.5 80.3,-137.82 84.24,-133.22 88.49,-128.57 92.85,-124.02"/>
<polygon fill="black" stroke="black" points="95.18,-126.64 99.67,-117.05 90.18,-121.74 95.18,-126.64"/>
</g>
<!-- mu -->
<g id="node2" class="node">
<title>mu</title>
<ellipse fill="none" stroke="black" cx="161.3" cy="-450.7" rx="41.01" ry="40.66"/>
<text text-anchor="middle" x="161.3" y="-462.15" font-family="Times,serif" font-size="14.00">mu</text>
<text text-anchor="middle" x="161.3" y="-445.65" font-family="Times,serif" font-size="14.00">~</text>
<text text-anchor="middle" x="161.3" y="-429.15" font-family="Times,serif" font-size="14.00">Normal</text>
</g>
<!-- ab -->
<g id="node7" class="node">
<title>ab</title>
<ellipse fill="none" stroke="black" cx="161.3" cy="-320.88" rx="54.8" ry="40.66"/>
<text text-anchor="middle" x="161.3" y="-332.33" font-family="Times,serif" font-size="14.00">ab</text>
<text text-anchor="middle" x="161.3" y="-315.83" font-family="Times,serif" font-size="14.00">~</text>
<text text-anchor="middle" x="161.3" y="-299.33" font-family="Times,serif" font-size="14.00">MvNormal</text>
</g>
<!-- mu&#45;&gt;ab -->
<g id="edge4" class="edge">
<title>mu&#45;&gt;ab</title>
<path fill="none" stroke="black" d="M161.3,-409.61C161.3,-398.07 161.3,-385.32 161.3,-373.2"/>
<polygon fill="black" stroke="black" points="164.8,-373.35 161.3,-363.35 157.8,-373.35 164.8,-373.35"/>
</g>
<!-- chol -->
<g id="node3" class="node">
<title>chol</title>
<ellipse fill="none" stroke="black" cx="354.3" cy="-450.7" rx="84.5" ry="40.66"/>
<text text-anchor="middle" x="354.3" y="-462.15" font-family="Times,serif" font-size="14.00">chol</text>
<text text-anchor="middle" x="354.3" y="-445.65" font-family="Times,serif" font-size="14.00">~</text>
<text text-anchor="middle" x="354.3" y="-429.15" font-family="Times,serif" font-size="14.00">_LKJCholeskyCov</text>
</g>
<!-- chol_corr -->
<g id="node4" class="node">
<title>chol_corr</title>
<polygon fill="none" stroke="black" points="330.42,-349.63 240.17,-349.63 240.17,-292.13 330.42,-292.13 330.42,-349.63"/>
<text text-anchor="middle" x="285.3" y="-332.33" font-family="Times,serif" font-size="14.00">chol_corr</text>
<text text-anchor="middle" x="285.3" y="-315.83" font-family="Times,serif" font-size="14.00">~</text>
<text text-anchor="middle" x="285.3" y="-299.33" font-family="Times,serif" font-size="14.00">Deterministic</text>
</g>
<!-- chol&#45;&gt;chol_corr -->
<g id="edge1" class="edge">
<title>chol&#45;&gt;chol_corr</title>
<path fill="none" stroke="black" d="M333.41,-411.01C324.61,-394.7 314.4,-375.78 305.65,-359.58"/>
<polygon fill="black" stroke="black" points="308.97,-358.37 301.14,-351.23 302.81,-361.69 308.97,-358.37"/>
</g>
<!-- chol_stds -->
<g id="node5" class="node">
<title>chol_stds</title>
<polygon fill="none" stroke="black" points="444.42,-349.63 354.17,-349.63 354.17,-292.13 444.42,-292.13 444.42,-349.63"/>
<text text-anchor="middle" x="399.3" y="-332.33" font-family="Times,serif" font-size="14.00">chol_stds</text>
<text text-anchor="middle" x="399.3" y="-315.83" font-family="Times,serif" font-size="14.00">~</text>
<text text-anchor="middle" x="399.3" y="-299.33" font-family="Times,serif" font-size="14.00">Deterministic</text>
</g>
<!-- chol&#45;&gt;chol_stds -->
<g id="edge2" class="edge">
<title>chol&#45;&gt;chol_stds</title>
<path fill="none" stroke="black" d="M368.17,-410.31C373.75,-394.46 380.17,-376.23 385.72,-360.46"/>
<polygon fill="black" stroke="black" points="388.88,-362.02 388.9,-351.42 382.28,-359.69 388.88,-362.02"/>
</g>
<!-- cov -->
<g id="node6" class="node">
<title>cov</title>
<polygon fill="none" stroke="black" points="558.42,-349.63 468.17,-349.63 468.17,-292.13 558.42,-292.13 558.42,-349.63"/>
<text text-anchor="middle" x="513.3" y="-332.33" font-family="Times,serif" font-size="14.00">cov</text>
<text text-anchor="middle" x="513.3" y="-315.83" font-family="Times,serif" font-size="14.00">~</text>
<text text-anchor="middle" x="513.3" y="-299.33" font-family="Times,serif" font-size="14.00">Deterministic</text>
</g>
<!-- chol&#45;&gt;cov -->
<g id="edge3" class="edge">
<title>chol&#45;&gt;cov</title>
<path fill="none" stroke="black" d="M398.21,-415.66C416.3,-401.52 437.4,-384.86 456.3,-369.54 461.24,-365.54 466.4,-361.3 471.5,-357.08"/>
<polygon fill="black" stroke="black" points="473.37,-360.08 478.82,-351 468.89,-354.7 473.37,-360.08"/>
</g>
<!-- chol&#45;&gt;ab -->
<g id="edge5" class="edge">
<title>chol&#45;&gt;ab</title>
<path fill="none" stroke="black" d="M303.03,-417.92C280,-403.44 252.6,-385.9 228.3,-369.54 222.09,-365.37 215.62,-360.9 209.25,-356.44"/>
<polygon fill="black" stroke="black" points="211.46,-353.72 201.27,-350.82 207.43,-359.44 211.46,-353.72"/>
</g>
<!-- psi -->
<g id="node8" class="node">
<title>psi</title>
<polygon fill="none" stroke="black" points="182.42,-227.82 92.17,-227.82 92.17,-170.32 182.42,-170.32 182.42,-227.82"/>
<text text-anchor="middle" x="137.3" y="-210.52" font-family="Times,serif" font-size="14.00">psi</text>
<text text-anchor="middle" x="137.3" y="-194.02" font-family="Times,serif" font-size="14.00">~</text>
<text text-anchor="middle" x="137.3" y="-177.52" font-family="Times,serif" font-size="14.00">Deterministic</text>
</g>
<!-- ab&#45;&gt;psi -->
<g id="edge7" class="edge">
<title>ab&#45;&gt;psi</title>
<path fill="none" stroke="black" d="M153.37,-280.32C150.73,-267.14 147.8,-252.47 145.16,-239.31"/>
<polygon fill="black" stroke="black" points="148.63,-238.82 143.24,-229.7 141.77,-240.19 148.63,-238.82"/>
</g>
<!-- p -->
<g id="node9" class="node">
<title>p</title>
<polygon fill="none" stroke="black" points="290.42,-227.82 200.17,-227.82 200.17,-170.32 290.42,-170.32 290.42,-227.82"/>
<text text-anchor="middle" x="245.3" y="-210.52" font-family="Times,serif" font-size="14.00">p</text>
<text text-anchor="middle" x="245.3" y="-194.02" font-family="Times,serif" font-size="14.00">~</text>
<text text-anchor="middle" x="245.3" y="-177.52" font-family="Times,serif" font-size="14.00">Deterministic</text>
</g>
<!-- ab&#45;&gt;p -->
<g id="edge6" class="edge">
<title>ab&#45;&gt;p</title>
<path fill="none" stroke="black" d="M186.28,-284.26C196.69,-269.41 208.78,-252.16 219.3,-237.15"/>
<polygon fill="black" stroke="black" points="221.87,-239.58 224.75,-229.38 216.14,-235.56 221.87,-239.58"/>
</g>
<!-- psi&#45;&gt;Y -->
<g id="edge8" class="edge">
<title>psi&#45;&gt;Y</title>
<path fill="none" stroke="black" d="M137.3,-170.01C137.3,-159.03 137.3,-146.08 137.3,-133.55"/>
<polygon fill="black" stroke="black" points="140.8,-133.74 137.3,-123.74 133.8,-133.74 140.8,-133.74"/>
</g>
<!-- p&#45;&gt;Y -->
<g id="edge9" class="edge">
<title>p&#45;&gt;Y</title>
<path fill="none" stroke="black" d="M220.52,-169.96C211.42,-159.76 200.98,-148.19 191.3,-137.82 187.44,-133.68 183.39,-129.4 179.32,-125.13"/>
<polygon fill="black" stroke="black" points="182,-122.87 172.55,-118.08 176.95,-127.72 182,-122.87"/>
</g>
</g>
</svg>
