<?xml version="1.0" encoding="UTF-8" standalone="no"?>
<!DOCTYPE svg PUBLIC "-//W3C//DTD SVG 1.1//EN"
 "http://www.w3.org/Graphics/SVG/1.1/DTD/svg11.dtd">
<!-- Generated by graphviz version 13.1.2 (0)
 -->
<!-- Pages: 1 -->
<svg width="630pt" height="511pt"
 viewBox="0.00 0.00 630.00 511.00" xmlns="http://www.w3.org/2000/svg" xmlns:xlink="http://www.w3.org/1999/xlink">
<g id="graph0" class="graph" transform="scale(1 1) rotate(0) translate(4 507.45)">
<polygon fill="white" stroke="none" points="-4,4 -4,-507.45 626,-507.45 626,4 -4,4"/>
<g id="clust1" class="cluster">
<title>clusterprocess (2)</title>
<path fill="none" stroke="black" d="M70,-373.63C70,-373.63 144,-373.63 144,-373.63 150,-373.63 156,-379.63 156,-385.63 156,-385.63 156,-483.45 156,-483.45 156,-489.45 150,-495.45 144,-495.45 144,-495.45 70,-495.45 70,-495.45 64,-495.45 58,-489.45 58,-483.45 58,-483.45 58,-385.63 58,-385.63 58,-379.63 64,-373.63 70,-373.63"/>
<text xml:space="preserve" text-anchor="middle" x="118" y="-380.83" font-family="Times,serif" font-size="14.00">process (2)</text>
</g>
<g id="clust2" class="cluster">
<title>cluster3</title>
<path fill="none" stroke="black" d="M244,-373.63C244,-373.63 404,-373.63 404,-373.63 410,-373.63 416,-379.63 416,-385.63 416,-385.63 416,-483.45 416,-483.45 416,-489.45 410,-495.45 404,-495.45 404,-495.45 244,-495.45 244,-495.45 238,-495.45 232,-489.45 232,-483.45 232,-483.45 232,-385.63 232,-385.63 232,-379.63 238,-373.63 244,-373.63"/>
<text xml:space="preserve" text-anchor="middle" x="404.62" y="-380.83" font-family="Times,serif" font-size="14.00">3</text>
</g>
<g id="clust3" class="cluster">
<title>cluster2 x 2</title>
<path fill="none" stroke="black" d="M226,-255.73C226,-255.73 308,-255.73 308,-255.73 314,-255.73 320,-261.73 320,-267.73 320,-267.73 320,-341.73 320,-341.73 320,-347.73 314,-353.73 308,-353.73 308,-353.73 226,-353.73 226,-353.73 220,-353.73 214,-347.73 214,-341.73 214,-341.73 214,-267.73 214,-267.73 214,-261.73 220,-255.73 226,-255.73"/>
<text xml:space="preserve" text-anchor="middle" x="298.12" y="-262.93" font-family="Times,serif" font-size="14.00">2 x 2</text>
</g>
<g id="clust4" class="cluster">
<title>cluster2</title>
<path fill="none" stroke="black" d="M340,-255.73C340,-255.73 422,-255.73 422,-255.73 428,-255.73 434,-261.73 434,-267.73 434,-267.73 434,-341.73 434,-341.73 434,-347.73 428,-353.73 422,-353.73 422,-353.73 340,-353.73 340,-353.73 334,-353.73 328,-347.73 328,-341.73 328,-341.73 328,-267.73 328,-267.73 328,-261.73 334,-255.73 340,-255.73"/>
<text xml:space="preserve" text-anchor="middle" x="422.62" y="-262.93" font-family="Times,serif" font-size="14.00">2</text>
</g>
<g id="clust5" class="cluster">
<title>clusterprocess (2) x process_bis (2)</title>
<path fill="none" stroke="black" d="M454,-255.73C454,-255.73 602,-255.73 602,-255.73 608,-255.73 614,-261.73 614,-267.73 614,-267.73 614,-341.73 614,-341.73 614,-347.73 608,-353.73 602,-353.73 602,-353.73 454,-353.73 454,-353.73 448,-353.73 442,-347.73 442,-341.73 442,-341.73 442,-267.73 442,-267.73 442,-261.73 448,-255.73 454,-255.73"/>
<text xml:space="preserve" text-anchor="middle" x="527.62" y="-262.93" font-family="Times,serif" font-size="14.00">process (2) x process_bis (2)</text>
</g>
<g id="clust6" class="cluster">
<title>clusterspecies (99) x process (2)</title>
<path fill="none" stroke="black" d="M20,-243.82C20,-243.82 194,-243.82 194,-243.82 200,-243.82 206,-249.82 206,-255.82 206,-255.82 206,-353.63 206,-353.63 206,-359.63 200,-365.63 194,-365.63 194,-365.63 20,-365.63 20,-365.63 14,-365.63 8,-359.63 8,-353.63 8,-353.63 8,-255.82 8,-255.82 8,-249.82 14,-243.82 20,-243.82"/>
<text xml:space="preserve" text-anchor="middle" x="128.25" y="-251.02" font-family="Times,serif" font-size="14.00">species (99) x process (2)</text>
</g>
<g id="clust7" class="cluster">
<title>cluster99 x 1</title>
<path fill="none" stroke="black" d="M27,-137.82C27,-137.82 217,-137.82 217,-137.82 223,-137.82 229,-143.82 229,-149.82 229,-149.82 229,-223.82 229,-223.82 229,-229.82 223,-235.82 217,-235.82 217,-235.82 27,-235.82 27,-235.82 21,-235.82 15,-229.82 15,-223.82 15,-223.82 15,-149.82 15,-149.82 15,-143.82 21,-137.82 27,-137.82"/>
<text xml:space="preserve" text-anchor="middle" x="203.75" y="-145.02" font-family="Times,serif" font-size="14.00">99 x 1</text>
</g>
<g id="clust8" class="cluster">
<title>cluster99 x 50</title>
<path fill="none" stroke="black" d="M83,-8C83,-8 161,-8 161,-8 167,-8 173,-14 173,-20 173,-20 173,-117.82 173,-117.82 173,-123.82 167,-129.82 161,-129.82 161,-129.82 83,-129.82 83,-129.82 77,-129.82 71,-123.82 71,-117.82 71,-117.82 71,-20 71,-20 71,-14 77,-8 83,-8"/>
<text xml:space="preserve" text-anchor="middle" x="144.38" y="-15.2" font-family="Times,serif" font-size="14.00">99 x 50</text>
</g>
<!-- mu -->
<g id="node1" class="node">
<title>mu</title>
<ellipse fill="none" stroke="black" cx="107" cy="-446.79" rx="41.01" ry="40.66"/>
<text xml:space="preserve" text-anchor="middle" x="107" y="-458.24" font-family="Times,serif" font-size="14.00">mu</text>
<text xml:space="preserve" text-anchor="middle" x="107" y="-441.74" font-family="Times,serif" font-size="14.00">~</text>
<text xml:space="preserve" text-anchor="middle" x="107" y="-425.24" font-family="Times,serif" font-size="14.00">Normal</text>
</g>
<!-- ab -->
<g id="node6" class="node">
<title>ab</title>
<ellipse fill="none" stroke="black" cx="107" cy="-316.98" rx="91.39" ry="40.66"/>
<text xml:space="preserve" text-anchor="middle" x="107" y="-328.43" font-family="Times,serif" font-size="14.00">ab</text>
<text xml:space="preserve" text-anchor="middle" x="107" y="-311.93" font-family="Times,serif" font-size="14.00">~</text>
<text xml:space="preserve" text-anchor="middle" x="107" y="-295.43" font-family="Times,serif" font-size="14.00">Multivariate_normal</text>
</g>
<!-- mu&#45;&gt;ab -->
<g id="edge4" class="edge">
<title>mu&#45;&gt;ab</title>
<path fill="none" stroke="black" d="M107,-405.7C107,-394.16 107,-381.41 107,-369.29"/>
<polygon fill="black" stroke="black" points="110.5,-369.44 107,-359.44 103.5,-369.44 110.5,-369.44"/>
</g>
<!-- chol -->
<g id="node2" class="node">
<title>chol</title>
<ellipse fill="none" stroke="black" cx="324" cy="-446.79" rx="84.5" ry="40.66"/>
<text xml:space="preserve" text-anchor="middle" x="324" y="-458.24" font-family="Times,serif" font-size="14.00">chol</text>
<text xml:space="preserve" text-anchor="middle" x="324" y="-441.74" font-family="Times,serif" font-size="14.00">~</text>
<text xml:space="preserve" text-anchor="middle" x="324" y="-425.24" font-family="Times,serif" font-size="14.00">_LKJCholeskyCov</text>
</g>
<!-- chol_corr -->
<g id="node3" class="node">
<title>chol_corr</title>
<polygon fill="none" stroke="black" points="312.12,-345.73 221.88,-345.73 221.88,-288.23 312.12,-288.23 312.12,-345.73"/>
<text xml:space="preserve" text-anchor="middle" x="267" y="-328.43" font-family="Times,serif" font-size="14.00">chol_corr</text>
<text xml:space="preserve" text-anchor="middle" x="267" y="-311.93" font-family="Times,serif" font-size="14.00">~</text>
<text xml:space="preserve" text-anchor="middle" x="267" y="-295.43" font-family="Times,serif" font-size="14.00">Deterministic</text>
</g>
<!-- chol&#45;&gt;chol_corr -->
<g id="edge1" class="edge">
<title>chol&#45;&gt;chol_corr</title>
<path fill="none" stroke="black" d="M306.59,-406.75C299.39,-390.61 291.08,-371.96 283.93,-355.94"/>
<polygon fill="black" stroke="black" points="287.31,-354.93 280.04,-347.22 280.92,-357.78 287.31,-354.93"/>
</g>
<!-- chol_stds -->
<g id="node4" class="node">
<title>chol_stds</title>
<polygon fill="none" stroke="black" points="426.12,-345.73 335.88,-345.73 335.88,-288.23 426.12,-288.23 426.12,-345.73"/>
<text xml:space="preserve" text-anchor="middle" x="381" y="-328.43" font-family="Times,serif" font-size="14.00">chol_stds</text>
<text xml:space="preserve" text-anchor="middle" x="381" y="-311.93" font-family="Times,serif" font-size="14.00">~</text>
<text xml:space="preserve" text-anchor="middle" x="381" y="-295.43" font-family="Times,serif" font-size="14.00">Deterministic</text>
</g>
<!-- chol&#45;&gt;chol_stds -->
<g id="edge2" class="edge">
<title>chol&#45;&gt;chol_stds</title>
<path fill="none" stroke="black" d="M341.41,-406.75C348.61,-390.61 356.92,-371.96 364.07,-355.94"/>
<polygon fill="black" stroke="black" points="367.08,-357.78 367.96,-347.22 360.69,-354.93 367.08,-357.78"/>
</g>
<!-- cov -->
<g id="node5" class="node">
<title>cov</title>
<polygon fill="none" stroke="black" points="540.12,-345.73 449.88,-345.73 449.88,-288.23 540.12,-288.23 540.12,-345.73"/>
<text xml:space="preserve" text-anchor="middle" x="495" y="-328.43" font-family="Times,serif" font-size="14.00">cov</text>
<text xml:space="preserve" text-anchor="middle" x="495" y="-311.93" font-family="Times,serif" font-size="14.00">~</text>
<text xml:space="preserve" text-anchor="middle" x="495" y="-295.43" font-family="Times,serif" font-size="14.00">Deterministic</text>
</g>
<!-- chol&#45;&gt;cov -->
<g id="edge3" class="edge">
<title>chol&#45;&gt;cov</title>
<path fill="none" stroke="black" d="M372.34,-413.13C392.87,-398.92 416.89,-381.84 438,-365.63 443.11,-361.71 448.4,-357.5 453.6,-353.27"/>
<polygon fill="black" stroke="black" points="455.56,-356.19 461.06,-347.13 451.11,-350.79 455.56,-356.19"/>
</g>
<!-- chol&#45;&gt;ab -->
<g id="edge5" class="edge">
<title>chol&#45;&gt;ab</title>
<path fill="none" stroke="black" d="M271.19,-414.69C240.95,-396.88 202.79,-374.4 170.87,-355.6"/>
<polygon fill="black" stroke="black" points="172.87,-352.72 162.48,-350.66 169.32,-358.75 172.87,-352.72"/>
</g>
<!-- p -->
<g id="node7" class="node">
<title>p</title>
<polygon fill="none" stroke="black" points="113.12,-227.82 22.88,-227.82 22.88,-170.32 113.12,-170.32 113.12,-227.82"/>
<text xml:space="preserve" text-anchor="middle" x="68" y="-210.52" font-family="Times,serif" font-size="14.00">p</text>
<text xml:space="preserve" text-anchor="middle" x="68" y="-194.02" font-family="Times,serif" font-size="14.00">~</text>
<text xml:space="preserve" text-anchor="middle" x="68" y="-177.52" font-family="Times,serif" font-size="14.00">Deterministic</text>
</g>
<!-- ab&#45;&gt;p -->
<g id="edge6" class="edge">
<title>ab&#45;&gt;p</title>
<path fill="none" stroke="black" d="M93.69,-276.41C89.6,-264.26 85.11,-250.91 81.04,-238.81"/>
<polygon fill="black" stroke="black" points="84.43,-237.92 77.92,-229.56 77.8,-240.16 84.43,-237.92"/>
</g>
<!-- psi -->
<g id="node8" class="node">
<title>psi</title>
<polygon fill="none" stroke="black" points="221.12,-227.82 130.88,-227.82 130.88,-170.32 221.12,-170.32 221.12,-227.82"/>
<text xml:space="preserve" text-anchor="middle" x="176" y="-210.52" font-family="Times,serif" font-size="14.00">psi</text>
<text xml:space="preserve" text-anchor="middle" x="176" y="-194.02" font-family="Times,serif" font-size="14.00">~</text>
<text xml:space="preserve" text-anchor="middle" x="176" y="-177.52" font-family="Times,serif" font-size="14.00">Deterministic</text>
</g>
<!-- ab&#45;&gt;psi -->
<g id="edge7" class="edge">
<title>ab&#45;&gt;psi</title>
<path fill="none" stroke="black" d="M129.98,-277.38C137.52,-264.7 145.9,-250.62 153.42,-238"/>
<polygon fill="black" stroke="black" points="156.35,-239.92 158.46,-229.53 150.34,-236.33 156.35,-239.92"/>
</g>
<!-- Y -->
<g id="node9" class="node">
<title>Y</title>
<ellipse fill="lightgrey" stroke="black" cx="122" cy="-81.16" rx="42.6" ry="40.66"/>
<text xml:space="preserve" text-anchor="middle" x="122" y="-92.61" font-family="Times,serif" font-size="14.00">Y</text>
<text xml:space="preserve" text-anchor="middle" x="122" y="-76.11" font-family="Times,serif" font-size="14.00">~</text>
<text xml:space="preserve" text-anchor="middle" x="122" y="-59.61" font-family="Times,serif" font-size="14.00">Mixture</text>
</g>
<!-- p&#45;&gt;Y -->
<g id="edge8" class="edge">
<title>p&#45;&gt;Y</title>
<path fill="none" stroke="black" d="M81.07,-170.01C86.79,-157.73 93.66,-142.98 100.13,-129.11"/>
<polygon fill="black" stroke="black" points="103.27,-130.64 104.32,-120.1 96.93,-127.69 103.27,-130.64"/>
</g>
<!-- psi&#45;&gt;Y -->
<g id="edge9" class="edge">
<title>psi&#45;&gt;Y</title>
<path fill="none" stroke="black" d="M162.93,-170.01C157.21,-157.73 150.34,-142.98 143.87,-129.11"/>
<polygon fill="black" stroke="black" points="147.07,-127.69 139.68,-120.1 140.73,-130.64 147.07,-127.69"/>
</g>
</g>
</svg>
