<?xml version="1.0" encoding="UTF-8" standalone="no"?>
<!DOCTYPE svg PUBLIC "-//W3C//DTD SVG 1.1//EN"
 "http://www.w3.org/Graphics/SVG/1.1/DTD/svg11.dtd">
<!-- Generated by graphviz version 13.1.2 (0)
 -->
<!-- Pages: 1 -->
<svg width="671pt" height="515pt"
 viewBox="0.00 0.00 671.00 515.00" xmlns="http://www.w3.org/2000/svg" xmlns:xlink="http://www.w3.org/1999/xlink">
<g id="graph0" class="graph" transform="scale(1 1) rotate(0) translate(4 511.36)">
<polygon fill="white" stroke="none" points="-4,4 -4,-511.36 667.3,-511.36 667.3,4 -4,4"/>
<g id="clust1" class="cluster">
<title>clusterprocess (2)</title>
<path fill="none" stroke="black" d="M111.3,-377.54C111.3,-377.54 185.3,-377.54 185.3,-377.54 191.3,-377.54 197.3,-383.54 197.3,-389.54 197.3,-389.54 197.3,-487.36 197.3,-487.36 197.3,-493.36 191.3,-499.36 185.3,-499.36 185.3,-499.36 111.3,-499.36 111.3,-499.36 105.3,-499.36 99.3,-493.36 99.3,-487.36 99.3,-487.36 99.3,-389.54 99.3,-389.54 99.3,-383.54 105.3,-377.54 111.3,-377.54"/>
<text xml:space="preserve" text-anchor="middle" x="159.3" y="-384.74" font-family="Times,serif" font-size="14.00">process (2)</text>
</g>
<g id="clust2" class="cluster">
<title>cluster3</title>
<path fill="none" stroke="black" d="M285.3,-377.54C285.3,-377.54 445.3,-377.54 445.3,-377.54 451.3,-377.54 457.3,-383.54 457.3,-389.54 457.3,-389.54 457.3,-487.36 457.3,-487.36 457.3,-493.36 451.3,-499.36 445.3,-499.36 445.3,-499.36 285.3,-499.36 285.3,-499.36 279.3,-499.36 273.3,-493.36 273.3,-487.36 273.3,-487.36 273.3,-389.54 273.3,-389.54 273.3,-383.54 279.3,-377.54 285.3,-377.54"/>
<text xml:space="preserve" text-anchor="middle" x="445.92" y="-384.74" font-family="Times,serif" font-size="14.00">3</text>
</g>
<g id="clust3" class="cluster">
<title>cluster2 x 2</title>
<path fill="none" stroke="black" d="M267.3,-259.63C267.3,-259.63 349.3,-259.63 349.3,-259.63 355.3,-259.63 361.3,-265.63 361.3,-271.63 361.3,-271.63 361.3,-345.63 361.3,-345.63 361.3,-351.63 355.3,-357.63 349.3,-357.63 349.3,-357.63 267.3,-357.63 267.3,-357.63 261.3,-357.63 255.3,-351.63 255.3,-345.63 255.3,-345.63 255.3,-271.63 255.3,-271.63 255.3,-265.63 261.3,-259.63 267.3,-259.63"/>
<text xml:space="preserve" text-anchor="middle" x="339.42" y="-266.83" font-family="Times,serif" font-size="14.00">2 x 2</text>
</g>
<g id="clust4" class="cluster">
<title>cluster2</title>
<path fill="none" stroke="black" d="M381.3,-259.63C381.3,-259.63 463.3,-259.63 463.3,-259.63 469.3,-259.63 475.3,-265.63 475.3,-271.63 475.3,-271.63 475.3,-345.63 475.3,-345.63 475.3,-351.63 469.3,-357.63 463.3,-357.63 463.3,-357.63 381.3,-357.63 381.3,-357.63 375.3,-357.63 369.3,-351.63 369.3,-345.63 369.3,-345.63 369.3,-271.63 369.3,-271.63 369.3,-265.63 375.3,-259.63 381.3,-259.63"/>
<text xml:space="preserve" text-anchor="middle" x="463.92" y="-266.83" font-family="Times,serif" font-size="14.00">2</text>
</g>
<g id="clust5" class="cluster">
<title>clusterprocess (2) x process_bis (2)</title>
<path fill="none" stroke="black" d="M495.3,-259.63C495.3,-259.63 643.3,-259.63 643.3,-259.63 649.3,-259.63 655.3,-265.63 655.3,-271.63 655.3,-271.63 655.3,-345.63 655.3,-345.63 655.3,-351.63 649.3,-357.63 643.3,-357.63 643.3,-357.63 495.3,-357.63 495.3,-357.63 489.3,-357.63 483.3,-351.63 483.3,-345.63 483.3,-345.63 483.3,-271.63 483.3,-271.63 483.3,-265.63 489.3,-259.63 495.3,-259.63"/>
<text xml:space="preserve" text-anchor="middle" x="568.92" y="-266.83" font-family="Times,serif" font-size="14.00">process (2) x process_bis (2)</text>
</g>
<g id="clust6" class="cluster">
<title>clusterspecies_aug (250) x process (2)</title>
<path fill="none" stroke="black" d="M61.3,-247.73C61.3,-247.73 235.3,-247.73 235.3,-247.73 241.3,-247.73 247.3,-253.73 247.3,-259.73 247.3,-259.73 247.3,-357.54 247.3,-357.54 247.3,-363.54 241.3,-369.54 235.3,-369.54 235.3,-369.54 61.3,-369.54 61.3,-369.54 55.3,-369.54 49.3,-363.54 49.3,-357.54 49.3,-357.54 49.3,-259.73 49.3,-259.73 49.3,-253.73 55.3,-247.73 61.3,-247.73"/>
<text xml:space="preserve" text-anchor="middle" x="153.05" y="-254.93" font-family="Times,serif" font-size="14.00">species_aug (250) x process (2)</text>
</g>
<g id="clust7" class="cluster">
<title>cluster250</title>
<path fill="none" stroke="black" d="M96.3,-137.82C96.3,-137.82 286.3,-137.82 286.3,-137.82 292.3,-137.82 298.3,-143.82 298.3,-149.82 298.3,-149.82 298.3,-223.82 298.3,-223.82 298.3,-229.82 292.3,-235.82 286.3,-235.82 286.3,-235.82 96.3,-235.82 96.3,-235.82 90.3,-235.82 84.3,-229.82 84.3,-223.82 84.3,-223.82 84.3,-149.82 84.3,-149.82 84.3,-143.82 90.3,-137.82 96.3,-137.82"/>
<text xml:space="preserve" text-anchor="middle" x="280.17" y="-145.02" font-family="Times,serif" font-size="14.00">250</text>
</g>
<g id="clust8" class="cluster">
<title>cluster250 x 50 x 1 x 1</title>
<path fill="none" stroke="black" d="M72.3,-8C72.3,-8 202.3,-8 202.3,-8 208.3,-8 214.3,-14 214.3,-20 214.3,-20 214.3,-117.82 214.3,-117.82 214.3,-123.82 208.3,-129.82 202.3,-129.82 202.3,-129.82 72.3,-129.82 72.3,-129.82 66.3,-129.82 60.3,-123.82 60.3,-117.82 60.3,-117.82 60.3,-20 60.3,-20 60.3,-14 66.3,-8 72.3,-8"/>
<text xml:space="preserve" text-anchor="middle" x="161.3" y="-15.2" font-family="Times,serif" font-size="14.00">250 x 50 x 1 x 1</text>
</g>
<!-- omega -->
<g id="node1" class="node">
<title>omega</title>
<ellipse fill="none" stroke="black" cx="37.3" cy="-199.07" rx="37.3" ry="40.66"/>
<text xml:space="preserve" text-anchor="middle" x="37.3" y="-210.52" font-family="Times,serif" font-size="14.00">omega</text>
<text xml:space="preserve" text-anchor="middle" x="37.3" y="-194.02" font-family="Times,serif" font-size="14.00">~</text>
<text xml:space="preserve" text-anchor="middle" x="37.3" y="-177.52" font-family="Times,serif" font-size="14.00">Beta</text>
</g>
<!-- Y -->
<g id="node10" class="node">
<title>Y</title>
<ellipse fill="lightgrey" stroke="black" cx="137.3" cy="-81.16" rx="69.12" ry="40.66"/>
<text xml:space="preserve" text-anchor="middle" x="137.3" y="-92.61" font-family="Times,serif" font-size="14.00">Y</text>
<text xml:space="preserve" text-anchor="middle" x="137.3" y="-76.11" font-family="Times,serif" font-size="14.00">~</text>
<text xml:space="preserve" text-anchor="middle" x="137.3" y="-59.61" font-family="Times,serif" font-size="14.00">CustomDist_Y</text>
</g>
<!-- omega&#45;&gt;Y -->
<g id="edge9" class="edge">
<title>omega&#45;&gt;Y</title>
<path fill="none" stroke="black" d="M58.82,-165.69C65.39,-156.43 72.86,-146.5 80.3,-137.82 84.24,-133.22 88.49,-128.57 92.85,-124.02"/>
<polygon fill="black" stroke="black" points="95.18,-126.64 99.67,-117.05 90.18,-121.74 95.18,-126.64"/>
</g>
<!-- mu -->
<g id="node2" class="node">
<title>mu</title>
<ellipse fill="none" stroke="black" cx="148.3" cy="-450.7" rx="41.01" ry="40.66"/>
<text xml:space="preserve" text-anchor="middle" x="148.3" y="-462.15" font-family="Times,serif" font-size="14.00">mu</text>
<text xml:space="preserve" text-anchor="middle" x="148.3" y="-445.65" font-family="Times,serif" font-size="14.00">~</text>
<text xml:space="preserve" text-anchor="middle" x="148.3" y="-429.15" font-family="Times,serif" font-size="14.00">Normal</text>
</g>
<!-- ab -->
<g id="node7" class="node">
<title>ab</title>
<ellipse fill="none" stroke="black" cx="148.3" cy="-320.88" rx="91.39" ry="40.66"/>
<text xml:space="preserve" text-anchor="middle" x="148.3" y="-332.33" font-family="Times,serif" font-size="14.00">ab</text>
<text xml:space="preserve" text-anchor="middle" x="148.3" y="-315.83" font-family="Times,serif" font-size="14.00">~</text>
<text xml:space="preserve" text-anchor="middle" x="148.3" y="-299.33" font-family="Times,serif" font-size="14.00">Multivariate_normal</text>
</g>
<!-- mu&#45;&gt;ab -->
<g id="edge4" class="edge">
<title>mu&#45;&gt;ab</title>
<path fill="none" stroke="black" d="M148.3,-409.61C148.3,-398.07 148.3,-385.32 148.3,-373.2"/>
<polygon fill="black" stroke="black" points="151.8,-373.35 148.3,-363.35 144.8,-373.35 151.8,-373.35"/>
</g>
<!-- chol -->
<g id="node3" class="node">
<title>chol</title>
<ellipse fill="none" stroke="black" cx="365.3" cy="-450.7" rx="84.5" ry="40.66"/>
<text xml:space="preserve" text-anchor="middle" x="365.3" y="-462.15" font-family="Times,serif" font-size="14.00">chol</text>
<text xml:space="preserve" text-anchor="middle" x="365.3" y="-445.65" font-family="Times,serif" font-size="14.00">~</text>
<text xml:space="preserve" text-anchor="middle" x="365.3" y="-429.15" font-family="Times,serif" font-size="14.00">_LKJCholeskyCov</text>
</g>
<!-- chol_corr -->
<g id="node4" class="node">
<title>chol_corr</title>
<polygon fill="none" stroke="black" points="353.42,-349.63 263.17,-349.63 263.17,-292.13 353.42,-292.13 353.42,-349.63"/>
<text xml:space="preserve" text-anchor="middle" x="308.3" y="-332.33" font-family="Times,serif" font-size="14.00">chol_corr</text>
<text xml:space="preserve" text-anchor="middle" x="308.3" y="-315.83" font-family="Times,serif" font-size="14.00">~</text>
<text xml:space="preserve" text-anchor="middle" x="308.3" y="-299.33" font-family="Times,serif" font-size="14.00">Deterministic</text>
</g>
<!-- chol&#45;&gt;chol_corr -->
<g id="edge1" class="edge">
<title>chol&#45;&gt;chol_corr</title>
<path fill="none" stroke="black" d="M347.89,-410.66C340.69,-394.52 332.38,-375.87 325.23,-359.85"/>
<polygon fill="black" stroke="black" points="328.61,-358.84 321.34,-351.13 322.22,-361.69 328.61,-358.84"/>
</g>
<!-- chol_stds -->
<g id="node5" class="node">
<title>chol_stds</title>
<polygon fill="none" stroke="black" points="467.42,-349.63 377.17,-349.63 377.17,-292.13 467.42,-292.13 467.42,-349.63"/>
<text xml:space="preserve" text-anchor="middle" x="422.3" y="-332.33" font-family="Times,serif" font-size="14.00">chol_stds</text>
<text xml:space="preserve" text-anchor="middle" x="422.3" y="-315.83" font-family="Times,serif" font-size="14.00">~</text>
<text xml:space="preserve" text-anchor="middle" x="422.3" y="-299.33" font-family="Times,serif" font-size="14.00">Deterministic</text>
</g>
<!-- chol&#45;&gt;chol_stds -->
<g id="edge2" class="edge">
<title>chol&#45;&gt;chol_stds</title>
<path fill="none" stroke="black" d="M382.71,-410.66C389.91,-394.52 398.22,-375.87 405.37,-359.85"/>
<polygon fill="black" stroke="black" points="408.38,-361.69 409.26,-351.13 401.99,-358.84 408.38,-361.69"/>
</g>
<!-- cov -->
<g id="node6" class="node">
<title>cov</title>
<polygon fill="none" stroke="black" points="581.42,-349.63 491.17,-349.63 491.17,-292.13 581.42,-292.13 581.42,-349.63"/>
<text xml:space="preserve" text-anchor="middle" x="536.3" y="-332.33" font-family="Times,serif" font-size="14.00">cov</text>
<text xml:space="preserve" text-anchor="middle" x="536.3" y="-315.83" font-family="Times,serif" font-size="14.00">~</text>
<text xml:space="preserve" text-anchor="middle" x="536.3" y="-299.33" font-family="Times,serif" font-size="14.00">Deterministic</text>
</g>
<!-- chol&#45;&gt;cov -->
<g id="edge3" class="edge">
<title>chol&#45;&gt;cov</title>
<path fill="none" stroke="black" d="M413.64,-417.04C434.17,-402.83 458.19,-385.75 479.3,-369.54 484.41,-365.62 489.7,-361.41 494.9,-357.18"/>
<polygon fill="black" stroke="black" points="496.86,-360.1 502.36,-351.04 492.41,-354.7 496.86,-360.1"/>
</g>
<!-- chol&#45;&gt;ab -->
<g id="edge5" class="edge">
<title>chol&#45;&gt;ab</title>
<path fill="none" stroke="black" d="M312.49,-418.6C282.25,-400.78 244.09,-378.31 212.17,-359.5"/>
<polygon fill="black" stroke="black" points="214.17,-356.62 203.78,-354.56 210.62,-362.66 214.17,-356.62"/>
</g>
<!-- p -->
<g id="node8" class="node">
<title>p</title>
<polygon fill="none" stroke="black" points="182.42,-227.82 92.17,-227.82 92.17,-170.32 182.42,-170.32 182.42,-227.82"/>
<text xml:space="preserve" text-anchor="middle" x="137.3" y="-210.52" font-family="Times,serif" font-size="14.00">p</text>
<text xml:space="preserve" text-anchor="middle" x="137.3" y="-194.02" font-family="Times,serif" font-size="14.00">~</text>
<text xml:space="preserve" text-anchor="middle" x="137.3" y="-177.52" font-family="Times,serif" font-size="14.00">Deterministic</text>
</g>
<!-- ab&#45;&gt;p -->
<g id="edge6" class="edge">
<title>ab&#45;&gt;p</title>
<path fill="none" stroke="black" d="M144.64,-279.99C143.44,-266.96 142.11,-252.5 140.92,-239.5"/>
<polygon fill="black" stroke="black" points="144.41,-239.21 140.01,-229.57 137.44,-239.85 144.41,-239.21"/>
</g>
<!-- psi -->
<g id="node9" class="node">
<title>psi</title>
<polygon fill="none" stroke="black" points="290.42,-227.82 200.17,-227.82 200.17,-170.32 290.42,-170.32 290.42,-227.82"/>
<text xml:space="preserve" text-anchor="middle" x="245.3" y="-210.52" font-family="Times,serif" font-size="14.00">psi</text>
<text xml:space="preserve" text-anchor="middle" x="245.3" y="-194.02" font-family="Times,serif" font-size="14.00">~</text>
<text xml:space="preserve" text-anchor="middle" x="245.3" y="-177.52" font-family="Times,serif" font-size="14.00">Deterministic</text>
</g>
<!-- ab&#45;&gt;psi -->
<g id="edge7" class="edge">
<title>ab&#45;&gt;psi</title>
<path fill="none" stroke="black" d="M178.73,-282.3C190.5,-267.75 203.94,-251.15 215.65,-236.7"/>
<polygon fill="black" stroke="black" points="218.16,-239.16 221.73,-229.18 212.72,-234.75 218.16,-239.16"/>
</g>
<!-- p&#45;&gt;Y -->
<g id="edge8" class="edge">
<title>p&#45;&gt;Y</title>
<path fill="none" stroke="black" d="M137.3,-170.01C137.3,-159.03 137.3,-146.08 137.3,-133.55"/>
<polygon fill="black" stroke="black" points="140.8,-133.74 137.3,-123.74 133.8,-133.74 140.8,-133.74"/>
</g>
<!-- psi&#45;&gt;Y -->
<g id="edge10" class="edge">
<title>psi&#45;&gt;Y</title>
<path fill="none" stroke="black" d="M220.52,-169.96C211.42,-159.76 200.98,-148.19 191.3,-137.82 187.44,-133.68 183.39,-129.4 179.32,-125.13"/>
<polygon fill="black" stroke="black" points="182,-122.87 172.55,-118.08 176.95,-127.72 182,-122.87"/>
</g>
</g>
</svg>
